<svg width="78" height="73" viewBox="0 0 78 73" fill="none" xmlns="http://www.w3.org/2000/svg">
<path d="M35.0313 72.6998C31.2194 72.594 27.4546 71.8297 23.9033 70.4408C20.2758 69.0973 16.924 67.1034 14.0123 64.5568C10.9968 62.1841 8.31766 59.4127 6.04828 56.3188C3.72344 53.2076 1.93574 49.7292 0.759277 46.0278C0.185017 43.4634 -0.0426794 40.8336 0.0822773 38.2088C0.0822773 37.5618 0.0822777 36.9188 0.0762777 36.2838L0.0672779 35.7448C-0.14335 32.5221 0.141289 29.2862 0.911278 26.1498C2.05799 22.3847 3.61676 18.7578 5.55928 15.3348C7.59899 11.8627 10.3121 8.83335 13.5393 6.42476C16.6675 3.92675 20.2667 2.08414 24.1223 1.00676C27.8048 0.0535597 31.6293 -0.225936 35.4113 0.181764C35.4813 0.187764 42.3173 0.865764 44.7983 2.08176C46.4743 2.58176 48.1523 3.07576 49.8383 3.54476C57.0083 5.54476 65.0793 8.20976 70.1283 14.6348C75.099 21.1185 77.5253 29.1972 76.9493 37.3468C76.7336 41.2271 75.8338 45.0387 74.2913 48.6058C72.4875 52.4738 69.9899 55.9784 66.9223 58.9458C63.9618 61.8721 60.651 64.4214 57.0653 66.5358C53.6521 68.7171 49.9152 70.3446 45.9933 71.3578C42.436 72.2069 38.7952 72.657 35.1383 72.6998H35.0313ZM31.9113 3.01476C25.8936 2.94313 20.0422 4.98904 15.3803 8.79476C12.471 10.9563 10.0217 13.676 8.17528 16.7948C6.34204 20.023 4.8708 23.4437 3.78828 26.9948C3.10712 29.8413 2.86332 32.7749 3.06528 35.6948L3.07428 36.2378C3.08428 36.8908 3.08228 37.5528 3.08028 38.2178C2.96676 40.5753 3.16141 42.9376 3.65928 45.2448C4.75388 48.6171 6.39874 51.7852 8.52728 54.6208C10.6455 57.4879 13.1403 60.0566 15.9443 62.2578C18.5848 64.5733 21.6251 66.3883 24.9163 67.6138C28.1781 68.8818 31.6315 69.5871 35.1293 69.6998C38.5589 69.658 41.9733 69.2347 45.3093 68.4378C48.9267 67.4945 52.3724 65.9859 55.5193 63.9678C58.8949 61.9794 62.0121 59.5819 64.8003 56.8298C67.6102 54.1187 69.9003 50.9163 71.5573 47.3808C72.9546 44.1365 73.7678 40.6709 73.9593 37.1438C74.4827 29.7347 72.2775 22.3901 67.7593 16.4948C63.2723 10.7838 55.7353 8.31176 49.0243 6.44276C47.2773 5.95576 45.5383 5.44276 43.7983 4.92376C43.6983 4.89441 43.6018 4.85452 43.5103 4.80476C42.3343 4.16476 37.8343 3.42176 35.1263 3.17076C34.0223 3.0681 32.9506 3.0161 31.9113 3.01476Z" fill="white"/>
<path d="M35.9993 68.0948C35.6014 68.0948 35.2199 67.9367 34.9386 67.6554C34.6573 67.3741 34.4993 66.9926 34.4993 66.5948L34.4913 62.6498L37.4913 62.6348H35.9913L37.4913 62.6408L37.4993 66.5948C37.4993 66.9926 37.3412 67.3741 37.0599 67.6554C36.7786 67.9367 36.3971 68.0948 35.9993 68.0948Z" fill="white"/>
<path d="M67.0193 39.4537C66.6215 39.4537 66.2399 39.2957 65.9586 39.0144C65.6773 38.7331 65.5193 38.3516 65.5193 37.9537C65.5193 37.5559 65.6773 37.1744 65.9586 36.8931C66.2399 36.6118 66.6215 36.4537 67.0193 36.4537H70.7343C71.1321 36.4537 71.5136 36.6118 71.7949 36.8931C72.0762 37.1744 72.2343 37.5559 72.2343 37.9537C72.2343 38.3516 72.0762 38.7331 71.7949 39.0144C71.5136 39.2957 71.1321 39.4537 70.7343 39.4537H67.0193Z" fill="white"/>
<path d="M35.2283 12.3517H35.1823C34.7847 12.3397 34.4083 12.1703 34.1356 11.8808C33.8629 11.5912 33.7164 11.2053 33.7283 10.8077L33.8593 6.97274C33.8715 6.57492 34.0412 6.19823 34.3311 5.92555C34.6211 5.65288 35.0074 5.50654 35.4053 5.51874C35.8031 5.53094 36.1798 5.70068 36.4525 5.99061C36.7251 6.28054 36.8715 6.66692 36.8593 7.06474L36.7263 10.8947C36.7151 11.2847 36.5524 11.655 36.2727 11.927C35.9931 12.199 35.6184 12.3514 35.2283 12.3517Z" fill="white"/>
<path d="M10.3592 38.8117H10.3152L6.51523 38.7117C6.11741 38.7066 5.73793 38.5436 5.46029 38.2586C5.18264 37.9736 5.02956 37.5901 5.03473 37.1922C5.03991 36.7944 5.2029 36.4149 5.48786 36.1373C5.77282 35.8596 6.15641 35.7066 6.55423 35.7117H6.59523L10.4042 35.8117C10.8021 35.8173 11.1814 35.9807 11.4587 36.2659C11.7361 36.5512 11.8888 36.9349 11.8832 37.3327C11.8777 37.7306 11.7143 38.1099 11.429 38.3872C11.1438 38.6646 10.7601 38.8173 10.3622 38.8117H10.3592Z" fill="white"/>
<path d="M20.6293 12.8697C20.2949 12.8783 19.9662 12.7823 19.6889 12.5953C19.4116 12.4082 19.1995 12.1393 19.0822 11.826C18.965 11.5128 18.9483 11.1707 19.0346 10.8476C19.1208 10.5244 19.3057 10.2361 19.5635 10.023C19.8213 9.80985 20.1392 9.6824 20.4728 9.65841C20.8065 9.63442 21.1393 9.71506 21.4249 9.88912C21.7106 10.0632 21.9348 10.322 22.0664 10.6295C22.1981 10.937 22.2305 11.2779 22.1593 11.6047C22.0719 11.9293 21.8992 12.2245 21.6593 12.4597C21.3813 12.7236 21.0125 12.8704 20.6293 12.8697Z" fill="white"/>
<path d="M9.76726 24.4457C9.43275 24.4539 9.10402 24.3575 8.82683 24.1701C8.54964 23.9826 8.33779 23.7134 8.22076 23.4C8.10373 23.0865 8.08734 22.7443 8.17388 22.4211C8.26042 22.0979 8.44558 21.8096 8.70359 21.5966C8.96159 21.3835 9.27961 21.2562 9.61337 21.2323C9.94713 21.2084 10.28 21.2892 10.5657 21.4634C10.8514 21.6376 11.0757 21.8965 11.2074 22.2042C11.339 22.5118 11.3715 22.8528 11.3003 23.1797C11.2153 23.4983 11.0472 23.7885 10.8133 24.0207C10.5333 24.2932 10.158 24.4457 9.76726 24.4457Z" fill="white"/>
<path d="M52.2353 13.4077C51.8697 13.3989 51.5182 13.2647 51.2397 13.0276C50.9613 12.7905 50.7728 12.4649 50.7058 12.1054C50.6388 11.7458 50.6974 11.3742 50.8717 11.0527C51.0461 10.7313 51.3257 10.4795 51.6636 10.3395C52.0015 10.1996 52.3772 10.1801 52.7278 10.2842C53.0784 10.3883 53.3825 10.6097 53.5893 10.9113C53.7961 11.213 53.893 11.5765 53.8636 11.9411C53.8343 12.3056 53.6806 12.649 53.4283 12.9137C53.1986 13.1277 52.9191 13.281 52.6153 13.3597C52.4911 13.3918 52.3635 13.4079 52.2353 13.4077Z" fill="white"/>
<path d="M67.5913 27.0097C67.2354 27.0096 66.8912 26.883 66.6201 26.6525C66.3489 26.422 66.1686 26.1026 66.1113 25.7514C66.0539 25.4002 66.1233 25.04 66.3071 24.7353C66.4908 24.4305 66.7769 24.201 67.1143 24.0877L67.2653 24.0367C67.452 23.974 67.6493 23.9487 67.8458 23.9623C68.0423 23.9758 68.2343 24.0279 68.4106 24.1156C68.587 24.2033 68.7444 24.3249 68.8738 24.4734C69.0032 24.6219 69.1021 24.7945 69.1648 24.9812C69.2275 25.168 69.2528 25.3652 69.2393 25.5618C69.2257 25.7583 69.1736 25.9502 69.0859 26.1266C68.9982 26.303 68.8766 26.4604 68.7281 26.5898C68.5796 26.7192 68.407 26.818 68.2203 26.8807L68.0693 26.9317C67.9153 26.984 67.7538 27.0103 67.5913 27.0097Z" fill="white"/>
<path d="M65.9673 53.7188C65.7032 53.7187 65.4438 53.6489 65.2154 53.5165C64.9869 53.3841 64.7975 53.1937 64.6662 52.9646C64.5349 52.7355 64.4664 52.4758 64.4677 52.2117C64.4689 51.9477 64.5398 51.6886 64.6733 51.4608L64.8883 51.0938C65.0893 50.7503 65.4185 50.5008 65.8035 50.4001C66.1886 50.2994 66.5978 50.3557 66.9413 50.5568C67.2847 50.7578 67.5342 51.087 67.6349 51.472C67.7357 51.8571 67.6793 52.2663 67.4783 52.6098L67.2633 52.9768C67.1309 53.2029 66.9415 53.3903 66.7142 53.5205C66.4868 53.6507 66.2293 53.719 65.9673 53.7188Z" fill="white"/>
<path d="M50.9432 65.4847C50.5535 65.47 50.18 65.3253 49.882 65.0738C49.584 64.8222 49.3787 64.4783 49.2987 64.0966C49.2187 63.7149 49.2686 63.3174 49.4405 62.9674C49.6124 62.6174 49.8964 62.3349 50.2474 62.1649C50.5984 61.9948 50.9961 61.9471 51.3773 62.0291C51.7586 62.1112 52.1014 62.3184 52.3513 62.6177C52.6012 62.9171 52.7439 63.2914 52.7566 63.6812C52.7692 64.071 52.6512 64.4538 52.4212 64.7687C52.1478 65.0547 51.8102 65.2714 51.4362 65.4007C51.2778 65.4563 51.1111 65.4847 50.9432 65.4847Z" fill="white"/>
<path d="M10.1413 52.5617C9.95191 52.5616 9.76427 52.5257 9.58828 52.4557L9.45928 52.4047C9.27615 52.3321 9.10913 52.224 8.96776 52.0868C8.82639 51.9495 8.71343 51.7858 8.63534 51.6049C8.55724 51.424 8.51554 51.2295 8.51262 51.0325C8.50969 50.8355 8.5456 50.6399 8.61828 50.4568C8.69097 50.2736 8.79901 50.1066 8.93625 49.9652C9.07348 49.8239 9.23722 49.7109 9.4181 49.6328C9.59899 49.5547 9.79349 49.513 9.9905 49.5101C10.1875 49.5072 10.3832 49.5431 10.5663 49.6157L10.6943 49.6667C11.0225 49.793 11.296 50.0305 11.4669 50.3379C11.6378 50.6452 11.6953 51.0029 11.6293 51.3483C11.5633 51.6937 11.3781 52.005 11.1059 52.2277C10.8337 52.4504 10.4919 52.5704 10.1403 52.5667L10.1413 52.5617Z" fill="white"/>
<path d="M22.7842 64.1397C22.4912 64.158 22.1988 64.0958 21.9386 63.9599C21.6784 63.8239 21.4604 63.6193 21.3082 63.3683C21.1559 63.1173 21.0752 62.8294 21.0749 62.5358C21.0745 62.2422 21.1545 61.9541 21.3062 61.7027C21.4578 61.4514 21.6754 61.2463 21.9352 61.1097C22.1951 60.9731 22.4874 60.9102 22.7804 60.9278C23.0735 60.9454 23.3561 61.0428 23.5978 61.2096C23.8394 61.3763 24.0308 61.606 24.1512 61.8737C24.2741 62.1891 24.313 62.5309 24.2642 62.8657C24.2103 63.2198 24.0314 63.5429 23.7599 63.7766C23.4885 64.0102 23.1424 64.139 22.7842 64.1397Z" fill="white"/>
<path d="M35.2003 39.6628C35.02 39.6628 34.8402 39.6453 34.6633 39.6108C34.0308 39.5343 33.4451 39.2384 33.0083 38.7747C32.5714 38.3109 32.311 37.7087 32.2723 37.0728C32.2807 36.2511 32.535 35.4508 33.0026 34.7751C33.4701 34.0994 34.1293 33.5793 34.8953 33.2818C35.0794 33.2274 35.272 33.2081 35.4633 33.2248C35.9186 33.2402 36.3646 33.3571 36.769 33.5669C37.1733 33.7768 37.5256 34.0743 37.8003 34.4378C38.0692 34.8411 38.2446 35.2993 38.3138 35.779C38.383 36.2588 38.3442 36.7479 38.2003 37.2108C38.0424 37.894 37.6621 38.5055 37.1192 38.9493C36.5762 39.393 35.9013 39.644 35.2003 39.6628Z" fill="white"/>
<path d="M36.7503 37.1717C36.4513 37.1725 36.1589 37.0839 35.9106 36.9174C35.6623 36.7508 35.4695 36.5138 35.3568 36.2368C35.2442 35.9599 35.2169 35.6556 35.2785 35.363C35.34 35.0704 35.4876 34.8029 35.7023 34.5947C36.9863 33.3417 38.3183 31.9947 39.6823 30.6147C43.208 26.8997 46.9477 23.3937 50.8823 20.1147C51.1944 19.8678 51.5919 19.755 51.9872 19.8012C52.3826 19.8473 52.7434 20.0486 52.9903 20.3607C53.2372 20.6729 53.35 21.0704 53.3039 21.4657C53.2577 21.861 53.0564 22.2218 52.7443 22.4687C48.9052 25.6741 45.2561 29.1002 41.8153 32.7297C40.4383 34.1207 39.0933 35.4817 37.7973 36.7447C37.5178 37.0188 37.1418 37.1722 36.7503 37.1717Z" fill="white"/>
<path d="M35.9223 36.3947C35.62 36.3966 35.3242 36.3071 35.0736 36.1379C34.8231 35.9688 34.6295 35.7278 34.5183 35.4468C34.407 35.1657 34.3833 34.8575 34.4502 34.5628C34.5171 34.268 34.6716 34.0003 34.8933 33.7947C39.9324 28.8726 45.2933 24.2908 50.9403 20.0797C51.263 19.8471 51.665 19.7523 52.0577 19.8161C52.4504 19.8798 52.8017 20.097 53.0343 20.4197C53.2668 20.7425 53.3617 21.1445 53.2979 21.5372C53.2342 21.9299 53.017 22.2811 52.6943 22.5137C47.1545 26.6507 41.8949 31.1502 36.9503 35.9827C36.6727 36.2462 36.3049 36.3936 35.9223 36.3947Z" fill="white"/>
<path d="M40.1272 46.9778C39.8597 46.9779 39.5969 46.9065 39.3662 46.771C39.1355 46.6354 38.9453 46.4406 38.8152 46.2068C38.2622 45.2138 37.3862 43.8607 36.5392 42.5517C35.6922 41.2427 34.8262 39.9038 34.2392 38.8608C34.0448 38.5133 33.9964 38.1029 34.1046 37.7197C34.2128 37.3366 34.4688 37.0122 34.8162 36.8178C35.1637 36.6233 35.5741 36.5749 35.9572 36.6831C36.3404 36.7913 36.6648 37.0473 36.8592 37.3948C37.4002 38.3568 38.2452 39.6627 39.0592 40.9267C39.9322 42.2767 40.8362 43.6727 41.4372 44.7527C41.5644 44.981 41.6297 45.2384 41.6268 45.4996C41.6238 45.7609 41.5527 46.0168 41.4205 46.2421C41.2882 46.4674 41.0994 46.6542 40.8728 46.7841C40.6461 46.914 40.3895 46.9825 40.1282 46.9827L40.1272 46.9778Z" fill="white"/>
<path d="M40.1273 46.9777C39.8541 46.978 39.5859 46.9036 39.3519 46.7626C39.1179 46.6216 38.9268 46.4194 38.7993 46.1777C38.1833 45.0107 37.5173 43.6147 36.8733 42.2667C36.2293 40.9187 35.5733 39.5327 34.9733 38.4047C34.7939 38.0535 34.76 37.6458 34.879 37.2698C34.998 36.8938 35.2602 36.5798 35.609 36.3958C35.9578 36.2117 36.365 36.1724 36.7426 36.2864C37.1201 36.4004 37.4376 36.6584 37.6263 37.0047C38.2523 38.1887 38.9263 39.6047 39.5833 40.9767C40.2153 42.2987 40.8683 43.6667 41.4553 44.7767C41.5758 45.0052 41.6353 45.2609 41.628 45.5192C41.6207 45.7774 41.5469 46.0293 41.4136 46.2506C41.2803 46.4719 41.0921 46.655 40.8673 46.7823C40.6425 46.9095 40.3886 46.9765 40.1303 46.9767L40.1273 46.9777Z" fill="white"/>
</svg>
