<svg width="193" height="172" viewBox="0 0 193 172" fill="none" xmlns="http://www.w3.org/2000/svg">
<path d="M187.676 118.064C186.783 117.988 185.884 118.063 185.016 118.285C184.895 117.019 185.052 115.743 185.476 114.544C186.136 113.414 188.696 113.265 189.736 111.665C191.336 109.185 190.056 107.754 188.126 107.064C190.806 106.014 193.616 104.174 192.556 101.394C192.381 100.894 192.054 100.462 191.619 100.158C191.185 99.8547 190.666 99.6959 190.136 99.7044C191.496 96.9744 191.276 93.3844 187.976 92.7044C186.757 92.5998 185.529 92.7253 184.356 93.0744C184.641 92.1531 184.736 91.1836 184.636 90.2244C183.636 86.0344 180.736 86.5344 178.086 88.2244C179.016 85.3944 178.536 82.4844 174.566 81.7644C173.967 81.631 173.344 81.6528 172.756 81.8278C172.168 82.0028 171.634 82.3253 171.206 82.7644C171.209 82.2728 171.089 81.7882 170.857 81.355C170.624 80.9217 170.287 80.5537 169.876 80.2844C168.476 79.6044 167.416 80.8144 166.646 82.5044C166.286 79.0144 164.836 76.2444 160.706 79.3444C160.345 79.6492 160.011 79.9838 159.706 80.3444C159.105 79.6011 158.329 79.0183 157.448 78.6483C156.567 78.2784 155.607 78.1327 154.656 78.2244C148.116 78.7044 147.096 83.5344 148.866 87.9944C148.279 87.6306 147.598 87.4479 146.908 87.4693C146.218 87.4906 145.549 87.715 144.986 88.1144C142.406 90.0644 144.736 92.3844 146.736 93.6444C144.153 97.7548 142.087 102.168 140.586 106.784C139.446 106.228 138.182 105.973 136.916 106.044C134.326 106.254 132.726 108.575 132.226 110.944C131.866 112.614 131.756 115.224 133.306 116.384C134.692 117.184 136.278 117.569 137.876 117.494C137.416 119.944 137.046 122.394 136.756 124.794C135.636 134.184 135.756 147.584 146.646 151.144C153.556 153.394 164.796 152.684 171.506 149.644C179.366 146.084 182.506 137.645 183.956 129.645C184.796 130.183 185.76 130.5 186.756 130.564C189.756 130.704 192.976 127.695 192.926 124.685C192.876 121.675 190.706 118.374 187.676 118.064ZM159.516 82.9644C159.822 83.8376 160 84.7503 160.046 85.6744C160.156 88.1644 159.046 88.9844 158.766 85.7344C158.768 84.7613 159.027 83.8059 159.516 82.9644ZM135.346 115.625C133.346 115.085 133.296 113.174 133.666 111.364C134.136 109.084 135.666 107.175 138.206 107.615C138.871 107.741 139.517 107.957 140.126 108.254C139.346 110.814 138.706 113.415 138.176 116.005C137.222 115.98 136.273 115.852 135.346 115.625ZM186.176 128.994C185.47 128.791 184.811 128.452 184.236 127.994C183.823 127.693 183.435 127.359 183.076 126.994C182.828 126.754 182.597 126.497 182.386 126.224C181.806 125.464 180.506 126.224 181.086 126.974C181.594 127.643 182.174 128.253 182.816 128.794C181.716 135.464 179.456 141.865 174.576 145.945C168.816 150.785 160.236 150.684 153.156 150.534C136.666 150.184 135.536 133.354 139.076 117.535C139.186 117.045 139.306 116.534 139.426 116.064C140.006 113.664 140.696 111.294 141.426 109.064C141.599 108.564 141.769 108.074 141.936 107.594C143.541 102.732 145.702 98.0714 148.376 93.7044C148.465 93.5902 148.513 93.4494 148.513 93.3044C148.513 93.1595 148.465 93.0187 148.376 92.9044C148.322 92.8202 148.25 92.7486 148.166 92.6944C145.236 90.7844 146.236 88.7844 149.066 89.8544C149.914 90.3416 150.653 90.9987 151.236 91.7844C151.866 92.5144 152.916 91.4544 152.296 90.7244C150.806 89.0044 149.006 86.3344 149.246 83.9644C149.576 80.5444 154.726 78.4544 157.556 80.1944C158.034 80.5028 158.446 80.9041 158.766 81.3744C157.396 83.3744 156.606 86.0044 157.476 88.0944C158.096 89.5644 159.546 90.6844 160.866 89.3744C162.436 87.8244 161.506 83.6944 160.786 82.0444C160.706 81.8444 160.596 81.6644 160.506 81.4744C161.626 80.0844 163.086 79.2044 164.266 80.1344C166.176 81.6344 165.386 85.8044 165.046 88.0544C164.896 88.9844 166.286 89.4144 166.486 88.4544C166.656 87.6544 166.846 86.8544 167.076 86.0744C167.426 84.8544 168.326 81.0744 169.446 82.5844C169.829 83.358 169.959 84.2329 169.816 85.0844C169.282 86.7558 169.012 88.5 169.016 90.2544C169.016 91.0744 170.356 91.3044 170.486 90.4544C170.616 89.6044 171.076 87.4544 171.246 85.4544C171.493 84.9195 171.828 84.4295 172.236 84.0044C172.624 83.6377 173.074 83.3431 173.566 83.1344C174.906 82.5244 178.266 83.1344 176.056 89.3944C175.972 89.6395 175.854 89.8718 175.706 90.0844C175.179 90.6183 174.688 91.1862 174.236 91.7844L174.116 91.9344C173.596 92.6244 174.706 93.4344 175.296 92.8444C175.825 92.3054 176.301 91.716 176.716 91.0844C177.816 89.8344 179.236 88.5244 180.466 88.4844C182.906 88.3944 183.466 90.9544 183.056 93.4844C179.586 94.5944 176.116 96.7444 178.386 99.3244C180.656 101.904 182.836 98.0044 183.986 94.5144C184.716 94.282 185.471 94.1344 186.236 94.0744C189.806 93.9744 190.016 97.8844 188.306 100.074C187.53 100.362 186.841 100.844 186.306 101.474C185.896 101.994 186.306 102.994 187.036 102.724C187.807 102.448 188.495 101.98 189.036 101.365C190.036 101.005 191.036 101.364 190.436 103.984C190.056 105.664 185.896 106.314 184.526 106.594C183.686 106.754 183.896 108.074 184.726 108.064C186.586 108.064 189.196 109.555 187.726 111.575C187.126 112.405 185.556 112.575 184.726 112.575C184.528 112.577 184.338 112.657 184.198 112.797C184.058 112.937 183.978 113.126 183.976 113.325C183.976 115.005 183.866 116.815 183.786 118.685C182.943 118.973 182.129 119.341 181.356 119.785C181.183 119.885 181.058 120.05 181.008 120.243C180.957 120.437 180.985 120.642 181.086 120.814C181.187 120.987 181.352 121.112 181.545 121.163C181.738 121.213 181.943 121.185 182.116 121.084C182.626 120.783 183.158 120.519 183.706 120.294C184.142 120.116 184.59 119.966 185.046 119.845L185.706 119.674C188.706 119.074 190.536 120.924 191.266 123.724C191.996 126.524 188.996 129.634 186.176 128.994ZM182.666 94.8944C182.176 96.3644 181.376 97.5944 180.466 97.8944C178.866 98.4444 180.976 95.7844 181.656 95.3844C181.981 95.1994 182.319 95.0357 182.666 94.8944ZM171.506 140C165 136 160.806 144.99 154.066 144.5C147.126 143.99 147.009 137.5 143.486 139.5C143.486 138.5 143.5 137.5 144 137.5C147 134 146.01 139.5 149.5 141.5C152 142.92 153.226 142.854 155.976 142.644C161.306 142.234 165.5 135.5 170.396 138.94C171.156 138.28 172.216 139.34 171.506 140ZM156.366 97.9044C155.83 96.9969 155.556 95.9583 155.576 94.9044C155.876 93.6344 157.186 93.6544 158.436 94.1144C158.113 94.5414 157.925 95.0545 157.895 95.5886C157.865 96.1227 157.994 96.6538 158.266 97.1145C158.683 97.6755 159.264 98.0926 159.929 98.3077C160.594 98.5228 161.309 98.5251 161.976 98.3144C163.366 97.6644 163.036 96.0744 162.276 95.0544C161.824 94.466 161.272 93.9616 160.646 93.5644C161.446 92.4744 162.486 91.4744 163.906 92.2744C164.55 92.7215 165.076 93.3201 165.435 94.0175C165.794 94.715 165.976 95.49 165.966 96.2744C165.966 97.2744 167.516 97.2744 167.466 96.2744C167.476 95.1143 167.167 93.9737 166.572 92.9773C165.978 91.9808 165.121 91.1669 164.096 90.6244C162.276 89.7944 160.716 91.0444 159.606 92.4244L159.286 92.8344C158.666 92.5756 158.013 92.4072 157.346 92.3344C153.346 91.9544 153.846 96.1444 155.066 98.6544C155.506 99.5344 156.806 98.7844 156.386 97.9044H156.366ZM159.856 94.7844C160.226 95.0099 160.562 95.2859 160.856 95.6044C161.506 96.4444 160.996 97.4744 160.016 96.6044C159.366 96.1144 159.516 95.4344 159.856 94.7844ZM150.146 106.154C151.326 105.539 152.69 105.379 153.981 105.703C155.271 106.027 156.397 106.814 157.146 107.914C157.696 108.714 156.396 109.464 155.856 108.674C155.313 107.899 154.506 107.346 153.587 107.12C152.667 106.894 151.697 107.009 150.856 107.444C150.046 107.894 149.286 106.604 150.146 106.154ZM174.536 112.785C174.596 113.785 173.096 113.785 173.036 112.785C173.067 112.165 172.936 111.548 172.656 110.994C172.241 110.565 171.682 110.305 171.086 110.264C170.463 110.158 169.825 110.192 169.217 110.365C168.61 110.538 168.049 110.846 167.576 111.264C166.766 111.804 166.016 110.504 166.816 109.974C167.589 109.378 168.499 108.984 169.463 108.829C170.427 108.673 171.414 108.761 172.336 109.084C174.056 109.574 174.436 111.085 174.536 112.785ZM152.326 132.474C152.569 132.283 152.797 132.073 153.006 131.844C153.625 132.428 154.399 132.821 155.236 132.974C155.921 133.111 156.629 133.079 157.3 132.882C157.97 132.686 158.583 132.329 159.086 131.844C159.353 132.271 159.719 132.628 160.152 132.886C160.585 133.143 161.073 133.293 161.576 133.325C165.076 133.465 167.406 127.115 167.506 124.325C167.506 123.325 166.036 123.325 166.006 124.325C165.946 126.105 163.446 133.045 160.746 131.325C160.487 131.15 160.268 130.921 160.106 130.654C161.126 129.118 161.697 127.328 161.756 125.485C161.756 123.055 159.936 120.944 158.436 123.864C157.648 125.997 157.648 128.341 158.436 130.474C158.168 130.789 157.836 131.043 157.462 131.22C157.088 131.396 156.68 131.491 156.267 131.498C155.853 131.504 155.443 131.423 155.063 131.258C154.684 131.094 154.344 130.851 154.066 130.544C155.716 127.894 156.446 123.874 154.806 121.544C152.566 118.394 151.046 123.594 150.916 125.264C150.761 127.111 151.165 128.961 152.076 130.575C151.697 130.924 151.256 131.199 150.776 131.384C144.946 133.624 147.636 123.485 148.306 120.785C148.916 118.335 149.626 115.905 150.456 113.525C150.776 112.615 149.326 112.215 149.016 113.125C148.095 115.747 147.318 118.418 146.686 121.125C145.986 124.125 144.756 128.384 146.026 131.344C147.106 133.784 150.296 133.994 152.326 132.474ZM159.456 125.474C159.776 123.634 160.606 123.955 160.016 127.075C159.895 127.665 159.703 128.239 159.446 128.785C159.23 127.695 159.233 126.573 159.456 125.485V125.474ZM152.756 123.285C153.236 121.775 153.696 122.005 153.836 123.525C154.057 124.661 154.057 125.828 153.836 126.965C153.678 127.776 153.405 128.56 153.026 129.294C151.846 127.404 152.236 124.784 152.756 123.294V123.285Z" fill="#A71057"/>
<path d="M36.0016 83.905L34.5616 84.305C34.527 84.1204 34.5629 83.9295 34.6622 83.7701C34.7615 83.6107 34.9171 83.4943 35.098 83.444C35.279 83.3938 35.4723 83.4132 35.6396 83.4986C35.8069 83.5839 35.9361 83.729 36.0016 83.905ZM26.2616 83.905L27.7016 83.505C27.4716 82.605 26.0916 83.015 26.2616 83.955V83.905ZM15.3116 87.905C14.8983 88.3716 14.4683 88.8216 14.0216 89.255C14.1004 89.6402 14.2005 90.0208 14.3216 90.395C14.3716 90.545 14.4316 90.685 14.4916 90.835C14.8716 90.505 15.2816 90.135 15.6916 89.735C15.5134 89.1402 15.3862 88.5314 15.3116 87.915V87.905ZM27.7016 83.545L26.2616 83.945C26.5416 85.115 26.6416 86.865 26.8716 88.625C27.664 87.0608 27.9539 85.2901 27.7016 83.555V83.545ZM36.0016 83.895L34.5616 84.295C35.0952 85.8154 35.7438 87.293 36.5016 88.715C36.5998 87.0951 36.4309 85.4701 36.0016 83.905V83.895ZM35.0016 88.705C34.5916 91.775 31.2816 95.705 28.8716 91.325C27.7716 89.325 28.2516 85.815 27.6916 83.545C27.946 85.2834 27.6561 87.0579 26.8616 88.625C27.3216 92.135 28.3216 95.685 32.4416 94.715C35.2416 94.045 36.3116 91.445 36.4416 88.715C35.6838 87.293 35.0352 85.8154 34.5016 84.295C34.9666 85.7191 35.14 87.2223 35.0116 88.715L35.0016 88.705ZM15.7816 90.005C15.7816 89.925 15.7816 89.825 15.7016 89.745C15.2916 90.145 14.8816 90.515 14.5016 90.845C17.1616 97.915 24.3116 94.095 26.8816 88.635C26.6516 86.875 26.5516 85.125 26.2716 83.955C27.2316 89.475 18.4216 97.565 15.7816 90.005ZM34.3816 49.255C34.2816 50.625 33.9316 53.455 32.0616 53.455C30.1916 53.455 29.7016 50.675 29.5316 49.295C29.4116 48.355 27.9016 48.295 28.0316 49.295C28.3116 51.535 29.2216 54.955 32.0316 54.955C34.8416 54.955 35.6816 51.525 35.8516 49.255C35.9516 48.295 34.4516 48.305 34.3816 49.255ZM62.5316 46.445C64.5316 45.825 65.0216 43.315 64.7816 41.445C64.6616 40.505 63.1616 40.495 63.2816 41.445C63.4316 42.555 63.4316 44.495 62.1316 44.975C60.6016 45.525 59.7216 43.205 59.2616 42.165C58.8716 41.285 57.5716 42.045 57.9616 42.925C58.7816 44.775 60.1416 47.175 62.5316 46.445ZM67.8316 53.745C58 55.045 46.772 58.2535 37.4516 62.745C37.2527 62.745 37.062 62.824 36.9213 62.9646C36.7807 63.1053 36.7016 63.2961 36.7016 63.495C36.7016 63.6939 36.7807 63.8847 36.9213 64.0253C37.062 64.166 37.2527 64.245 37.4516 64.245C47.9116 59.5 58.2616 56.7652 68.5916 55.045C69.4116 54.535 68.6516 53.235 67.8316 53.745ZM43.4716 54.665C43.7341 54.794 44.0206 54.8668 44.3129 54.8787C44.6051 54.8905 44.8966 54.8412 45.1687 54.7339C45.4407 54.6266 45.6874 54.4636 45.8928 54.2554C46.0983 54.0472 46.2579 53.7984 46.3616 53.525C46.5579 53.7301 46.8032 53.8819 47.0744 53.9659C47.3456 54.0499 47.6338 54.0633 47.9116 54.005C48.3505 53.9337 48.7642 53.7523 49.114 53.4777C49.4637 53.2032 49.7382 52.8444 49.9116 52.435C50.2567 52.7564 50.6925 52.9635 51.1597 53.0279C51.6268 53.0924 52.1025 53.011 52.5216 52.795C54.5216 51.795 53.8716 49.265 52.8816 47.725C52.3616 46.915 51.0616 47.665 51.5816 48.485C52.1016 49.305 52.6616 50.235 51.9016 51.025C51.1416 51.815 50.8516 51.295 50.2616 50.555C50.1267 50.3548 50.0223 50.1358 49.9516 49.905C49.9362 49.8403 49.9162 49.7768 49.8916 49.715C49.5316 48.945 48.2316 49.495 48.5216 50.295C48.544 50.3698 48.5707 50.4433 48.6016 50.515C48.9216 51.315 48.0916 52.985 47.2616 52.345C46.9916 52.145 47.0016 51.415 46.9916 51.095C46.9916 50.8961 46.9126 50.7053 46.772 50.5646C46.6313 50.424 46.4406 50.345 46.2416 50.345C46.0427 50.345 45.852 50.424 45.7113 50.5646C45.5707 50.7053 45.4916 50.8961 45.4916 51.095C45.5041 51.5385 45.4293 51.9802 45.2716 52.395C44.5916 53.815 43.7616 53.265 43.3916 52.095C43.1084 51.1207 42.9735 50.1094 42.9916 49.095C42.9916 48.8961 42.9126 48.7053 42.772 48.5646C42.6313 48.424 42.4406 48.345 42.2416 48.345C42.0427 48.345 41.852 48.424 41.7113 48.5646C41.5707 48.7053 41.4916 48.8961 41.4916 49.095C41.5416 50.815 41.6816 53.815 43.4716 54.665ZM15.9716 83.545C16.3516 83.005 18.0816 81.305 18.7616 82.545C18.9916 82.975 17.5016 84.945 17.2716 85.295C16.6682 86.199 15.9998 87.058 15.2716 87.865C15.3457 88.4847 15.4728 89.097 15.6516 89.695C17.9916 87.465 20.6016 84.295 20.3716 81.765C20.1416 79.235 18.0716 79.475 16.3716 80.675C13.7816 82.555 13.3016 86.195 13.9516 89.215C14.405 88.7883 14.835 88.3383 15.2416 87.865C14.9908 86.3839 15.2481 84.8614 15.9716 83.545ZM86.2416 43.165C87.3316 54.785 81.1716 63.535 72.3016 70.165C66.6716 74.365 61.0316 78.535 56.6316 84.105C53.9016 87.565 52.7816 94.215 49.0516 96.715C44.0516 100.075 39.2516 93.935 36.5016 88.715C36.6009 87.0917 36.432 85.4633 36.0016 83.895C37.4816 88.295 44.3016 100.895 49.5616 93.835C52.3716 90.055 53.4716 85.455 56.6316 81.745C63.7816 73.355 75.5616 68.685 81.2316 59.105C83.6436 54.8168 84.8107 49.9405 84.6016 45.025C83.9925 45.6282 83.2816 46.1191 82.5016 46.475C81.987 46.7023 81.4594 46.8993 80.9216 47.065C80.9216 47.125 80.9216 47.195 80.9216 47.255C80.6716 54.325 76.3416 60.905 70.1216 65.395C60.5716 72.275 47.6116 75.685 36.1216 72.195C27.7216 69.645 19.0216 62.195 18.9116 52.925C11.5994 60.2234 6.20595 69.2171 3.21164 79.105C1.85164 83.455 -0.968364 94.835 7.26164 93.105C9.82565 92.4776 12.1656 91.1519 14.0216 89.275C14.1004 89.6602 14.2005 90.0408 14.3216 90.415C14.3716 90.565 14.4316 90.705 14.4916 90.855L13.4316 91.735C10.7816 93.845 5.72164 96.205 2.35164 94.265C-1.01836 92.325 0.0716365 86.655 0.581637 83.575C1.82164 76.005 5.58164 68.395 9.58164 61.955C12.0516 58.015 15.2216 54.955 18.3916 51.785L18.7216 51.455C18.4916 44.215 28.0016 36.375 31.6316 34.655C31.6608 34.6309 31.6876 34.6041 31.7116 34.575L32.2616 34.145C41.7816 26.595 55.7816 20.795 68.0216 22.215C74.9416 23.015 80.4416 27.915 83.5516 34.025C84.6816 33.135 85.7916 32.925 86.6416 34.195C88.0816 36.345 87.1416 40.625 86.2016 42.855C86.2116 42.965 86.2316 43.105 86.2416 43.165ZM32.2416 36.165C35.9216 41.265 47.2416 39.685 51.8616 37.785C55.9416 36.125 58.9816 32.915 62.8616 30.885C63.5278 30.5344 64.2159 30.2271 64.9216 29.965C65.8984 29.5819 66.9009 29.2678 67.9216 29.025C72.2516 27.975 77.2516 28.115 78.8516 32.225C79.2116 33.125 77.7616 33.505 77.4116 32.625C76.3116 29.825 73.5116 29.365 70.4116 29.935C73.5832 31.3041 76.2425 33.638 78.0116 36.605C78.5611 37.5028 79.0393 38.4423 79.4416 39.415C80.3023 37.8705 81.3068 36.4107 82.4416 35.055C79.9616 29.325 75.3416 24.835 68.5016 23.785C59.2816 22.355 48.7916 25.585 40.2316 30.525C37.6439 31.9948 35.1762 33.6666 32.8516 35.525C32.6216 35.815 32.4416 36.005 32.2716 36.195L32.2416 36.165ZM21.0816 49.105L21.2016 48.985C22.4516 47.695 23.6716 46.365 24.8116 44.985C26.2824 42.9293 27.6089 40.7741 28.7816 38.535C28.9116 38.325 29.0516 38.125 29.1916 37.915C25.1916 41.235 22.2416 44.335 21.0816 49.105ZM84.8716 42.105C85.194 41.2737 85.4482 40.4175 85.6316 39.545C85.9916 37.885 86.1516 35.995 85.4616 35.185C85.1916 34.865 84.7516 35.025 84.2416 35.455C83.8259 35.8339 83.4444 36.2489 83.1016 36.695C82.002 38.1505 80.9998 39.6772 80.1016 41.265L79.8116 41.765C79.7395 41.8848 79.6349 41.9818 79.51 42.0446C79.385 42.1074 79.2448 42.1335 79.1056 42.1199C78.9664 42.1063 78.8339 42.0536 78.7235 41.9677C78.613 41.8819 78.5292 41.7665 78.4816 41.635V41.525C78.4816 41.355 78.3916 41.185 78.3316 41.005C77.6163 38.5158 76.2686 36.2542 74.4198 34.4405C72.571 32.6267 70.2841 31.3226 67.7816 30.655C65.0401 31.5884 62.4367 32.8867 60.0416 34.515C56.9716 36.705 54.0416 38.885 50.3716 39.965C45.3716 41.425 35.2516 42.195 31.2816 37.415C30.1816 39.005 29.3916 40.815 28.3716 42.485C26.2584 45.7712 23.6742 48.7294 20.7016 51.265C20.3367 54.0833 20.8464 56.9458 22.1616 59.465C28.1616 71.405 43.6416 73.905 55.4116 70.755C66.7016 67.755 78.8716 59.445 79.2516 47.565C78.3216 47.825 77.9716 46.495 78.8516 46.125L79.2616 45.955C79.7616 45.755 80.3116 45.535 80.8916 45.285C82.0736 44.8496 83.1627 44.1947 84.1016 43.355C84.2365 43.2121 84.3634 43.0619 84.4816 42.905C84.6361 42.6685 84.7667 42.4172 84.8716 42.155V42.105Z" fill="#A71057"/>
<path d="M32.2627 75.0581C32.8117 75.0581 33.3585 75.0078 33.8719 75.2383C34.7508 75.6329 35.6291 76.2578 36.3884 76.8445C36.7526 77.1259 37.1245 77.3772 37.5192 77.5745" stroke="#A71057" stroke-width="1.5" stroke-linecap="round"/>
<path d="M62.0123 68.2359C61.3043 68.2359 60.8063 68.2667 60.2539 68.7516C59.5709 69.3511 58.8654 69.9288 58.2221 70.5721C57.4471 71.3471 56.7924 72.2447 56.0661 73.0636C55.7142 73.4604 55.3807 73.8728 55.0285 74.269C54.9035 74.4096 54.7884 74.5397 54.7427 74.7226" stroke="#A71057" stroke-width="1.5" stroke-linecap="round"/>
<path d="M114.158 91.7375C113.81 91.6909 113.361 90.9889 113.272 90.5017C113.198 90.1014 113.256 89.6879 113.436 89.3231L119.731 74.0047C110.876 84.9396 102.767 96.4585 95.46 108.483C95.268 108.8 94.591 108.133 94.401 107.535C94.253 107.064 94.276 106.556 94.465 106.1C95.554 102.91 96.756 99.8494 98.07 96.9167C98.791 95.2885 99.555 93.7255 100.317 92.1464C105.129 82.1542 109.959 72.1399 115.984 63.6965C105.289 72.8858 95.9491 84.1523 88.0836 97.3246C87.9113 97.6121 87.2759 96.9756 87.1602 96.4313C87.1098 96.2355 87.1038 96.0308 87.1427 95.8323C87.1816 95.6338 87.2644 95.4465 87.385 95.2842C96.545 80.4295 107.55 67.9315 120.441 58.4799C120.549 58.37 120.69 58.2991 120.843 58.2786C120.995 58.2582 121.15 58.2892 121.283 58.3669C121.644 58.5816 122.041 59.3502 121.829 59.5275C115.675 64.7831 111.493 72.8968 107.373 80.9621C103.943 87.6474 100.53 94.3528 97.621 101.656L109.521 85.074C113.059 80.0878 116.632 75.1417 120.815 71.0823C120.92 70.9331 121.072 70.8244 121.248 70.7747C121.423 70.725 121.61 70.7372 121.777 70.8094C122.21 71.0127 122.742 71.8901 122.556 72.216C119.19 78.254 116.505 84.6477 114.552 91.279C114.482 91.5133 114.392 91.7652 114.158 91.7375Z" fill="#010101"/>
</svg>
