<svg width="201" height="76" viewBox="0 0 201 76" fill="none" xmlns="http://www.w3.org/2000/svg">
<path d="M195.676 40.0644C194.783 39.9883 193.884 40.0627 193.016 40.2845C192.895 39.0192 193.052 37.7428 193.476 36.5444C194.136 35.4144 196.696 35.2645 197.736 33.6645C199.336 31.1845 198.056 29.7544 196.126 29.0644C198.806 28.0144 201.616 26.1744 200.556 23.3944C200.381 22.8941 200.054 22.4615 199.619 22.1581C199.185 21.8547 198.666 21.6959 198.136 21.7044C199.496 18.9744 199.276 15.3844 195.976 14.7044C194.757 14.5998 193.529 14.7253 192.356 15.0744C192.641 14.1531 192.736 13.1836 192.636 12.2244C191.636 8.03445 188.736 8.53445 186.086 10.2244C187.016 7.39445 186.536 4.48445 182.566 3.76445C181.967 3.631 181.344 3.65281 180.756 3.82783C180.168 4.00285 179.634 4.32526 179.206 4.76445C179.209 4.27284 179.089 3.78824 178.857 3.35498C178.624 2.92173 178.287 2.55366 177.876 2.28445C176.476 1.60445 175.416 2.81445 174.646 4.50445C174.286 1.01445 172.836 -1.75555 168.706 1.34445C168.345 1.64925 168.011 1.98376 167.706 2.34445C167.105 1.60108 166.329 1.01831 165.448 0.648334C164.567 0.278356 163.607 0.132713 162.656 0.224449C156.116 0.704449 155.096 5.53445 156.866 9.99445C156.279 9.6306 155.598 9.44792 154.908 9.46926C154.218 9.49061 153.549 9.71503 152.986 10.1144C150.406 12.0644 152.736 14.3844 154.736 15.6444C152.153 19.7548 150.087 24.1681 148.586 28.7844C147.446 28.2277 146.182 27.9729 144.916 28.0444C142.326 28.2544 140.726 30.5745 140.226 32.9445C139.866 34.6145 139.756 37.2244 141.306 38.3844C142.692 39.1836 144.278 39.5688 145.876 39.4944C145.416 41.9444 145.046 44.3944 144.756 46.7944C143.636 56.1844 143.756 69.5844 154.646 73.1444C161.556 75.3944 172.796 74.6844 179.506 71.6444C187.366 68.0844 190.506 59.6445 191.956 51.6445C192.796 52.1834 193.76 52.5 194.756 52.5644C197.756 52.7044 200.976 49.6945 200.926 46.6845C200.876 43.6745 198.706 40.3744 195.676 40.0644ZM167.516 4.96445C167.822 5.83763 168 6.75035 168.046 7.67445C168.156 10.1644 167.046 10.9844 166.766 7.73445C166.768 6.76127 167.027 5.80588 167.516 4.96445ZM143.346 37.6245C141.346 37.0845 141.296 35.1745 141.666 33.3645C142.136 31.0845 143.666 29.1745 146.206 29.6145C146.871 29.7413 147.517 29.9566 148.126 30.2544C147.346 32.8144 146.706 35.4145 146.176 38.0045C145.222 37.9797 144.273 37.8523 143.346 37.6245ZM194.176 50.9944C193.47 50.7913 192.811 50.4516 192.236 49.9944C191.823 49.693 191.435 49.3586 191.076 48.9944C190.828 48.7544 190.597 48.4971 190.386 48.2244C189.806 47.4644 188.506 48.2244 189.086 48.9744C189.594 49.6431 190.174 50.2535 190.816 50.7945C189.716 57.4645 187.456 63.8645 182.576 67.9445C176.816 72.7845 168.236 72.6844 161.156 72.5344C144.666 72.1844 143.536 55.3545 147.076 39.5345C147.186 39.0445 147.306 38.5344 147.426 38.0644C148.006 35.6644 148.696 33.2944 149.426 31.0644C149.599 30.5644 149.769 30.0744 149.936 29.5944C151.541 24.7322 153.702 20.0714 156.376 15.7044C156.465 15.5902 156.513 15.4494 156.513 15.3044C156.513 15.1595 156.465 15.0187 156.376 14.9044C156.322 14.8202 156.25 14.7486 156.166 14.6944C153.236 12.7844 154.236 10.7844 157.066 11.8544C157.914 12.3416 158.653 12.9987 159.236 13.7844C159.866 14.5144 160.916 13.4544 160.296 12.7244C158.806 11.0044 157.006 8.33445 157.246 5.96445C157.576 2.54445 162.726 0.454449 165.556 2.19445C166.034 2.50281 166.446 2.90408 166.766 3.37445C165.396 5.37445 164.606 8.00445 165.476 10.0944C166.096 11.5644 167.546 12.6844 168.866 11.3744C170.436 9.82445 169.506 5.69445 168.786 4.04445C168.706 3.84445 168.596 3.66445 168.506 3.47445C169.626 2.08445 171.086 1.20445 172.266 2.13445C174.176 3.63445 173.386 7.80445 173.046 10.0544C172.896 10.9844 174.286 11.4144 174.486 10.4544C174.656 9.65445 174.846 8.85445 175.076 8.07445C175.426 6.85445 176.326 3.07445 177.446 4.58445C177.829 5.35803 177.959 6.23294 177.816 7.08445C177.282 8.75577 177.012 10.5 177.016 12.2544C177.016 13.0744 178.356 13.3044 178.486 12.4544C178.616 11.6044 179.076 9.45445 179.246 7.45445C179.493 6.91953 179.828 6.4295 180.236 6.00445C180.624 5.63767 181.074 5.34306 181.566 5.13445C182.906 4.52445 186.266 5.13445 184.056 11.3944C183.972 11.6395 183.854 11.8718 183.706 12.0844C183.179 12.6183 182.688 13.1862 182.236 13.7844L182.116 13.9344C181.596 14.6244 182.706 15.4344 183.296 14.8444C183.825 14.3054 184.301 13.716 184.716 13.0844C185.816 11.8344 187.236 10.5244 188.466 10.4844C190.906 10.3944 191.466 12.9544 191.056 15.4844C187.586 16.5944 184.116 18.7444 186.386 21.3244C188.656 23.9044 190.836 20.0044 191.986 16.5144C192.716 16.282 193.471 16.1344 194.236 16.0744C197.806 15.9744 198.016 19.8844 196.306 22.0744C195.53 22.3618 194.841 22.8439 194.306 23.4744C193.896 23.9944 194.306 24.9944 195.036 24.7244C195.807 24.4481 196.495 23.9801 197.036 23.3645C198.036 23.0045 199.036 23.3644 198.436 25.9844C198.056 27.6644 193.896 28.3144 192.526 28.5944C191.686 28.7544 191.896 30.0744 192.726 30.0644C194.586 30.0644 197.196 31.5545 195.726 33.5745C195.126 34.4045 193.556 34.5745 192.726 34.5745C192.528 34.577 192.338 34.6569 192.198 34.797C192.058 34.9371 191.978 35.1263 191.976 35.3245C191.976 37.0045 191.866 38.8145 191.786 40.6845C190.943 40.9729 190.129 41.3413 189.356 41.7845C189.183 41.8852 189.058 42.0504 189.008 42.2435C188.957 42.4367 188.985 42.6421 189.086 42.8144C189.187 42.9868 189.352 43.1121 189.545 43.1628C189.738 43.2134 189.943 43.1852 190.116 43.0844C190.626 42.7834 191.158 42.5194 191.706 42.2944C192.142 42.1161 192.59 41.9658 193.046 41.8445L193.706 41.6744C196.706 41.0744 198.536 42.9244 199.266 45.7244C199.996 48.5244 196.996 51.6344 194.176 50.9944ZM190.666 16.8944C190.176 18.3644 189.376 19.5944 188.466 19.8944C186.866 20.4444 188.976 17.7844 189.656 17.3844C189.981 17.1994 190.319 17.0357 190.666 16.8944ZM179.506 62C173 58 168.806 66.99 162.066 66.5C155.126 65.99 155.009 59.5 151.486 61.5C151.486 60.5 151.5 59.5 152 59.5C155 56 154.01 61.5 157.5 63.5C160 64.92 161.226 64.8544 163.976 64.6444C169.306 64.2344 173.5 57.5 178.396 60.94C179.156 60.28 180.216 61.34 179.506 62ZM164.366 19.9044C163.83 18.9969 163.556 17.9583 163.576 16.9044C163.876 15.6344 165.186 15.6544 166.436 16.1144C166.113 16.5414 165.925 17.0545 165.895 17.5886C165.865 18.1227 165.994 18.6538 166.266 19.1145C166.683 19.6755 167.264 20.0926 167.929 20.3077C168.594 20.5228 169.309 20.5251 169.976 20.3144C171.366 19.6644 171.036 18.0744 170.276 17.0544C169.824 16.466 169.272 15.9616 168.646 15.5644C169.446 14.4744 170.486 13.4744 171.906 14.2744C172.55 14.7215 173.076 15.3201 173.435 16.0175C173.794 16.715 173.976 17.49 173.966 18.2744C173.966 19.2744 175.516 19.2744 175.466 18.2744C175.476 17.1143 175.167 15.9737 174.572 14.9773C173.978 13.9808 173.121 13.1669 172.096 12.6244C170.276 11.7944 168.716 13.0444 167.606 14.4244L167.286 14.8344C166.666 14.5756 166.013 14.4072 165.346 14.3344C161.346 13.9544 161.846 18.1444 163.066 20.6544C163.506 21.5344 164.806 20.7844 164.386 19.9044H164.366ZM167.856 16.7844C168.226 17.0099 168.562 17.2859 168.856 17.6044C169.506 18.4444 168.996 19.4744 168.016 18.6044C167.366 18.1144 167.516 17.4344 167.856 16.7844ZM158.146 28.1544C159.326 27.5392 160.69 27.3786 161.981 27.703C163.271 28.0275 164.397 28.8144 165.146 29.9144C165.696 30.7144 164.396 31.4644 163.856 30.6744C163.313 29.8987 162.506 29.3464 161.587 29.1202C160.667 28.894 159.697 29.0092 158.856 29.4444C158.046 29.8944 157.286 28.6044 158.146 28.1544ZM182.536 34.7845C182.596 35.7845 181.096 35.7845 181.036 34.7845C181.067 34.1649 180.936 33.548 180.656 32.9944C180.241 32.565 179.682 32.3049 179.086 32.2645C178.463 32.1578 177.825 32.1923 177.217 32.3654C176.61 32.5385 176.049 32.8457 175.576 33.2645C174.766 33.8045 174.016 32.5044 174.816 31.9744C175.589 31.3779 176.499 30.9841 177.463 30.8286C178.427 30.6732 179.414 30.7611 180.336 31.0844C182.056 31.5744 182.436 33.0845 182.536 34.7845ZM160.326 54.4745C160.569 54.2835 160.797 54.0728 161.006 53.8444C161.625 54.4283 162.399 54.8208 163.236 54.9745C163.921 55.1107 164.629 55.0791 165.3 54.8823C165.97 54.6855 166.583 54.3294 167.086 53.8444C167.353 54.2712 167.719 54.6281 168.152 54.8855C168.585 55.1429 169.073 55.2933 169.576 55.3245C173.076 55.4645 175.406 49.1145 175.506 46.3245C175.506 45.3245 174.036 45.3245 174.006 46.3245C173.946 48.1045 171.446 55.0445 168.746 53.3245C168.487 53.1498 168.268 52.9213 168.106 52.6545C169.126 51.118 169.697 49.3277 169.756 47.4845C169.756 45.0545 167.936 42.9445 166.436 45.8645C165.648 47.9974 165.648 50.3415 166.436 52.4745C166.168 52.7894 165.836 53.0435 165.462 53.2199C165.088 53.3964 164.68 53.4911 164.267 53.4977C163.853 53.5043 163.443 53.4227 163.063 53.2584C162.684 53.094 162.344 52.8506 162.066 52.5445C163.716 49.8945 164.446 45.8744 162.806 43.5444C160.566 40.3944 159.046 45.5945 158.916 47.2645C158.761 49.1108 159.165 50.961 160.076 52.5745C159.697 52.9239 159.256 53.1987 158.776 53.3844C152.946 55.6244 155.636 45.4845 156.306 42.7845C156.916 40.3345 157.626 37.9045 158.456 35.5245C158.776 34.6145 157.326 34.2145 157.016 35.1245C156.095 37.7471 155.318 40.4177 154.686 43.1245C153.986 46.1245 152.756 50.3844 154.026 53.3444C155.106 55.7844 158.296 55.9945 160.326 54.4745ZM167.456 47.4744C167.776 45.6344 168.606 45.9545 168.016 49.0745C167.895 49.6652 167.703 50.2393 167.446 50.7845C167.23 49.6947 167.233 48.5728 167.456 47.4845V47.4744ZM160.756 45.2845C161.236 43.7745 161.696 44.0045 161.836 45.5245C162.057 46.6605 162.057 47.8284 161.836 48.9645C161.678 49.7757 161.405 50.5603 161.026 51.2945C159.846 49.4045 160.236 46.7844 160.756 45.2944V45.2845Z" fill="#A71057"/>
<path d="M36.0016 61.905L34.5616 62.305C34.527 62.1204 34.5629 61.9295 34.6622 61.7701C34.7615 61.6107 34.9171 61.4943 35.098 61.444C35.279 61.3938 35.4723 61.4132 35.6396 61.4986C35.8069 61.5839 35.9361 61.729 36.0016 61.905ZM26.2616 61.905L27.7016 61.505C27.4716 60.605 26.0916 61.015 26.2616 61.955V61.905ZM15.3116 65.905C14.8983 66.3716 14.4683 66.8216 14.0216 67.255C14.1004 67.6402 14.2005 68.0208 14.3216 68.395C14.3716 68.545 14.4316 68.685 14.4916 68.835C14.8716 68.505 15.2816 68.135 15.6916 67.735C15.5134 67.1402 15.3862 66.5314 15.3116 65.915V65.905ZM27.7016 61.545L26.2616 61.945C26.5416 63.115 26.6416 64.865 26.8716 66.625C27.664 65.0608 27.9539 63.2901 27.7016 61.555V61.545ZM36.0016 61.895L34.5616 62.295C35.0952 63.8154 35.7438 65.293 36.5016 66.715C36.5998 65.0951 36.4309 63.4701 36.0016 61.905V61.895ZM35.0016 66.705C34.5916 69.775 31.2816 73.705 28.8716 69.325C27.7716 67.325 28.2516 63.815 27.6916 61.545C27.946 63.2834 27.6561 65.0579 26.8616 66.625C27.3216 70.135 28.3216 73.685 32.4416 72.715C35.2416 72.045 36.3116 69.445 36.4416 66.715C35.6838 65.293 35.0352 63.8154 34.5016 62.295C34.9666 63.7191 35.14 65.2223 35.0116 66.715L35.0016 66.705ZM15.7816 68.005C15.7816 67.925 15.7816 67.825 15.7016 67.745C15.2916 68.145 14.8816 68.515 14.5016 68.845C17.1616 75.915 24.3116 72.095 26.8816 66.635C26.6516 64.875 26.5516 63.125 26.2716 61.955C27.2316 67.475 18.4216 75.565 15.7816 68.005ZM34.3816 27.255C34.2816 28.625 33.9316 31.455 32.0616 31.455C30.1916 31.455 29.7016 28.675 29.5316 27.295C29.4116 26.355 27.9016 26.295 28.0316 27.295C28.3116 29.535 29.2216 32.955 32.0316 32.955C34.8416 32.955 35.6816 29.525 35.8516 27.255C35.9516 26.295 34.4516 26.305 34.3816 27.255ZM62.5316 24.445C64.5316 23.825 65.0216 21.315 64.7816 19.445C64.6616 18.505 63.1616 18.495 63.2816 19.445C63.4316 20.555 63.4316 22.495 62.1316 22.975C60.6016 23.525 59.7216 21.205 59.2616 20.165C58.8716 19.285 57.5716 20.045 57.9616 20.925C58.7816 22.775 60.1416 25.175 62.5316 24.445ZM67.8316 31.745C58 33.045 46.772 36.2535 37.4516 40.745C37.2527 40.745 37.062 40.824 36.9213 40.9646C36.7807 41.1053 36.7016 41.2961 36.7016 41.495C36.7016 41.6939 36.7807 41.8847 36.9213 42.0253C37.062 42.166 37.2527 42.245 37.4516 42.245C47.9116 37.5 58.2616 34.7652 68.5916 33.045C69.4116 32.535 68.6516 31.235 67.8316 31.745ZM43.4716 32.665C43.7341 32.794 44.0206 32.8668 44.3129 32.8787C44.6051 32.8905 44.8966 32.8412 45.1687 32.7339C45.4407 32.6266 45.6874 32.4636 45.8928 32.2554C46.0983 32.0472 46.2579 31.7984 46.3616 31.525C46.5579 31.7301 46.8032 31.8819 47.0744 31.9659C47.3456 32.0499 47.6338 32.0633 47.9116 32.005C48.3505 31.9337 48.7642 31.7523 49.114 31.4777C49.4637 31.2032 49.7382 30.8444 49.9116 30.435C50.2567 30.7564 50.6925 30.9635 51.1597 31.0279C51.6268 31.0924 52.1025 31.011 52.5216 30.795C54.5216 29.795 53.8716 27.265 52.8816 25.725C52.3616 24.915 51.0616 25.665 51.5816 26.485C52.1016 27.305 52.6616 28.235 51.9016 29.025C51.1416 29.815 50.8516 29.295 50.2616 28.555C50.1267 28.3548 50.0223 28.1358 49.9516 27.905C49.9362 27.8403 49.9162 27.7768 49.8916 27.715C49.5316 26.945 48.2316 27.495 48.5216 28.295C48.544 28.3698 48.5707 28.4433 48.6016 28.515C48.9216 29.315 48.0916 30.985 47.2616 30.345C46.9916 30.145 47.0016 29.415 46.9916 29.095C46.9916 28.8961 46.9126 28.7053 46.772 28.5646C46.6313 28.424 46.4406 28.345 46.2416 28.345C46.0427 28.345 45.852 28.424 45.7113 28.5646C45.5707 28.7053 45.4916 28.8961 45.4916 29.095C45.5041 29.5385 45.4293 29.9802 45.2716 30.395C44.5916 31.815 43.7616 31.265 43.3916 30.095C43.1084 29.1207 42.9735 28.1094 42.9916 27.095C42.9916 26.8961 42.9126 26.7053 42.772 26.5646C42.6313 26.424 42.4406 26.345 42.2416 26.345C42.0427 26.345 41.852 26.424 41.7113 26.5646C41.5707 26.7053 41.4916 26.8961 41.4916 27.095C41.5416 28.815 41.6816 31.815 43.4716 32.665ZM15.9716 61.545C16.3516 61.005 18.0816 59.305 18.7616 60.545C18.9916 60.975 17.5016 62.945 17.2716 63.295C16.6682 64.199 15.9998 65.058 15.2716 65.865C15.3457 66.4847 15.4728 67.097 15.6516 67.695C17.9916 65.465 20.6016 62.295 20.3716 59.765C20.1416 57.235 18.0716 57.475 16.3716 58.675C13.7816 60.555 13.3016 64.195 13.9516 67.215C14.405 66.7883 14.835 66.3383 15.2416 65.865C14.9908 64.3839 15.2481 62.8614 15.9716 61.545ZM86.2416 21.165C87.3316 32.785 81.1716 41.535 72.3016 48.165C66.6716 52.365 61.0316 56.535 56.6316 62.105C53.9016 65.565 52.7816 72.215 49.0516 74.715C44.0516 78.075 39.2516 71.935 36.5016 66.715C36.6009 65.0917 36.432 63.4633 36.0016 61.895C37.4816 66.295 44.3016 78.895 49.5616 71.835C52.3716 68.055 53.4716 63.455 56.6316 59.745C63.7816 51.355 75.5616 46.685 81.2316 37.105C83.6436 32.8168 84.8107 27.9405 84.6016 23.025C83.9925 23.6282 83.2816 24.1191 82.5016 24.475C81.987 24.7023 81.4594 24.8993 80.9216 25.065C80.9216 25.125 80.9216 25.195 80.9216 25.255C80.6716 32.325 76.3416 38.905 70.1216 43.395C60.5716 50.275 47.6116 53.685 36.1216 50.195C27.7216 47.645 19.0216 40.195 18.9116 30.925C11.5994 38.2234 6.20595 47.2171 3.21164 57.105C1.85164 61.455 -0.968362 72.835 7.26164 71.105C9.82565 70.4776 12.1656 69.1519 14.0216 67.275C14.1004 67.6602 14.2005 68.0408 14.3216 68.415C14.3716 68.565 14.4316 68.705 14.4916 68.855L13.4316 69.735C10.7816 71.845 5.72164 74.205 2.35164 72.265C-1.01836 70.325 0.0716377 64.655 0.581638 61.575C1.82164 54.005 5.58164 46.395 9.58164 39.955C12.0516 36.015 15.2216 32.955 18.3916 29.785L18.7216 29.455C18.4916 22.215 28.0016 14.375 31.6316 12.655C31.6608 12.6309 31.6876 12.6041 31.7116 12.575L32.2616 12.145C41.7816 4.59498 55.7816 -1.20502 68.0216 0.214976C74.9416 1.01498 80.4416 5.91498 83.5516 12.025C84.6816 11.135 85.7916 10.925 86.6416 12.195C88.0816 14.345 87.1416 18.625 86.2016 20.855C86.2116 20.965 86.2316 21.105 86.2416 21.165ZM32.2416 14.165C35.9216 19.265 47.2416 17.685 51.8616 15.785C55.9416 14.125 58.9816 10.915 62.8616 8.88498C63.5278 8.53437 64.2159 8.22707 64.9216 7.96498C65.8984 7.58192 66.9009 7.26782 67.9216 7.02498C72.2516 5.97498 77.2516 6.11498 78.8516 10.225C79.2116 11.125 77.7616 11.505 77.4116 10.625C76.3116 7.82498 73.5116 7.36498 70.4116 7.93498C73.5832 9.30407 76.2425 11.638 78.0116 14.605C78.5611 15.5028 79.0393 16.4423 79.4416 17.415C80.3023 15.8705 81.3068 14.4107 82.4416 13.055C79.9616 7.32498 75.3416 2.83498 68.5016 1.78498C59.2816 0.354977 48.7916 3.58498 40.2316 8.52498C37.6439 9.99478 35.1762 11.6666 32.8516 13.525C32.6216 13.815 32.4416 14.005 32.2716 14.195L32.2416 14.165ZM21.0816 27.105L21.2016 26.985C22.4516 25.695 23.6716 24.365 24.8116 22.985C26.2824 20.9293 27.6089 18.7741 28.7816 16.535C28.9116 16.325 29.0516 16.125 29.1916 15.915C25.1916 19.235 22.2416 22.335 21.0816 27.105ZM84.8716 20.105C85.194 19.2737 85.4482 18.4175 85.6316 17.545C85.9916 15.885 86.1516 13.995 85.4616 13.185C85.1916 12.865 84.7516 13.025 84.2416 13.455C83.8259 13.8339 83.4444 14.2489 83.1016 14.695C82.002 16.1505 80.9998 17.6772 80.1016 19.265L79.8116 19.765C79.7395 19.8848 79.6349 19.9818 79.51 20.0446C79.385 20.1074 79.2448 20.1335 79.1056 20.1199C78.9664 20.1063 78.8339 20.0536 78.7235 19.9677C78.613 19.8819 78.5292 19.7665 78.4816 19.635V19.525C78.4816 19.355 78.3916 19.185 78.3316 19.005C77.6163 16.5158 76.2686 14.2542 74.4198 12.4405C72.571 10.6267 70.2841 9.32257 67.7816 8.65498C65.0401 9.58838 62.4367 10.8867 60.0416 12.515C56.9716 14.705 54.0416 16.885 50.3716 17.965C45.3716 19.425 35.2516 20.195 31.2816 15.415C30.1816 17.005 29.3916 18.815 28.3716 20.485C26.2584 23.7712 23.6742 26.7294 20.7016 29.265C20.3367 32.0833 20.8464 34.9458 22.1616 37.465C28.1616 49.405 43.6416 51.905 55.4116 48.755C66.7016 45.755 78.8716 37.445 79.2516 25.565C78.3216 25.825 77.9716 24.495 78.8516 24.125L79.2616 23.955C79.7616 23.755 80.3116 23.535 80.8916 23.285C82.0736 22.8496 83.1627 22.1947 84.1016 21.355C84.2365 21.2121 84.3634 21.0619 84.4816 20.905C84.6361 20.6685 84.7667 20.4172 84.8716 20.155V20.105Z" fill="#A71057"/>
<path d="M32.2627 21.0581C32.8117 21.0581 33.3585 21.0078 33.8719 21.2383C34.7508 21.6329 35.6291 22.2578 36.3884 22.8445C36.7526 23.1259 37.1245 23.3772 37.5192 23.5745" stroke="#A71057" stroke-width="1.5" stroke-linecap="round"/>
<path d="M62.0122 14.2359C61.3042 14.2359 60.8062 14.2667 60.2538 14.7516C59.5708 15.3511 58.8653 15.9288 58.222 16.5721C57.447 17.3471 56.7923 18.2447 56.066 19.0636C55.7141 19.4604 55.3806 19.8728 55.0284 20.269C54.9034 20.4096 54.7883 20.5397 54.7426 20.7226" stroke="#A71057" stroke-width="1.5" stroke-linecap="round"/>
<path d="M122.158 37.7375C121.81 37.6909 121.361 36.9889 121.272 36.5017C121.198 36.1014 121.256 35.6879 121.436 35.3231L127.731 20.0047C118.876 30.9396 110.767 42.4585 103.46 54.4834C103.268 54.8002 102.591 54.1334 102.401 53.5351C102.253 53.0641 102.276 52.5558 102.465 52.0999C103.554 48.9105 104.756 45.8494 106.07 42.9167C106.791 41.2885 107.555 39.7255 108.317 38.1464C113.129 28.1542 117.959 18.1399 123.984 9.69651C113.289 18.8858 103.949 30.1523 96.0835 43.3246C95.9112 43.6121 95.2759 42.9756 95.1602 42.4313C95.1098 42.2355 95.1038 42.0308 95.1427 41.8323C95.1816 41.6338 95.2644 41.4465 95.385 41.2842C104.545 26.4295 115.55 13.9315 128.441 4.47992C128.549 4.36995 128.69 4.29911 128.843 4.27864C128.995 4.25816 129.15 4.28923 129.283 4.3669C129.644 4.58162 130.041 5.35016 129.829 5.52749C123.675 10.7831 119.493 18.8968 115.373 26.9621C111.943 33.6474 108.53 40.3528 105.621 47.6558L117.521 31.074C121.059 26.0878 124.632 21.1417 128.815 17.0823C128.92 16.9331 129.072 16.8244 129.248 16.7747C129.423 16.725 129.61 16.7372 129.777 16.8094C130.21 17.0127 130.742 17.8901 130.556 18.216C127.19 24.254 124.505 30.6477 122.552 37.279C122.482 37.5133 122.392 37.7652 122.158 37.7375Z" fill="#010101"/>
</svg>
