<svg width="164" height="172" viewBox="0 0 164 172" fill="none" xmlns="http://www.w3.org/2000/svg">
<path d="M103.734 86.876C104.386 85.853 104.413 85.538 103.72 84.566C102.699 83.134 101.657 81.718 100.61 80.306C100.293 79.878 99.9144 79.496 99.5884 79.075C99.0994 78.444 98.6294 77.8 98.1554 77.158C97.8074 76.686 97.4644 76.213 97.1244 75.735C96.6364 75.05 96.0844 74.399 95.6854 73.665C95.1254 72.639 94.1364 72.109 93.1854 72.277C90.9894 72.666 88.8134 72.34 86.6384 72.446C82.6924 72.639 78.7384 71.902 74.8024 72.595C74.5944 72.632 74.3754 72.6 74.1614 72.6C74.1544 72.545 74.1484 72.491 74.1414 72.435C71.4424 72.782 68.7484 73.169 66.0434 73.456C64.6204 73.606 63.5064 74.132 62.7424 75.37C62.5204 75.729 62.2034 76.034 61.9044 76.339C59.8844 78.399 57.8524 80.446 55.8344 82.507C54.8344 83.528 54.0404 84.772 52.6424 85.353C52.4664 85.426 52.2654 85.627 52.2234 85.805C51.9314 87.025 51.8114 88.27 52.5934 89.349C53.5934 90.73 54.7064 92.029 55.7244 93.397C57.7934 96.182 59.9084 98.938 61.8624 101.802C63.9064 104.798 65.8064 107.893 67.7194 110.977C68.3644 112.016 68.8624 113.146 69.4134 114.243C71.1884 117.77 72.9094 121.328 74.7514 124.82C75.5674 126.369 76.2254 126.352 77.3994 125.008C77.6074 124.771 77.8164 124.504 77.9234 124.214C78.8714 121.667 80.5844 119.61 82.1734 117.47C85.1024 113.527 88.0154 109.57 90.9114 105.602C91.8224 104.355 92.6624 103.056 93.5354 101.782C94.2884 100.682 95.0114 99.561 95.8024 98.49C98.1134 95.36 100.844 92.528 102.504 88.936C102.839 88.214 103.303 87.55 103.734 86.876ZM85.4654 74.103C86.1544 74.085 86.8464 74.1 87.6414 74.1C88.4934 74.146 89.4514 74.254 90.4064 74.238C92.7424 74.197 94.4494 75.197 95.7614 77.11C97.1744 79.172 98.7284 81.135 100.182 83.169C100.863 84.121 100.77 84.388 99.6994 84.789C98.3474 85.295 97.1004 85.959 95.8634 86.716C94.3324 87.652 92.7734 88.542 91.2574 89.51C90.0064 90.308 89.2764 89.979 88.9504 88.528C88.5974 86.958 88.0124 85.516 87.2974 84.066C86.0504 81.539 85.0564 78.885 83.9974 76.267C83.3384 74.638 83.6914 74.148 85.4654 74.103ZM81.8764 77.048C82.1644 77.039 82.5994 77.461 82.7414 77.791C84.1294 81.023 85.4844 84.269 86.8074 87.525C87.0654 88.161 87.2054 88.861 87.2854 89.545C87.4254 90.754 87.0484 91.274 85.8304 91.348C84.3444 91.44 82.8494 91.369 81.3574 91.369C81.3564 91.344 81.3554 91.317 81.3544 91.291C78.3194 91.373 75.2854 91.462 72.2494 91.519C71.9784 91.524 71.5694 91.377 71.4644 91.175C71.3514 90.959 71.4224 90.522 71.5824 90.307C73.4244 87.831 75.3054 85.385 77.1614 82.92C78.4424 81.219 79.6894 79.492 80.9754 77.795C81.2154 77.481 81.5664 77.056 81.8764 77.048ZM55.5184 85.831C55.9654 85.313 56.3294 84.721 56.7964 84.222C59.0174 81.851 61.1944 79.431 63.5244 77.169C64.7894 75.94 66.3794 75.095 68.2104 74.907C69.6914 74.755 71.1764 74.641 72.6594 74.495C73.1884 74.442 73.7204 74.375 74.2404 74.262C76.1494 73.849 78.1494 73.982 80.5634 74.812C79.8994 76.031 79.3634 77.173 78.6874 78.226C77.2124 80.52 75.5774 82.689 73.5464 84.543C73.0064 85.035 72.6164 85.701 72.1974 86.315C71.4754 87.373 70.8424 88.495 70.0704 89.512C68.7464 91.254 67.6514 91.56 65.6044 90.826C63.0914 89.927 60.5984 88.972 58.0854 88.073C57.3844 87.822 56.6254 87.737 55.9284 87.478C54.9014 87.098 54.8234 86.636 55.5184 85.831ZM73.5734 118.587C71.8254 114.991 70.0544 111.414 67.9064 108.032C66.1944 105.336 64.5934 102.567 62.8194 99.914C60.8624 96.987 58.7284 94.185 56.3694 91.56C55.6144 90.719 55.6404 90.696 55.5244 89.392C56.2274 89.518 56.9194 89.535 57.5244 89.771C60.5994 90.971 63.8614 91.764 66.5404 93.843C66.5824 93.876 66.6274 93.918 66.6764 93.926C68.6914 94.201 68.9914 95.788 69.4494 97.365C69.8484 98.74 70.5414 100.025 71.0404 101.375C72.3064 104.801 73.0574 108.347 73.4684 111.972C73.5274 112.495 73.7004 113.007 73.8264 113.523C74.1544 114.864 74.4974 116.202 74.8124 117.545C75.0624 118.612 75.2794 119.687 75.5514 120.94C74.2164 120.518 73.9724 119.409 73.5734 118.587ZM77.3294 117.838C77.1824 117.843 77.0354 117.85 76.8884 117.856C76.4704 115.956 76.0294 114.06 75.6424 112.153C75.3144 110.539 75.1024 108.897 74.7404 107.291C74.3304 105.472 73.8444 103.667 73.3234 101.876C73.1174 101.168 72.8094 100.46 72.4034 99.848C71.4084 98.349 70.8974 96.668 70.4314 94.968C70.1294 93.869 70.3924 93.4 71.5054 93.344C75.1224 93.162 78.7344 92.7 82.3674 93.136C83.3164 93.251 84.2904 93.15 85.2454 93.232C86.6164 93.349 86.8304 93.749 86.2984 94.977C84.7914 98.453 83.2384 101.91 81.8004 105.414C81.1164 107.08 80.6894 108.851 80.0764 110.549C79.1944 112.989 78.2484 115.408 77.3294 117.838ZM98.3734 92.602C97.3574 93.908 96.4044 95.281 95.2624 96.467C93.3124 98.491 92.1274 101.022 90.5154 103.265C87.3144 107.721 84.1264 112.187 80.9214 116.64C80.6534 117.012 80.2944 117.321 79.9314 117.707C79.3844 117.186 79.6604 116.719 79.8064 116.31C80.6164 114.047 81.4594 111.796 82.2794 109.537C83.2804 106.777 84.1774 103.974 85.2934 101.261C86.2464 98.945 87.3234 96.657 88.5844 94.495C89.2604 93.335 90.2854 92.224 91.4184 91.517C94.1314 89.825 96.9964 88.374 99.8154 86.857C100.253 86.621 100.777 86.544 101.261 86.392C101.342 86.509 101.424 86.625 101.506 86.742C100.703 88.819 99.7574 90.824 98.3734 92.602Z" fill="#A71057"/>
<path d="M87.9103 62.73C88.9923 59.947 89.9763 57.121 91.1813 54.391C92.1873 52.111 93.4323 49.935 94.6103 47.734C94.9083 47.178 95.3223 46.693 95.1493 46C94.0283 46.109 93.5963 46.396 93.1623 47.286C91.5753 50.539 89.9153 53.761 88.4333 57.061C87.6723 58.753 87.1953 60.579 86.6713 62.368C86.5843 62.666 86.8183 63.278 87.0753 63.409C87.6113 63.683 87.7583 63.124 87.9103 62.73Z" fill="#A71057"/>
<path d="M73.0674 60.539C73.0664 60.858 72.9214 61.265 73.0674 61.476C73.3064 61.823 73.7304 62.042 74.0754 62.316C74.2704 62.037 74.4994 61.774 74.6494 61.471C74.7374 61.293 74.7094 61.053 74.7164 60.841C74.8184 57.492 74.9454 54.145 74.9964 50.795C75.0084 50.016 74.8214 49.213 74.6044 48.456C74.4654 47.974 73.9744 47.608 73.4774 47.869C73.1914 48.018 72.9404 48.541 72.9464 48.891C72.9804 51.121 73.0894 53.351 73.1734 55.581C73.1384 55.581 73.1034 55.581 73.0674 55.582C73.0684 57.235 73.0704 58.888 73.0674 60.539Z" fill="#A71057"/>
<path d="M112.47 61.51C112.691 61.291 112.76 60.917 112.899 60.614C112.794 60.529 112.689 60.444 112.585 60.359C112.215 60.541 111.805 60.669 111.482 60.913C109.949 62.074 108.429 63.253 106.926 64.451C106.137 65.082 105.37 65.744 104.63 66.431C103.692 67.302 102.781 68.204 101.877 69.112C101.427 69.564 100.982 70.031 100.606 70.543C100.488 70.705 100.507 71.106 100.631 71.267C100.749 71.421 101.155 71.53 101.317 71.442C101.868 71.142 102.415 70.8 102.877 70.379C105.306 68.161 107.705 65.912 110.119 63.677C110.901 62.952 111.715 62.261 112.47 61.51Z" fill="#A71057"/>
<path d="M58.3412 65.358C58.6102 65.942 59.1562 66.396 59.6592 67.008C60.4102 66.115 60.1112 65.576 59.8452 64.963C59.2532 63.6 58.6982 62.215 58.2272 60.805C57.6712 59.138 57.2352 57.43 56.7172 55.749C56.4942 55.025 56.1812 54.344 55.2592 54.355C54.6332 54.9 54.9462 55.457 55.1242 56.002C55.7682 57.979 56.4023 59.957 57.0663 61.927C57.4573 63.085 57.8312 64.255 58.3412 65.358Z" fill="#A71057"/>
</svg>
