<svg width="87" height="137" viewBox="0 0 87 137" fill="none" xmlns="http://www.w3.org/2000/svg">
<path d="M86.9593 29.6968C86.8803 29.0085 86.7081 28.1583 86.1834 27.3002C85.6717 26.4424 84.7731 25.6588 83.6239 25.2555C82.0096 24.6899 80.4045 24.9664 79.1647 25.5376C77.9884 26.077 77.1219 26.9313 76.6497 27.7641C76.4903 27.3939 76.2762 27.0086 75.9878 26.6293C75.1305 25.495 73.6466 24.4346 71.6519 24.0928C70.658 23.936 69.5197 23.941 68.323 24.4002C67.7302 24.635 67.1244 24.9885 66.5941 25.5086C66.0586 26.0199 65.6239 26.7019 65.3489 27.4413C65.0493 28.2637 64.962 29.124 65.0142 29.9171C65.0228 30.1178 65.0472 30.3119 65.0707 30.5067C65.1036 30.7146 65.1194 30.8503 65.1785 31.1296C65.2972 31.6324 65.4623 31.9836 65.6286 32.3308C66.3117 33.6582 67.1072 34.7145 67.8686 35.8475C68.8634 37.2995 70.0248 38.5499 71.1542 39.6412C72.2862 40.7306 73.3829 41.6648 74.3052 42.4554L75.4399 43.4236C75.3978 43.4495 75.3544 43.4766 75.3152 43.4993C74.7786 43.8162 74.552 43.85 74.5577 43.8519C74.5597 43.8484 74.6369 43.8582 74.8318 43.8134C75.0025 43.7755 75.2653 43.6887 75.5893 43.5511L76.506 44.3338C77.0281 44.7822 77.3503 44.9994 77.3506 45C77.3458 45 76.9648 44.6014 76.4303 43.9109C76.2978 43.7449 76.1526 43.5625 75.997 43.3677C76.7382 43.0152 77.6921 42.4648 78.7003 41.7813C80.9869 40.2408 83.5562 38.0093 84.8761 36.0049C85.3727 35.2554 85.6673 34.7381 85.9108 34.2692C86.1516 33.7951 86.3452 33.3786 86.5852 32.7433C86.7004 32.4163 86.8376 32.0578 86.9391 31.4869C86.9498 31.4118 86.9632 31.3228 86.9691 31.2537L86.9813 31.0602C86.9908 30.9286 86.9973 30.791 86.9973 30.6468C87.0065 30.3608 86.9914 30.0434 86.9593 29.6968ZM85.4689 31.3446C85.354 32.0543 85.041 32.8212 84.7155 33.5042C84.3832 34.1934 84.0075 34.8246 83.6215 35.358C81.5995 38.1213 79.2859 40.3977 77.5035 41.8974C76.8707 42.4279 76.3023 42.8533 75.8364 43.1677C75.3844 42.6062 74.8525 41.9558 74.2643 41.2643C72.53 39.2174 70.2903 36.8154 69.0277 34.9032L67.9922 33.3053C67.7329 32.8925 67.504 32.5388 67.2257 32.0291C67.0894 31.7741 66.9382 31.4781 66.8073 31.1139C66.6781 30.7708 66.622 30.2905 66.5932 29.7177C66.5849 29.1502 66.6258 28.461 66.9388 27.7326C67.2402 27.0077 67.8639 26.2663 68.8293 25.8273C70.1805 25.2217 71.6774 25.2646 72.9262 25.6168C74.1879 25.9687 75.2321 26.6817 75.8901 27.4918C76.1007 27.7474 76.2667 28.0081 76.4024 28.2647C76.0989 29.0136 76.103 29.6539 76.1722 30.0639C76.2533 30.5417 76.3843 30.7699 76.3768 30.7714C76.3822 30.7727 76.3647 30.5644 76.4202 30.1671C76.4653 29.9058 76.5497 29.5542 76.7596 29.1531C76.8211 29.3752 76.8624 29.5823 76.8817 29.7612C76.9497 30.3542 76.8867 30.6805 76.8953 30.6796C76.8837 30.678 77.0254 30.3466 77.0397 29.6337C77.0438 29.3986 77.0227 29.1174 76.9672 28.8056C77.0299 28.7134 77.0973 28.6203 77.1754 28.525C77.7043 27.874 78.6771 27.1639 80.0511 26.8344C80.7309 26.6719 81.508 26.6053 82.2985 26.7356C83.084 26.8653 83.8879 27.1995 84.4533 27.8465C84.7672 28.2003 85.0653 28.6661 85.2563 29.2806C85.3519 29.5861 85.4196 29.925 85.4561 30.2835C85.4861 30.6392 85.5149 31.0359 85.4689 31.3446Z" fill="#A71057"/>
<path d="M47.6282 92.8074L48.963 93.2197C48.9951 93.0294 48.9618 92.8327 48.8698 92.6684C48.7777 92.5041 48.6335 92.3841 48.4658 92.3323C48.298 92.2805 48.1189 92.3006 47.9638 92.3885C47.8087 92.4765 47.6889 92.626 47.6282 92.8074ZM56.6567 92.8074L55.3219 92.3951C55.5351 91.4675 56.8143 91.8901 56.6567 92.859V92.8074ZM66.8068 96.9304C67.19 97.4114 67.5886 97.8752 68.0026 98.3218C67.9296 98.719 67.8368 99.1112 67.7245 99.4969C67.6782 99.6515 67.6226 99.7958 67.5669 99.9504C67.2147 99.6103 66.8347 99.2289 66.4546 98.8166C66.6198 98.2036 66.7377 97.576 66.8068 96.9407V96.9304ZM55.3219 92.4364L56.6567 92.8487C56.3972 94.0546 56.3045 95.8584 56.0913 97.6725C55.3568 96.0603 55.0881 94.2351 55.3219 92.4467V92.4364ZM47.6282 92.7971L48.963 93.2094C48.4684 94.7766 47.8672 96.2996 47.1647 97.7652C47.0737 96.0956 47.2303 94.4206 47.6282 92.8074V92.7971ZM48.5551 97.7549C48.9352 100.919 52.0034 104.97 54.2374 100.455C55.257 98.394 54.8121 94.7761 55.3312 92.4364C55.0954 94.2282 55.3641 96.0573 56.1005 97.6725C55.6741 101.29 54.7472 104.949 50.9281 103.95C48.3327 103.259 47.3408 100.579 47.2203 97.7652C47.9229 96.2996 48.524 94.7766 49.0186 93.2094C48.5876 94.6773 48.4269 96.2267 48.5459 97.7652L48.5551 97.7549ZM66.3712 99.0949C66.3712 99.0124 66.3712 98.9094 66.4453 98.8269C66.8254 99.2392 67.2054 99.6206 67.5577 99.9607C65.092 107.248 58.4643 103.311 56.082 97.6828C56.2952 95.8687 56.3879 94.0649 56.6474 92.859C55.7576 98.5486 63.924 106.887 66.3712 99.0949ZM49.1299 57.0926C49.2226 58.5047 49.547 61.4216 51.2804 61.4216C53.0138 61.4216 53.468 58.5562 53.6256 57.1338C53.7368 56.1649 55.1365 56.1031 55.016 57.1338C54.7565 59.4426 53.9129 62.9677 51.3082 62.9677C48.7035 62.9677 47.9248 59.4323 47.7672 57.0926C47.6745 56.1031 49.065 56.1134 49.1299 57.0926ZM23.0361 54.1962C21.1822 53.5572 20.728 50.97 20.9505 49.0426C21.0617 48.0737 22.4522 48.0634 22.3409 49.0426C22.2019 50.1867 22.2019 52.1863 23.4069 52.681C24.8252 53.2479 25.6409 50.8566 26.0673 49.7847C26.4288 48.8776 27.6338 49.661 27.2723 50.568C26.5122 52.4749 25.2516 54.9486 23.0361 54.1962ZM17.1963 60.6898C25.9255 66.7355 36.0002 69.9486 46.2841 69.9664C46.4685 69.9664 46.6453 70.0479 46.7757 70.1928C46.9061 70.3378 46.9793 70.5344 46.9793 70.7395C46.9793 70.9445 46.9061 71.1411 46.7757 71.2861C46.6453 71.4311 46.4685 71.5125 46.2841 71.5125C35.7536 71.4933 25.4365 68.2094 16.4919 62.0298C15.7318 61.5041 16.4362 60.1642 17.1963 60.6898ZM40.7039 62.6688C40.4606 62.8018 40.195 62.8768 39.9241 62.8891C39.6532 62.9013 39.383 62.8505 39.1308 62.7399C38.8786 62.6292 38.65 62.4613 38.4595 62.2467C38.2691 62.0321 38.1211 61.7757 38.025 61.4938C37.8431 61.7053 37.6157 61.8617 37.3643 61.9483C37.1129 62.0348 36.8458 62.0487 36.5882 61.9885C36.1813 61.9151 35.7979 61.7281 35.4737 61.4451C35.1495 61.1621 34.8951 60.7923 34.7343 60.3703C34.4145 60.7016 34.0104 60.9151 33.5774 60.9815C33.1444 61.0479 32.7035 60.964 32.3149 60.7414C30.461 59.7106 31.0636 57.1029 31.9812 55.5156C32.4633 54.6807 33.6683 55.4537 33.1863 56.2989C32.7043 57.1441 32.1852 58.1027 32.8897 58.917C33.5941 59.7312 33.863 59.1953 34.4099 58.4325C34.5349 58.2262 34.6318 58.0004 34.6972 57.7625C34.7115 57.6959 34.7301 57.6304 34.7528 57.5667C35.0865 56.773 36.2916 57.3399 36.0228 58.1645C36.002 58.2417 35.9773 58.3174 35.9486 58.3913C35.652 59.2159 36.4213 60.9372 37.1907 60.2775C37.441 60.0714 37.4317 59.319 37.441 58.9891C37.441 58.7841 37.5142 58.5875 37.6446 58.4425C37.775 58.2975 37.9518 58.2161 38.1362 58.2161C38.3206 58.2161 38.4974 58.2975 38.6278 58.4425C38.7582 58.5875 38.8314 58.7841 38.8314 58.9891C38.8199 59.4463 38.8892 59.9016 39.0353 60.3291C39.6657 61.7927 40.435 61.2258 40.778 60.0199C41.0406 59.0157 41.1656 57.9732 41.1488 56.9277C41.1488 56.7226 41.222 56.526 41.3524 56.381C41.4828 56.2361 41.6596 56.1546 41.844 56.1546C42.0284 56.1546 42.2052 56.2361 42.3356 56.381C42.466 56.526 42.5392 56.7226 42.5392 56.9277C42.4929 58.7005 42.3631 61.7927 40.7039 62.6688ZM66.1951 92.4364C65.8428 91.8798 64.2392 90.1275 63.6089 91.4056C63.3957 91.8488 64.7768 93.8794 64.99 94.2401C65.5494 95.172 66.169 96.0573 66.8439 96.8891C66.7753 97.5279 66.6574 98.159 66.4917 98.7754C64.3226 96.4768 61.9033 93.2094 62.1165 90.6017C62.3297 87.9939 64.2485 88.2413 65.8243 89.4782C68.2251 91.4159 68.67 95.1678 68.0675 98.2806C67.6473 97.8408 67.2487 97.377 66.8717 96.8891C67.1042 95.3625 66.8658 93.7933 66.1951 92.4364ZM1.05811 50.8154C0.0477317 62.7925 5.75776 71.8114 13.9798 78.6452C19.1986 82.9742 24.4266 87.2724 28.5052 93.0136C31.0357 96.5799 32.0739 103.434 35.5315 106.011C40.1662 109.474 44.6156 103.146 47.1647 97.7652C47.0727 96.0921 47.2293 94.4136 47.6282 92.7971C46.2563 97.3323 39.9345 110.32 35.0587 103.043C32.454 99.1464 31.4343 94.4051 28.5052 90.581C21.8775 81.9332 10.958 77.1197 5.70214 67.2453C3.46639 62.8253 2.38452 57.7992 2.57831 52.7326C3.14298 53.3543 3.80197 53.8603 4.52491 54.2271C5.002 54.4615 5.49104 54.6645 5.9895 54.8353C5.9895 54.8971 5.9895 54.9693 5.9895 55.0311C6.22123 62.3184 10.2349 69.1006 16.0006 73.7286C24.853 80.82 36.8663 84.3348 47.517 80.7376C55.3034 78.1092 63.3678 70.4302 63.4698 60.8754C70.2479 68.3981 75.2474 77.6682 78.023 87.8599C79.2836 92.3436 81.8976 104.073 74.2688 102.29C71.8921 101.644 69.7231 100.277 68.0026 98.3425C67.9296 98.7396 67.8368 99.1319 67.7245 99.5175C67.6782 99.6721 67.6226 99.8164 67.5669 99.971L68.5495 100.878C71.0059 103.053 75.6963 105.485 78.8201 103.486C81.944 101.486 80.9336 95.6419 80.4608 92.4673C79.3114 84.6646 75.8261 76.8208 72.1183 70.1829C69.8287 66.1218 66.8903 62.9677 63.9518 59.7003L63.6459 59.3602C63.8591 51.8977 55.0438 43.8167 51.679 42.0439C51.652 42.0191 51.6272 41.9914 51.6048 41.9614L51.095 41.5182C42.2704 33.7362 29.2931 27.7579 17.9472 29.2216C11.5327 30.0462 6.43444 35.0968 3.55161 41.3945C2.50416 40.4772 1.47524 40.2607 0.687327 41.5698C-0.647484 43.7858 0.223854 48.1974 1.09519 50.4959C1.08592 50.6093 1.06738 50.7536 1.05811 50.8154ZM51.1135 43.6003C47.7024 48.857 37.2092 47.2285 32.9267 45.2701C29.1448 43.5591 26.3268 40.2504 22.7303 38.158C22.1127 37.7966 21.4749 37.4799 20.8207 37.2098C19.9153 36.8149 18.9861 36.4912 18.0399 36.2409C14.0262 35.1586 9.39141 35.3029 7.90829 39.5392C7.57458 40.4669 8.91867 40.8585 9.2431 39.9515C10.2627 37.0655 12.8582 36.5913 15.7318 37.1788C12.7919 38.59 10.3268 40.9956 8.68692 44.0538C8.17759 44.9792 7.73438 45.9476 7.36138 46.9502C6.56359 45.3583 5.63252 43.8536 4.58052 42.4562C6.87937 36.5501 11.1619 31.9221 17.5022 30.8398C26.0487 29.3659 35.7725 32.6951 43.7072 37.787C46.1059 39.3019 48.3933 41.0252 50.5481 42.9406C50.7613 43.2395 50.9281 43.4354 51.0857 43.6312L51.1135 43.6003ZM61.4583 56.938L61.3471 56.8143C60.1884 55.4846 59.0575 54.1138 58.0008 52.6913C56.6375 50.5724 55.4079 48.351 54.3208 46.0431C54.2003 45.8267 54.0705 45.6205 53.9407 45.4041C57.6486 48.8261 60.3831 52.0214 61.4583 56.938ZM2.32804 49.7228C2.02921 48.866 1.7936 47.9835 1.62355 47.0842C1.28985 45.3732 1.14153 43.4251 1.78113 42.5902C2.03141 42.2603 2.43927 42.4253 2.91201 42.8685C3.29742 43.2591 3.65104 43.6868 3.96874 44.1466C4.98808 45.6468 5.91706 47.2204 6.7496 48.857L7.01841 49.3724C7.08526 49.4959 7.18222 49.5958 7.29805 49.6606C7.41389 49.7254 7.54385 49.7523 7.67289 49.7383C7.80192 49.7242 7.92474 49.6698 8.02711 49.5814C8.12947 49.4929 8.20719 49.374 8.25126 49.2384V49.125C8.25126 48.9498 8.33468 48.7746 8.3903 48.589C9.05341 46.0234 10.3026 43.6923 12.0164 41.8228C13.7302 39.9533 15.85 38.6091 18.1696 37.921C20.711 38.8831 23.1242 40.2213 25.3443 41.8996C28.19 44.1569 30.906 46.4039 34.3079 47.5171C38.9427 49.0219 48.3234 49.8156 52.0034 44.8887C53.0231 46.5276 53.7554 48.3932 54.7008 50.1145C56.6597 53.5017 59.0552 56.5509 61.8106 59.1643C62.1488 62.0693 61.6764 65.0197 60.4572 67.6163C54.8955 79.9233 40.5463 82.5001 29.636 79.2533C19.1708 76.1611 7.88975 67.5957 7.5375 55.3506C8.39957 55.6186 8.72401 54.2478 7.90829 53.8664L7.52823 53.6912C7.06476 53.485 6.55494 53.2582 6.0173 53.0006C4.92164 52.5518 3.9121 51.8768 3.04179 51.0113C2.91676 50.864 2.79917 50.7091 2.68955 50.5474C2.5464 50.3036 2.4253 50.0447 2.32804 49.7744V49.7228Z" fill="#A71057"/>
</svg>
