<svg width="89" height="136" viewBox="0 0 89 136" fill="none" xmlns="http://www.w3.org/2000/svg">
<path d="M47.6282 92.8074L48.963 93.2197C48.9951 93.0294 48.9618 92.8327 48.8698 92.6684C48.7777 92.5041 48.6335 92.3841 48.4658 92.3323C48.298 92.2805 48.1189 92.3006 47.9638 92.3885C47.8087 92.4765 47.6889 92.626 47.6282 92.8074ZM56.6567 92.8074L55.3219 92.3951C55.5351 91.4675 56.8143 91.8901 56.6567 92.859V92.8074ZM66.8068 96.9304C67.19 97.4114 67.5886 97.8752 68.0026 98.3218C67.9296 98.719 67.8368 99.1112 67.7245 99.4969C67.6782 99.6515 67.6226 99.7958 67.5669 99.9504C67.2147 99.6103 66.8347 99.2289 66.4546 98.8166C66.6199 98.2036 66.7377 97.576 66.8068 96.9407V96.9304ZM55.3219 92.4364L56.6567 92.8487C56.3972 94.0546 56.3045 95.8584 56.0913 97.6725C55.3568 96.0603 55.0881 94.2351 55.3219 92.4467V92.4364ZM47.6282 92.7971L48.963 93.2094C48.4684 94.7766 47.8672 96.2996 47.1647 97.7652C47.0737 96.0956 47.2303 94.4206 47.6282 92.8074V92.7971ZM48.5551 97.7549C48.9352 100.919 52.0034 104.97 54.2374 100.455C55.257 98.394 54.8121 94.7761 55.3312 92.4364C55.0954 94.2282 55.3641 96.0573 56.1005 97.6725C55.6741 101.29 54.7472 104.949 50.9281 103.95C48.3327 103.259 47.3408 100.579 47.2203 97.7652C47.9229 96.2996 48.524 94.7766 49.0186 93.2094C48.5876 94.6774 48.4269 96.2267 48.5459 97.7652L48.5551 97.7549ZM66.3712 99.0949C66.3712 99.0124 66.3712 98.9094 66.4453 98.8269C66.8254 99.2392 67.2054 99.6206 67.5577 99.9607C65.092 107.248 58.4643 103.311 56.082 97.6828C56.2952 95.8687 56.3879 94.0649 56.6474 92.859C55.7576 98.5486 63.924 106.887 66.3712 99.0949ZM49.1299 57.0926C49.2226 58.5047 49.547 61.4216 51.2804 61.4216C53.0138 61.4216 53.468 58.5562 53.6256 57.1338C53.7368 56.1649 55.1365 56.1031 55.016 57.1338C54.7565 59.4426 53.9129 62.9677 51.3082 62.9677C48.7035 62.9677 47.9248 59.4323 47.7672 57.0926C47.6745 56.1031 49.065 56.1134 49.1299 57.0926ZM23.0362 54.1962C21.1823 53.5572 20.728 50.97 20.9505 49.0426C21.0617 48.0737 22.4522 48.0634 22.3409 49.0426C22.2019 50.1867 22.2019 52.1863 23.4069 52.681C24.8252 53.2479 25.6409 50.8566 26.0673 49.7847C26.4288 48.8776 27.6338 49.661 27.2723 50.568C26.5122 52.4749 25.2516 54.9486 23.0362 54.1962ZM40.7039 62.6688C40.4606 62.8018 40.195 62.8768 39.9241 62.8891C39.6532 62.9013 39.383 62.8505 39.1308 62.7399C38.8786 62.6292 38.65 62.4613 38.4595 62.2467C38.2691 62.0321 38.1211 61.7757 38.025 61.4938C37.8431 61.7053 37.6157 61.8617 37.3643 61.9482C37.1129 62.0348 36.8458 62.0487 36.5882 61.9885C36.1814 61.9151 35.7979 61.7281 35.4737 61.4451C35.1495 61.1621 34.8951 60.7923 34.7343 60.3703C34.4145 60.7016 34.0104 60.9151 33.5774 60.9815C33.1444 61.0479 32.7035 60.964 32.3149 60.7414C30.461 59.7106 31.0636 57.1029 31.9812 55.5156C32.4633 54.6807 33.6683 55.4537 33.1863 56.2989C32.7043 57.1441 32.1852 58.1027 32.8897 58.917C33.5941 59.7312 33.863 59.1953 34.4099 58.4325C34.5349 58.2262 34.6318 58.0004 34.6972 57.7625C34.7115 57.6959 34.7301 57.6304 34.7528 57.5667C35.0865 56.773 36.2916 57.3399 36.0228 58.1645C36.002 58.2417 35.9773 58.3174 35.9486 58.3913C35.652 59.2159 36.4213 60.9372 37.1907 60.2775C37.441 60.0714 37.4317 59.319 37.441 58.9891C37.441 58.7841 37.5142 58.5875 37.6446 58.4425C37.775 58.2975 37.9518 58.2161 38.1362 58.2161C38.3206 58.2161 38.4974 58.2975 38.6278 58.4425C38.7582 58.5875 38.8314 58.7841 38.8314 58.9891C38.8199 59.4463 38.8892 59.9016 39.0354 60.3291C39.6657 61.7927 40.4351 61.2258 40.778 60.0199C41.0406 59.0157 41.1656 57.9732 41.1488 56.9277C41.1488 56.7226 41.222 56.526 41.3524 56.381C41.4828 56.2361 41.6596 56.1546 41.844 56.1546C42.0284 56.1546 42.2052 56.2361 42.3356 56.381C42.466 56.526 42.5392 56.7226 42.5392 56.9277C42.4929 58.7005 42.3631 61.7927 40.7039 62.6688ZM66.1951 92.4364C65.8428 91.8798 64.2392 90.1275 63.6089 91.4056C63.3957 91.8489 64.7768 93.8794 64.99 94.2402C65.5494 95.172 66.169 96.0573 66.8439 96.8891C66.7753 97.5279 66.6574 98.159 66.4917 98.7754C64.3226 96.4768 61.9033 93.2094 62.1165 90.6017C62.3297 87.9939 64.2485 88.2413 65.8243 89.4782C68.2251 91.4159 68.67 95.1678 68.0675 98.2806C67.6473 97.8408 67.2487 97.377 66.8717 96.8891C67.1042 95.3625 66.8658 93.7933 66.1951 92.4364ZM1.05812 50.8154C0.0477446 62.7925 5.75777 71.8114 13.9798 78.6452C19.1986 82.9742 24.4266 87.2724 28.5052 93.0136C31.0358 96.5799 32.0739 103.434 35.5315 106.011C40.1662 109.474 44.6156 103.146 47.1647 97.7652C47.0727 96.0921 47.2293 94.4136 47.6282 92.7971C46.2563 97.3323 39.9345 110.32 35.0587 103.043C32.454 99.1464 31.4343 94.4051 28.5052 90.581C21.8775 81.9332 10.958 77.1197 5.70215 67.2453C3.4664 62.8253 2.38453 57.7992 2.57832 52.7326C3.14298 53.3543 3.80197 53.8603 4.52492 54.2271C5.00201 54.4615 5.49104 54.6645 5.9895 54.8353C5.9895 54.8971 5.9895 54.9693 5.9895 55.0311C6.22124 62.3184 10.235 69.1006 16.0006 73.7286C24.853 80.82 36.8663 84.3348 47.517 80.7376C55.3034 78.1092 63.3679 70.4302 63.4698 60.8754C70.2479 68.3981 75.2474 77.6682 78.023 87.8599C79.2836 92.3436 81.8976 104.073 74.2688 102.29C71.8921 101.644 69.7231 100.277 68.0026 98.3425C67.9296 98.7396 67.8368 99.1319 67.7245 99.5175C67.6782 99.6721 67.6226 99.8164 67.5669 99.971L68.5495 100.878C71.0059 103.053 75.6963 105.485 78.8201 103.486C81.944 101.486 80.9336 95.6419 80.4608 92.4673C79.3114 84.6646 75.8261 76.8208 72.1183 70.1829C69.8287 66.1218 66.8903 62.9677 63.9518 59.7003L63.6459 59.3602C63.8591 51.8977 55.0438 43.8167 51.679 42.0439C51.652 42.0191 51.6272 41.9914 51.6048 41.9614L51.095 41.5182C42.2704 33.7362 29.2931 27.7579 17.9472 29.2216C11.5327 30.0462 6.43444 35.0968 3.55162 41.3945C2.50417 40.4772 1.47524 40.2607 0.687334 41.5698C-0.647477 43.7858 0.223866 48.1974 1.0952 50.4959C1.08593 50.6093 1.06739 50.7536 1.05812 50.8154ZM51.1135 43.6003C47.7024 48.857 37.2093 47.2285 32.9267 45.2701C29.1448 43.5591 26.3268 40.2504 22.7303 38.158C22.1127 37.7966 21.4749 37.4799 20.8207 37.2098C19.9153 36.8149 18.9861 36.4912 18.0399 36.2409C14.0262 35.1586 9.39142 35.3029 7.9083 39.5392C7.57459 40.4669 8.91868 40.8585 9.24311 39.9515C10.2628 37.0655 12.8582 36.5913 15.7318 37.1788C12.7919 38.59 10.3269 40.9956 8.68693 44.0538C8.17759 44.9792 7.73439 45.9476 7.36139 46.9502C6.5636 45.3583 5.63253 43.8536 4.58054 42.4562C6.87938 36.5501 11.1619 31.9221 17.5023 30.8398C26.0488 29.3659 35.7725 32.6951 43.7072 37.787C46.1059 39.3019 48.3934 41.0252 50.5481 42.9406C50.7613 43.2395 50.9281 43.4354 51.0857 43.6312L51.1135 43.6003ZM61.4583 56.938L61.3471 56.8143C60.1884 55.4846 59.0575 54.1138 58.0008 52.6913C56.6375 50.5724 55.4079 48.3511 54.3208 46.0431C54.2003 45.8267 54.0705 45.6205 53.9407 45.4041C57.6486 48.8261 60.3831 52.0214 61.4583 56.938ZM2.32804 49.7228C2.02922 48.866 1.79361 47.9835 1.62356 47.0842C1.28986 45.3732 1.14154 43.4251 1.78114 42.5902C2.03141 42.2603 2.43928 42.4253 2.91203 42.8685C3.29744 43.2591 3.65105 43.6868 3.96875 44.1466C4.98809 45.6468 5.91706 47.2204 6.7496 48.857L7.01843 49.3724C7.08527 49.4959 7.18222 49.5958 7.29806 49.6606C7.41389 49.7254 7.54386 49.7523 7.67289 49.7383C7.80192 49.7242 7.92475 49.6698 8.02712 49.5814C8.12948 49.4929 8.2072 49.374 8.25127 49.2384V49.125C8.25127 48.9498 8.33469 48.7746 8.39031 48.589C9.05341 46.0234 10.3027 43.6923 12.0164 41.8228C13.7302 39.9533 15.85 38.6091 18.1697 37.921C20.711 38.8831 23.1242 40.2213 25.3443 41.8996C28.19 44.1569 30.906 46.4039 34.3079 47.5171C38.9427 49.0219 48.3234 49.8156 52.0034 44.8887C53.0231 46.5276 53.7554 48.3932 54.7008 50.1145C56.6597 53.5017 59.0552 56.5509 61.8106 59.1643C62.1488 62.0693 61.6764 65.0197 60.4572 67.6163C54.8955 79.9233 40.5463 82.5001 29.6361 79.2533C19.1708 76.1611 7.88976 67.5957 7.53751 55.3506C8.39958 55.6186 8.72401 54.2478 7.9083 53.8664L7.52825 53.6912C7.06477 53.485 6.55494 53.2582 6.01731 53.0006C4.92165 52.5518 3.9121 51.8768 3.0418 51.0113C2.91677 50.864 2.79918 50.7091 2.68955 50.5474C2.5464 50.3036 2.42531 50.0447 2.32804 49.7744V49.7228Z" fill="#A71057"/>
<path d="M67.5414 43.8912C67.6216 43.8145 67.6974 43.7334 67.7687 43.6483C67.8518 43.5505 67.9286 43.4466 68.0032 43.3419C68.157 43.1261 68.2984 42.9017 68.4437 42.6801C68.5927 42.4523 68.7374 42.2232 68.9021 42.0063C68.9791 41.905 69.0607 41.8075 69.147 41.7136L69.1961 41.6625C69.1679 41.6914 69.2257 41.6343 69.2335 41.627L69.3963 41.4886L69.5434 41.3821L69.591 41.3526L69.6428 41.3252L69.8086 41.2516L69.8955 41.2222L69.9457 41.2115L70.0801 41.1958H70.1438L70.2377 41.202C70.3783 41.2139 70.5181 41.2388 70.6569 41.2626C70.9496 41.3231 71.2486 41.3479 71.5474 41.3366C71.8665 41.3067 72.1677 41.177 72.408 40.966C73.0216 40.4655 72.9689 39.4857 72.9475 38.7788L72.924 38.1827L72.9148 37.9031L72.9126 37.7841V37.7012C72.913 37.5362 72.9242 37.3715 72.9463 37.208L72.965 37.1046L72.971 37.0782L73.0224 36.9472L73.0431 36.92L73.0542 36.914L73.0893 36.91L73.1468 36.916L73.2172 36.929L73.2259 36.9314C73.3586 36.9751 73.487 37.031 73.6093 37.0984C73.6677 37.1223 73.7308 37.1326 73.7938 37.1284C73.8569 37.1241 73.9181 37.1056 73.9727 37.0741C74.0273 37.0425 74.074 36.999 74.109 36.9467C74.144 36.8944 74.1664 36.8348 74.1746 36.7725C74.1827 36.2928 74.0998 35.8159 73.9304 35.3667C73.7663 34.8761 73.5494 34.4026 73.3384 33.9305C73.1212 33.4425 72.9018 32.9551 72.7237 32.4511L72.6438 32.2101C72.9389 32.7253 73.2586 33.2275 73.5789 33.7215C73.8777 34.1826 74.1868 34.6372 74.4767 35.1039C74.7993 35.6238 75.1188 36.145 75.4773 36.6413C75.972 37.4355 76.6853 38.0719 77.5327 38.4749C77.6003 38.5015 77.6738 38.5101 77.7458 38.4999C77.8178 38.4897 77.8859 38.461 77.9434 38.4167C78.0009 38.3724 78.0458 38.3139 78.0737 38.2471C78.1016 38.1803 78.1115 38.1074 78.1025 38.0356C78.0095 37.4067 77.8046 36.7993 77.4972 36.242C77.174 35.6323 76.8109 35.0444 76.4102 34.4821C76.0684 33.99 75.7094 33.5094 75.3747 33.012C74.9994 32.4544 74.6396 31.8859 74.2232 31.3573C73.7722 30.7481 73.1921 30.245 72.524 29.8835L72.4966 29.8712L72.4215 29.6451L72.3894 29.5388L72.3842 29.5219L72.3799 29.5052L72.3261 29.2952C72.291 29.1469 72.2629 28.9963 72.2406 28.8456C72.2207 28.7105 72.2085 28.5745 72.2014 28.4382L72.1999 28.3876L72.1993 28.3192L72.2114 28.0896C72.2201 27.9865 72.2351 27.8841 72.2562 27.7828L72.2673 27.7329L72.2962 27.632L72.3722 27.4387L72.4101 27.3634L72.4234 27.3417L72.5255 27.211L72.5937 27.1551L72.6365 27.125L72.6456 27.12L72.7742 27.0673L72.7899 27.0638L72.8704 27.0495L72.9535 27.0406L73.007 27.0385C73.1187 27.0432 73.2299 27.0571 73.3393 27.0798L73.4355 27.1013L73.4435 27.1041L73.6661 27.1759C73.9657 27.2874 74.2554 27.4238 74.5319 27.5838L74.6257 27.639L74.6709 27.6665C74.9406 28.3162 75.2086 28.9665 75.4857 29.6127C76.5883 32.4269 78.0933 35.068 79.9543 37.4546C80.2467 37.8053 80.5073 38.1778 80.8175 38.5144C81.0988 38.8663 81.4597 39.1471 81.8707 39.3339C82.0878 39.4175 82.328 39.4205 82.5471 39.3423C82.7709 39.242 82.9506 39.0646 83.0532 38.8429L83.1021 38.7464L83.3483 39.0822C84.3751 40.5983 85.7388 41.8591 87.334 42.7671C87.3848 42.7882 87.4394 42.7992 87.4945 42.7993C87.5496 42.7995 87.6042 42.7888 87.6552 42.7679C87.7061 42.7471 87.7525 42.7164 87.7915 42.6777C87.8305 42.639 87.8615 42.593 87.8827 42.5424C88.0897 41.8065 88.0546 41.0241 87.7825 40.3095C87.57 39.62 87.2844 38.944 87.0118 38.2761C86.5604 37.1701 86.0507 36.0882 85.4999 35.0274C85.7718 35.2777 86.0507 35.5175 86.3471 35.7424C86.7444 36.0937 87.259 36.2852 87.7906 36.2797C88.2943 36.2192 88.5636 35.719 88.6625 35.2772C88.7509 34.7651 88.7419 34.241 88.636 33.7322C88.5649 33.2865 88.4534 32.849 88.3532 32.4091C88.2045 31.7551 88.0197 31.1096 87.8079 30.4734C87.3712 29.172 86.8146 27.9134 86.1451 26.7138C84.8071 24.2505 82.9992 22.0703 80.8225 20.2951C79.9394 19.5756 78.9756 18.9603 77.9502 18.4613C77.5212 18.1932 77.0315 18.0365 76.5258 18.0056C76.0201 17.9748 75.5147 18.0707 75.056 18.2847C74.6231 18.598 74.3239 19.0614 74.2178 19.5833C74.1079 20.0512 74.0818 20.5347 74.1406 21.0116C74.0702 21.0248 74.0043 21.0552 73.9486 21.0999C73.8928 21.1447 73.8491 21.2024 73.8212 21.268C73.3298 22.6865 73.3582 24.2322 73.9015 25.6319C73.9903 25.9163 74.0893 26.1975 74.1939 26.476C73.8426 26.3135 73.4629 26.2205 73.0759 26.2021C72.751 26.1888 72.4293 26.27 72.1501 26.4357C71.8949 26.6049 71.6962 26.8457 71.5791 27.1276C71.4055 27.5493 71.3278 28.004 71.3515 28.4591C71.3766 29.0766 71.5029 29.6859 71.7255 30.2629L71.7921 30.4446C71.5716 31.2378 71.6391 32.0829 71.9828 32.8315C72.3362 33.8212 72.8542 34.7451 73.1878 35.7427L73.2307 35.8771L73.2463 35.9298L73.2548 35.9593L73.2934 36.1175C73.1105 36.0852 72.9223 36.1001 72.7468 36.1609C72.5869 36.2379 72.4492 36.354 72.3466 36.4984C72.2441 36.6428 72.18 36.8106 72.1604 36.9863C72.0999 37.3498 72.0842 37.7194 72.1137 38.0867L72.1391 38.6768L72.15 38.9638L72.1538 39.106L72.1552 39.1763L72.1557 39.1962C72.1573 39.3777 72.1491 39.5591 72.131 39.7397L72.094 39.9796L72.0761 40.0562L72.0517 40.128L72.0121 40.224L71.9866 40.2712L71.9537 40.3176L71.9286 40.348L71.8036 40.452L71.7454 40.4895L71.6833 40.5178L71.6022 40.5481C71.6694 40.5255 71.5782 40.5527 71.564 40.5554L71.3796 40.5772H71.3131L71.2147 40.571L71.0165 40.5489C70.8734 40.5298 70.7315 40.5038 70.589 40.4814C70.3128 40.4244 70.0278 40.425 69.7518 40.4831C69.1935 40.6535 68.7096 41.0066 68.3786 41.4851C68.254 41.649 68.1418 41.8225 68.0338 41.9977L67.9701 42.1057C68.0058 42.0389 67.9533 42.1322 67.9493 42.1384L67.8371 42.3308L67.6789 42.6126C67.572 42.8039 67.529 42.8818 67.4044 43.075L67.2377 43.3149L67.1289 43.4714C67.1602 43.4167 67.0743 43.5131 67.0623 43.5253C67.0136 43.5885 66.9922 43.6682 67.0026 43.7471C67.013 43.826 67.0544 43.8976 67.1178 43.9461C67.182 43.9929 67.2618 44.0134 67.3407 44.0031C67.4196 43.9929 67.4915 43.9528 67.5414 43.8912ZM82.4436 38.0728L82.4214 38.1779L82.4133 38.2114L82.4081 38.229C82.3836 38.3131 82.3521 38.3949 82.3139 38.4737L82.258 38.5568L82.2388 38.5733L82.2187 38.5711L82.199 38.5682L82.0883 38.5218L82.067 38.511L82.0574 38.5051C81.9739 38.4515 81.8944 38.3921 81.8194 38.3273L81.7075 38.2286L81.6516 38.1754C81.5692 38.0929 81.4882 38.0037 81.4112 37.9168C81.2558 37.7414 81.1092 37.5581 80.9654 37.3727C80.588 36.8874 80.2026 36.4064 79.8419 35.9086C79.6236 35.6068 79.4141 35.2981 79.211 34.9858C79.1131 34.8358 79.0171 34.6845 78.9229 34.5319L78.7823 34.3017L78.7129 34.1868L78.6766 34.1255L78.6544 34.0881C77.9029 32.7842 77.2271 31.4385 76.6303 30.0577C76.4166 29.5727 76.2079 29.0856 76.0043 28.5965C76.5081 28.9885 76.9926 29.4061 77.4642 29.8351C77.6468 30.0008 77.8268 30.1689 78.0044 30.3394L78.3444 30.9924C79.0961 32.418 79.8971 33.8168 80.7473 35.189C81.3045 36.0918 81.8767 36.9884 82.4789 37.8643L82.4436 38.0728ZM81.7068 34.8593C81.8665 35.1367 82.0096 35.4234 82.1352 35.7176C82.18 35.8236 82.2214 35.9311 82.2599 36.0396L81.9608 35.5738C81.3935 34.6881 80.8482 33.7895 80.325 32.8782C80.6315 33.279 80.936 33.6805 81.2219 34.097C81.3095 34.2246 81.3951 34.3539 81.4787 34.4849L81.6019 34.6822L81.6524 34.7655L81.7068 34.8593ZM86.3244 38.8251C86.5598 39.4094 86.8021 39.9974 86.9954 40.5972L87.0214 40.68L87.0463 40.7624L87.1031 40.9906C87.1373 41.1408 87.1626 41.2928 87.1789 41.4459L87.1927 41.6506V41.6641L87.1915 41.7009L87.19 41.7346C87.0589 41.6536 86.9305 41.5678 86.8045 41.4793C86.5178 41.2767 86.2433 41.0576 85.9824 40.8232C85.735 40.604 85.4997 40.3716 85.2776 40.127C85.0366 39.8671 84.8067 39.5963 84.5837 39.321C84.1424 38.7764 83.7263 38.2112 83.3257 37.6356C83.335 37.4281 83.3309 37.2203 83.3136 37.0133C83.1196 35.7066 82.5846 34.4733 81.7618 33.4363C81.2917 32.7447 80.7802 32.0817 80.23 31.4511C79.7333 30.8972 79.2157 30.3599 78.6773 29.8393C78.242 28.9894 77.8217 28.1298 77.4163 27.2603C77.0068 26.3827 76.5431 25.5307 76.1371 24.6516C75.8942 24.1249 75.6663 23.5912 75.4664 23.0471C75.3672 22.7788 75.2769 22.5073 75.1955 22.2324L75.1926 22.2233L75.2382 22.2527C75.3711 22.3392 75.4994 22.4326 75.6225 22.5324C75.7395 22.6261 75.8512 22.7251 75.9602 22.8268L76.042 22.9049L76.0624 22.9246L76.0711 22.9338L76.2561 23.1251C76.4716 23.3546 76.6748 23.5945 76.8741 23.8376C77.7666 24.9232 78.673 25.9971 79.518 27.1201C80.4694 28.3841 81.3581 29.6939 82.2026 31.0307C83.0498 32.3713 83.8225 33.6633 84.567 35.067C85.2182 36.2883 85.8048 37.5429 86.3244 38.8251ZM74.9011 20.559L74.8999 20.5211L74.8994 20.4627C74.9005 20.3417 74.9077 20.2208 74.921 20.1005C74.9322 19.9938 74.949 19.8877 74.9715 19.7828L74.9882 19.711L75.046 19.5362L75.1039 19.3955L75.1398 19.3208L75.1694 19.2663C75.2238 19.1799 75.2862 19.0989 75.356 19.0243C75.3305 19.0532 75.4243 18.9654 75.4448 18.9497L75.5484 18.8775C75.5032 18.9069 75.6187 18.8429 75.643 18.8318L75.7752 18.7823C75.8117 18.7764 75.8478 18.7684 75.8834 18.7581L76.0357 18.7381L76.1578 18.7315L76.3039 18.7389C76.4142 18.748 76.5239 18.7635 76.6325 18.7852L76.7984 18.822L76.8132 18.8257L76.9237 18.8578C77.1581 18.9301 77.3878 19.0172 77.6111 19.1185C77.8282 19.2151 78.0403 19.323 78.2483 19.4361L78.3889 19.5142L78.4538 19.551L78.463 19.5566L78.7429 19.7233C79.3157 20.0652 79.8665 20.4425 80.392 20.8529C81.4616 21.6918 82.4379 22.6423 83.304 23.6879C85.0753 25.8106 86.4444 28.2354 87.3449 30.8444C87.5543 31.4525 87.7206 32.0684 87.8794 32.6911C87.9887 33.1206 88.0962 33.5504 88.1648 33.9886C88.2644 34.4503 88.2567 34.9286 88.1421 35.387C88.1155 35.4697 88.0765 35.548 88.0262 35.619C87.9808 35.6853 87.9221 35.7416 87.8537 35.7841C87.7871 35.8208 87.7122 35.84 87.6361 35.8397C87.5279 35.8369 87.4208 35.8175 87.3187 35.782C86.9409 35.6371 86.5918 35.4272 86.2871 35.162C86.0142 34.9448 85.7585 34.7071 85.5043 34.4687C85.4622 34.4366 85.4093 34.4217 85.3566 34.4274C85.3039 34.433 85.2553 34.4587 85.2211 34.499L84.9665 34.0297C84.1954 32.6253 83.3607 31.2537 82.4926 29.9064C81.6372 28.5779 80.7324 27.2812 79.7661 26.0306C79.3206 25.4532 78.8633 24.8845 78.3879 24.3315C78.0206 23.904 77.6822 23.4525 77.3176 23.0227C76.7072 22.2081 75.8938 21.566 74.9575 21.1599C74.9371 21.0191 74.921 20.8775 74.9103 20.7358L74.9011 20.559ZM74.6307 25.0412L74.6216 25.0088L74.6142 24.9832L74.5804 24.8576L74.5181 24.6061C74.4755 24.4253 74.4395 24.2425 74.4093 24.0587C74.3814 23.8913 74.361 23.7222 74.3459 23.553L74.3299 23.3006L74.3257 23.1747C74.3247 23.1223 74.3249 23.1188 74.3257 23.1654L74.3266 23.0816C74.3306 22.8375 74.3543 22.5941 74.3977 22.3538C74.5931 23.029 74.8329 23.6908 75.1155 24.3347C75.5239 25.2957 76.0015 26.2244 76.463 27.161C76.6582 27.5577 76.8423 27.9592 77.0292 28.3593L76.9433 28.2874C76.4529 27.8762 75.9382 27.4944 75.402 27.1441C75.2549 26.7864 75.1104 26.4275 74.9748 26.0655C74.8487 25.7279 74.7324 25.3866 74.6307 25.0412ZM73.5438 31.8302C73.9656 32.3547 74.326 32.9247 74.7 33.4832C75.0342 33.9808 75.3924 34.462 75.736 34.9533C75.9262 35.2256 76.1118 35.5013 76.2892 35.7822C76.4695 36.0667 76.5904 36.2737 76.7575 36.5983C76.8505 36.7793 76.9363 36.9645 77.0135 37.1528L76.9624 37.105L76.9437 37.0871L76.9326 37.0765C76.8167 36.9596 76.7074 36.8368 76.6008 36.7113C76.1934 36.2146 75.8224 35.6893 75.4908 35.1396C74.876 34.1585 74.2254 33.1981 73.6296 32.2057L73.5926 32.1428L73.5457 32.0634L73.4287 31.8592C73.3441 31.7107 73.2618 31.5608 73.1821 31.4098L73.2046 31.4346C73.3229 31.562 73.4346 31.6948 73.5438 31.8302Z" fill="#A71057"/>
<path d="M23.6057 44.4434C24.2648 44.4434 25.16 45.4078 25.6167 45.8306C26.0679 46.2485 26.4881 46.7341 26.969 47.1081C27.6014 47.5999 28.458 48.4893 28.8153 49.2039" stroke="#A71057" stroke-linecap="round"/>
<path d="M45.6117 54.5033C46.5563 54.5033 47.2614 53.9137 48.0867 53.5153C49.1366 53.0085 50.2348 52.8672 51.3602 52.6171C51.7407 52.5325 52.0777 52.3906 52.468 52.3276C52.7875 52.2761 53.3168 52.2696 53.6057 52.148C53.9091 52.0203 54.7296 52.1658 54.8632 51.8985" stroke="#A71057" stroke-linecap="round"/>
<path d="M25.3678 71.4728C27.5572 69.6484 30.9795 68.1888 33.8055 68.0035C35.906 67.8658 37.8816 67.489 39.5591 68.9887C40.508 69.8369 41.4456 71.3009 41.6864 72.565C41.8752 73.5565 42.905 76.4136 42.5858 75.4561" stroke="#A71057" stroke-width="1.5" stroke-linecap="round"/>
</svg>
