<svg width="164" height="172" viewBox="0 0 164 172" fill="none" xmlns="http://www.w3.org/2000/svg">
<path d="M94.6282 110.807L95.963 111.22C95.9951 111.029 95.9618 110.833 95.8698 110.668C95.7777 110.504 95.6335 110.384 95.4658 110.332C95.298 110.281 95.1189 110.301 94.9638 110.389C94.8087 110.477 94.6889 110.626 94.6282 110.807ZM103.657 110.807L102.322 110.395C102.535 109.467 103.814 109.89 103.657 110.859V110.807ZM113.807 114.93C114.19 115.411 114.589 115.875 115.003 116.322C114.93 116.719 114.837 117.111 114.725 117.497C114.678 117.651 114.623 117.796 114.567 117.95C114.215 117.61 113.835 117.229 113.455 116.817C113.62 116.204 113.738 115.576 113.807 114.941V114.93ZM102.322 110.436L103.657 110.849C103.397 112.055 103.304 113.858 103.091 115.672C102.357 114.06 102.088 112.235 102.322 110.447V110.436ZM94.6282 110.797L95.963 111.209C95.4684 112.777 94.8672 114.3 94.1647 115.765C94.0737 114.096 94.2303 112.421 94.6282 110.807V110.797ZM95.5551 115.755C95.9352 118.919 99.0034 122.97 101.237 118.455C102.257 116.394 101.812 112.776 102.331 110.436C102.095 112.228 102.364 114.057 103.101 115.672C102.674 119.29 101.747 122.949 97.9281 121.95C95.3327 121.259 94.3408 118.579 94.2203 115.765C94.9229 114.3 95.524 112.777 96.0186 111.209C95.5876 112.677 95.4269 114.227 95.5459 115.765L95.5551 115.755ZM113.371 117.095C113.371 117.012 113.371 116.909 113.445 116.827C113.825 117.239 114.205 117.621 114.558 117.961C112.092 125.248 105.464 121.311 103.082 115.683C103.295 113.869 103.388 112.065 103.647 110.859C102.758 116.549 110.924 124.887 113.371 117.095ZM96.1299 75.0926C96.2226 76.5047 96.547 79.4216 98.2804 79.4216C100.014 79.4216 100.468 76.5562 100.626 75.1338C100.737 74.1649 102.137 74.1031 102.016 75.1338C101.756 77.4426 100.913 80.9677 98.3082 80.9677C95.7035 80.9677 94.9248 77.4323 94.7672 75.0926C94.6745 74.1031 96.065 74.1134 96.1299 75.0926ZM70.0361 72.1962C68.1822 71.5572 67.728 68.97 67.9505 67.0426C68.0617 66.0737 69.4522 66.0634 69.3409 67.0426C69.2019 68.1867 69.2019 70.1863 70.4069 70.681C71.8252 71.2479 72.6409 68.8566 73.0673 67.7847C73.4288 66.8776 74.6338 67.661 74.2723 68.568C73.5122 70.4749 72.2516 72.9486 70.0361 72.1962ZM64.1963 78.6898C72.9255 84.7355 83.0002 87.9486 93.2841 87.9664C93.4685 87.9664 93.6453 88.0479 93.7757 88.1928C93.9061 88.3378 93.9793 88.5344 93.9793 88.7395C93.9793 88.9445 93.9061 89.1411 93.7757 89.2861C93.6453 89.4311 93.4685 89.5125 93.2841 89.5125C82.7536 89.4933 72.4365 86.2094 63.4919 80.0298C62.7318 79.5041 63.4362 78.1642 64.1963 78.6898ZM87.7039 80.6688C87.4606 80.8018 87.195 80.8768 86.9241 80.8891C86.6532 80.9013 86.383 80.8505 86.1308 80.7399C85.8786 80.6292 85.65 80.4613 85.4595 80.2467C85.2691 80.0321 85.1211 79.7757 85.025 79.4938C84.8431 79.7053 84.6157 79.8617 84.3643 79.9483C84.1129 80.0348 83.8458 80.0487 83.5882 79.9885C83.1813 79.9151 82.7979 79.7281 82.4737 79.4451C82.1495 79.1621 81.8951 78.7923 81.7343 78.3703C81.4145 78.7016 81.0104 78.9151 80.5774 78.9815C80.1444 79.0479 79.7035 78.964 79.3149 78.7414C77.461 77.7106 78.0636 75.1029 78.9812 73.5156C79.4633 72.6807 80.6683 73.4537 80.1863 74.2989C79.7043 75.1441 79.1852 76.1027 79.8897 76.917C80.5941 77.7312 80.863 77.1953 81.4099 76.4325C81.5349 76.2262 81.6318 76.0004 81.6972 75.7625C81.7115 75.6959 81.7301 75.6304 81.7528 75.5667C82.0865 74.773 83.2916 75.3399 83.0228 76.1645C83.002 76.2417 82.9773 76.3174 82.9486 76.3913C82.652 77.2159 83.4213 78.9372 84.1907 78.2775C84.441 78.0714 84.4317 77.319 84.441 76.9891C84.441 76.7841 84.5142 76.5875 84.6446 76.4425C84.775 76.2975 84.9518 76.2161 85.1362 76.2161C85.3206 76.2161 85.4974 76.2975 85.6278 76.4425C85.7582 76.5875 85.8314 76.7841 85.8314 76.9891C85.8199 77.4463 85.8892 77.9016 86.0353 78.3291C86.6657 79.7927 87.435 79.2258 87.778 78.0199C88.0406 77.0157 88.1656 75.9732 88.1488 74.9277C88.1488 74.7226 88.222 74.526 88.3524 74.381C88.4828 74.2361 88.6596 74.1546 88.844 74.1546C89.0284 74.1546 89.2052 74.2361 89.3356 74.381C89.466 74.526 89.5392 74.7226 89.5392 74.9277C89.4929 76.7005 89.3631 79.7927 87.7039 80.6688ZM113.195 110.436C112.843 109.88 111.239 108.128 110.609 109.406C110.396 109.849 111.777 111.879 111.99 112.24C112.549 113.172 113.169 114.057 113.844 114.889C113.775 115.528 113.657 116.159 113.492 116.775C111.323 114.477 108.903 111.209 109.116 108.602C109.33 105.994 111.248 106.241 112.824 107.478C115.225 109.416 115.67 113.168 115.067 116.281C114.647 115.841 114.249 115.377 113.872 114.889C114.104 113.362 113.866 111.793 113.195 110.436ZM48.0581 68.8154C47.0477 80.7925 52.7578 89.8114 60.9798 96.6452C66.1986 100.974 71.4266 105.272 75.5052 111.014C78.0357 114.58 79.0739 121.434 82.5315 124.011C87.1662 127.474 91.6156 121.146 94.1647 115.765C94.0727 114.092 94.2293 112.414 94.6282 110.797C93.2563 115.332 86.9345 128.32 82.0587 121.043C79.454 117.146 78.4343 112.405 75.5052 108.581C68.8775 99.9332 57.958 95.1197 52.7021 85.2453C50.4664 80.8253 49.3845 75.7992 49.5783 70.7326C50.143 71.3543 50.802 71.8603 51.5249 72.2271C52.002 72.4615 52.491 72.6645 52.9895 72.8353C52.9895 72.8971 52.9895 72.9693 52.9895 73.0311C53.2212 80.3184 57.2349 87.1006 63.0006 91.7286C71.853 98.82 83.8663 102.335 94.517 98.7376C102.303 96.1092 110.368 88.4302 110.47 78.8754C117.248 86.3981 122.247 95.6682 125.023 105.86C126.284 110.344 128.898 122.073 121.269 120.29C118.892 119.644 116.723 118.277 115.003 116.342C114.93 116.74 114.837 117.132 114.725 117.517C114.678 117.672 114.623 117.816 114.567 117.971L115.55 118.878C118.006 121.053 122.696 123.485 125.82 121.486C128.944 119.486 127.934 113.642 127.461 110.467C126.311 102.665 122.826 94.8208 119.118 88.1829C116.829 84.1218 113.89 80.9677 110.952 77.7003L110.646 77.3602C110.859 69.8977 102.044 61.8167 98.679 60.0439C98.652 60.0191 98.6272 59.9914 98.6048 59.9614L98.095 59.5182C89.2704 51.7362 76.2931 45.7579 64.9472 47.2216C58.5327 48.0462 53.4344 53.0968 50.5516 59.3945C49.5042 58.4772 48.4752 58.2607 47.6873 59.5698C46.3525 61.7858 47.2239 66.1974 48.0952 68.4959C48.0859 68.6093 48.0674 68.7536 48.0581 68.8154ZM98.1135 61.6003C94.7024 66.857 84.2092 65.2285 79.9267 63.2701C76.1448 61.5591 73.3268 58.2504 69.7303 56.158C69.1127 55.7966 68.4749 55.4799 67.8207 55.2098C66.9153 54.8149 65.9861 54.4912 65.0399 54.2409C61.0262 53.1586 56.3914 53.3029 54.9083 57.5392C54.5746 58.4669 55.9187 58.8585 56.2431 57.9515C57.2627 55.0655 59.8582 54.5913 62.7318 55.1788C59.7919 56.59 57.3268 58.9956 55.6869 62.0538C55.1776 62.9792 54.7344 63.9476 54.3614 64.9502C53.5636 63.3583 52.6325 61.8536 51.5805 60.4562C53.8794 54.5501 58.1619 49.9221 64.5022 48.8398C73.0487 47.3659 82.7725 50.6951 90.7072 55.787C93.1059 57.3019 95.3933 59.0252 97.5481 60.9406C97.7613 61.2395 97.9281 61.4354 98.0857 61.6312L98.1135 61.6003ZM108.458 74.938L108.347 74.8143C107.188 73.4846 106.058 72.1138 105.001 70.6913C103.638 68.5724 102.408 66.351 101.321 64.0431C101.2 63.8267 101.071 63.6205 100.941 63.4041C104.649 66.8261 107.383 70.0214 108.458 74.938ZM49.328 67.7228C49.0292 66.866 48.7936 65.9835 48.6236 65.0842C48.2898 63.3732 48.1415 61.4251 48.7811 60.5902C49.0314 60.2603 49.4393 60.4253 49.912 60.8685C50.2974 61.2591 50.651 61.6868 50.9687 62.1466C51.9881 63.6468 52.9171 65.2204 53.7496 66.857L54.0184 67.3724C54.0853 67.4959 54.1822 67.5958 54.2981 67.6606C54.4139 67.7254 54.5439 67.7523 54.6729 67.7383C54.8019 67.7242 54.9247 67.6698 55.0271 67.5814C55.1295 67.4929 55.2072 67.374 55.2513 67.2384V67.125C55.2513 66.9498 55.3347 66.7746 55.3903 66.589C56.0534 64.0234 57.3026 61.6923 59.0164 59.8228C60.7302 57.9533 62.85 56.6091 65.1696 55.921C67.711 56.8831 70.1242 58.2213 72.3443 59.8996C75.19 62.1569 77.906 64.4039 81.3079 65.5171C85.9427 67.0219 95.3234 67.8156 99.0034 62.8887C100.023 64.5276 100.755 66.3932 101.701 68.1145C103.66 71.5017 106.055 74.5509 108.811 77.1643C109.149 80.0693 108.676 83.0197 107.457 85.6163C101.896 97.9233 87.5463 100.5 76.636 97.2533C66.1708 94.1611 54.8897 85.5957 54.5375 73.3506C55.3996 73.6186 55.724 72.2478 54.9083 71.8664L54.5282 71.6912C54.0648 71.485 53.5549 71.2582 53.0173 71.0006C51.9216 70.5518 50.9121 69.8768 50.0418 69.0113C49.9168 68.864 49.7992 68.7091 49.6895 68.5474C49.5464 68.3036 49.4253 68.0447 49.328 67.7744V67.7228Z" fill="#A71057"/>
<path d="M55.1659 120.895C53.0588 113.425 47.737 103.23 39.0381 103C33.859 103.155 29.8911 107.061 26.8191 110.951C24.2493 114.211 20.6604 118.407 20.0746 122.718C19.9663 123.534 19.8284 124.921 20.8377 125.221C21.0345 125.271 21.2392 125.279 21.4391 125.244C21.6389 125.21 21.8297 125.134 21.9995 125.021C21.8616 125.787 21.7632 126.553 21.6893 127.289C21.5466 128.791 21.1232 132.171 22.4278 133.443C23.4124 134.384 24.3035 133.728 25.0715 132.482C25.3471 133.193 25.7951 133.643 26.4991 133.628C28.1237 133.588 29.2905 130.654 29.8812 129.237C31.4271 132.397 34.1495 134.945 37.7975 134.995C39.8714 135.059 41.9163 134.487 43.6662 133.353C45.4161 132.219 46.7899 130.575 47.609 128.636C47.9154 129.747 48.4285 130.787 49.1204 131.701C49.721 132.432 50.4398 132.762 51.1831 132.046C51.7943 131.373 52.1863 130.525 52.3056 129.618C52.9505 131.19 54.5997 133.979 55.4859 130.985C56.372 127.99 56.0126 123.92 55.1659 120.895ZM25.6278 127.149C25.677 126.723 26.2431 123.254 26.9422 124.04C27.6413 124.826 25.9182 129.047 25.4308 130.183C25.4225 129.169 25.485 128.155 25.6179 127.149H25.6278ZM47.1906 127.855C45.6152 132.086 41.1845 135.025 36.611 134.179C33.6178 133.628 31.5846 131.305 30.3539 128.626C30.3252 128.562 30.2745 128.51 30.2111 128.481C31.1313 126.154 31.909 123.771 32.5397 121.346C33.4389 118.038 34.2217 114.7 34.888 111.332C35.3064 112.954 36.1138 114.581 37.2953 113.174C37.8664 114.466 38.8116 115.042 39.8307 112.799C39.8799 112.684 40.0079 112.388 40.1408 112.008C40.3251 112.335 40.5996 112.6 40.9304 112.77C41.2611 112.939 41.6336 113.007 42.0017 112.964C43.3309 112.744 44.03 111.257 44.4288 109.805C44.8884 114.821 45.633 119.807 46.6589 124.736C46.8558 125.632 47.0527 126.658 47.3186 127.68C47.2591 127.723 47.2144 127.785 47.1906 127.855ZM37.4332 110.385C37.4332 110.29 37.3888 109.204 37.4332 109.95C37.4775 110.387 37.494 110.827 37.4824 111.267C37.4528 110.961 37.4479 110.656 37.4332 110.385ZM51.6213 125.472C51.0835 123.565 50.6869 121.62 50.4348 119.654C50.4083 119.182 50.4264 118.709 50.489 118.242C50.617 118.242 50.8976 119.413 50.9222 119.518C51.3169 121.19 51.5477 122.897 51.6114 124.616C51.6213 124.796 51.6262 125.096 51.6213 125.472ZM54.5751 131.48C53.9302 131.806 53.1622 130.304 52.4631 128.256C52.5072 126.569 52.4216 124.882 52.2071 123.209C52.1333 122.427 51.7887 116.734 50.1985 117.561C49.3567 118.001 49.7899 120.229 49.8687 120.87C50.1723 123.156 50.7271 125.4 51.5228 127.56C51.2865 130.324 50.6318 133.443 49.0613 130.238C47.9635 127.965 47.4663 125.301 46.9789 122.848C45.9943 117.806 45.3986 112.689 44.8866 107.576C44.8521 107.216 44.286 107.076 44.2121 107.481C43.9758 108.848 42.4202 114.491 40.5445 111.357C40.5002 111.279 40.4608 111.199 40.4263 111.116C40.6971 110.115 40.8153 108.978 40.1162 108.763C39.2153 108.488 39.3974 110.005 39.491 110.451C39.5398 110.688 39.6073 110.92 39.6928 111.147C39.5599 111.737 39.3187 112.709 38.9544 113.039C37.8762 114.041 37.9993 113.184 37.7236 112.538C38.083 111.888 38.7082 109.339 37.6448 108.988C36.7981 108.708 36.7538 109.77 36.7439 110.385C36.7416 111.044 36.8294 111.699 37.0049 112.333C35.5279 113.74 35.3163 110.39 35.2523 109.429C35.2523 109.059 34.6566 108.928 34.5778 109.334C33.859 113.3 32.9384 117.255 31.8898 121.151C31.1828 124.004 30.2272 126.787 29.0345 129.467C28.5176 130.549 26.9028 134.124 25.8099 132.076C25.7225 131.902 25.6532 131.719 25.6031 131.53C26.3645 129.812 26.955 128.021 27.3656 126.183C27.4985 125.517 28.104 123.264 27.0997 122.873C26.2628 122.548 25.7114 123.965 25.4998 124.525C25.1355 125.467 24.4512 129.122 24.8253 131.505C24.2296 132.672 23.3484 133.773 22.5558 132.121C21.7632 130.469 22.3244 127.244 22.6247 125.552C22.6986 125.156 22.7773 124.751 22.8659 124.345C23.5395 123.618 24.149 122.832 24.6875 121.997C24.9779 121.586 26.6961 119.458 25.7951 118.797C25.0961 118.297 24.141 119.628 23.8259 120.074C23.0705 121.239 22.5331 122.536 22.2407 123.9C22.1069 124.055 21.9253 124.161 21.7252 124.199C21.5251 124.237 21.3183 124.206 21.138 124.11C20.4389 123.694 20.7195 122.908 20.8869 122.172C21.2387 120.866 21.7831 119.622 22.5016 118.482C25.8887 112.533 31.5206 103.921 39.0381 103.701C45.8663 103.881 50.233 110.656 52.7684 116.339C53.7552 118.406 54.475 120.593 54.9099 122.848C55.1264 124.313 55.2154 125.794 55.1757 127.274C55.1659 128 55.3086 131.11 54.5653 131.49L54.5751 131.48ZM23.3435 122.648C23.585 121.929 23.9159 121.244 24.3281 120.61C24.5496 120.274 25.2585 119.163 25.1945 119.814C25.101 120.61 23.9342 121.967 23.3435 122.648ZM42.5826 118.642C42.8534 119.618 43.5672 122.032 42.4792 122.728C41.8196 123.153 41.2583 122.633 40.835 121.937C40.8187 122.15 40.732 122.352 40.5891 122.509C40.4462 122.666 40.2553 122.77 40.0473 122.803C39.7967 122.815 39.5486 122.748 39.3371 122.61C39.1256 122.473 38.9609 122.273 38.8658 122.037C38.6836 122.918 38.2405 123.619 37.2559 123.194C35.9316 122.618 35.9464 119.939 35.9415 118.732C35.9415 118.639 35.9778 118.55 36.0424 118.484C36.107 118.419 36.1947 118.382 36.2861 118.382C36.3775 118.382 36.4651 118.419 36.5298 118.484C36.5944 118.55 36.6307 118.639 36.6307 118.732C36.5977 119.748 36.7274 120.763 37.0147 121.736C37.1033 121.997 37.2953 122.593 37.6645 122.603C38.1864 122.603 38.275 121.792 38.2996 121.451C38.3276 121.05 38.3111 120.647 38.2504 120.249C38.1815 119.809 38.8214 119.613 38.9101 120.059C38.9987 120.505 39.1857 121.641 39.6288 121.897C40.4165 122.347 40.1704 120.705 40.0817 120.249C40.0563 120.159 40.0671 120.062 40.1119 119.98C40.1567 119.898 40.2317 119.837 40.3205 119.811C40.4093 119.785 40.5046 119.796 40.5853 119.842C40.6661 119.887 40.7258 119.964 40.7513 120.054C40.9383 120.615 41.9525 123.033 42.3119 121.491C42.494 120.705 42.1346 119.613 41.9229 118.842C41.9103 118.758 41.9286 118.671 41.9745 118.599C42.0204 118.527 42.0906 118.475 42.1719 118.452C42.2532 118.429 42.3399 118.437 42.4156 118.475C42.4913 118.513 42.5507 118.578 42.5826 118.657V118.642ZM41.9673 130.248C39.2497 131.42 36.0596 132.477 33.3618 130.714C32.9877 130.474 33.3323 129.868 33.7064 130.113C36.1679 131.716 39.1217 130.714 41.6177 129.648C42.0214 129.472 42.3709 130.073 41.9673 130.248ZM43.2423 116.164C43.134 116.544 42.6909 116.915 42.3463 116.549C42.0017 116.184 42.0313 115.197 42.5383 114.982C42.5696 114.962 42.605 114.95 42.6417 114.947C42.6417 114.947 42.6417 114.947 42.6762 114.947H42.7549L42.8091 114.972C43.2472 115.122 43.3408 115.798 43.2423 116.164ZM35.9267 116.549C35.5821 116.179 35.6116 115.197 36.1138 114.982C36.1457 114.964 36.1808 114.952 36.2172 114.947H36.2516C36.2778 114.944 36.3042 114.944 36.3304 114.947L36.3846 114.972C36.7981 115.122 36.8769 115.798 36.7932 116.164C36.7095 116.529 36.2664 116.915 35.9267 116.549Z" fill="black"/>
<path d="M138.654 46.915C139.11 46.8164 139.305 47.4972 138.848 47.5911C133.686 48.6757 127.232 49.5444 122.527 46.6192C122.133 46.3751 122.498 45.7647 122.896 46.0088C127.416 48.8213 133.696 47.9574 138.654 46.915ZM144 39.2711C144 40.8065 142.416 41.8817 141.055 42.4357C140.902 45.6035 140.75 48.7743 140.598 51.9483C140.595 52.0246 140.568 52.0981 140.52 52.1587C140.472 52.2193 140.406 52.2639 140.33 52.2864L135.407 54.0096C133.735 54.5965 131.552 55.8313 129.764 55.991C128.568 56.0942 127.071 55.2867 125.944 54.9251L120.67 53.2254C120.595 53.203 120.528 53.1584 120.48 53.0978C120.432 53.0371 120.405 52.9636 120.403 52.8874C120.01 49.5884 119.847 46.2676 119.917 42.9475C118.405 42.539 116.971 41.3558 117 39.7407C117.03 38.1255 118.726 37.4869 120.135 37.2803C120.194 36.2004 120.267 35.1205 120.34 34.0453C119.801 31.2805 119.659 28.4572 119.917 25.6549C119.917 25.6549 119.917 25.6314 119.917 25.6173C119.917 25.6032 119.917 25.5798 119.917 25.561C120.33 23.8613 122.59 22.6217 123.97 21.7249C126.287 20.2023 128.748 18.8943 131.319 17.8185C131.927 17.5743 134.396 16.363 134.892 17.4382C135.13 17.9453 134.692 18.5463 134.065 19.1003C135.523 18.6308 137.142 18.3068 137.769 19.0299C137.878 19.1402 137.953 19.278 137.985 19.4275C138.016 19.5769 138.004 19.732 137.949 19.875C139.708 19.1426 142.017 18.3584 143.077 19.0862C144.136 19.814 142.858 20.9033 141.803 21.6123C142.362 21.6874 142.911 21.8752 142.984 22.3494C143.164 23.481 140.719 23.5561 140.719 23.5561C141.249 25.2262 141.532 26.9602 141.56 28.7068C141.599 29.6834 141.56 30.6694 141.526 31.646C141.594 31.7305 141.657 31.8198 141.716 31.909L142.396 31.7869C142.858 31.7071 143.052 32.3879 142.59 32.463L142.075 32.5522C142.258 32.9651 142.392 33.3967 142.474 33.8387L142.78 33.7683C143.237 33.6603 143.431 34.3364 142.974 34.4444L142.576 34.5383C142.664 35.4331 142.623 36.3354 142.454 37.2193C142.454 37.285 142.425 37.3508 142.411 37.4165C142.849 37.5112 143.242 37.7456 143.526 38.082C143.809 38.4184 143.968 38.8372 143.976 39.2711H144ZM120.092 37.994C118.969 38.1771 117.608 38.7406 117.739 39.9754C117.851 41.0976 118.877 41.8535 119.936 42.2057C119.965 40.8065 120.038 39.3979 120.092 37.994ZM120.971 35.5478L123.178 35.0783C123.781 32.7306 125.239 30.1248 128.038 29.9839C129.725 30.0403 130.644 30.6272 131.105 31.5333L133.088 30.8666C133.531 30.7164 133.72 31.3972 133.283 31.5427L131.339 32.1954C131.539 33.2277 131.552 34.2857 131.378 35.3224L134.133 35.1299C134.184 35.1176 134.238 35.1176 134.289 35.1299C134.289 35.0548 134.289 34.9797 134.328 34.9092C134.702 32.5945 136.044 30.6835 138.566 30.3736C139.137 30.3359 139.71 30.4276 140.238 30.6412C139.786 28.7584 139.441 26.8287 138.965 24.9506C138.712 23.9223 138.746 24.2275 137.565 24.3402C136.211 24.4474 134.849 24.4396 133.497 24.3167C131.703 24.1797 129.923 23.9049 128.175 23.4951C126.716 23.157 127.071 23.2697 125.744 24.3073C124.631 25.1807 123.353 26.0258 122.828 27.3405C121.939 29.5566 121.618 32.1249 121.117 34.4491C121.106 34.5046 121.077 34.5554 121.035 34.5947C121.01 34.8998 121.01 35.2238 120.971 35.5478ZM134.376 45.0181C134.376 45.2247 134.376 45.436 134.376 45.6426C134.494 45.6439 134.612 45.6581 134.726 45.6849C134.697 45.328 134.658 44.9712 134.624 44.6143C134.478 43.0602 134.328 41.5061 134.182 39.9566C134.045 39.3459 133.982 38.7221 133.992 38.0973C133.92 37.3461 133.851 36.5995 133.779 35.8483L131.533 36.0173C130.921 39.1068 130.311 42.1931 129.706 45.2764L129.997 45.2998C129.963 44.4829 130.119 43.6002 130.969 43.6002C131.82 43.6002 132 44.6003 131.941 45.4783L132.461 45.5205C132.379 44.3937 132.461 42.8114 133.638 43.1729C134.342 43.4077 134.367 44.4359 134.376 45.0181ZM133.477 43.9429C133.181 43.6612 133.161 44.8491 133.161 45.0275C133.161 45.2059 133.161 45.3937 133.19 45.5722L133.647 45.6097C133.647 45.2294 133.788 44.234 133.477 43.9429ZM130.974 44.3185C130.717 44.3185 130.692 44.8632 130.731 45.375L131.217 45.4125C131.256 44.8914 131.241 44.3185 130.974 44.3185ZM128.787 31.7446C128.787 31.7869 128.748 31.8244 128.733 31.8667C129.176 31.6851 129.628 31.5283 130.09 31.3972C129.527 30.9212 128.796 30.6724 128.048 30.7023C126.026 30.8009 124.675 32.6696 124.121 34.3552C124.024 34.6557 123.902 35.0219 123.786 35.4304C123.787 35.4901 123.77 35.5489 123.737 35.5994C123.139 37.7358 122.668 40.7971 125.385 40.7642C128.743 40.7642 130.313 38.2804 130.678 35.3506C130.853 34.3798 130.853 33.3869 130.678 32.4161L129.759 32.7588C129.703 32.7738 129.644 32.7762 129.587 32.7659C129.529 32.7557 129.475 32.7329 129.428 32.6994C129.382 32.666 129.343 32.6226 129.316 32.5727C129.289 32.5228 129.275 32.4676 129.273 32.4114C128.876 32.5638 128.488 32.7378 128.111 32.9325C127.805 33.0875 127.402 32.7588 127.625 32.463L127.664 32.402C127.076 32.6955 126.521 33.0497 126.012 33.4584C125.652 33.7495 125.132 33.2518 125.496 32.9607C126.353 32.2681 127.322 31.7161 128.364 31.3268C128.423 31.3175 128.483 31.322 128.539 31.3398C128.595 31.3577 128.647 31.3884 128.688 31.4294C128.729 31.4704 128.76 31.5205 128.777 31.5754C128.795 31.6302 128.798 31.6883 128.787 31.7446ZM140.374 40.9426C139.852 41.3902 139.241 41.7305 138.578 41.9428C137.916 42.1551 137.215 42.2349 136.52 42.1775C135.98 42.1564 135.465 41.9557 135.062 41.6094L135.47 46.0793C135.469 46.1723 135.43 46.2611 135.362 46.3269C135.294 46.3927 135.202 46.4302 135.105 46.4314L134.299 46.3657L133.579 46.3093L133.268 46.2812L132.539 46.2248L131.854 46.1685L131.13 46.1121L130.814 46.0793L130.07 46.0229L129.273 45.9619C129.214 45.9618 129.157 45.9483 129.105 45.9225C129.053 45.8967 129.008 45.8594 128.974 45.8135C128.94 45.7677 128.917 45.7147 128.908 45.6588C128.9 45.603 128.905 45.5459 128.923 45.4924L130.206 38.9659C129.705 39.7606 128.995 40.4128 128.148 40.8565C127.301 41.3002 126.348 41.5194 125.385 41.492C121.982 41.492 122.405 38.271 122.954 35.8577L120.894 36.2849C120.782 38.2194 120.694 40.1585 120.646 42.093C120.587 44.342 120.612 46.591 120.743 48.8354C120.801 49.8073 120.626 51.6009 121.01 52.5916C121.103 52.621 121.194 52.6555 121.282 52.6949C121.657 52.8498 122.075 52.9484 122.459 53.0705L125.657 54.1035C126.804 54.4697 128.947 55.3759 129.672 55.2632C131.567 54.9674 133.599 53.8828 135.397 53.2536L138.726 52.0845C138.897 52.0235 139.499 51.7605 139.796 51.6901C139.796 51.4647 139.854 51.0421 139.859 50.8966L139.976 48.5255C140.076 46.422 140.176 44.3154 140.277 42.2057V41.6422C140.355 41.384 140.364 41.168 140.374 40.9426ZM140.768 32.7682L139.611 32.9607C139.363 33.003 139.067 32.7776 139.154 32.5334C138.808 32.696 138.482 32.896 138.182 33.1297C138.128 33.1689 138.064 33.1943 137.997 33.2039C137.93 33.2134 137.862 33.2067 137.798 33.1843C137.735 33.162 137.678 33.1247 137.633 33.0758C137.588 33.0269 137.556 32.968 137.541 32.9044L136.568 33.4443C136.485 33.491 136.385 33.5036 136.292 33.4794C136.198 33.4552 136.119 33.3961 136.07 33.3152C136.022 33.2343 136.009 33.1381 136.034 33.0478C136.059 32.9576 136.12 32.8806 136.204 32.8339L138.595 31.524C138.649 31.5002 138.708 31.4883 138.767 31.4891C138.827 31.4898 138.885 31.5033 138.939 31.5284C138.992 31.5535 139.039 31.5897 139.076 31.6344C139.114 31.6791 139.14 31.7311 139.154 31.7869C139.443 31.6873 139.747 31.6319 140.053 31.6226C140.113 31.6239 140.172 31.6394 140.224 31.6678C140.276 31.6961 140.32 31.7365 140.352 31.7852C140.384 31.8339 140.404 31.8895 140.408 31.9471C140.413 32.0048 140.403 32.0626 140.379 32.1156L140.598 32.078L140.466 31.6085C139.913 31.2331 139.241 31.0555 138.566 31.1061C136.705 31.3314 135.577 32.74 135.164 34.435C134.891 35.5452 134.738 36.6797 134.707 37.8203C134.76 38.4119 134.819 39.0035 134.872 39.5904C135.101 40.5623 135.591 41.3136 136.534 41.4685C137.266 41.5955 138.02 41.5191 138.708 41.2481C139.397 40.9771 139.991 40.5227 140.423 39.9379C140.539 37.5527 140.654 35.1628 140.768 32.7682ZM141.424 34.0876L141.871 33.9796C141.794 33.5784 141.663 33.1886 141.482 32.8198L141.424 34.0876ZM141.273 37.2334C141.426 37.235 141.579 37.246 141.73 37.2663C141.955 36.4222 142.036 35.5483 141.968 34.6792L141.424 34.8106L141.273 37.2334ZM141.2 38.703C141.321 38.4587 141.426 38.2079 141.516 37.9518H141.239C141.234 38.1912 141.225 38.4448 141.21 38.703H141.2ZM142.231 38.0973C141.993 38.8366 141.624 39.5307 141.142 40.1491L141.069 41.6563C142.002 41.2291 143.013 40.5201 143.217 39.5669C143.254 39.4078 143.257 39.2432 143.227 39.0829C143.197 38.9225 143.134 38.7695 143.042 38.6328C142.95 38.4961 142.831 38.3783 142.692 38.2864C142.553 38.1945 142.396 38.1302 142.231 38.0973ZM127.844 36.6324C128.33 36.4211 128.418 35.6933 128.422 35.2614C128.427 34.8294 128.422 34.4444 128.422 34.0359C128.422 33.7777 128.452 33.5664 128.252 33.3692C128.207 33.3258 128.151 33.2946 128.09 33.279C128.028 33.2633 127.964 33.2636 127.902 33.28C127.857 33.2649 127.81 33.2589 127.762 33.2625C127.715 33.266 127.669 33.279 127.627 33.3006C127.585 33.3222 127.548 33.352 127.518 33.388C127.489 33.424 127.467 33.4656 127.455 33.51C127.329 33.942 126.605 37.1583 127.844 36.6324ZM137.89 33.8434V33.8669C137.857 33.8856 137.829 33.9112 137.808 33.942C137.786 33.9716 137.772 34.0052 137.764 34.0406C137.764 34.0406 137.764 34.0406 137.764 34.0641C137.527 34.886 137.477 35.7478 137.618 36.5901C137.73 37.0597 138.279 37.2897 138.59 36.8296C138.727 36.555 138.785 36.2505 138.76 35.9469C138.76 35.5149 138.795 35.0783 138.804 34.6416C138.814 34.2049 138.508 33.4443 137.89 33.8434Z" fill="black"/>
<path d="M98.3803 27.9052C91.8325 27.9052 85.3446 27.0664 78.8088 27.0664C74.7314 27.0664 70.654 27.0664 66.5766 27.0664C64.2215 27.0664 61.8228 26.7808 59.7033 27.9984C53.8758 31.3461 45.9443 33.5901 41.5764 38.9025C39.7219 41.1579 37.917 43.4628 36.101 45.7525C34.43 47.8594 32.1084 50.7826 31.0917 53.2782C29.0476 58.2955 27.4664 63.3888 26.0357 68.5393C24.8794 72.7019 25.826 78.2628 25.826 82.5888C25.826 84.7337 26.6094 90.9955 28.7617 92.0717" stroke="black" stroke-linecap="round" stroke-dasharray="3 3"/>
<path d="M73.217 140.721C79.7719 140.721 86.3268 140.721 92.8817 140.721C101.3 140.721 110.016 141.434 118.185 139.043C125.483 136.907 132.095 134.477 138.222 129.91C143.534 125.951 150.053 122.061 153.041 115.814C158.918 103.524 162.895 88.7206 158.563 75.3893C157.563 72.3147 155.497 67.9505 152.924 65.8599C152.37 65.4099 150.614 62.6742 149.965 63.9726" stroke="black" stroke-linecap="round" stroke-dasharray="3 3"/>
</svg>
