<svg width="80" height="88" viewBox="0 0 80 88" fill="none" xmlns="http://www.w3.org/2000/svg">
<path d="M79.4089 5.13923C79.4089 4.83923 78.9089 4.53923 78.6089 4.53923C77.0089 4.73923 75.3089 4.73923 73.7089 4.53923C73.1089 4.43923 72.8089 5.03923 72.9089 5.53923C74.2089 12.1392 68.3089 17.0392 63.7089 20.6392C58.6089 24.6392 53.3089 28.0392 47.0089 29.7392C44.7089 30.3392 42.3089 30.7392 39.9089 31.1392C42.9089 29.6392 45.8089 27.9392 48.4089 25.8392C50.3089 24.3392 52.0089 22.7392 53.5089 20.9392C55.1089 19.0392 56.6089 16.7392 57.2089 14.2392C57.7089 12.0392 57.2089 9.93923 55.5089 8.33923C54.0089 7.03923 52.0089 6.33923 50.1089 6.43923C45.2089 6.63923 41.7089 11.1392 39.6089 15.1392C37.6089 18.9392 36.5089 23.0392 35.6089 27.2392C35.1089 24.3392 34.1089 21.5392 32.7089 19.0392C30.6089 15.2392 27.6089 11.3392 23.5089 9.33923C21.6089 8.43923 19.4089 7.93923 17.4089 8.73923C15.6089 9.43923 14.6089 11.2392 14.3089 13.1392C13.7089 17.5392 16.6089 21.8392 19.8089 24.5392C20.8089 25.3392 21.8089 26.1392 22.8089 26.8392C21.4089 26.1392 20.1089 25.4392 18.9089 24.5392C16.6089 22.8392 14.5089 20.7392 12.5089 18.4392C10.5089 16.1392 8.60892 13.8392 7.50892 11.0392C6.30892 8.03923 6.20892 4.53923 8.00892 1.83923C8.30892 1.33923 7.90892 0.639231 7.30892 0.639231C6.00892 0.739231 4.70892 0.53923 3.50892 0.0392304C3.30892 -0.0607696 2.90892 0.0392307 2.70892 0.239231C-2.19108 5.93923 0.408921 14.1392 3.80892 19.8392C7.50892 26.1392 14.9089 29.5392 21.7089 31.3392C23.3089 31.7392 24.8089 32.0392 26.4089 32.3392C24.8089 32.3392 23.2089 32.4392 21.6089 32.4392C19.2089 32.5392 16.8089 32.6392 14.4089 32.8392C13.8089 32.8392 13.2089 32.9392 12.6089 32.9392C12.2089 32.9392 11.6089 32.9392 11.2089 33.1392C10.6089 33.4392 10.5089 34.2392 10.5089 34.9392C10.4089 35.0392 10.4089 35.1392 10.4089 35.3392C10.5089 37.1392 10.5089 38.9392 10.7089 40.7392C10.9089 42.1392 11.8089 43.1392 13.2089 43.3392C13.7089 43.4392 14.2089 43.4392 14.6089 43.4392C15.9089 52.3392 14.9089 61.2392 14.4089 70.1392C14.3089 72.3392 14.1089 74.6392 14.1089 76.8392C14.1089 78.8392 13.9089 81.0392 14.2089 83.0392C14.5089 84.9392 15.8089 85.6392 17.5089 86.0392C19.6089 86.6392 21.7089 86.8392 23.9089 87.0392C28.3089 87.2392 32.8089 86.9392 37.2089 86.8392C41.8089 86.7392 46.4089 86.6392 51.0089 86.4392C53.2089 86.3392 55.5089 86.3392 57.7089 86.2392C59.1089 86.2392 60.9089 86.1392 61.7089 84.7392C62.1089 84.0392 62.1089 83.3392 62.1089 82.5392C62.0089 81.3392 62.0089 80.1392 61.9089 79.0392C61.8089 76.8392 61.6089 74.5392 61.5089 72.3392C60.8089 62.3392 59.9089 52.2392 58.7089 42.2392C59.7089 42.2392 60.8089 42.1392 61.8089 42.1392C62.3089 42.1392 62.5089 41.7392 62.6089 41.3392C62.9089 39.2392 62.9089 37.1392 62.6089 34.9392C62.4089 33.5392 62.1089 32.2392 60.5089 32.1392C58.3089 31.9392 56.1089 32.0392 54.0089 31.9392C53.4089 31.9392 52.9089 31.9392 52.3089 31.9392C55.0089 31.3392 57.6089 30.6392 60.2089 29.7392C64.1089 28.3392 68.1089 26.7392 71.4089 24.2392C74.1089 22.1392 76.3089 19.3392 77.7089 16.2392C79.5089 12.8392 80.0089 8.93923 79.4089 5.13923ZM39.6089 19.2392C41.1089 15.1392 43.7089 10.2392 48.0089 8.53923C48.3089 8.43923 48.6089 8.33923 48.9089 8.23923C48.9089 8.43923 49.0089 8.63923 49.2089 8.83923C51.7089 10.4392 50.9089 13.8392 49.7089 16.0392C48.5089 18.3392 46.8089 20.2392 45.0089 21.9392C42.5089 24.2392 39.5089 26.1392 37.1089 28.4392C37.7089 25.3392 38.5089 22.2392 39.6089 19.2392ZM41.6089 26.8392C43.8089 25.1392 46.1089 23.3392 48.0089 21.2392C50.9089 18.1392 54.8089 11.7392 50.9089 8.13923C54.0089 8.33923 56.7089 10.6392 55.7089 14.2392C54.5089 18.4392 51.0089 21.9392 47.7089 24.5392C44.4089 27.1392 40.6089 29.1392 36.9089 31.0392C38.2089 29.4392 39.9089 28.1392 41.6089 26.8392ZM36.2089 33.7392C37.7089 33.7392 39.3089 33.7392 40.8089 33.7392C40.8089 36.2392 40.8089 38.8392 40.8089 41.3392C37.4089 41.4392 34.0089 41.5392 30.7089 41.6392C30.5089 39.0392 30.2089 36.5392 29.8089 34.0392C31.4089 34.0392 33.1089 33.9392 34.7089 33.9392C34.8089 33.8392 36.2089 33.7392 36.2089 33.7392ZM20.5089 10.1392L20.6089 10.0392C21.4089 10.1392 22.2089 10.4392 22.9089 10.7392C26.5089 12.4392 29.2089 15.8392 31.2089 19.2392C33.1089 22.6392 34.4089 26.3392 34.4089 30.2392C31.5089 27.3392 28.6089 24.3392 25.6089 21.4392C23.9089 19.7392 22.0089 18.1392 20.7089 16.1392C19.6089 14.3392 18.9089 11.8392 20.5089 10.1392ZM23.9089 25.5392C20.5089 23.2392 17.2089 20.2392 16.2089 16.0392C15.8089 14.3392 15.8089 12.1392 17.1089 10.8392C17.5089 10.4392 18.0089 10.1392 18.6089 10.0392C17.8089 11.5392 17.8089 13.2392 18.3089 14.9392C19.1089 17.3392 21.0089 19.0392 22.8089 20.8392C26.0089 24.0392 29.2089 27.2392 32.3089 30.4392C32.0089 30.3392 31.8089 30.2392 31.5089 30.1392C29.0089 28.7392 26.4089 27.2392 23.9089 25.5392ZM14.6089 27.0392C11.6089 25.5392 8.60892 23.7392 6.50892 21.0392C4.40892 18.3392 2.90892 15.0392 2.10892 11.8392C1.20892 8.43923 1.40892 4.63923 3.60892 1.73923C4.40892 2.03923 5.20892 2.13923 6.00892 2.23923C3.50892 7.33923 6.30892 13.2392 9.60892 17.4392C11.7089 20.0392 13.9089 22.6392 16.5089 24.7392C19.0089 26.7392 21.7089 28.2392 24.6089 29.4392C26.3089 30.1392 28.0089 30.7392 29.7089 31.3392C24.5089 30.7392 19.4089 29.3392 14.6089 27.0392ZM14.9089 41.9392C14.2089 41.9392 13.2089 41.9392 12.7089 41.2392C12.2089 40.5392 12.4089 39.2392 12.4089 38.4392C12.3089 37.4392 12.3089 36.4392 12.2089 35.4392C12.3089 35.2392 12.3089 35.1392 12.3089 34.8392C12.3089 34.7392 12.3089 34.6392 12.3089 34.5392C17.6089 34.2392 22.9089 34.0392 28.2089 33.8392V33.9392C28.6089 36.4392 28.9089 38.9392 29.0089 41.4392C25.3089 41.5392 21.6089 41.6392 17.9089 41.7392C17.0089 41.9392 16.0089 41.9392 14.9089 41.9392ZM27.8089 85.6392C25.8089 85.6392 23.8089 85.6392 21.8089 85.3392C20.7089 85.2392 19.7089 85.0392 18.6089 84.7392C17.6089 84.5392 16.4089 84.3392 16.1089 83.1392C15.9089 82.2392 16.0089 81.2392 15.9089 80.4392C15.9089 79.3392 15.9089 78.2392 15.9089 77.1392C15.9089 75.0392 16.1089 72.9392 16.2089 70.8392C16.8089 61.7392 17.7089 52.6392 16.5089 43.5392C17.2089 43.5392 17.9089 43.4392 18.5089 43.4392C20.5089 43.3392 22.6089 43.3392 24.6089 43.2392C26.2089 43.2392 30.2089 43.3392 30.5089 43.1392C31.1089 43.1392 31.7089 43.1392 32.3089 43.1392C33.0089 57.2392 33.8089 71.2392 34.5089 85.3392C34.5089 85.4392 34.5089 85.4392 34.5089 85.4392C32.3089 85.5392 30.0089 85.5392 27.8089 85.6392ZM36.1089 85.4392C36.1089 85.3392 36.1089 85.3392 36.1089 85.4392C35.4089 71.2392 34.6089 57.1392 33.9089 43.1392C35.1089 43.1392 36.3089 43.0392 37.5089 43.0392C38.6089 57.1392 39.6089 71.2392 40.7089 85.3392C39.2089 85.3392 37.6089 85.3392 36.1089 85.4392ZM59.7089 67.4392C60.0089 71.7392 60.3089 75.9392 60.6089 80.2392C60.7089 81.1392 60.7089 82.1392 60.8089 83.0392C60.8089 84.1392 60.3089 84.6392 59.2089 84.7392C57.3089 85.0392 55.2089 84.8392 53.3089 84.9392C49.6089 85.0392 46.0089 85.1392 42.3089 85.2392C41.2089 71.1392 40.2089 57.0392 39.1089 42.9392C42.2089 42.8392 45.4089 42.7392 48.5089 42.7392C51.5089 42.6392 54.4089 42.6392 57.4089 42.5392C58.3089 50.7392 59.1089 59.0392 59.7089 67.4392ZM56.3089 33.8392C57.3089 33.8392 58.4089 33.8392 59.4089 33.9392C59.8089 33.9392 60.5089 33.8392 60.8089 34.1392C61.1089 34.4392 61.1089 34.9392 61.2089 35.3392C61.5089 37.1392 61.5089 39.0392 61.3089 40.8392L42.3089 41.3392V33.7392C47.0089 33.6392 51.7089 33.7392 56.3089 33.8392ZM70.9089 23.0392C67.8089 25.5392 64.0089 27.0392 60.3089 28.3392C56.6089 29.6392 52.7089 30.6392 48.8089 31.2392C47.8089 31.4392 46.8089 31.5392 45.8089 31.6392C49.5089 30.7392 53.1089 29.5392 56.5089 27.6392C59.4089 25.9392 62.1089 24.0392 64.7089 21.9392C67.3089 19.8392 69.9089 17.7392 71.9089 15.0392C73.8089 12.4392 74.9089 9.33923 74.6089 6.13923C75.7089 6.23923 76.8089 6.23923 77.9089 6.13923C78.7089 12.4392 75.9089 19.0392 70.9089 23.0392Z" fill="white"/>
</svg>
