<svg width="17" height="24" viewBox="0 0 17 24" fill="none" xmlns="http://www.w3.org/2000/svg">
<path d="M16.8421 14.8685C16.9475 14.1567 17.0003 13.438 17 12.7184C17.0006 12.4807 16.9881 12.2432 16.9631 12.0069C16.7675 10.2211 15.8376 9.39108 14.19 9.495C14.1313 8.97871 13.9139 8.49333 13.5678 8.10579L13.5631 8.10133C13.155 7.73696 12.6217 7.54472 12.075 7.5649L12.0737 7.56512C11.9885 7.56279 11.9034 7.56901 11.8195 7.58369C11.5317 7.64193 11.2516 7.73355 10.9851 7.85671C10.9898 7.60653 10.9944 7.34658 10.9987 7.07142L11.1742 4.29595L11.1748 4.28446C11.2009 3.80278 11.1905 3.31983 11.1438 2.83972C11.0909 2.12411 10.8636 1.43228 10.4822 0.824501C10.3634 0.558075 10.1623 0.336614 9.90888 0.192141C9.65545 0.0476679 9.36253 -0.0121761 9.07274 0.0213149L9.05673 0.0240439L9.03209 0.0292795C7.95247 0.294057 7.28352 1.40982 7.02524 3.37656L7.02437 3.37672C6.90646 4.03459 6.84228 4.70097 6.83247 5.36926L6.83242 5.37246C6.8178 6.14506 6.80534 6.85047 6.79474 7.49658C6.74817 7.44497 6.68796 7.40759 6.62105 7.38873C6.21671 7.27531 5.79331 7.24657 5.37735 7.30431C5.06118 7.35867 4.76162 7.48456 4.50154 7.67237C4.24146 7.86018 4.02774 8.10494 3.8767 8.38796C3.86735 8.40358 3.85915 8.41986 3.85216 8.43666C3.60121 9.13898 3.47186 9.87896 3.46967 10.6248C3.46104 10.7381 3.45677 11.1236 3.45802 11.7811L3.45841 11.7973L3.55564 13.967L3.5534 13.9674C3.51731 14.0966 3.44533 14.213 3.34579 14.3031C3.24625 14.3931 3.12324 14.4531 2.991 14.4761L2.97804 14.4781L2.97169 14.479C2.8733 14.4955 2.78537 14.5501 2.72697 14.631C2.66858 14.7118 2.64444 14.8125 2.65979 14.911C2.67514 15.0096 2.72874 15.0981 2.80896 15.1574C2.88918 15.2167 2.98955 15.242 3.08828 15.2277L3.11778 15.2232C3.40151 15.18 3.66576 15.0526 3.87629 14.8576C4.08683 14.6625 4.23397 14.4088 4.29866 14.1292C4.31189 14.087 4.31763 14.0429 4.31563 13.9987L4.21544 11.7633C4.21435 11.1314 4.21749 10.7733 4.22416 10.6891L4.22691 10.6552C4.22828 10.0118 4.33316 9.37291 4.53753 8.76288L4.53527 8.76331C4.63795 8.57824 4.78124 8.41885 4.95436 8.29712C5.12748 8.17538 5.32594 8.09445 5.53483 8.06043C5.83577 8.01936 6.14196 8.04074 6.43427 8.12325C6.49586 8.1391 6.56047 8.13902 6.62202 8.12304C6.68358 8.10706 6.74006 8.07569 6.78616 8.03188C6.75392 10.1165 6.7451 11.4672 6.75998 12.0762C6.7612 12.126 6.77219 12.175 6.79235 12.2205C6.81251 12.266 6.84143 12.3071 6.87747 12.3414C6.9135 12.3757 6.95594 12.4026 7.00237 12.4205C7.04879 12.4384 7.09829 12.447 7.14804 12.4458C7.16561 12.4453 7.18312 12.4437 7.20047 12.4409C7.29065 12.426 7.37241 12.379 7.43068 12.3086C7.48895 12.2381 7.5198 12.149 7.51754 12.0576C7.49733 11.2315 7.5215 9.009 7.59004 5.39008C7.59856 4.75612 7.65958 4.12396 7.77247 3.50008L7.77657 3.47521C7.98854 1.86127 8.46256 0.959171 9.19863 0.768905L9.20094 0.768487C9.41772 0.737675 9.63011 0.889662 9.83813 1.22445L9.84629 1.23705C10.1625 1.74486 10.3492 2.32254 10.39 2.91937L10.3915 2.93149C10.4335 3.37284 10.4422 3.81673 10.4173 4.25937L10.242 7.02351L10.2412 7.04153C10.2015 9.59857 10.1469 11.0405 10.0773 11.3672C10.0666 11.416 10.0655 11.4665 10.0744 11.5157C10.0832 11.5649 10.1017 11.6119 10.1287 11.654C10.1558 11.696 10.1909 11.7323 10.2321 11.7607C10.2732 11.7891 10.3196 11.8091 10.3685 11.8195C10.4174 11.8299 10.4679 11.8305 10.517 11.8213C10.5662 11.8121 10.613 11.7933 10.6549 11.7659C10.6967 11.7385 10.7327 11.7031 10.7608 11.6618C10.7889 11.6204 10.8085 11.5739 10.8186 11.5249C10.9201 10.5861 10.9697 9.64245 10.9672 8.6982C11.2662 8.53583 11.585 8.41277 11.9156 8.33208C11.9579 8.32456 12.0009 8.32132 12.0439 8.32242L12.0576 8.32268C12.4174 8.30201 12.7714 8.42102 13.0456 8.6549C13.4545 9.05655 13.6087 10.0352 13.5083 11.5908C13.5048 11.6406 13.5112 11.6906 13.5271 11.738C13.543 11.7853 13.5682 11.829 13.601 11.8666C13.6339 11.9042 13.6738 11.9349 13.7186 11.957C13.7634 11.9791 13.8121 11.9922 13.8619 11.9954C13.9117 11.9986 13.9617 11.9919 14.009 11.9758C14.0562 11.9596 14.0998 11.9343 14.1372 11.9012C14.1746 11.8681 14.2051 11.828 14.227 11.7831C14.2489 11.7382 14.2616 11.6895 14.2646 11.6396C14.2965 11.1766 14.2998 10.712 14.2746 10.2485C15.4199 10.2001 16.0694 10.808 16.2098 12.0894C16.2318 12.2984 16.2426 12.5085 16.242 12.7187L16.2422 12.7321C16.2421 13.415 16.1913 14.0969 16.0904 14.7723L16.0896 14.779C15.977 16.112 15.7937 17.4381 15.5405 18.7517C15.5351 18.7704 15.5311 18.7894 15.5286 18.8087C15.2176 19.8369 14.7658 20.8172 14.1862 21.7216L14.174 21.7452C14.0564 22.0358 13.9664 22.3368 13.9052 22.6442C13.894 22.6927 13.8925 22.7429 13.9007 22.792C13.909 22.8411 13.9268 22.888 13.9532 22.9302C13.9796 22.9724 14.014 23.009 14.0546 23.0378C14.0951 23.0667 14.1409 23.0873 14.1894 23.0985C14.2379 23.1097 14.2881 23.1112 14.3372 23.1029C14.3863 23.0947 14.4332 23.0768 14.4754 23.0505C14.5176 23.0241 14.5542 22.9896 14.583 22.9491C14.6119 22.9086 14.6325 22.8627 14.6437 22.8142C14.6935 22.5685 14.7621 22.3269 14.849 22.0917L14.8473 22.092C15.4646 21.1167 15.9443 20.061 16.273 18.9546L16.2706 18.955C16.5354 17.6043 16.7261 16.24 16.8421 14.8685Z" fill="white"/>
<path d="M4.76418 21.7151C4.76029 21.7015 4.75451 21.6884 4.74699 21.6764C4.64745 21.4299 4.5096 21.2007 4.33854 20.9971C4.09578 20.715 3.82335 20.4599 3.52596 20.2362L3.50017 20.2146C2.25337 19.3462 1.53681 18.8331 1.35048 18.6754H1.34621C1.3268 18.6429 1.30209 18.6138 1.2731 18.5895C1.1267 18.4532 1.03499 18.2683 1.01515 18.0693L1.01084 18.065C0.76779 16.6634 0.730133 15.2339 0.899057 13.8215H0.894757C0.95284 13.733 1.03089 13.6594 1.12264 13.6065L2.81658 12.7681C2.90606 12.723 2.97423 12.6446 3.00639 12.5497C3.03856 12.4548 3.03215 12.351 2.98854 12.2608C2.95151 12.1883 2.8925 12.1292 2.81993 12.0922C2.74736 12.0551 2.66494 12.0419 2.58443 12.0545C2.54885 12.062 2.51423 12.0736 2.48122 12.0889L0.761479 12.9359C0.744213 12.9433 0.728247 12.9535 0.714188 12.9659C0.477375 13.1072 0.290898 13.3192 0.181073 13.5722C0.168525 13.601 0.159851 13.6313 0.155276 13.6624L0.146669 13.6968C-0.0323678 15.1952 0.00819919 16.7116 0.267088 18.1983C0.316633 18.5523 0.481298 18.8801 0.735674 19.1312C0.750242 19.1495 0.766052 19.1667 0.78299 19.1828C1.00276 19.3698 1.23238 19.5449 1.47088 19.7073C1.84922 19.9825 2.38233 20.3608 3.06595 20.8337C3.31338 21.0254 3.54225 21.2398 3.74953 21.4743C3.87638 21.623 3.97804 21.7915 4.05049 21.9731C4.05789 21.9957 4.068 22.0174 4.08059 22.0376H4.07631C4.12359 22.1838 4.25257 22.6008 4.45896 23.2929C4.48481 23.381 4.54183 23.4566 4.61937 23.5057C4.69691 23.5547 4.78966 23.5739 4.88029 23.5596L4.93188 23.5466C5.02795 23.5172 5.10849 23.4509 5.15599 23.3624C5.20349 23.2738 5.21412 23.1701 5.18555 23.0737C4.94476 22.2654 4.80288 21.814 4.76418 21.7151Z" fill="white"/>
</svg>
