<svg width="42" height="48" viewBox="0 0 42 48" fill="none" xmlns="http://www.w3.org/2000/svg">
<path d="M21.1102 41.6477C19.6498 41.6477 11 34.4582 11 29.1784C11 25.8084 13.4714 23 16.3921 23C17.5155 23 19.5375 23.4493 21.1102 25.9207C23.1322 23.337 25.0419 23 26.0529 23C28.8613 23 30.9957 25.696 30.9957 29.1784C31.2204 34.4582 22.5705 41.6477 21.1102 41.6477ZM16.5044 25.359C14.8194 25.359 13.359 27.1564 13.359 29.2908C13.359 32.7732 19.4252 38.1653 21.2225 39.401C23.0199 38.1653 29.086 32.8855 29.086 29.2908C29.086 27.1564 27.8503 25.359 26.39 25.359C25.0419 25.359 23.5816 26.5947 22.2335 28.8414L21.1102 30.7511L20.2115 28.7291C19.0882 26.5947 17.8525 25.359 16.5044 25.359Z" fill="#A71057"/>
<path d="M39 48H3C1.3 48 0 46.7 0 45V19C0 17.3 1.3 16 3 16H39C40.7 16 42 17.3 42 19V45C42 46.7 40.7 48 39 48ZM4 19C3.4 19 3 19.4 3 20V44C3 44.6 3.4 45 4 45H38C38.6 45 39 44.6 39 44V20C39 19.4 38.6 19 38 19H4Z" fill="#A71057"/>
<path d="M33 17H30V12C30 6.5 26.5 3 21 3C15.5 3 12 6.5 12 12V17H9V12C9 5.4 14.4 0 21 0C27.6 0 33 5.4 33 12V17Z" fill="#A71057"/>
</svg>
