<svg width="42" height="54" viewBox="0 0 42 54" fill="none" xmlns="http://www.w3.org/2000/svg">
<path d="M41.9999 26.65C41.962 25.6304 41.7836 24.6209 41.4699 23.65C41.1613 22.7107 40.7238 21.8189 40.1699 21C39.9012 20.6053 39.6037 20.231 39.2799 19.88C38.9308 19.513 38.5492 19.1783 38.1399 18.88C37.3772 18.3003 36.5121 17.8695 35.5899 17.61C34.7193 17.3571 33.8165 17.2325 32.9099 17.24H32.6499C32.3799 17.24 32.1099 17.24 31.8399 17.31C31.8399 16.92 31.8399 16.52 31.8399 16.12C31.8399 15.48 31.8399 14.84 31.7699 14.2C31.6999 13.56 31.6599 12.82 31.5699 12.13C31.4799 11.44 31.3399 10.81 31.1999 10.13C31.0599 9.44999 30.8599 8.81999 30.6599 8.12999C30.4455 7.46321 30.157 6.82255 29.7999 6.21999C29.6299 5.92999 29.4599 5.63999 29.2699 5.36999C29.0799 5.09999 28.8299 4.75999 28.5899 4.45999C28.1435 3.92173 27.6253 3.4473 27.0499 3.04999C25.8736 2.24513 24.5777 1.63092 23.2099 1.22999C22.5793 1.0273 21.9341 0.873508 21.2799 0.769988C20.5251 0.650625 19.7637 0.577157 18.9999 0.549988H18.4799C17.9599 0.549988 17.4799 0.549988 16.9299 0.629988C16.5466 0.676362 16.1661 0.743123 15.7899 0.829988C15.1918 0.975496 14.6116 1.18678 14.0599 1.45999C13.1196 1.95551 12.2734 2.61213 11.5599 3.39999C11.3081 3.67557 11.0775 3.96974 10.8699 4.27999C10.6723 4.54974 10.4952 4.83386 10.3399 5.12999C10.1699 5.47999 9.98991 5.82999 9.84991 6.18999C9.70991 6.54999 9.60991 6.84999 9.49991 7.18999C9.38991 7.52999 9.29991 7.85999 9.21991 8.18999C9.05499 8.8473 8.93802 9.51573 8.86991 10.19C8.79991 10.92 8.75991 11.64 8.74991 12.37C8.72476 13.3923 8.7749 14.415 8.89991 15.43C8.96991 16.01 9.05991 16.59 9.15991 17.17C9.15991 17.42 9.27991 17.66 9.33991 17.91C7.30406 17.8906 5.3284 18.6 3.76991 19.91C3.00182 20.5742 2.36718 21.3785 1.89991 22.28C1.46031 23.1343 1.15666 24.052 0.999908 25C0.814973 26.026 0.774581 27.0728 0.879909 28.11C0.946767 28.8776 1.08401 29.6375 1.28991 30.38C1.37991 30.72 1.45991 31.06 1.56991 31.38C1.67991 31.7 1.72991 31.83 1.79991 32.05C1.86991 32.27 1.87991 32.29 1.92991 32.41C2.07991 32.78 2.23991 33.14 2.38991 33.51C2.53991 33.88 2.73991 34.26 2.92991 34.62C3.11991 34.98 3.23991 35.19 3.39991 35.47C3.55991 35.75 3.70991 36 3.87991 36.27C4.04991 36.54 4.23991 36.85 4.43991 37.12C4.63991 37.39 4.90991 37.8 5.14991 38.12C5.38991 38.44 5.58991 38.71 5.80991 39.01C6.02991 39.31 6.22991 39.56 6.44991 39.83C6.87991 40.38 7.30991 40.94 7.76991 41.47C8.22991 42 8.71991 42.57 9.20991 43.11C9.69991 43.65 10.0799 44.05 10.5199 44.51C11.5599 45.5833 12.6132 46.6333 13.6799 47.66C14.1799 48.13 14.6799 48.58 15.2199 49.03L16.7599 50.4C17.2799 50.86 17.7599 51.33 18.3099 51.77C18.7912 52.1503 19.3067 52.485 19.8499 52.77C20.1741 52.9396 20.508 53.0898 20.8499 53.22L21.1399 53.29C21.1865 53.453 21.2958 53.5909 21.4439 53.6734C21.592 53.7559 21.7668 53.7762 21.9299 53.73C22.2721 53.636 22.6064 53.5157 22.9299 53.37C23.2699 53.23 23.5999 53.08 23.9299 52.91C24.5278 52.5742 25.1055 52.2035 25.6599 51.8C26.2399 51.39 26.8099 50.95 27.3699 50.5C27.9299 50.05 28.4699 49.59 29.0099 49.11C31.1024 47.2702 33.0421 45.2637 34.8099 43.11C35.7199 42 36.5699 40.85 37.3799 39.67C37.7499 39.13 38.0999 38.56 38.3799 38C38.6599 37.44 39.0799 36.8 39.3799 36.17C39.6799 35.54 40.0399 34.82 40.3799 34.12C40.5199 33.78 40.6599 33.44 40.7899 33.12C40.9199 32.8 41.0299 32.42 41.1399 32.06C41.3499 31.41 41.4899 30.73 41.6399 30.06C41.6399 29.91 41.6399 29.76 41.7099 29.61C41.7799 29.46 41.7899 29.16 41.8099 28.94L41.8699 28.43C41.8699 28.27 41.8699 28.11 41.8699 27.96C41.9999 27.57 41.9999 27.11 41.9999 26.65ZM10.0899 11.53C10.0899 11.05 10.1499 10.53 10.1999 10.09C10.2733 9.53148 10.3768 8.97733 10.5099 8.42999C10.5899 8.10999 10.6699 7.79999 10.7699 7.48999C10.8699 7.17999 10.9899 6.86999 11.1099 6.55999C11.2571 6.21725 11.424 5.88336 11.6099 5.55999C11.7299 5.35999 11.8499 5.15999 11.9799 4.96999C12.1099 4.77999 12.1799 4.69999 12.2799 4.56999L12.6199 4.17999C12.7399 4.04999 12.8799 3.92999 12.9999 3.79999C13.2316 3.58306 13.4753 3.3794 13.7299 3.18999C13.9599 3.03999 14.1799 2.88999 14.4199 2.74999C14.6518 2.61742 14.8924 2.5005 15.1399 2.39999C15.5446 2.23177 15.9627 2.09797 16.3899 1.99999C16.5999 1.99999 16.7999 1.91999 17.0099 1.88999L17.8699 1.81999H18.7499C19.3267 1.83972 19.9015 1.89987 20.4699 1.99999L21.5499 2.18999C21.8999 2.25999 22.2399 2.35999 22.5499 2.44999C23.1845 2.64056 23.8087 2.8642 24.4199 3.11999C24.7899 3.28999 25.1499 3.46999 25.4999 3.66999C25.8499 3.86999 26.1399 4.07999 26.4999 4.29999C26.7514 4.49294 26.9918 4.69993 27.2199 4.91999C27.4456 5.1458 27.6561 5.38632 27.8499 5.63999C28.3843 6.36118 28.8433 7.13522 29.2199 7.94999C29.4996 8.69405 29.7301 9.45569 29.9099 10.23C30.0899 11 30.2399 11.78 30.3499 12.57C30.4599 13.36 30.5099 14.39 30.5399 15.31C30.5399 15.75 30.5399 16.19 30.5399 16.63C30.5399 16.93 30.5399 17.22 30.5399 17.52C30.1799 17.6 29.8299 17.69 29.4699 17.79L29.0799 17.92L28.5899 18.08C28.2299 18.22 27.8699 18.36 27.5199 18.52L26.9599 18.78C26.8099 18.85 26.6599 18.94 26.5099 19.02C26.1999 19.19 25.9099 19.38 25.6099 19.56L25.2399 19.84C24.9799 20.03 24.7199 20.22 24.4799 20.43C23.2851 21.4051 22.4537 22.7543 22.1199 24.26L21.4099 23.48C20.9399 22.98 20.4699 22.48 19.9599 22.03C19.3979 21.531 18.8032 21.07 18.1799 20.65C17.6094 20.2661 17.0073 19.9315 16.3799 19.65C15.7296 19.3497 15.0617 19.0893 14.3799 18.87L13.2699 18.52C12.9299 18.42 12.5899 18.35 12.2699 18.26L11.7999 18.18L11.2399 18.08L10.7099 18C10.6199 17.67 10.5299 17.34 10.4599 17C10.3899 16.66 10.2999 16.1 10.2399 15.65C10.1253 14.7712 10.0652 13.8862 10.0599 13C10.0599 12.5 10.0699 12 10.0899 11.53ZM40.7199 27.85C40.7199 28.21 40.6599 28.58 40.6199 28.94C40.5799 29.3 40.4799 29.77 40.3899 30.19C40.2999 30.61 40.1699 31.12 40.0499 31.59C39.9899 31.83 39.8999 32.07 39.8199 32.31C39.7399 32.55 39.6799 32.71 39.6099 32.91C39.4599 33.31 39.2899 33.71 39.1299 34.1C38.8499 34.7 38.5799 35.3 38.2699 35.88C37.9599 36.46 37.5999 37.12 37.2699 37.72C36.9399 38.32 36.5099 38.94 36.1099 39.53C35.7099 40.12 35.2699 40.7 34.8399 41.27V41.34C34.4399 41.84 34.0499 42.34 33.6299 42.83C33.2099 43.32 32.6299 43.95 32.1599 44.5C31.2199 45.5 30.2299 46.5 29.1599 47.5C28.0899 48.5 27.0499 49.31 25.9999 50.16C25.4599 50.57 24.9199 50.96 24.3599 51.34C23.839 51.6905 23.2866 51.9918 22.7099 52.24C22.4899 52.34 22.2699 52.42 22.0399 52.5C21.988 52.3842 21.9038 52.2858 21.7974 52.2166C21.6909 52.1474 21.5668 52.1104 21.4399 52.11C21.2899 52.11 21.1499 52.01 21.0099 51.96L20.5099 51.71C20.1599 51.524 19.8254 51.3099 19.5099 51.07C18.4299 50.17 17.3999 49.21 16.3499 48.28C15.8199 47.82 15.2999 47.36 14.7899 46.89C14.2799 46.42 13.7899 45.89 13.2499 45.4C12.7099 44.91 12.3199 44.47 11.8599 43.99C11.3999 43.51 10.9099 42.99 10.4599 42.52C9.52991 41.52 8.59991 40.44 7.73991 39.34L6.99991 38.55C6.36991 37.7 5.73991 36.85 5.15991 35.96C5.01991 35.75 4.86991 35.54 4.73991 35.32L4.23991 34.44C3.97991 33.99 3.76991 33.53 3.53991 33.07C3.41991 32.78 3.29991 32.48 3.16991 32.19C3.03991 31.9 2.94991 31.57 2.84991 31.27C2.74991 30.97 2.65991 30.67 2.57991 30.36L2.42991 29.85C2.31914 29.3915 2.23236 28.9275 2.16991 28.46C2.06453 27.5463 2.06453 26.6236 2.16991 25.71C2.27839 24.9839 2.46964 24.2726 2.73991 23.59C2.99532 23.0038 3.31387 22.4472 3.68991 21.93C4.07662 21.4669 4.51629 21.0507 4.99991 20.69C5.48292 20.3245 6.00636 20.0158 6.55991 19.77C7.46142 19.4002 8.4255 19.2067 9.39991 19.2C9.75614 19.175 10.1137 19.175 10.4699 19.2L11.1499 19.29C11.5099 19.35 11.8699 19.42 12.2299 19.51C12.5899 19.6 13.0499 19.72 13.4599 19.84C14.1699 20.05 14.8599 20.33 15.5499 20.61C16.0446 20.8233 16.5255 21.0671 16.9899 21.34C17.2599 21.5 17.5199 21.67 17.7899 21.85C18.0599 22.03 18.1599 22.12 18.3399 22.26C18.8143 22.6426 19.2682 23.0498 19.6999 23.48C20.1499 23.93 20.5999 24.39 21.0199 24.87C21.2199 25.09 21.4099 25.32 21.5999 25.56C21.7899 25.8 21.9299 26.03 22.1999 26.09C22.3344 26.1247 22.4754 26.1247 22.6099 26.09C22.7371 26.0406 22.8528 25.9657 22.9499 25.87C23.0887 25.7056 23.1756 25.5038 23.1999 25.29C23.316 24.6728 23.4867 24.067 23.7099 23.48C23.8881 23.0752 24.113 22.6926 24.3799 22.34C24.7794 21.8388 25.2358 21.3858 25.7399 20.99C25.9099 20.86 26.0799 20.72 26.2599 20.6C26.4399 20.48 26.6899 20.31 26.9199 20.19C27.1499 20.07 27.3799 19.93 27.6199 19.81L28.2899 19.5L28.9799 19.23L29.3799 19.1L29.7899 18.96C30.0699 18.88 30.3499 18.79 30.6299 18.73C30.9099 18.67 31.3899 18.57 31.7699 18.52C32.5406 18.43 33.3192 18.43 34.0899 18.52C34.7768 18.6142 35.4489 18.7956 36.0899 19.06C36.6144 19.2894 37.1109 19.5779 37.5699 19.92C38.0598 20.3216 38.5057 20.7741 38.8999 21.27C39.3557 21.8923 39.7414 22.563 40.0499 23.27C40.3751 24.0588 40.6002 24.8852 40.7199 25.73C40.7867 26.1734 40.8135 26.6218 40.7999 27.07C40.7299 27.36 40.7299 27.6 40.7199 27.85Z" fill="#A71057"/>
<path d="M24.9999 34.54C24.9191 34.0736 24.7457 33.6282 24.4899 33.23C24.2656 32.874 23.9892 32.5538 23.6698 32.28C23.3343 31.9797 22.9612 31.7242 22.5599 31.52C22.1366 31.3033 21.6741 31.174 21.1999 31.14H21.0499C20.6542 31.1449 20.2659 31.248 19.9199 31.44C19.6216 31.607 19.3652 31.8395 19.1699 32.12C18.9694 32.4039 18.8236 32.7227 18.7399 33.06C18.659 33.4492 18.659 33.8508 18.7399 34.24C18.7178 34.6359 18.7687 35.0324 18.8899 35.41C19.013 35.8492 19.2018 36.2672 19.4499 36.65C19.5802 36.8494 19.7239 37.0399 19.8799 37.22C20.0615 37.4134 20.2626 37.5877 20.4799 37.74C20.643 37.8457 20.8174 37.9329 20.9999 38V38.29C20.9999 38.46 21.0599 38.62 21.0799 38.79C21.1599 39.42 21.1899 40.07 21.2199 40.69C21.2397 41.3814 21.3335 42.0686 21.4999 42.74C21.5999 43.1598 21.791 43.5524 22.0599 43.89C22.1601 44.0233 22.288 44.1333 22.4347 44.2127C22.5813 44.2921 22.7434 44.3389 22.9099 44.35C23.055 44.3489 23.197 44.3074 23.3199 44.23C23.4767 44.1121 23.6061 43.9617 23.6993 43.7891C23.7925 43.6165 23.8473 43.4258 23.8599 43.23C23.9224 42.88 23.9558 42.5255 23.9598 42.17C23.9598 41.85 23.9598 41.53 23.9598 41.24C23.8998 40.5288 23.803 39.8212 23.6698 39.12C23.5998 38.71 23.5299 38.3 23.4499 37.89C23.7883 37.7198 24.0853 37.4774 24.3199 37.18C24.6254 36.8377 24.8569 36.436 24.9999 36C25.0616 35.7645 25.0985 35.5232 25.1099 35.28C25.135 35.0373 25.135 34.7927 25.1099 34.55L24.9999 34.54Z" fill="#A71057"/>
</svg>
