<svg width="89" height="171" viewBox="0 0 89 171" fill="none" xmlns="http://www.w3.org/2000/svg">
<path d="M76.0001 84.836C75.9422 83.2805 75.6701 81.7403 75.1915 80.259C74.7207 78.826 74.0532 77.4654 73.2081 76.216C72.7981 75.6138 72.3442 75.0427 71.8503 74.5072C71.3176 73.9473 70.7355 73.4367 70.111 72.9816C68.9473 72.0972 67.6275 71.4399 66.2205 71.044C64.8923 70.6581 63.5149 70.468 62.1317 70.4795H61.7351C61.3231 70.4795 60.9112 70.4795 60.4993 70.5863C60.4993 69.9912 60.4993 69.381 60.4993 68.7707C60.4993 67.7943 60.4993 66.8178 60.3925 65.8414C60.2857 64.865 60.2246 63.736 60.0873 62.6833C59.95 61.6306 59.7364 60.6694 59.5228 59.6319C59.3092 58.5945 59.0041 57.6333 58.699 56.5806C58.3718 55.5633 57.9317 54.5859 57.3869 53.6666C57.1275 53.2241 56.8682 52.7817 56.5783 52.3697C56.2884 51.9578 55.907 51.4391 55.5408 50.9814C54.8598 50.1602 54.0692 49.4363 53.1913 48.8302C51.3966 47.6022 49.4195 46.6651 47.3327 46.0534C46.3707 45.7442 45.3863 45.5096 44.3882 45.3516C43.2365 45.1695 42.0749 45.0574 40.9096 45.016H40.1163C39.3229 45.016 38.5906 45.016 37.7515 45.138C37.1667 45.2088 36.5861 45.3107 36.0122 45.4432C35.0996 45.6652 34.2144 45.9875 33.3728 46.4044C31.9381 47.1604 30.6472 48.1621 29.5586 49.3642C29.1745 49.7846 28.8226 50.2334 28.5059 50.7067C28.2045 51.1183 27.9342 51.5518 27.6973 52.0036C27.4379 52.5376 27.1633 53.0715 26.9497 53.6208C26.7361 54.17 26.5836 54.6277 26.4157 55.1465C26.2479 55.6652 26.1106 56.1687 25.9886 56.6721C25.7369 57.675 25.5585 58.6948 25.4546 59.7235C25.3478 60.8372 25.2867 61.9357 25.2715 63.0494C25.2331 64.6091 25.3096 66.1695 25.5003 67.718C25.6071 68.6029 25.7444 69.4878 25.897 70.3727C25.897 70.7541 26.0801 71.1202 26.1716 71.5017C23.0656 71.472 20.0514 72.5543 17.6736 74.553C16.5018 75.5663 15.5335 76.7934 14.8206 78.1688C14.15 79.4723 13.6867 80.8724 13.4475 82.3187C13.1654 83.884 13.1037 85.4811 13.2644 87.0635C13.3664 88.2347 13.5758 89.394 13.89 90.5268C14.0273 91.0455 14.1493 91.5643 14.3172 92.0525C14.485 92.5407 14.5613 92.739 14.6681 93.0747C14.7749 93.4103 14.7901 93.4408 14.8664 93.6239C15.0953 94.1884 15.3394 94.7377 15.5682 95.3021C15.7971 95.8666 16.1022 96.4464 16.3921 96.9956C16.682 97.5449 16.865 97.8653 17.1091 98.2925C17.3532 98.7197 17.5821 99.1011 17.8415 99.513C18.1008 99.9249 18.3907 100.398 18.6958 100.81C19.001 101.222 19.4129 101.847 19.7791 102.335C20.1452 102.824 20.4504 103.236 20.786 103.693C21.1217 104.151 21.4268 104.532 21.7624 104.944C22.4185 105.784 23.0745 106.638 23.7763 107.447C24.4781 108.255 25.2257 109.125 25.9733 109.949C26.7209 110.772 27.3006 111.383 27.9719 112.085C29.5586 113.722 31.1657 115.324 32.7931 116.89C33.5559 117.607 34.3187 118.294 35.1426 118.981L37.4921 121.071C38.2855 121.773 39.0178 122.49 39.8569 123.161C40.5912 123.741 41.3777 124.252 42.2064 124.687C42.701 124.945 43.2105 125.175 43.7321 125.373L44.1746 125.48C44.2456 125.729 44.4124 125.939 44.6384 126.065C44.8643 126.191 45.131 126.222 45.3798 126.151C45.9018 126.008 46.4119 125.824 46.9055 125.602C47.4242 125.388 47.9277 125.16 48.4312 124.9C49.3434 124.388 50.2247 123.822 51.0706 123.207C51.9555 122.581 52.8251 121.91 53.6795 121.223C54.5339 120.537 55.3577 119.835 56.1816 119.103C59.3741 116.296 62.3335 113.234 65.0305 109.949C66.4189 108.255 67.7157 106.501 68.9515 104.7C69.516 103.876 70.05 103.007 70.4772 102.152C70.9043 101.298 71.5451 100.322 72.0028 99.3604C72.4605 98.3993 73.0098 97.3008 73.5285 96.2328C73.7421 95.7141 73.9557 95.1954 74.154 94.7071C74.3524 94.2189 74.5202 93.6392 74.688 93.0899C75.0084 92.0982 75.222 91.0608 75.4508 90.0386C75.4508 89.8097 75.4508 89.5809 75.5576 89.352C75.6644 89.1232 75.6797 88.6655 75.7102 88.3298L75.8018 87.5517C75.8018 87.3076 75.8018 87.0635 75.8018 86.8347C76.0001 86.2397 76.0001 85.5378 76.0001 84.836ZM27.3159 61.7679C27.3159 61.0356 27.4074 60.2422 27.4837 59.5709C27.5956 58.7188 27.7535 57.8734 27.9567 57.0383C28.0787 56.5501 28.2008 56.0771 28.3533 55.6042C28.5059 55.1312 28.689 54.6582 28.8721 54.1853C29.0966 53.6624 29.3513 53.153 29.6349 52.6596C29.818 52.3545 30.0011 52.0493 30.1994 51.7595C30.3977 51.4696 30.5045 51.3475 30.6571 51.1492L31.1758 50.5542C31.3589 50.3558 31.5725 50.1728 31.7556 49.9744C32.109 49.6435 32.4808 49.3327 32.8693 49.0438C33.2202 48.8149 33.5559 48.5861 33.922 48.3725C34.2759 48.1702 34.6429 47.9918 35.0205 47.8385C35.638 47.5818 36.2759 47.3777 36.9276 47.2282C37.248 47.2282 37.5531 47.1062 37.8735 47.0604L39.1856 46.9536H40.5282C41.4083 46.9837 42.2851 47.0755 43.1524 47.2282L44.8001 47.5181C45.3341 47.6249 45.8528 47.7775 46.3258 47.9148C47.2939 48.2055 48.2462 48.5467 49.1788 48.937C49.7433 49.1963 50.2925 49.471 50.8265 49.7761C51.3605 50.0812 51.8029 50.4016 52.3522 50.7373C52.7358 51.0316 53.1026 51.3474 53.4507 51.6832C53.795 52.0277 54.1161 52.3947 54.4118 52.7817C55.2271 53.882 55.9275 55.0629 56.502 56.306C56.9287 57.4412 57.2804 58.6032 57.5547 59.7845C57.8293 60.9593 58.0582 62.1493 58.226 63.3546C58.3938 64.5599 58.4701 66.1313 58.5159 67.5349C58.5159 68.2062 58.5159 68.8775 58.5159 69.5488C58.5159 70.0065 58.5159 70.449 58.5159 70.9067C57.9666 71.0287 57.4327 71.166 56.8834 71.3186L56.2884 71.5169L55.5408 71.761C54.9916 71.9746 54.4423 72.1882 53.9084 72.4323L53.054 72.829C52.8251 72.9358 52.5963 73.0731 52.3674 73.1952C51.8945 73.4545 51.452 73.7444 50.9943 74.019L50.4298 74.4462C50.0332 74.7361 49.6365 75.026 49.2703 75.3464C47.4474 76.834 46.179 78.8926 45.6697 81.1897L44.5865 79.9997C43.8694 79.2368 43.1524 78.474 42.3743 77.7874C41.5168 77.0261 40.6095 76.3228 39.6586 75.682C38.7882 75.0963 37.8695 74.5859 36.9124 74.1563C35.9203 73.6982 34.9013 73.3008 33.861 72.9663L32.1675 72.4323C31.6488 72.2798 31.1301 72.173 30.6419 72.0356L29.9248 71.9136L29.0704 71.761L28.2618 71.639C28.1245 71.1355 27.9872 70.632 27.8804 70.1133C27.7736 69.5946 27.6363 68.7402 27.5447 68.0536C27.3699 66.7129 27.2782 65.3627 27.2701 64.0106C27.2701 63.2478 27.2854 62.4849 27.3159 61.7679ZM74.0472 86.6668C74.0472 87.2161 73.9557 87.7806 73.8947 88.3298C73.8336 88.8791 73.6811 89.5961 73.5438 90.2369C73.4064 90.8777 73.2081 91.6558 73.025 92.3729C72.9335 92.739 72.7962 93.1052 72.6741 93.4713C72.5521 93.8375 72.4605 94.0816 72.3537 94.3867C72.1249 94.997 71.8655 95.6073 71.6214 96.2023C71.1942 97.1177 70.7823 98.0331 70.3093 98.918C69.8364 99.8029 69.2871 100.81 68.7837 101.725C68.2802 102.641 67.6242 103.587 67.0139 104.487C66.4036 105.387 65.7323 106.272 65.0763 107.141V107.248C64.466 108.011 63.871 108.774 63.2302 109.521C62.5894 110.269 61.7045 111.23 60.9875 112.069C59.5533 113.595 58.0429 115.121 56.4105 116.646C54.778 118.172 53.1913 119.408 51.5893 120.705C50.7655 121.33 49.9416 121.925 49.0872 122.505C48.2925 123.04 47.4497 123.499 46.5699 123.878C46.2342 124.031 45.8986 124.153 45.5477 124.275C45.4685 124.098 45.34 123.948 45.1776 123.842C45.0153 123.737 44.8259 123.68 44.6323 123.68C44.4034 123.68 44.1898 123.527 43.9762 123.451L43.2134 123.069C42.6793 122.786 42.1691 122.459 41.6877 122.093C40.04 120.72 38.4686 119.255 36.8666 117.836C36.058 117.135 35.2646 116.433 34.4865 115.716C33.7085 114.999 32.9609 114.19 32.137 113.442C31.3131 112.695 30.7181 112.024 30.0163 111.291C29.3145 110.559 28.5669 109.766 27.8804 109.048C26.4615 107.523 25.0426 105.875 23.7306 104.197L22.6016 102.992C21.6404 101.695 20.6792 100.398 19.7943 99.04C19.5807 98.7197 19.3519 98.3993 19.1535 98.0636L18.3907 96.721C17.994 96.0345 17.6736 95.3327 17.3227 94.6309C17.1397 94.1884 16.9566 93.7307 16.7582 93.2883C16.5599 92.8458 16.4226 92.3423 16.27 91.8846C16.1175 91.4269 15.9801 90.9692 15.8581 90.4963L15.6292 89.7182C15.4602 89.0187 15.3278 88.3108 15.2326 87.5975C15.0718 86.2036 15.0718 84.7958 15.2326 83.4019C15.3981 82.2941 15.6898 81.2089 16.1022 80.1675C16.4919 79.2731 16.9779 78.4239 17.5516 77.6349C18.1416 76.9283 18.8124 76.2934 19.5502 75.743C20.2871 75.1855 21.0857 74.7145 21.9303 74.3394C23.3057 73.7752 24.7766 73.48 26.2632 73.4698C26.8067 73.4317 27.3522 73.4317 27.8956 73.4698L28.9331 73.6071C29.4823 73.6986 30.0316 73.8054 30.5808 73.9427C31.1301 74.08 31.8319 74.2631 32.4574 74.4462C33.5406 74.7666 34.5933 75.1938 35.6461 75.621C36.4007 75.9464 37.1345 76.3183 37.843 76.7347C38.255 76.9788 38.6516 77.2382 39.0636 77.5128C39.4755 77.7874 39.6281 77.9247 39.9027 78.1383C40.6264 78.7221 41.319 79.3434 41.9776 79.9997C42.6642 80.6862 43.3507 81.388 43.9915 82.1203C44.2966 82.456 44.5865 82.8069 44.8764 83.1731C45.1663 83.5392 45.3798 83.8901 45.7918 83.9817C45.9969 84.0346 46.2122 84.0346 46.4173 83.9817C46.6113 83.9063 46.7878 83.7921 46.936 83.646C47.1477 83.3952 47.2804 83.0873 47.3175 82.7611C47.4946 81.8194 47.755 80.8953 48.0955 79.9997C48.3674 79.3821 48.7105 78.7984 49.1177 78.2604C49.7272 77.4958 50.4235 76.8046 51.1927 76.2007C51.452 76.0024 51.7114 75.7888 51.986 75.6057C52.2606 75.4226 52.642 75.1633 52.9929 74.9802C53.3439 74.7971 53.6948 74.5835 54.0609 74.4004L55.0831 73.9275L56.1358 73.5156L56.7461 73.3172L57.3716 73.1036C57.7988 72.9816 58.226 72.8443 58.6532 72.7527C59.0804 72.6612 59.8127 72.5086 60.3925 72.4323C61.5683 72.295 62.7562 72.295 63.932 72.4323C64.98 72.576 66.0054 72.8529 66.9834 73.2562C67.7835 73.6062 68.5411 74.0464 69.2414 74.5683C69.9888 75.181 70.669 75.8714 71.2705 76.6279C71.966 77.5773 72.5544 78.6006 73.025 79.6793C73.5212 80.8827 73.8647 82.1436 74.0472 83.4324C74.1491 84.1089 74.19 84.7931 74.1693 85.4768C74.0625 85.9193 74.0625 86.2854 74.0472 86.6668Z" fill="#A71057"/>
<path d="M50.0634 96.8736C49.9403 96.1621 49.6757 95.4825 49.2853 94.875C48.9432 94.3319 48.5215 93.8433 48.0343 93.4256C47.5224 92.9674 46.9531 92.5776 46.3408 92.2661C45.6951 91.9354 44.9894 91.7382 44.2659 91.6863H44.037C43.4333 91.6938 42.8409 91.8511 42.313 92.144C41.858 92.3988 41.4668 92.7536 41.1687 93.1815C40.863 93.6146 40.6405 94.101 40.5127 94.6156C40.3893 95.2094 40.3893 95.8221 40.5127 96.4159C40.4791 97.0199 40.5567 97.6249 40.7416 98.2009C40.9295 98.871 41.2175 99.5088 41.5959 100.093C41.7948 100.397 42.014 100.688 42.252 100.962C42.5291 101.258 42.8358 101.523 43.1674 101.756C43.4163 101.917 43.6824 102.05 43.9607 102.152V102.595C43.9607 102.854 44.0523 103.098 44.0828 103.358C44.2048 104.319 44.2506 105.311 44.2964 106.256C44.3266 107.311 44.4698 108.36 44.7236 109.384C44.8761 110.025 45.1678 110.624 45.5779 111.139C45.7309 111.342 45.926 111.51 46.1498 111.631C46.3736 111.752 46.6208 111.824 46.8748 111.84C47.0962 111.839 47.3129 111.775 47.5003 111.657C47.7395 111.478 47.937 111.248 48.0792 110.985C48.2214 110.721 48.305 110.43 48.3241 110.132C48.4196 109.598 48.4706 109.057 48.4767 108.514C48.4767 108.026 48.4767 107.538 48.4767 107.096C48.3851 106.011 48.2375 104.931 48.0343 103.861C47.9275 103.236 47.8207 102.61 47.6986 101.985C48.215 101.725 48.668 101.355 49.026 100.901C49.4921 100.379 49.8453 99.7662 50.0634 99.1011C50.1576 98.7418 50.2139 98.3736 50.2312 98.0026C50.2696 97.6323 50.2696 97.2591 50.2312 96.8888L50.0634 96.8736Z" fill="#A71057"/>
</svg>
