<svg width="148" height="83" viewBox="0 0 148 83" fill="none" xmlns="http://www.w3.org/2000/svg">
<path d="M86.9593 5.69684C86.8803 5.00853 86.7081 4.15832 86.1834 3.30022C85.6717 2.44243 84.7731 1.65881 83.6239 1.25548C82.0096 0.689937 80.4045 0.966398 79.1647 1.53762C77.9884 2.07697 77.1219 2.93129 76.6497 3.76414C76.4903 3.39395 76.2762 3.00861 75.9878 2.62926C75.1305 1.49502 73.6466 0.434622 71.6519 0.0928333C70.658 -0.064017 69.5197 -0.0589678 68.323 0.400222C67.7302 0.635024 67.1244 0.98849 66.5941 1.50859C66.0586 2.01985 65.6239 2.70185 65.3489 3.44129C65.0493 4.26373 64.962 5.12403 65.0142 5.91712C65.0228 6.11784 65.0472 6.31193 65.0707 6.50665C65.1036 6.71463 65.1194 6.85033 65.1785 7.12964C65.2972 7.63238 65.4623 7.98363 65.6286 8.33079C66.3117 9.65818 67.1072 10.7145 67.8686 11.8475C68.8634 13.2995 70.0248 14.5499 71.1542 15.6412C72.2862 16.7306 73.3829 17.6648 74.3052 18.4554L75.4399 19.4236C75.3978 19.4495 75.3544 19.4766 75.3152 19.4993C74.7786 19.8162 74.552 19.85 74.5577 19.8519C74.5597 19.8484 74.6369 19.8582 74.8318 19.8134C75.0025 19.7755 75.2653 19.6887 75.5893 19.5511L76.506 20.3338C77.0281 20.7822 77.3503 20.9994 77.3506 21C77.3458 21 76.9648 20.6014 76.4303 19.9109C76.2978 19.7449 76.1526 19.5625 75.997 19.3677C76.7382 19.0152 77.6921 18.4648 78.7003 17.7813C80.9869 16.2408 83.5562 14.0093 84.8761 12.0049C85.3727 11.2554 85.6673 10.7381 85.9108 10.2692C86.1516 9.79514 86.3452 9.37856 86.5852 8.74327C86.7004 8.41631 86.8376 8.0578 86.9391 7.48689C86.9498 7.41178 86.9632 7.32278 86.9691 7.25366L86.9813 7.06021C86.9908 6.9286 86.9973 6.791 86.9973 6.64678C87.0065 6.36085 86.9914 6.04336 86.9593 5.69684ZM85.4689 7.34455C85.354 8.05433 85.041 8.82122 84.7155 9.50417C84.3832 10.1934 84.0075 10.8246 83.6215 11.358C81.5995 14.1213 79.2859 16.3977 77.5035 17.8974C76.8707 18.4279 76.3023 18.8533 75.8364 19.1677C75.3844 18.6062 74.8525 17.9558 74.2643 17.2643C72.53 15.2174 70.2903 12.8154 69.0277 10.9032L67.9922 9.30534C67.7329 8.89254 67.504 8.53876 67.2257 8.02908C67.0894 7.77408 66.9382 7.47805 66.8073 7.11386C66.6781 6.7708 66.622 6.29047 66.5932 5.71767C66.5849 5.15023 66.6258 4.46097 66.9388 3.73258C67.2402 3.00766 67.8639 2.26633 68.8293 1.82734C70.1805 1.22171 71.6774 1.26463 72.9262 1.61684C74.1879 1.96873 75.2321 2.68165 75.8901 3.49178C76.1007 3.74741 76.2667 4.00809 76.4024 4.26467C76.0989 5.01358 76.103 5.65392 76.1722 6.06387C76.2533 6.54168 76.3843 6.76986 76.3768 6.77144C76.3822 6.7727 76.3647 6.56441 76.4202 6.16707C76.4653 5.90576 76.5497 5.55419 76.7596 5.15307C76.8211 5.37525 76.8624 5.58228 76.8817 5.76122C76.9497 6.35422 76.8867 6.68055 76.8953 6.6796C76.8837 6.67802 77.0254 6.34665 77.0397 5.63372C77.0438 5.3986 77.0227 5.11741 76.9672 4.8056C77.0299 4.71345 77.0973 4.62035 77.1754 4.52504C77.7043 3.87397 78.6771 3.16388 80.0511 2.8344C80.7309 2.67187 81.508 2.60528 82.2985 2.73562C83.084 2.86533 83.8879 3.19954 84.4533 3.84651C84.7672 4.20029 85.0653 4.66611 85.2563 5.28057C85.3519 5.58607 85.4196 5.92501 85.4561 6.28353C85.4861 6.6392 85.5149 7.0359 85.4689 7.34455Z" fill="black"/>
<path d="M47.6282 68.8074L48.963 69.2197C48.9951 69.0294 48.9618 68.8327 48.8698 68.6684C48.7777 68.5041 48.6335 68.3841 48.4658 68.3323C48.298 68.2805 48.1189 68.3006 47.9638 68.3885C47.8087 68.4765 47.6889 68.626 47.6282 68.8074ZM56.6567 68.8074L55.3219 68.3951C55.5351 67.4675 56.8143 67.8901 56.6567 68.859V68.8074ZM66.8068 72.9304C67.19 73.4114 67.5886 73.8752 68.0026 74.3218C67.9296 74.719 67.8368 75.1112 67.7245 75.4969C67.6782 75.6515 67.6226 75.7958 67.5669 75.9504C67.2147 75.6103 66.8347 75.2289 66.4546 74.8166C66.6198 74.2036 66.7377 73.576 66.8068 72.9407V72.9304ZM55.3219 68.4364L56.6567 68.8487C56.3972 70.0546 56.3045 71.8584 56.0913 73.6725C55.3568 72.0603 55.0881 70.2351 55.3219 68.4467V68.4364ZM47.6282 68.7971L48.963 69.2094C48.4684 70.7766 47.8672 72.2996 47.1647 73.7652C47.0737 72.0956 47.2303 70.4206 47.6282 68.8074V68.7971ZM48.5551 73.7549C48.9352 76.9193 52.0034 80.9701 54.2374 76.4555C55.257 74.394 54.8121 70.7761 55.3312 68.4364C55.0954 70.2282 55.3641 72.0573 56.1005 73.6725C55.6741 77.2903 54.7472 80.9494 50.9281 79.9496C48.3327 79.259 47.3408 76.5791 47.2203 73.7652C47.9229 72.2996 48.524 70.7766 49.0186 69.2094C48.5876 70.6773 48.4269 72.2267 48.5459 73.7652L48.5551 73.7549ZM66.3712 75.0949C66.3712 75.0124 66.3712 74.9094 66.4453 74.8269C66.8254 75.2392 67.2054 75.6206 67.5577 75.9607C65.092 83.248 58.4643 79.3106 56.082 73.6828C56.2952 71.8687 56.3879 70.0649 56.6474 68.859C55.7576 74.5486 63.924 82.8872 66.3712 75.0949ZM49.1299 33.0926C49.2226 34.5047 49.547 37.4216 51.2804 37.4216C53.0138 37.4216 53.468 34.5562 53.6256 33.1338C53.7368 32.1649 55.1365 32.1031 55.016 33.1338C54.7565 35.4426 53.9129 38.9677 51.3082 38.9677C48.7035 38.9677 47.9248 35.4323 47.7672 33.0926C47.6745 32.1031 49.065 32.1134 49.1299 33.0926ZM23.0361 30.1962C21.1822 29.5572 20.728 26.97 20.9505 25.0426C21.0617 24.0737 22.4522 24.0634 22.3409 25.0426C22.2019 26.1867 22.2019 28.1863 23.4069 28.681C24.8252 29.2479 25.6409 26.8566 26.0673 25.7847C26.4288 24.8776 27.6338 25.661 27.2723 26.568C26.5122 28.4749 25.2516 30.9486 23.0361 30.1962ZM17.1963 36.6898C25.9255 42.7355 36.0002 45.9486 46.2841 45.9664C46.4685 45.9664 46.6453 46.0479 46.7757 46.1928C46.9061 46.3378 46.9793 46.5344 46.9793 46.7395C46.9793 46.9445 46.9061 47.1411 46.7757 47.2861C46.6453 47.4311 46.4685 47.5125 46.2841 47.5125C35.7536 47.4933 25.4365 44.2094 16.4919 38.0298C15.7318 37.5041 16.4362 36.1642 17.1963 36.6898ZM40.7039 38.6688C40.4606 38.8018 40.195 38.8768 39.9241 38.8891C39.6532 38.9013 39.383 38.8505 39.1308 38.7399C38.8786 38.6292 38.65 38.4613 38.4595 38.2467C38.2691 38.0321 38.1211 37.7757 38.025 37.4938C37.8431 37.7053 37.6157 37.8617 37.3643 37.9483C37.1129 38.0348 36.8458 38.0487 36.5882 37.9885C36.1813 37.9151 35.7979 37.7281 35.4737 37.4451C35.1495 37.1621 34.8951 36.7923 34.7343 36.3703C34.4145 36.7016 34.0104 36.9151 33.5774 36.9815C33.1444 37.0479 32.7035 36.964 32.3149 36.7414C30.461 35.7106 31.0636 33.1029 31.9812 31.5156C32.4633 30.6807 33.6683 31.4537 33.1863 32.2989C32.7043 33.1441 32.1852 34.1027 32.8897 34.917C33.5941 35.7312 33.863 35.1953 34.4099 34.4325C34.5349 34.2262 34.6318 34.0004 34.6972 33.7625C34.7115 33.6959 34.7301 33.6304 34.7528 33.5667C35.0865 32.773 36.2916 33.3399 36.0228 34.1645C36.002 34.2417 35.9773 34.3174 35.9486 34.3913C35.652 35.2159 36.4213 36.9372 37.1907 36.2775C37.441 36.0714 37.4317 35.319 37.441 34.9891C37.441 34.7841 37.5142 34.5875 37.6446 34.4425C37.775 34.2975 37.9518 34.2161 38.1362 34.2161C38.3206 34.2161 38.4974 34.2975 38.6278 34.4425C38.7582 34.5875 38.8314 34.7841 38.8314 34.9891C38.8199 35.4463 38.8892 35.9016 39.0353 36.3291C39.6657 37.7927 40.435 37.2258 40.778 36.0199C41.0406 35.0157 41.1656 33.9732 41.1488 32.9277C41.1488 32.7226 41.222 32.526 41.3524 32.381C41.4828 32.2361 41.6596 32.1546 41.844 32.1546C42.0284 32.1546 42.2052 32.2361 42.3356 32.381C42.466 32.526 42.5392 32.7226 42.5392 32.9277C42.4929 34.7005 42.3631 37.7927 40.7039 38.6688ZM66.1951 68.4364C65.8428 67.8798 64.2392 66.1275 63.6089 67.4056C63.3957 67.8488 64.7768 69.8794 64.99 70.2401C65.5494 71.172 66.169 72.0573 66.8439 72.8891C66.7753 73.5279 66.6574 74.159 66.4917 74.7754C64.3226 72.4768 61.9033 69.2094 62.1165 66.6017C62.3297 63.9939 64.2485 64.2413 65.8243 65.4782C68.2251 67.4159 68.67 71.1678 68.0675 74.2806C67.6473 73.8408 67.2487 73.377 66.8717 72.8891C67.1042 71.3625 66.8658 69.7933 66.1951 68.4364ZM1.05811 26.8154C0.0477317 38.7925 5.75776 47.8114 13.9798 54.6452C19.1986 58.9742 24.4266 63.2724 28.5052 69.0136C31.0357 72.5799 32.0739 79.4343 35.5315 82.0111C40.1662 85.4744 44.6156 79.1457 47.1647 73.7652C47.0727 72.0921 47.2293 70.4136 47.6282 68.7971C46.2563 73.3323 39.9345 86.3196 35.0587 79.0426C32.454 75.1464 31.4343 70.4051 28.5052 66.581C21.8775 57.9332 10.958 53.1197 5.70214 43.2453C3.46639 38.8253 2.38452 33.7992 2.57831 28.7326C3.14298 29.3543 3.80197 29.8603 4.52491 30.2271C5.002 30.4615 5.49104 30.6645 5.9895 30.8353C5.9895 30.8971 5.9895 30.9693 5.9895 31.0311C6.22123 38.3184 10.2349 45.1006 16.0006 49.7286C24.853 56.82 36.8663 60.3348 47.517 56.7376C55.3034 54.1092 63.3678 46.4302 63.4698 36.8754C70.2479 44.3981 75.2474 53.6682 78.023 63.8599C79.2836 68.3436 81.8976 80.0733 74.2688 78.2902C71.8921 77.6435 69.7231 76.2771 68.0026 74.3425C67.9296 74.7396 67.8368 75.1319 67.7245 75.5175C67.6782 75.6721 67.6226 75.8164 67.5669 75.971L68.5495 76.8781C71.0059 79.0529 75.6963 81.4854 78.8201 79.4858C81.944 77.4862 80.9336 71.6419 80.4608 68.4673C79.3114 60.6646 75.8261 52.8208 72.1183 46.1829C69.8287 42.1218 66.8903 38.9677 63.9518 35.7003L63.6459 35.3602C63.8591 27.8977 55.0438 19.8167 51.679 18.0439C51.652 18.0191 51.6272 17.9914 51.6048 17.9614L51.095 17.5182C42.2704 9.73619 29.2931 3.75794 17.9472 5.22158C11.5327 6.04617 6.43444 11.0968 3.55161 17.3945C2.50416 16.4772 1.47524 16.2607 0.687327 17.5698C-0.647484 19.7858 0.223854 24.1974 1.09519 26.4959C1.08592 26.6093 1.06738 26.7536 1.05811 26.8154ZM51.1135 19.6003C47.7024 24.857 37.2092 23.2285 32.9267 21.2701C29.1448 19.5591 26.3268 16.2504 22.7303 14.158C22.1127 13.7966 21.4749 13.4799 20.8207 13.2098C19.9153 12.8149 18.9861 12.4912 18.0399 12.2409C14.0262 11.1586 9.39141 11.3029 7.90829 15.5392C7.57458 16.4669 8.91867 16.8585 9.2431 15.9515C10.2627 13.0655 12.8582 12.5913 15.7318 13.1788C12.7919 14.59 10.3268 16.9956 8.68692 20.0538C8.17759 20.9792 7.73438 21.9476 7.36138 22.9502C6.56359 21.3583 5.63252 19.8536 4.58052 18.4562C6.87937 12.5501 11.1619 7.9221 17.5022 6.83983C26.0487 5.36589 35.7725 8.69515 43.7072 13.787C46.1059 15.3019 48.3933 17.0252 50.5481 18.9406C50.7613 19.2395 50.9281 19.4354 51.0857 19.6312L51.1135 19.6003ZM61.4583 32.938L61.3471 32.8143C60.1884 31.4846 59.0575 30.1138 58.0008 28.6913C56.6375 26.5724 55.4079 24.351 54.3208 22.0431C54.2003 21.8267 54.0705 21.6205 53.9407 21.4041C57.6486 24.8261 60.3831 28.0214 61.4583 32.938ZM2.32804 25.7228C2.02921 24.866 1.7936 23.9835 1.62355 23.0842C1.28985 21.3732 1.14153 19.4251 1.78113 18.5902C2.03141 18.2603 2.43927 18.4253 2.91201 18.8685C3.29742 19.2591 3.65104 19.6868 3.96874 20.1466C4.98808 21.6468 5.91706 23.2204 6.7496 24.857L7.01841 25.3724C7.08526 25.4959 7.18222 25.5958 7.29805 25.6606C7.41389 25.7254 7.54385 25.7523 7.67289 25.7383C7.80192 25.7242 7.92474 25.6698 8.02711 25.5814C8.12947 25.4929 8.20719 25.374 8.25126 25.2384V25.125C8.25126 24.9498 8.33468 24.7746 8.3903 24.589C9.05341 22.0234 10.3026 19.6923 12.0164 17.8228C13.7302 15.9533 15.85 14.6091 18.1696 13.921C20.711 14.8831 23.1242 16.2213 25.3443 17.8996C28.19 20.1569 30.906 22.4039 34.3079 23.5171C38.9427 25.0219 48.3234 25.8156 52.0034 20.8887C53.0231 22.5276 53.7554 24.3932 54.7008 26.1145C56.6597 29.5017 59.0552 32.5509 61.8106 35.1643C62.1488 38.0693 61.6764 41.0197 60.4572 43.6163C54.8955 55.9233 40.5463 58.5001 29.636 55.2533C19.1708 52.1611 7.88975 43.5957 7.5375 31.3506C8.39957 31.6186 8.72401 30.2478 7.90829 29.8664L7.52823 29.6912C7.06476 29.485 6.55494 29.2582 6.0173 29.0006C4.92164 28.5518 3.9121 27.8768 3.04179 27.0113C2.91676 26.864 2.79917 26.7091 2.68955 26.5474C2.5464 26.3036 2.4253 26.0447 2.32804 25.7744V25.7228Z" fill="#A71057"/>
<path d="M142.676 45.0644C141.783 44.9883 140.884 45.0627 140.016 45.2845C139.895 44.0192 140.052 42.7428 140.476 41.5444C141.136 40.4144 143.696 40.2645 144.736 38.6645C146.336 36.1845 145.056 34.7544 143.126 34.0644C145.806 33.0144 148.616 31.1744 147.556 28.3944C147.381 27.8941 147.054 27.4615 146.619 27.1581C146.185 26.8547 145.666 26.6959 145.136 26.7044C146.496 23.9744 146.276 20.3844 142.976 19.7044C141.757 19.5998 140.529 19.7253 139.356 20.0744C139.641 19.1531 139.736 18.1836 139.636 17.2244C138.636 13.0344 135.736 13.5344 133.086 15.2244C134.016 12.3944 133.536 9.48445 129.566 8.76445C128.967 8.631 128.344 8.65281 127.756 8.82783C127.168 9.00285 126.634 9.32526 126.206 9.76445C126.209 9.27284 126.089 8.78824 125.857 8.35498C125.624 7.92173 125.287 7.55366 124.876 7.28445C123.476 6.60445 122.416 7.81445 121.646 9.50445C121.286 6.01445 119.836 3.24445 115.706 6.34445C115.345 6.64925 115.011 6.98376 114.706 7.34445C114.105 6.60108 113.329 6.01831 112.448 5.64833C111.567 5.27836 110.607 5.13271 109.656 5.22445C103.116 5.70445 102.096 10.5344 103.866 14.9944C103.279 14.6306 102.598 14.4479 101.908 14.4693C101.218 14.4906 100.549 14.715 99.9858 15.1144C97.4058 17.0644 99.7358 19.3844 101.736 20.6444C99.1531 24.7548 97.0874 29.1681 95.5858 33.7844C94.446 33.2277 93.1823 32.9729 91.9158 33.0444C89.3258 33.2544 87.7258 35.5745 87.2258 37.9445C86.8658 39.6145 86.7558 42.2244 88.3058 43.3844C89.6918 44.1836 91.2777 44.5688 92.8758 44.4944C92.4158 46.9444 92.0458 49.3944 91.7558 51.7944C90.6358 61.1844 90.7558 74.5844 101.646 78.1444C108.556 80.3944 119.796 79.6844 126.506 76.6444C134.366 73.0844 137.506 64.6445 138.956 56.6445C139.796 57.1834 140.76 57.5 141.756 57.5644C144.756 57.7044 147.976 54.6945 147.926 51.6845C147.876 48.6745 145.706 45.3744 142.676 45.0644ZM114.516 9.96445C114.822 10.8376 115 11.7503 115.046 12.6744C115.156 15.1644 114.046 15.9844 113.766 12.7344C113.768 11.7613 114.027 10.8059 114.516 9.96445ZM90.3458 42.6245C88.3458 42.0845 88.2958 40.1745 88.6658 38.3645C89.1358 36.0845 90.6658 34.1745 93.2058 34.6145C93.8715 34.7413 94.5172 34.9566 95.1258 35.2544C94.3458 37.8144 93.7058 40.4145 93.1758 43.0045C92.2216 42.9797 91.2728 42.8523 90.3458 42.6245ZM141.176 55.9944C140.47 55.7913 139.811 55.4516 139.236 54.9944C138.823 54.693 138.435 54.3586 138.076 53.9944C137.828 53.7544 137.597 53.4971 137.386 53.2244C136.806 52.4644 135.506 53.2244 136.086 53.9744C136.594 54.6431 137.174 55.2535 137.816 55.7945C136.716 62.4645 134.456 68.8645 129.576 72.9445C123.816 77.7845 115.236 77.6844 108.156 77.5344C91.6658 77.1844 90.5358 60.3545 94.0758 44.5345C94.1858 44.0445 94.3058 43.5344 94.4258 43.0644C95.0058 40.6644 95.6958 38.2944 96.4258 36.0644C96.5992 35.5644 96.7692 35.0744 96.9358 34.5944C98.5412 29.7322 100.702 25.0714 103.376 20.7044C103.465 20.5902 103.513 20.4494 103.513 20.3044C103.513 20.1595 103.465 20.0187 103.376 19.9044C103.322 19.8202 103.25 19.7486 103.166 19.6944C100.236 17.7844 101.236 15.7844 104.066 16.8544C104.914 17.3416 105.653 17.9987 106.236 18.7844C106.866 19.5144 107.916 18.4544 107.296 17.7244C105.806 16.0044 104.006 13.3344 104.246 10.9644C104.576 7.54445 109.726 5.45445 112.556 7.19445C113.034 7.50281 113.446 7.90408 113.766 8.37445C112.396 10.3744 111.606 13.0044 112.476 15.0944C113.096 16.5644 114.546 17.6844 115.866 16.3744C117.436 14.8244 116.506 10.6944 115.786 9.04445C115.706 8.84445 115.596 8.66445 115.506 8.47445C116.626 7.08445 118.086 6.20445 119.266 7.13445C121.176 8.63445 120.386 12.8044 120.046 15.0544C119.896 15.9844 121.286 16.4144 121.486 15.4544C121.656 14.6544 121.846 13.8544 122.076 13.0744C122.426 11.8544 123.326 8.07445 124.446 9.58445C124.829 10.358 124.959 11.2329 124.816 12.0844C124.282 13.7558 124.012 15.5 124.016 17.2544C124.016 18.0744 125.356 18.3044 125.486 17.4544C125.616 16.6044 126.076 14.4544 126.246 12.4544C126.493 11.9195 126.828 11.4295 127.236 11.0044C127.624 10.6377 128.074 10.3431 128.566 10.1344C129.906 9.52445 133.266 10.1344 131.056 16.3944C130.972 16.6395 130.854 16.8718 130.706 17.0844C130.179 17.6183 129.688 18.1862 129.236 18.7844L129.116 18.9344C128.596 19.6244 129.706 20.4344 130.296 19.8444C130.825 19.3054 131.301 18.716 131.716 18.0844C132.816 16.8344 134.236 15.5244 135.466 15.4844C137.906 15.3944 138.466 17.9544 138.056 20.4844C134.586 21.5944 131.116 23.7444 133.386 26.3244C135.656 28.9044 137.836 25.0044 138.986 21.5144C139.716 21.282 140.471 21.1344 141.236 21.0744C144.806 20.9744 145.016 24.8844 143.306 27.0744C142.53 27.3618 141.841 27.8439 141.306 28.4744C140.896 28.9944 141.306 29.9944 142.036 29.7244C142.807 29.4481 143.495 28.9801 144.036 28.3645C145.036 28.0045 146.036 28.3644 145.436 30.9844C145.056 32.6644 140.896 33.3144 139.526 33.5944C138.686 33.7544 138.896 35.0744 139.726 35.0644C141.586 35.0644 144.196 36.5545 142.726 38.5745C142.126 39.4045 140.556 39.5745 139.726 39.5745C139.528 39.577 139.338 39.6569 139.198 39.797C139.058 39.9371 138.978 40.1263 138.976 40.3245C138.976 42.0045 138.866 43.8145 138.786 45.6845C137.943 45.9729 137.129 46.3413 136.356 46.7845C136.183 46.8852 136.058 47.0504 136.008 47.2435C135.957 47.4367 135.985 47.6421 136.086 47.8144C136.187 47.9868 136.352 48.1121 136.545 48.1628C136.738 48.2134 136.943 48.1852 137.116 48.0844C137.626 47.7834 138.158 47.5194 138.706 47.2944C139.142 47.1161 139.59 46.9658 140.046 46.8445L140.706 46.6744C143.706 46.0744 145.536 47.9244 146.266 50.7244C146.996 53.5244 143.996 56.6344 141.176 55.9944ZM137.666 21.8944C137.176 23.3644 136.376 24.5944 135.466 24.8944C133.866 25.4444 135.976 22.7844 136.656 22.3844C136.981 22.1994 137.319 22.0357 137.666 21.8944ZM127.366 64.9944C122.366 69.7144 114.106 71.6845 107.366 71.1945C100.426 70.6845 97.2358 65.9445 96.9858 59.2845C96.9858 58.2845 98.4558 58.2845 98.4858 59.2845C98.6058 63.1245 99.4858 66.4244 102.976 68.4244C105.476 69.8444 108.226 69.8544 110.976 69.6444C116.306 69.2344 122.276 67.6445 126.256 63.9345C127.016 63.2745 128.076 64.3344 127.366 64.9944ZM111.366 24.9044C110.83 23.9969 110.556 22.9583 110.576 21.9044C110.876 20.6344 112.186 20.6544 113.436 21.1144C113.113 21.5414 112.925 22.0545 112.895 22.5886C112.865 23.1227 112.994 23.6538 113.266 24.1145C113.683 24.6755 114.264 25.0926 114.929 25.3077C115.594 25.5228 116.309 25.5251 116.976 25.3144C118.366 24.6644 118.036 23.0744 117.276 22.0544C116.824 21.466 116.272 20.9616 115.646 20.5644C116.446 19.4744 117.486 18.4744 118.906 19.2744C119.55 19.7215 120.076 20.3201 120.435 21.0175C120.794 21.715 120.976 22.49 120.966 23.2744C120.966 24.2744 122.516 24.2744 122.466 23.2744C122.476 22.1143 122.167 20.9737 121.572 19.9773C120.978 18.9808 120.121 18.1669 119.096 17.6244C117.276 16.7944 115.716 18.0444 114.606 19.4244L114.286 19.8344C113.666 19.5756 113.013 19.4072 112.346 19.3344C108.346 18.9544 108.846 23.1444 110.066 25.6544C110.506 26.5344 111.806 25.7844 111.386 24.9044H111.366ZM114.856 21.7844C115.226 22.0099 115.562 22.2859 115.856 22.6044C116.506 23.4444 115.996 24.4744 115.016 23.6044C114.366 23.1144 114.516 22.4344 114.856 21.7844ZM105.146 33.1544C106.326 32.5392 107.69 32.3786 108.981 32.703C110.271 33.0275 111.397 33.8144 112.146 34.9144C112.696 35.7144 111.396 36.4644 110.856 35.6744C110.313 34.8987 109.506 34.3464 108.587 34.1202C107.667 33.894 106.697 34.0092 105.856 34.4444C105.046 34.8944 104.286 33.6044 105.146 33.1544ZM129.536 39.7845C129.596 40.7845 128.096 40.7845 128.036 39.7845C128.067 39.1649 127.936 38.548 127.656 37.9944C127.241 37.565 126.682 37.3049 126.086 37.2645C125.463 37.1578 124.825 37.1923 124.217 37.3654C123.61 37.5385 123.049 37.8457 122.576 38.2645C121.766 38.8045 121.016 37.5044 121.816 36.9744C122.589 36.3779 123.499 35.9841 124.463 35.8286C125.427 35.6732 126.414 35.7611 127.336 36.0844C129.056 36.5744 129.436 38.0845 129.536 39.7845ZM107.326 59.4745C107.569 59.2835 107.797 59.0728 108.006 58.8444C108.625 59.4283 109.399 59.8208 110.236 59.9745C110.921 60.1107 111.629 60.0791 112.3 59.8823C112.97 59.6855 113.583 59.3294 114.086 58.8444C114.353 59.2712 114.719 59.6281 115.152 59.8855C115.585 60.1429 116.073 60.2933 116.576 60.3245C120.076 60.4645 122.406 54.1145 122.506 51.3245C122.506 50.3245 121.036 50.3245 121.006 51.3245C120.946 53.1045 118.446 60.0445 115.746 58.3245C115.487 58.1498 115.268 57.9213 115.106 57.6545C116.126 56.118 116.697 54.3277 116.756 52.4845C116.756 50.0545 114.936 47.9445 113.436 50.8645C112.648 52.9974 112.648 55.3415 113.436 57.4745C113.168 57.7894 112.836 58.0435 112.462 58.2199C112.088 58.3964 111.68 58.4911 111.267 58.4977C110.853 58.5043 110.443 58.4227 110.063 58.2584C109.684 58.094 109.344 57.8506 109.066 57.5445C110.716 54.8945 111.446 50.8744 109.806 48.5444C107.566 45.3944 106.046 50.5945 105.916 52.2645C105.761 54.1108 106.165 55.961 107.076 57.5745C106.697 57.9239 106.256 58.1987 105.776 58.3844C99.9458 60.6244 102.636 50.4845 103.306 47.7845C103.916 45.3345 104.626 42.9045 105.456 40.5245C105.776 39.6145 104.326 39.2145 104.016 40.1245C103.095 42.7471 102.318 45.4177 101.686 48.1245C100.986 51.1245 99.7558 55.3844 101.026 58.3444C102.106 60.7844 105.296 60.9945 107.326 59.4745ZM114.456 52.4744C114.776 50.6344 115.606 50.9545 115.016 54.0745C114.895 54.6652 114.703 55.2393 114.446 55.7845C114.23 54.6947 114.233 53.5728 114.456 52.4845V52.4744ZM107.756 50.2845C108.236 48.7745 108.696 49.0045 108.836 50.5245C109.057 51.6605 109.057 52.8284 108.836 53.9645C108.678 54.7757 108.405 55.5603 108.026 56.2945C106.846 54.4045 107.236 51.7844 107.756 50.2944V50.2845Z" fill="#A71057"/>
</svg>
