<svg width="22" height="21" viewBox="0 0 22 21" fill="none" xmlns="http://www.w3.org/2000/svg">
<path d="M21.9593 5.69684C21.8803 5.00853 21.7081 4.15832 21.1834 3.30022C20.6717 2.44243 19.7731 1.65881 18.6239 1.25548C17.0096 0.689937 15.4045 0.966398 14.1647 1.53762C12.9884 2.07697 12.1219 2.93129 11.6497 3.76414C11.4903 3.39395 11.2762 3.00861 10.9878 2.62926C10.1305 1.49502 8.64658 0.434622 6.6519 0.0928333C5.65797 -0.064017 4.51972 -0.0589678 3.32297 0.400222C2.73023 0.635024 2.12444 0.98849 1.59406 1.50859C1.05864 2.01985 0.623893 2.70185 0.348908 3.44129C0.0492744 4.26373 -0.038032 5.12403 0.014233 5.91712C0.0228449 6.11784 0.0471955 6.31193 0.0706554 6.50665C0.103618 6.71463 0.119357 6.85033 0.178452 7.12964C0.297236 7.63238 0.462347 7.98363 0.628645 8.33079C1.31165 9.65818 2.10721 10.7145 2.86862 11.8475C3.86344 13.2995 5.02485 14.5499 6.15419 15.6412C7.2862 16.7306 8.38288 17.6648 9.30524 18.4554L10.4399 19.4236C10.3978 19.4495 10.3544 19.4766 10.3152 19.4993C9.7786 19.8162 9.55201 19.85 9.55766 19.8519C9.55974 19.8484 9.63695 19.8582 9.83175 19.8134C10.0025 19.7755 10.2653 19.6887 10.5893 19.5511L11.506 20.3338C12.0281 20.7822 12.3503 20.9994 12.3506 21C12.3458 21 11.9648 20.6014 11.4303 19.9109C11.2978 19.7449 11.1526 19.5625 10.997 19.3677C11.7382 19.0152 12.6921 18.4648 13.7003 17.7813C15.9869 16.2408 18.5562 14.0093 19.8761 12.0049C20.3727 11.2554 20.6673 10.7381 20.9108 10.2692C21.1516 9.79514 21.3452 9.37856 21.5852 8.74327C21.7004 8.41631 21.8376 8.0578 21.9391 7.48689C21.9498 7.41178 21.9632 7.32278 21.9691 7.25366L21.9813 7.06021C21.9908 6.9286 21.9973 6.791 21.9973 6.64678C22.0065 6.36085 21.9914 6.04336 21.9593 5.69684ZM20.4689 7.34455C20.354 8.05433 20.041 8.82122 19.7155 9.50417C19.3832 10.1934 19.0075 10.8246 18.6215 11.358C16.5995 14.1213 14.2859 16.3977 12.5035 17.8974C11.8707 18.4279 11.3023 18.8533 10.8364 19.1677C10.3844 18.6062 9.85254 17.9558 9.26426 17.2643C7.53001 15.2174 5.29033 12.8154 4.02766 10.9032L2.99215 9.30534C2.73291 8.89254 2.50395 8.53876 2.2257 8.02908C2.08939 7.77408 1.93824 7.47805 1.80728 7.11386C1.6781 6.7708 1.62198 6.29047 1.59317 5.71767C1.58486 5.15023 1.62584 4.46097 1.93883 3.73258C2.24025 3.00766 2.86387 2.26633 3.82929 1.82734C5.18046 1.22171 6.67744 1.26463 7.92615 1.61684C9.18794 1.96873 10.2321 2.68165 10.8901 3.49178C11.1007 3.74741 11.2667 4.00809 11.4024 4.26467C11.0989 5.01358 11.103 5.65392 11.1722 6.06387C11.2533 6.54168 11.3843 6.76986 11.3768 6.77144C11.3822 6.7727 11.3647 6.56441 11.4202 6.16707C11.4653 5.90576 11.5497 5.55419 11.7596 5.15307C11.8211 5.37525 11.8624 5.58228 11.8817 5.76122C11.9497 6.35422 11.8867 6.68055 11.8953 6.6796C11.8837 6.67802 12.0254 6.34665 12.0397 5.63372C12.0438 5.3986 12.0227 5.11741 11.9672 4.8056C12.0299 4.71345 12.0973 4.62035 12.1754 4.52504C12.7043 3.87397 13.6771 3.16388 15.0511 2.8344C15.7309 2.67187 16.508 2.60528 17.2985 2.73562C18.084 2.86533 18.8879 3.19954 19.4533 3.84651C19.7672 4.20029 20.0653 4.66611 20.2563 5.28057C20.3519 5.58607 20.4196 5.92501 20.4561 6.28353C20.4861 6.6392 20.5149 7.0359 20.4689 7.34455Z" fill="white"/>
</svg>
