<svg width="124" height="87" viewBox="0 0 124 87" fill="none" xmlns="http://www.w3.org/2000/svg">
<path d="M36.0016 72.905L34.5616 73.305C34.527 73.1204 34.5629 72.9295 34.6622 72.7701C34.7615 72.6107 34.9171 72.4943 35.098 72.444C35.279 72.3938 35.4723 72.4132 35.6396 72.4986C35.8069 72.5839 35.9361 72.729 36.0016 72.905ZM26.2616 72.905L27.7016 72.505C27.4716 71.605 26.0916 72.015 26.2616 72.955V72.905ZM15.3116 76.905C14.8983 77.3716 14.4683 77.8216 14.0216 78.255C14.1004 78.6402 14.2005 79.0208 14.3216 79.395C14.3716 79.545 14.4316 79.685 14.4916 79.835C14.8716 79.505 15.2816 79.135 15.6916 78.735C15.5134 78.1402 15.3862 77.5314 15.3116 76.915V76.905ZM27.7016 72.545L26.2616 72.945C26.5416 74.115 26.6416 75.865 26.8716 77.625C27.664 76.0608 27.9539 74.2901 27.7016 72.555V72.545ZM36.0016 72.895L34.5616 73.295C35.0952 74.8154 35.7438 76.293 36.5016 77.715C36.5998 76.0951 36.4309 74.4701 36.0016 72.905V72.895ZM35.0016 77.705C34.5916 80.775 31.2816 84.705 28.8716 80.325C27.7716 78.325 28.2516 74.815 27.6916 72.545C27.946 74.2834 27.6561 76.0579 26.8616 77.625C27.3216 81.135 28.3216 84.685 32.4416 83.715C35.2416 83.045 36.3116 80.445 36.4416 77.715C35.6838 76.293 35.0352 74.8154 34.5016 73.295C34.9666 74.7191 35.14 76.2223 35.0116 77.715L35.0016 77.705ZM15.7816 79.005C15.7816 78.925 15.7816 78.825 15.7016 78.745C15.2916 79.145 14.8816 79.515 14.5016 79.845C17.1616 86.915 24.3116 83.095 26.8816 77.635C26.6516 75.875 26.5516 74.125 26.2716 72.955C27.2316 78.475 18.4216 86.565 15.7816 79.005ZM34.3816 38.255C34.2816 39.625 33.9316 42.455 32.0616 42.455C30.1916 42.455 29.7016 39.675 29.5316 38.295C29.4116 37.355 27.9016 37.295 28.0316 38.295C28.3116 40.535 29.2216 43.955 32.0316 43.955C34.8416 43.955 35.6816 40.525 35.8516 38.255C35.9516 37.295 34.4516 37.305 34.3816 38.255ZM62.5316 35.445C64.5316 34.825 65.0216 32.315 64.7816 30.445C64.6616 29.505 63.1616 29.495 63.2816 30.445C63.4316 31.555 63.4316 33.495 62.1316 33.975C60.6016 34.525 59.7216 32.205 59.2616 31.165C58.8716 30.285 57.5716 31.045 57.9616 31.925C58.7816 33.775 60.1416 36.175 62.5316 35.445ZM67.8316 42.745C58.5 46.5 46.772 48.465 37.4516 51.745C37.2527 51.745 37.062 51.824 36.9213 51.9646C36.7807 52.1053 36.7016 52.2961 36.7016 52.495C36.7016 52.6939 36.7807 52.8847 36.9213 53.0253C37.062 53.166 37.2527 53.245 37.4516 53.245C47.9116 49.5 59.2616 47.5 68.5916 44.045C69.4116 43.535 68.6516 42.235 67.8316 42.745ZM43.4716 43.665C43.7341 43.794 44.0206 43.8668 44.3129 43.8787C44.6051 43.8905 44.8966 43.8412 45.1687 43.7339C45.4407 43.6266 45.6874 43.4636 45.8928 43.2554C46.0983 43.0472 46.2579 42.7984 46.3616 42.525C46.5579 42.7301 46.8032 42.8819 47.0744 42.9659C47.3456 43.0499 47.6338 43.0633 47.9116 43.005C48.3505 42.9337 48.7642 42.7523 49.114 42.4777C49.4637 42.2032 49.7382 41.8444 49.9116 41.435C50.2567 41.7564 50.6925 41.9635 51.1597 42.0279C51.6268 42.0924 52.1025 42.011 52.5216 41.795C54.5216 40.795 53.8716 38.265 52.8816 36.725C52.3616 35.915 51.0616 36.665 51.5816 37.485C52.1016 38.305 52.6616 39.235 51.9016 40.025C51.1416 40.815 50.8516 40.295 50.2616 39.555C50.1267 39.3548 50.0223 39.1358 49.9516 38.905C49.9362 38.8403 49.9162 38.7768 49.8916 38.715C49.5316 37.945 48.2316 38.495 48.5216 39.295C48.544 39.3698 48.5707 39.4433 48.6016 39.515C48.9216 40.315 48.0916 41.985 47.2616 41.345C46.9916 41.145 47.0016 40.415 46.9916 40.095C46.9916 39.8961 46.9126 39.7053 46.772 39.5646C46.6313 39.424 46.4406 39.345 46.2416 39.345C46.0427 39.345 45.852 39.424 45.7113 39.5646C45.5707 39.7053 45.4916 39.8961 45.4916 40.095C45.5041 40.5385 45.4293 40.9802 45.2716 41.395C44.5916 42.815 43.7616 42.265 43.3916 41.095C43.1084 40.1207 42.9735 39.1094 42.9916 38.095C42.9916 37.8961 42.9126 37.7053 42.772 37.5646C42.6313 37.424 42.4406 37.345 42.2416 37.345C42.0427 37.345 41.852 37.424 41.7113 37.5646C41.5707 37.7053 41.4916 37.8961 41.4916 38.095C41.5416 39.815 41.6816 42.815 43.4716 43.665ZM15.9716 72.545C16.3516 72.005 18.0816 70.305 18.7616 71.545C18.9916 71.975 17.5016 73.945 17.2716 74.295C16.6682 75.199 15.9998 76.058 15.2716 76.865C15.3457 77.4847 15.4728 78.097 15.6516 78.695C17.9916 76.465 20.6016 73.295 20.3716 70.765C20.1416 68.235 18.0716 68.475 16.3716 69.675C13.7816 71.555 13.3016 75.195 13.9516 78.215C14.405 77.7883 14.835 77.3383 15.2416 76.865C14.9908 75.3839 15.2481 73.8614 15.9716 72.545ZM86.2416 32.165C87.3316 43.785 81.1716 52.535 72.3016 59.165C66.6716 63.365 61.0316 67.535 56.6316 73.105C53.9016 76.565 52.7816 83.215 49.0516 85.715C44.0516 89.075 39.2516 82.935 36.5016 77.715C36.6009 76.0917 36.432 74.4633 36.0016 72.895C37.4816 77.295 44.3016 89.895 49.5616 82.835C52.3716 79.055 53.4716 74.455 56.6316 70.745C63.7816 62.355 75.5616 57.685 81.2316 48.105C83.6436 43.8168 84.8107 38.9405 84.6016 34.025C83.9925 34.6282 83.2816 35.1191 82.5016 35.475C81.987 35.7023 81.4594 35.8993 80.9216 36.065C80.9216 36.125 80.9216 36.195 80.9216 36.255C80.6716 43.325 76.3416 49.905 70.1216 54.395C60.5716 61.275 47.6116 64.685 36.1216 61.195C27.7216 58.645 19.0216 51.195 18.9116 41.925C11.5994 49.2234 6.20595 58.2171 3.21164 68.105C1.85164 72.455 -0.968362 83.835 7.26164 82.105C9.82565 81.4776 12.1656 80.1519 14.0216 78.275C14.1004 78.6602 14.2005 79.0408 14.3216 79.415C14.3716 79.565 14.4316 79.705 14.4916 79.855L13.4316 80.735C10.7816 82.845 5.72164 85.205 2.35164 83.265C-1.01836 81.325 0.0716377 75.655 0.581638 72.575C1.82164 65.005 5.58164 57.395 9.58164 50.955C12.0516 47.015 15.2216 43.955 18.3916 40.785L18.7216 40.455C18.4916 33.215 28.0016 25.375 31.6316 23.655C31.6608 23.6309 31.6876 23.6041 31.7116 23.575L32.2616 23.145C41.7816 15.595 55.7816 9.79498 68.0216 11.215C74.9416 12.015 80.4416 16.915 83.5516 23.025C84.6816 22.135 85.7916 21.925 86.6416 23.195C88.0816 25.345 87.1416 29.625 86.2016 31.855C86.2116 31.965 86.2316 32.105 86.2416 32.165ZM32.2416 25.165C35.9216 30.265 47.2416 28.685 51.8616 26.785C55.9416 25.125 58.9816 21.915 62.8616 19.885C63.5278 19.5344 64.2159 19.2271 64.9216 18.965C65.8984 18.5819 66.9009 18.2678 67.9216 18.025C72.2516 16.975 77.2516 17.115 78.8516 21.225C79.2116 22.125 77.7616 22.505 77.4116 21.625C76.3116 18.825 73.5116 18.365 70.4116 18.935C73.5832 20.3041 76.2425 22.638 78.0116 25.605C78.5611 26.5028 79.0393 27.4423 79.4416 28.415C80.3023 26.8705 81.3068 25.4107 82.4416 24.055C79.9616 18.325 75.3416 13.835 68.5016 12.785C59.2816 11.355 48.7916 14.585 40.2316 19.525C37.6439 20.9948 35.1762 22.6666 32.8516 24.525C32.6216 24.815 32.4416 25.005 32.2716 25.195L32.2416 25.165ZM21.0816 38.105L21.2016 37.985C22.4516 36.695 23.6716 35.365 24.8116 33.985C26.2824 31.9293 27.6089 29.7741 28.7816 27.535C28.9116 27.325 29.0516 27.125 29.1916 26.915C25.1916 30.235 22.2416 33.335 21.0816 38.105ZM84.8716 31.105C85.194 30.2737 85.4482 29.4175 85.6316 28.545C85.9916 26.885 86.1516 24.995 85.4616 24.185C85.1916 23.865 84.7516 24.025 84.2416 24.455C83.8259 24.8339 83.4444 25.2489 83.1016 25.695C82.002 27.1505 80.9998 28.6772 80.1016 30.265L79.8116 30.765C79.7395 30.8848 79.6349 30.9818 79.51 31.0446C79.385 31.1074 79.2448 31.1335 79.1056 31.1199C78.9664 31.1063 78.8339 31.0536 78.7235 30.9677C78.613 30.8819 78.5292 30.7665 78.4816 30.635V30.525C78.4816 30.355 78.3916 30.185 78.3316 30.005C77.6163 27.5158 76.2686 25.2542 74.4198 23.4405C72.571 21.6267 70.2841 20.3226 67.7816 19.655C65.0401 20.5884 62.4367 21.8867 60.0416 23.515C56.9716 25.705 54.0416 27.885 50.3716 28.965C45.3716 30.425 35.2516 31.195 31.2816 26.415C30.1816 28.005 29.3916 29.815 28.3716 31.485C26.2584 34.7712 23.6742 37.7294 20.7016 40.265C20.3367 43.0833 20.8464 45.9458 22.1616 48.465C28.1616 60.405 43.6416 62.905 55.4116 59.755C66.7016 56.755 78.8716 48.445 79.2516 36.565C78.3216 36.825 77.9716 35.495 78.8516 35.125L79.2616 34.955C79.7616 34.755 80.3116 34.535 80.8916 34.285C82.0736 33.8496 83.1627 33.1947 84.1016 32.355C84.2365 32.2121 84.3634 32.0619 84.4816 31.905C84.6361 31.6685 84.7667 31.4172 84.8716 31.155V31.105Z" fill="#A71057"/>
<path d="M21.7909 14.5946C19.1651 13.3961 16.4846 12.3089 13.7707 11.2865C16.3025 11.0332 18.8251 10.749 21.3355 10.3876C21.7636 10.3259 21.6634 9.59382 21.2354 9.61853C18.1694 9.7915 15.1155 10.1498 12.0647 10.4834C14.3273 9.0749 16.6111 7.69523 18.9161 6.3444C19.4838 6.01081 18.9738 5.15521 18.397 5.47644C16.3187 6.63372 14.2716 7.84144 12.256 9.09961C13.6908 7.03011 15.1429 4.97091 16.6121 2.92201C16.6612 2.84531 16.6802 2.7526 16.6653 2.66231C16.6503 2.57201 16.6025 2.49076 16.5313 2.43471C16.4602 2.37866 16.3709 2.35191 16.2812 2.35978C16.1916 2.36766 16.1081 2.40958 16.0475 2.47722C14.6551 4.28726 13.3022 6.13127 11.9888 8.00926C12.7214 5.56293 13.4297 3.11042 14.1138 0.651737C14.2686 0.10193 13.4641 -0.0679536 13.3124 0.475675C12.6304 2.90347 11.9221 5.32097 11.1874 7.72818C11.1874 5.27773 11.1409 2.82831 11.0478 0.379922C11.0478 0.279161 11.0085 0.182526 10.9384 0.111277C10.8684 0.0400276 10.7734 0 10.6744 0C10.5754 0 10.4804 0.0400276 10.4104 0.111277C10.3404 0.182526 10.301 0.279161 10.301 0.379922C10.3921 3.18867 10.4133 5.99536 10.3648 8.8C9.45409 6.63783 8.44626 4.54363 7.38379 2.48957C7.16522 2.0695 6.54292 2.44015 6.75542 2.86332C7.6236 4.58069 8.41287 6.32587 9.14749 8.08648C7.44147 5.99227 5.46527 4.14826 3.03981 2.94672C2.60875 2.7305 2.21412 3.38224 2.64821 3.59845C5.3226 4.93282 7.42932 7.05173 9.22945 9.41776C7.81282 8.48494 6.38912 7.5583 4.95832 6.63783C4.5303 6.36602 4.07192 7.01467 4.50298 7.29266C5.33474 7.8332 6.1574 8.3861 6.98309 8.93899C5.66563 8.51274 4.34513 8.1009 3.02159 7.70347C2.92674 7.68584 2.82883 7.70503 2.74719 7.75723C2.66555 7.80944 2.6061 7.89088 2.58057 7.98549C2.55504 8.08011 2.56528 8.18102 2.60927 8.26833C2.65326 8.35564 2.72781 8.423 2.81821 8.45714C5.12225 9.16138 7.39593 9.9305 9.65747 10.7459C6.56316 11.0754 3.46884 11.3987 0.374528 11.7158C-0.120279 11.7652 -0.129386 12.5591 0.374528 12.5096C2.91535 12.2625 5.46831 12.0463 8.02127 11.8239C5.95907 13.1954 3.92722 14.6069 1.92573 16.0587C1.40664 16.4324 1.90752 17.2942 2.43875 16.9143C4.56369 15.3987 6.72202 13.9346 8.91375 12.522C7.42224 14.7665 5.96716 17.0317 4.54851 19.3174C4.28442 19.7374 4.89154 20.2224 5.15564 19.7961C6.57227 17.531 8.03544 15.2875 9.54516 13.0656C8.70732 15.7426 7.85229 18.4041 6.98005 21.0502C6.81309 21.5537 7.49914 21.9336 7.67521 21.4239C8.56161 18.8829 9.41159 16.3243 10.2251 13.7483C10.1159 16.3552 9.958 18.9622 9.75158 21.5691C9.70604 22.1498 10.5044 22.1374 10.556 21.5691C10.8201 18.7552 10.9992 15.9444 11.0933 13.1398C11.9524 15.5737 12.7295 18.0417 13.452 20.5529C13.4794 20.6527 13.5446 20.7375 13.6332 20.7886C13.7218 20.8397 13.8267 20.853 13.925 20.8257C14.0233 20.7983 14.1069 20.7325 14.1576 20.6426C14.2084 20.5527 14.2221 20.4461 14.1957 20.3459C13.7139 18.2856 13.1293 16.2516 12.4442 14.2517C13.9407 16.6733 15.4525 19.1259 17.456 21.0965C17.5299 21.166 17.6272 21.2042 17.7278 21.2031C17.8285 21.2021 17.925 21.1619 17.9975 21.0909C18.07 21.0199 18.1131 20.9233 18.118 20.821C18.1229 20.7187 18.0891 20.6184 18.0237 20.5405C16.6542 18.9293 15.3801 17.2367 14.2079 15.4718C13.6008 14.5235 12.9936 13.5629 12.3653 12.6116C15.0973 14.5112 17.8294 16.4324 20.5614 18.3382C20.6449 18.3948 20.7467 18.416 20.8453 18.3974C20.9438 18.3789 21.0314 18.322 21.0895 18.2388C21.1475 18.1557 21.1714 18.0528 21.1562 17.952C21.1409 17.8512 21.0876 17.7604 21.0077 17.6988C18.4669 15.7405 15.8562 13.8811 13.2213 12.0803C15.9837 13.1367 18.7249 14.2425 21.463 15.3884C21.9062 15.5737 22.231 14.7984 21.7909 14.5946Z" fill="black"/>
<g clip-path="url(#clip0_6_145)">
<path d="M94.5248 34.7393C94.605 34.6626 94.6808 34.5815 94.7521 34.4965C94.8352 34.3986 94.912 34.2947 94.9866 34.1901C95.1404 33.9742 95.2818 33.7499 95.4271 33.5282C95.5761 33.3005 95.7208 33.0713 95.8855 32.8544C95.9625 32.7531 96.0441 32.6556 96.1304 32.5617L96.1795 32.5106C96.1513 32.5395 96.2091 32.4824 96.2169 32.4751L96.3797 32.3367L96.5268 32.2302L96.5744 32.2007L96.6262 32.1733L96.792 32.0997L96.8789 32.0703L96.9291 32.0596L97.0635 32.044H97.1272L97.2211 32.0501C97.3617 32.062 97.5015 32.0869 97.6403 32.1107C97.933 32.1712 98.232 32.196 98.5308 32.1848C98.8499 32.1549 99.1511 32.0251 99.3914 31.8141C100.005 31.3136 99.9523 30.3338 99.9309 29.6269L99.9074 29.0308L99.8982 28.7512L99.896 28.6322V28.5493C99.8964 28.3844 99.9076 28.2196 99.9297 28.0562L99.9484 27.9527L99.9544 27.9263L100.006 27.7953L100.026 27.7681L100.038 27.7621L100.073 27.7581L100.13 27.7641L100.201 27.7771L100.209 27.7795C100.342 27.8232 100.47 27.8791 100.593 27.9465C100.651 27.9704 100.714 27.9807 100.777 27.9765C100.84 27.9723 100.901 27.9537 100.956 27.9222C101.011 27.8907 101.057 27.8471 101.092 27.7948C101.127 27.7425 101.15 27.6829 101.158 27.6206C101.166 27.1409 101.083 26.664 100.914 26.2148C100.75 25.7242 100.533 25.2507 100.322 24.7786C100.105 24.2906 99.8852 23.8032 99.7071 23.2992L99.6272 23.0582C99.9223 23.5734 100.242 24.0756 100.562 24.5697C100.861 25.0307 101.17 25.4853 101.46 25.952C101.783 26.4719 102.102 26.9932 102.461 27.4894C102.955 28.2836 103.669 28.92 104.516 29.323C104.584 29.3496 104.657 29.3582 104.729 29.348C104.801 29.3378 104.869 29.3091 104.927 29.2648C104.984 29.2205 105.029 29.162 105.057 29.0952C105.085 29.0284 105.095 28.9555 105.086 28.8837C104.993 28.2548 104.788 27.6474 104.481 27.0901C104.157 26.4804 103.794 25.8926 103.394 25.3302C103.052 24.8381 102.693 24.3575 102.358 23.8601C101.983 23.3025 101.623 22.734 101.207 22.2054C100.756 21.5963 100.176 21.0931 99.5074 20.7316L99.48 20.7193L99.4049 20.4932L99.3728 20.3869L99.3676 20.37L99.3633 20.3533L99.3095 20.1434C99.2744 19.995 99.2463 19.8444 99.224 19.6937C99.2041 19.5586 99.1919 19.4227 99.1848 19.2864L99.1833 19.2357L99.1827 19.1673L99.1948 18.9377C99.2035 18.8347 99.2185 18.7322 99.2396 18.6309L99.2507 18.581L99.2796 18.4801L99.3556 18.2868L99.3935 18.2115L99.4068 18.1899L99.5089 18.0591L99.5771 18.0032L99.6199 17.9731L99.629 17.9681L99.7576 17.9154L99.7733 17.9119L99.8538 17.8976L99.9369 17.8888L99.9904 17.8866C100.102 17.8914 100.213 17.9052 100.323 17.9279L100.419 17.9494L100.427 17.9522L100.65 18.024C100.949 18.1355 101.239 18.2719 101.515 18.4319L101.609 18.4871L101.654 18.5147C101.924 19.1643 102.192 19.8146 102.469 20.4609C103.572 23.275 105.077 25.9161 106.938 28.3027C107.23 28.6534 107.491 29.0259 107.801 29.3626C108.082 29.7144 108.443 29.9952 108.854 30.182C109.071 30.2656 109.311 30.2686 109.531 30.1904C109.754 30.0901 109.934 29.9128 110.037 29.691L110.085 29.5945L110.332 29.9303C111.358 31.4464 112.722 32.7073 114.317 33.6152C114.368 33.6363 114.423 33.6473 114.478 33.6474C114.533 33.6476 114.588 33.6369 114.639 33.6161C114.69 33.5952 114.736 33.5645 114.775 33.5258C114.814 33.4871 114.845 33.4412 114.866 33.3905C115.073 32.6547 115.038 31.8722 114.766 31.1576C114.553 30.4681 114.268 29.7921 113.995 29.1242C113.544 28.0183 113.034 26.9363 112.483 25.8755C112.755 26.1258 113.034 26.3656 113.331 26.5905C113.728 26.9418 114.242 27.1334 114.774 27.1278C115.278 27.0673 115.547 26.5671 115.646 26.1253C115.734 25.6132 115.725 25.0892 115.619 24.5803C115.548 24.1346 115.437 23.6971 115.337 23.2572C115.188 22.6032 115.003 21.9577 114.791 21.3215C114.355 20.0201 113.798 18.7615 113.128 17.5619C111.791 15.0987 109.983 12.9184 107.806 11.1432C106.923 10.4237 105.959 9.80838 104.934 9.30943C104.505 9.04131 104.015 8.88463 103.509 8.85376C103.004 8.8229 102.498 8.91884 102.039 9.13279C101.606 9.44608 101.307 9.90948 101.201 10.4315C101.091 10.8993 101.065 11.3828 101.124 11.8597C101.054 11.8729 100.988 11.9033 100.932 11.948C100.876 11.9928 100.832 12.0505 100.805 12.1161C100.313 13.5347 100.342 15.0803 100.885 16.4801C100.974 16.7644 101.073 17.0456 101.177 17.3241C100.826 17.1616 100.446 17.0686 100.059 17.0502C99.7344 17.0369 99.4127 17.1181 99.1335 17.2838C98.8783 17.453 98.6796 17.6938 98.5625 17.9757C98.3889 18.3974 98.3112 18.8521 98.3349 19.3073C98.36 19.9247 98.4863 20.534 98.7089 21.111L98.7755 21.2928C98.555 22.0859 98.6225 22.931 98.9661 23.6796C99.3196 24.6693 99.8376 25.5932 100.171 26.5908L100.214 26.7253L100.23 26.778L100.238 26.8074L100.277 26.9656C100.094 26.9333 99.9057 26.9482 99.7302 27.009C99.5703 27.086 99.4326 27.2022 99.33 27.3465C99.2275 27.4909 99.1634 27.6587 99.1438 27.8344C99.0833 28.1979 99.0676 28.5675 99.0971 28.9348L99.1225 29.5249L99.1334 29.812L99.1372 29.9542L99.1386 30.0244L99.1391 30.0443C99.1407 30.2258 99.1325 30.4072 99.1144 30.5878L99.0774 30.8277L99.0595 30.9043L99.0351 30.9761L98.9955 31.0721L98.97 31.1193L98.9371 31.1658L98.912 31.1961L98.787 31.3001L98.7288 31.3376L98.6667 31.3659L98.5856 31.3962C98.6528 31.3736 98.5616 31.4008 98.5474 31.4036L98.363 31.4253H98.2964L98.1981 31.4191L97.9999 31.397C97.8568 31.3779 97.7149 31.3519 97.5724 31.3295C97.2962 31.2725 97.0112 31.2731 96.7352 31.3312C96.1769 31.5016 95.693 31.8547 95.362 32.3332C95.2374 32.4971 95.1252 32.6706 95.0172 32.8458L94.9535 32.9538C94.9892 32.887 94.9367 32.9803 94.9327 32.9866L94.8205 33.1789L94.6623 33.4607C94.5554 33.652 94.5124 33.7299 94.3878 33.9231L94.2211 34.163L94.1123 34.3195C94.1436 34.2648 94.0577 34.3612 94.0457 34.3734C93.997 34.4366 93.9756 34.5164 93.986 34.5952C93.9964 34.6741 94.0378 34.7457 94.1012 34.7942C94.1654 34.8411 94.2452 34.8615 94.3241 34.8512C94.403 34.841 94.4749 34.8009 94.5248 34.7393ZM109.427 28.921L109.405 29.026L109.397 29.0596L109.391 29.0771C109.367 29.1612 109.336 29.243 109.297 29.3218L109.241 29.405L109.222 29.4214L109.202 29.4192L109.182 29.4163L109.072 29.3699L109.05 29.3591L109.041 29.3532C108.957 29.2996 108.878 29.2402 108.803 29.1754L108.691 29.0767L108.635 29.0235C108.553 28.9411 108.472 28.8519 108.395 28.7649C108.239 28.5895 108.093 28.4062 107.949 28.2208C107.571 27.7355 107.186 27.2545 106.825 26.7567C106.607 26.4549 106.397 26.1462 106.194 25.834C106.097 25.684 106 25.5326 105.906 25.38L105.766 25.1498L105.696 25.0349L105.66 24.9736L105.638 24.9362C104.886 23.6323 104.21 22.2866 103.614 20.9058C103.4 20.4208 103.191 19.9337 102.988 19.4446C103.492 19.8366 103.976 20.2542 104.448 20.6832C104.63 20.8489 104.81 21.017 104.988 21.1875L105.328 21.8405C106.079 23.2661 106.88 24.6649 107.731 26.0371C108.288 26.9399 108.86 27.8365 109.462 28.7125L109.427 28.921ZM108.69 25.7074C108.85 25.9849 108.993 26.2715 109.119 26.5658C109.163 26.6717 109.205 26.7792 109.243 26.8877L108.944 26.4219C108.377 25.5362 107.832 24.6377 107.308 23.7263C107.615 24.1271 107.919 24.5286 108.205 24.9452C108.293 25.0727 108.378 25.202 108.462 25.333L108.585 25.5303L108.636 25.6136L108.69 25.7074ZM113.308 29.6732C113.543 30.2575 113.786 30.8455 113.979 31.4453L114.005 31.5281L114.03 31.6105L114.086 31.8387C114.121 31.9889 114.146 32.1409 114.162 32.2941L114.176 32.4987V32.5122L114.175 32.549L114.173 32.5827C114.042 32.5017 113.914 32.4159 113.788 32.3274C113.501 32.1248 113.227 31.9058 112.966 31.6713C112.718 31.4521 112.483 31.2197 112.261 30.9751C112.02 30.7152 111.79 30.4444 111.567 30.1691C111.126 29.6245 110.71 29.0593 110.309 28.4837C110.318 28.2762 110.314 28.0684 110.297 27.8614C110.103 26.5547 109.568 25.3214 108.745 24.2845C108.275 23.5928 107.764 22.9299 107.213 22.2992C106.717 21.7453 106.199 21.208 105.661 20.6874C105.225 19.8375 104.805 18.9779 104.4 18.1085C103.99 17.2308 103.527 16.3789 103.121 15.4997C102.878 14.973 102.65 14.4393 102.45 13.8952C102.351 13.6269 102.26 13.3554 102.179 13.0805L102.176 13.0714L102.222 13.1009C102.355 13.1873 102.483 13.2807 102.606 13.3805C102.723 13.4742 102.835 13.5732 102.944 13.6749L103.025 13.753L103.046 13.7727L103.054 13.7819L103.24 13.9732C103.455 14.2027 103.658 14.4427 103.858 14.6857C104.75 15.7713 105.656 16.8452 106.501 17.9683C107.453 19.2322 108.342 20.542 109.186 21.8788C110.033 23.2194 110.806 24.5114 111.55 25.9151C112.202 27.1364 112.788 28.391 113.308 29.6732ZM101.884 11.4071L101.883 11.3692L101.883 11.3108C101.884 11.1898 101.891 11.0689 101.904 10.9487C101.916 10.8419 101.932 10.7359 101.955 10.6309L101.972 10.5591L102.029 10.3843L102.087 10.2436L102.123 10.1689L102.153 10.1144C102.207 10.028 102.27 9.94702 102.339 9.8724C102.314 9.90132 102.408 9.81352 102.428 9.79784L102.532 9.72557C102.487 9.75501 102.602 9.69097 102.626 9.67993L102.759 9.6304C102.795 9.62456 102.831 9.6165 102.867 9.60626L103.019 9.58624L103.141 9.57962L103.287 9.58698C103.398 9.59613 103.507 9.61159 103.616 9.63327L103.782 9.67007L103.797 9.67383L103.907 9.70591C104.142 9.77819 104.371 9.86527 104.595 9.96661C104.812 10.0632 105.024 10.1711 105.232 10.2843L105.372 10.3624L105.437 10.3992L105.446 10.4047L105.726 10.5714C106.299 10.9134 106.85 11.2906 107.375 11.701C108.445 12.5399 109.421 13.4904 110.287 14.5361C112.059 16.6587 113.428 19.0835 114.328 21.6926C114.538 22.3006 114.704 22.9165 114.863 23.5392C114.972 23.9687 115.08 24.3985 115.148 24.8367C115.248 25.2984 115.24 25.7768 115.125 26.2351C115.099 26.3178 115.06 26.3961 115.01 26.4671C114.964 26.5335 114.905 26.5897 114.837 26.6322C114.771 26.669 114.696 26.6881 114.62 26.6878C114.511 26.685 114.404 26.6656 114.302 26.6302C113.924 26.4852 113.575 26.2753 113.27 26.0101C112.998 25.793 112.742 25.5552 112.488 25.3168C112.446 25.2847 112.393 25.2699 112.34 25.2755C112.287 25.2811 112.239 25.3068 112.205 25.3471L111.95 24.8778C111.179 23.4735 110.344 22.1018 109.476 20.7545C108.621 19.426 107.716 18.1294 106.75 16.8787C106.304 16.3014 105.847 15.7326 105.371 15.1796C105.004 14.7521 104.666 14.3006 104.301 13.8708C103.691 13.0562 102.877 12.4141 101.941 12.008C101.921 11.8672 101.904 11.7256 101.894 11.5839L101.884 11.4071ZM101.614 15.8893L101.605 15.857L101.598 15.8313L101.564 15.7057L101.502 15.4542C101.459 15.2734 101.423 15.0906 101.393 14.9069C101.365 14.7394 101.344 14.5704 101.329 14.4012L101.313 14.1487L101.309 14.0228C101.308 13.9704 101.308 13.9669 101.309 14.0135L101.31 13.9297C101.314 13.6856 101.338 13.4422 101.381 13.2019C101.577 13.8771 101.816 14.5389 102.099 15.1829C102.507 16.1439 102.985 17.0725 103.446 18.0091C103.642 18.4058 103.826 18.8073 104.013 19.2074L103.927 19.1355C103.436 18.7243 102.922 18.3425 102.385 17.9922C102.238 17.6345 102.094 17.2756 101.958 16.9136C101.832 16.576 101.716 16.2347 101.614 15.8893ZM100.527 22.6783C100.949 23.2028 101.309 23.7728 101.683 24.3313C102.018 24.8289 102.376 25.3101 102.719 25.8014C102.91 26.0737 103.095 26.3494 103.273 26.6303C103.453 26.9148 103.574 27.1218 103.741 27.4465C103.834 27.6274 103.92 27.8126 103.997 28.001L103.946 27.9531L103.927 27.9352L103.916 27.9246C103.8 27.8077 103.691 27.6849 103.584 27.5594C103.177 27.0627 102.806 26.5374 102.474 25.9877C101.859 25.0066 101.209 24.0462 100.613 23.0538L100.576 22.9909L100.529 22.9115L100.412 22.7074C100.327 22.5588 100.245 22.409 100.165 22.2579L100.188 22.2827C100.306 22.4101 100.418 22.5429 100.527 22.6783Z" fill="black"/>
</g>
<defs>
<clipPath id="clip0_6_145">
<rect width="37" height="46" fill="white" transform="translate(87 4)"/>
</clipPath>
</defs>
</svg>
