<svg width="103" height="172" viewBox="0 0 103 172" fill="none" xmlns="http://www.w3.org/2000/svg">
<path d="M29.7909 136.595C27.1651 135.396 24.4846 134.309 21.7707 133.286C24.3025 133.033 26.8251 132.749 29.3355 132.388C29.7636 132.326 29.6634 131.594 29.2354 131.619C26.1694 131.792 23.1155 132.15 20.0647 132.483C22.3273 131.075 24.6111 129.695 26.9161 128.344C27.4838 128.011 26.9738 127.155 26.397 127.476C24.3187 128.634 22.2716 129.841 20.256 131.1C21.6908 129.03 23.1428 126.971 24.6121 124.922C24.6612 124.845 24.6802 124.753 24.6653 124.662C24.6503 124.572 24.6025 124.491 24.5313 124.435C24.4602 124.379 24.3709 124.352 24.2812 124.36C24.1916 124.368 24.1081 124.41 24.0475 124.477C22.6551 126.287 21.3022 128.131 19.9888 130.009C20.7214 127.563 21.4297 125.11 22.1138 122.652C22.2686 122.102 21.4641 121.932 21.3124 122.476C20.6304 124.903 19.9221 127.321 19.1874 129.728C19.1874 127.278 19.1409 124.828 19.0478 122.38C19.0478 122.279 19.0085 122.183 18.9384 122.111C18.8684 122.04 18.7734 122 18.6744 122C18.5754 122 18.4804 122.04 18.4104 122.111C18.3404 122.183 18.301 122.279 18.301 122.38C18.3921 125.189 18.4133 127.995 18.3648 130.8C17.4541 128.638 16.4463 126.544 15.3838 124.49C15.1652 124.069 14.5429 124.44 14.7554 124.863C15.6236 126.581 16.4129 128.326 17.1475 130.086C15.4415 127.992 13.4653 126.148 11.0398 124.947C10.6087 124.731 10.2141 125.382 10.6482 125.598C13.3226 126.933 15.4293 129.052 17.2295 131.418C15.8128 130.485 14.3891 129.558 12.9583 128.638C12.5303 128.366 12.0719 129.015 12.503 129.293C13.3347 129.833 14.1574 130.386 14.9831 130.939C13.6656 130.513 12.3451 130.101 11.0216 129.703C10.9267 129.686 10.8288 129.705 10.7472 129.757C10.6656 129.809 10.6061 129.891 10.5806 129.985C10.555 130.08 10.5653 130.181 10.6093 130.268C10.6533 130.356 10.7278 130.423 10.8182 130.457C13.1222 131.161 15.3959 131.93 17.6575 132.746C14.5632 133.075 11.4688 133.399 8.37453 133.716C7.87972 133.765 7.87061 134.559 8.37453 134.51C10.9153 134.263 13.4683 134.046 16.0213 133.824C13.9591 135.195 11.9272 136.607 9.92573 138.059C9.40664 138.432 9.90752 139.294 10.4388 138.914C12.5637 137.399 14.722 135.935 16.9137 134.522C15.4222 136.767 13.9672 139.032 12.5485 141.317C12.2844 141.737 12.8915 142.222 13.1556 141.796C14.5723 139.531 16.0354 137.288 17.5452 135.066C16.7073 137.743 15.8523 140.404 14.9801 143.05C14.8131 143.554 15.4991 143.934 15.6752 143.424C16.5616 140.883 17.4116 138.324 18.2251 135.748C18.1159 138.355 17.958 140.962 17.7516 143.569C17.706 144.15 18.5044 144.137 18.556 143.569C18.8201 140.755 18.9992 137.944 19.0933 135.14C19.9524 137.574 20.7295 140.042 21.452 142.553C21.4794 142.653 21.5446 142.737 21.6332 142.789C21.7218 142.84 21.8267 142.853 21.925 142.826C22.0233 142.798 22.1069 142.733 22.1576 142.643C22.2084 142.553 22.2221 142.446 22.1957 142.346C21.7139 140.286 21.1293 138.252 20.4442 136.252C21.9407 138.673 23.4525 141.126 25.456 143.097C25.5299 143.166 25.6272 143.204 25.7278 143.203C25.8285 143.202 25.925 143.162 25.9975 143.091C26.07 143.02 26.1131 142.923 26.118 142.821C26.1229 142.719 26.0891 142.618 26.0237 142.541C24.6542 140.929 23.3801 139.237 22.2079 137.472C21.6008 136.524 20.9936 135.563 20.3653 134.612C23.0973 136.511 25.8294 138.432 28.5614 140.338C28.6449 140.395 28.7467 140.416 28.8453 140.397C28.9438 140.379 29.0314 140.322 29.0895 140.239C29.1475 140.156 29.1714 140.053 29.1562 139.952C29.1409 139.851 29.0876 139.76 29.0077 139.699C26.4669 137.741 23.8562 135.881 21.2213 134.08C23.9837 135.137 26.7249 136.242 29.463 137.388C29.9062 137.574 30.231 136.798 29.7909 136.595Z" fill="black"/>
<path d="M68.5414 49.8912C68.6216 49.8145 68.6974 49.7334 68.7687 49.6483C68.8518 49.5505 68.9286 49.4466 69.0032 49.3419C69.157 49.1261 69.2984 48.9017 69.4437 48.6801C69.5927 48.4523 69.7374 48.2232 69.9021 48.0063C69.9791 47.905 70.0607 47.8075 70.147 47.7136L70.1961 47.6625C70.1679 47.6914 70.2257 47.6343 70.2335 47.627L70.3963 47.4886L70.5434 47.382L70.591 47.3526L70.6428 47.3252L70.8086 47.2516L70.8955 47.2222L70.9457 47.2115L71.0801 47.1958H71.1438L71.2377 47.202C71.3783 47.2139 71.5181 47.2388 71.6569 47.2626C71.9496 47.3231 72.2486 47.3479 72.5474 47.3366C72.8665 47.3067 73.1677 47.177 73.408 46.966C74.0216 46.4655 73.9689 45.4857 73.9475 44.7788L73.924 44.1827L73.9148 43.9031L73.9126 43.7841V43.7012C73.913 43.5362 73.9242 43.3715 73.9463 43.208L73.965 43.1046L73.971 43.0782L74.0224 42.9472L74.0431 42.92L74.0542 42.914L74.0893 42.91L74.1468 42.916L74.2172 42.929L74.2259 42.9314C74.3586 42.9751 74.487 43.031 74.6093 43.0984C74.6677 43.1223 74.7308 43.1326 74.7938 43.1284C74.8569 43.1241 74.9181 43.1056 74.9727 43.0741C75.0273 43.0425 75.074 42.999 75.109 42.9467C75.144 42.8944 75.1664 42.8348 75.1746 42.7725C75.1827 42.2928 75.0998 41.8159 74.9304 41.3667C74.7663 40.8761 74.5494 40.4026 74.3384 39.9305C74.1212 39.4424 73.9018 38.9551 73.7237 38.4511L73.6438 38.2101C73.9389 38.7253 74.2586 39.2275 74.5789 39.7215C74.8777 40.1826 75.1868 40.6372 75.4767 41.1039C75.7993 41.6238 76.1188 42.145 76.4773 42.6413C76.972 43.4355 77.6853 44.0719 78.5327 44.4749C78.6003 44.5015 78.6738 44.5101 78.7458 44.4999C78.8178 44.4897 78.8859 44.461 78.9434 44.4167C79.0009 44.3724 79.0458 44.3139 79.0737 44.2471C79.1016 44.1803 79.1115 44.1074 79.1025 44.0356C79.0095 43.4067 78.8046 42.7993 78.4972 42.242C78.174 41.6323 77.8109 41.0444 77.4102 40.4821C77.0684 39.99 76.7094 39.5094 76.3747 39.012C75.9994 38.4544 75.6396 37.8859 75.2232 37.3573C74.7722 36.7481 74.1921 36.245 73.524 35.8835L73.4966 35.8712L73.4215 35.6451L73.3894 35.5388L73.3842 35.5219L73.3799 35.5052L73.3261 35.2952C73.291 35.1469 73.2629 34.9963 73.2406 34.8456C73.2207 34.7105 73.2085 34.5745 73.2014 34.4382L73.1999 34.3876L73.1993 34.3192L73.2114 34.0896C73.2201 33.9865 73.2351 33.8841 73.2562 33.7828L73.2673 33.7329L73.2962 33.632L73.3722 33.4387L73.4101 33.3634L73.4234 33.3417L73.5255 33.211L73.5937 33.1551L73.6365 33.125L73.6456 33.12L73.7742 33.0673L73.7899 33.0638L73.8704 33.0495L73.9535 33.0406L74.007 33.0385C74.1187 33.0432 74.2299 33.0571 74.3393 33.0798L74.4355 33.1013L74.4435 33.1041L74.6661 33.1759C74.9657 33.2874 75.2554 33.4238 75.5319 33.5838L75.6257 33.639L75.6709 33.6665C75.9406 34.3162 76.2086 34.9665 76.4857 35.6127C77.5883 38.4269 79.0933 41.068 80.9543 43.4546C81.2467 43.8053 81.5073 44.1778 81.8175 44.5144C82.0988 44.8663 82.4597 45.1471 82.8707 45.3339C83.0878 45.4175 83.328 45.4205 83.5471 45.3423C83.7709 45.242 83.9506 45.0646 84.0532 44.8429L84.1021 44.7464L84.3483 45.0822C85.3751 46.5983 86.7388 47.8591 88.334 48.7671C88.3848 48.7882 88.4394 48.7992 88.4945 48.7993C88.5496 48.7995 88.6042 48.7888 88.6552 48.7679C88.7061 48.7471 88.7525 48.7164 88.7915 48.6777C88.8305 48.639 88.8615 48.593 88.8827 48.5424C89.0897 47.8065 89.0546 47.0241 88.7825 46.3095C88.57 45.62 88.2844 44.944 88.0118 44.2761C87.5604 43.1701 87.0507 42.0882 86.4999 41.0274C86.7718 41.2777 87.0507 41.5175 87.3471 41.7424C87.7444 42.0937 88.259 42.2852 88.7906 42.2797C89.2943 42.2192 89.5636 41.719 89.6625 41.2772C89.7509 40.7651 89.7419 40.241 89.636 39.7322C89.5649 39.2865 89.4534 38.849 89.3532 38.4091C89.2045 37.7551 89.0197 37.1096 88.8079 36.4734C88.3712 35.172 87.8146 33.9134 87.1451 32.7138C85.8071 30.2505 83.9992 28.0703 81.8225 26.2951C80.9394 25.5756 79.9756 24.9603 78.9502 24.4613C78.5212 24.1932 78.0315 24.0365 77.5258 24.0056C77.0201 23.9748 76.5147 24.0707 76.056 24.2847C75.6231 24.598 75.3239 25.0614 75.2178 25.5833C75.1079 26.0512 75.0818 26.5347 75.1406 27.0116C75.0702 27.0248 75.0043 27.0552 74.9486 27.0999C74.8928 27.1447 74.8491 27.2024 74.8212 27.268C74.3298 28.6865 74.3582 30.2322 74.9015 31.6319C74.9903 31.9163 75.0893 32.1975 75.1939 32.476C74.8426 32.3135 74.4629 32.2205 74.0759 32.2021C73.751 32.1888 73.4293 32.27 73.1501 32.4357C72.8949 32.6049 72.6962 32.8457 72.5791 33.1276C72.4055 33.5493 72.3278 34.004 72.3515 34.4591C72.3766 35.0766 72.5029 35.6859 72.7255 36.2629L72.7921 36.4446C72.5716 37.2378 72.6391 38.0829 72.9828 38.8315C73.3362 39.8212 73.8542 40.7451 74.1878 41.7427L74.2307 41.8771L74.2463 41.9298L74.2548 41.9593L74.2934 42.1175C74.1105 42.0852 73.9223 42.1001 73.7468 42.1609C73.5869 42.2379 73.4492 42.354 73.3466 42.4984C73.2441 42.6428 73.18 42.8106 73.1604 42.9863C73.0999 43.3498 73.0842 43.7194 73.1137 44.0867L73.1391 44.6768L73.15 44.9638L73.1538 45.106L73.1552 45.1763L73.1557 45.1962C73.1573 45.3777 73.1491 45.5591 73.131 45.7397L73.094 45.9796L73.0761 46.0562L73.0517 46.128L73.0121 46.224L72.9866 46.2712L72.9537 46.3176L72.9286 46.348L72.8036 46.452L72.7454 46.4895L72.6833 46.5178L72.6022 46.5481C72.6694 46.5255 72.5782 46.5527 72.564 46.5554L72.3796 46.5772H72.3131L72.2147 46.571L72.0165 46.5489C71.8734 46.5298 71.7315 46.5038 71.589 46.4814C71.3128 46.4244 71.0278 46.425 70.7518 46.4831C70.1935 46.6535 69.7096 47.0066 69.3786 47.4851C69.254 47.649 69.1418 47.8225 69.0338 47.9977L68.9701 48.1057C69.0058 48.0389 68.9533 48.1322 68.9493 48.1384L68.8371 48.3308L68.6789 48.6126C68.572 48.8039 68.529 48.8818 68.4044 49.075L68.2377 49.3149L68.1289 49.4714C68.1602 49.4166 68.0743 49.5131 68.0623 49.5253C68.0136 49.5885 67.9922 49.6682 68.0026 49.7471C68.013 49.826 68.0544 49.8976 68.1178 49.9461C68.182 49.9929 68.2618 50.0134 68.3407 50.0031C68.4196 49.9929 68.4915 49.9528 68.5414 49.8912ZM83.4436 44.0728L83.4214 44.1779L83.4133 44.2114L83.4081 44.229C83.3836 44.3131 83.3521 44.3949 83.3139 44.4737L83.258 44.5568L83.2388 44.5733L83.2187 44.5711L83.199 44.5682L83.0883 44.5218L83.067 44.511L83.0574 44.5051C82.9739 44.4515 82.8944 44.3921 82.8194 44.3273L82.7075 44.2286L82.6516 44.1754C82.5692 44.0929 82.4882 44.0037 82.4112 43.9168C82.2558 43.7414 82.1092 43.5581 81.9654 43.3727C81.588 42.8874 81.2026 42.4064 80.8419 41.9086C80.6236 41.6068 80.4141 41.2981 80.211 40.9858C80.1131 40.8358 80.0171 40.6845 79.9229 40.5319L79.7823 40.3017L79.7129 40.1868L79.6766 40.1255L79.6544 40.0881C78.9029 38.7842 78.2271 37.4385 77.6303 36.0577C77.4166 35.5727 77.2079 35.0856 77.0043 34.5965C77.5081 34.9885 77.9926 35.4061 78.4642 35.8351C78.6468 36.0008 78.8268 36.1689 79.0044 36.3394L79.3444 36.9924C80.0961 38.418 80.897 39.8168 81.7473 41.189C82.3045 42.0918 82.8767 42.9884 83.4789 43.8643L83.4436 44.0728ZM82.7068 40.8593C82.8665 41.1367 83.0096 41.4234 83.1352 41.7176C83.18 41.8236 83.2214 41.9311 83.2599 42.0396L82.9608 41.5738C82.3935 40.6881 81.8482 39.7895 81.325 38.8782C81.6315 39.279 81.936 39.6805 82.2219 40.097C82.3095 40.2246 82.3951 40.3539 82.4787 40.4849L82.6019 40.6822L82.6524 40.7655L82.7068 40.8593ZM87.3244 44.8251C87.5598 45.4094 87.8021 45.9974 87.9954 46.5972L88.0214 46.68L88.0463 46.7624L88.1031 46.9906C88.1373 47.1408 88.1626 47.2928 88.1789 47.4459L88.1927 47.6506V47.6641L88.1915 47.7009L88.19 47.7346C88.0589 47.6536 87.9305 47.5678 87.8045 47.4793C87.5178 47.2767 87.2433 47.0576 86.9824 46.8232C86.735 46.604 86.4997 46.3716 86.2776 46.127C86.0366 45.8671 85.8067 45.5963 85.5837 45.321C85.1424 44.7764 84.7263 44.2112 84.3257 43.6356C84.335 43.4281 84.3309 43.2203 84.3136 43.0133C84.1196 41.7066 83.5846 40.4733 82.7619 39.4363C82.2917 38.7447 81.7802 38.0817 81.2301 37.4511C80.7333 36.8972 80.2157 36.3599 79.6773 35.8393C79.242 34.9894 78.8217 34.1298 78.4163 33.2603C78.0068 32.3827 77.5431 31.5307 77.1371 30.6516C76.8942 30.1249 76.6663 29.5912 76.4664 29.0471C76.3672 28.7788 76.2769 28.5073 76.1955 28.2324L76.1926 28.2233L76.2382 28.2527C76.3711 28.3392 76.4994 28.4326 76.6225 28.5324C76.7395 28.6261 76.8512 28.7251 76.9602 28.8268L77.042 28.9049L77.0624 28.9246L77.0711 28.9338L77.2561 29.1251C77.4716 29.3546 77.6748 29.5945 77.8741 29.8376C78.7666 30.9232 79.673 31.9971 80.518 33.1201C81.4694 34.3841 82.3581 35.6939 83.2026 37.0307C84.0498 38.3713 84.8225 39.6632 85.567 41.0669C86.2182 42.2883 86.8048 43.5429 87.3244 44.8251ZM75.9011 26.559L75.8999 26.5211L75.8994 26.4627C75.9005 26.3417 75.9077 26.2208 75.921 26.1005C75.9322 25.9938 75.949 25.8877 75.9715 25.7828L75.9882 25.711L76.046 25.5362L76.1039 25.3955L76.1398 25.3208L76.1694 25.2663C76.2238 25.1799 76.2862 25.0989 76.356 25.0243C76.3305 25.0532 76.4243 24.9654 76.4448 24.9497L76.5484 24.8775C76.5032 24.9069 76.6187 24.8429 76.643 24.8318L76.7752 24.7823C76.8117 24.7764 76.8478 24.7684 76.8834 24.7581L77.0357 24.7381L77.1578 24.7315L77.3039 24.7389C77.4142 24.748 77.5239 24.7635 77.6325 24.7852L77.7984 24.822L77.8132 24.8257L77.9237 24.8578C78.1581 24.9301 78.3878 25.0172 78.6111 25.1185C78.8282 25.2151 79.0403 25.323 79.2483 25.4361L79.3889 25.5142L79.4538 25.551L79.463 25.5566L79.7429 25.7233C80.3157 26.0652 80.8665 26.4425 81.392 26.8529C82.4616 27.6918 83.4379 28.6423 84.304 29.6879C86.0753 31.8106 87.4444 34.2354 88.3449 36.8444C88.5543 37.4525 88.7206 38.0684 88.8794 38.6911C88.9887 39.1206 89.0962 39.5504 89.1648 39.9886C89.2644 40.4503 89.2567 40.9286 89.1421 41.387C89.1155 41.4697 89.0765 41.548 89.0262 41.619C88.9808 41.6853 88.9221 41.7416 88.8537 41.7841C88.7871 41.8208 88.7122 41.84 88.6361 41.8397C88.5279 41.8369 88.4208 41.8175 88.3187 41.782C87.9409 41.6371 87.5918 41.4272 87.2871 41.162C87.0142 40.9448 86.7585 40.7071 86.5042 40.4687C86.4622 40.4366 86.4093 40.4217 86.3566 40.4274C86.3039 40.433 86.2553 40.4587 86.2211 40.499L85.9665 40.0297C85.1954 38.6253 84.3607 37.2537 83.4926 35.9064C82.6372 34.5779 81.7324 33.2812 80.7661 32.0306C80.3206 31.4532 79.8633 30.8845 79.3879 30.3315C79.0206 29.904 78.6822 29.4525 78.3176 29.0227C77.7072 28.2081 76.8938 27.566 75.9575 27.1599C75.9371 27.0191 75.921 26.8775 75.9103 26.7358L75.9011 26.559ZM75.6307 31.0412L75.6216 31.0088L75.6142 30.9832L75.5804 30.8576L75.5181 30.6061C75.4755 30.4253 75.4395 30.2425 75.4093 30.0587C75.3814 29.8913 75.361 29.7222 75.3459 29.553L75.3299 29.3006L75.3257 29.1747C75.3247 29.1223 75.3248 29.1188 75.3257 29.1654L75.3266 29.0816C75.3306 28.8375 75.3543 28.5941 75.3977 28.3538C75.5931 29.029 75.8329 29.6908 76.1155 30.3347C76.5239 31.2957 77.0015 32.2244 77.463 33.161C77.6582 33.5577 77.8423 33.9592 78.0292 34.3593L77.9433 34.2874C77.4529 33.8762 76.9382 33.4944 76.402 33.1441C76.2549 32.7864 76.1104 32.4275 75.9748 32.0655C75.8487 31.7279 75.7324 31.3866 75.6307 31.0412ZM74.5438 37.8302C74.9656 38.3547 75.326 38.9247 75.7 39.4832C76.0342 39.9808 76.3924 40.462 76.736 40.9533C76.9262 41.2256 77.1118 41.5013 77.2892 41.7822C77.4695 42.0667 77.5904 42.2737 77.7575 42.5983C77.8505 42.7793 77.9363 42.9645 78.0135 43.1528L77.9624 43.105L77.9437 43.0871L77.9326 43.0764C77.8167 42.9596 77.7074 42.8368 77.6008 42.7113C77.1934 42.2146 76.8224 41.6893 76.4908 41.1396C75.876 40.1585 75.2254 39.1981 74.6296 38.2057L74.5926 38.1428L74.5457 38.0634L74.4287 37.8592C74.3441 37.7107 74.2618 37.5608 74.1821 37.4098L74.2046 37.4346C74.3229 37.562 74.4346 37.6948 74.5438 37.8302Z" fill="black"/>
<path d="M58.6282 113.807L59.963 114.22C59.9951 114.029 59.9618 113.833 59.8698 113.668C59.7777 113.504 59.6335 113.384 59.4658 113.332C59.298 113.281 59.1189 113.301 58.9638 113.389C58.8087 113.477 58.6889 113.626 58.6282 113.807ZM67.6567 113.807L66.3219 113.395C66.5351 112.467 67.8143 112.89 67.6567 113.859V113.807ZM77.8068 117.93C78.19 118.411 78.5886 118.875 79.0026 119.322C78.9296 119.719 78.8368 120.111 78.7245 120.497C78.6782 120.651 78.6226 120.796 78.5669 120.95C78.2147 120.61 77.8347 120.229 77.4546 119.817C77.6199 119.204 77.7377 118.576 77.8068 117.941V117.93ZM66.3219 113.436L67.6567 113.849C67.3972 115.055 67.3045 116.858 67.0913 118.672C66.3568 117.06 66.0881 115.235 66.3219 113.447V113.436ZM58.6282 113.797L59.963 114.209C59.4684 115.777 58.8672 117.3 58.1647 118.765C58.0737 117.096 58.2303 115.421 58.6282 113.807V113.797ZM59.5551 118.755C59.9352 121.919 63.0034 125.97 65.2374 121.455C66.257 119.394 65.8121 115.776 66.3312 113.436C66.0954 115.228 66.3641 117.057 67.1005 118.672C66.6741 122.29 65.7472 125.949 61.9281 124.95C59.3327 124.259 58.3408 121.579 58.2203 118.765C58.9229 117.3 59.524 115.777 60.0186 114.209C59.5876 115.677 59.4269 117.227 59.5459 118.765L59.5551 118.755ZM77.3712 120.095C77.3712 120.012 77.3712 119.909 77.4453 119.827C77.8254 120.239 78.2054 120.621 78.5577 120.961C76.092 128.248 69.4643 124.311 67.082 118.683C67.2952 116.869 67.3879 115.065 67.6474 113.859C66.7576 119.549 74.924 127.887 77.3712 120.095ZM60.1299 78.0926C60.2226 79.5047 60.547 82.4216 62.2804 82.4216C64.0138 82.4216 64.468 79.5562 64.6256 78.1338C64.7368 77.1649 66.1365 77.1031 66.016 78.1338C65.7565 80.4426 64.9129 83.9677 62.3082 83.9677C59.7035 83.9677 58.9248 80.4323 58.7672 78.0926C58.6745 77.1031 60.065 77.1134 60.1299 78.0926ZM34.0362 75.1962C32.1823 74.5572 31.728 71.97 31.9505 70.0426C32.0617 69.0737 33.4522 69.0634 33.3409 70.0426C33.2019 71.1867 33.2019 73.1863 34.4069 73.681C35.8252 74.2479 36.6409 71.8566 37.0673 70.7847C37.4288 69.8776 38.6338 70.661 38.2723 71.568C37.5122 73.4749 36.2516 75.9486 34.0362 75.1962ZM51.7039 83.6688C51.4606 83.8018 51.195 83.8768 50.9241 83.8891C50.6532 83.9013 50.383 83.8505 50.1308 83.7399C49.8786 83.6292 49.65 83.4613 49.4595 83.2467C49.2691 83.0321 49.1211 82.7757 49.025 82.4938C48.8431 82.7053 48.6157 82.8617 48.3643 82.9482C48.1129 83.0348 47.8458 83.0487 47.5882 82.9885C47.1814 82.9151 46.7979 82.7281 46.4737 82.4451C46.1495 82.1621 45.8951 81.7923 45.7343 81.3703C45.4145 81.7016 45.0104 81.9151 44.5774 81.9815C44.1444 82.0479 43.7035 81.964 43.3149 81.7414C41.461 80.7106 42.0636 78.1029 42.9812 76.5156C43.4633 75.6807 44.6683 76.4537 44.1863 77.2989C43.7043 78.1441 43.1852 79.1027 43.8897 79.917C44.5941 80.7312 44.863 80.1953 45.4099 79.4325C45.5349 79.2262 45.6318 79.0004 45.6972 78.7625C45.7115 78.6959 45.7301 78.6304 45.7528 78.5667C46.0865 77.773 47.2916 78.3399 47.0228 79.1645C47.002 79.2417 46.9773 79.3174 46.9486 79.3913C46.652 80.2159 47.4213 81.9372 48.1907 81.2775C48.441 81.0714 48.4317 80.319 48.441 79.9891C48.441 79.7841 48.5142 79.5875 48.6446 79.4425C48.775 79.2975 48.9518 79.2161 49.1362 79.2161C49.3206 79.2161 49.4974 79.2975 49.6278 79.4425C49.7582 79.5875 49.8314 79.7841 49.8314 79.9891C49.8199 80.4463 49.8892 80.9016 50.0354 81.3291C50.6657 82.7927 51.4351 82.2258 51.778 81.0199C52.0406 80.0157 52.1656 78.9732 52.1488 77.9277C52.1488 77.7226 52.222 77.526 52.3524 77.381C52.4828 77.2361 52.6596 77.1546 52.844 77.1546C53.0284 77.1546 53.2052 77.2361 53.3356 77.381C53.466 77.526 53.5392 77.7226 53.5392 77.9277C53.4929 79.7005 53.3631 82.7927 51.7039 83.6688ZM77.1951 113.436C76.8428 112.88 75.2392 111.128 74.6089 112.406C74.3957 112.849 75.7768 114.879 75.99 115.24C76.5494 116.172 77.169 117.057 77.8439 117.889C77.7753 118.528 77.6574 119.159 77.4917 119.775C75.3226 117.477 72.9033 114.209 73.1165 111.602C73.3297 108.994 75.2485 109.241 76.8243 110.478C79.2251 112.416 79.67 116.168 79.0675 119.281C78.6473 118.841 78.2487 118.377 77.8717 117.889C78.1042 116.362 77.8658 114.793 77.1951 113.436ZM12.0581 71.8154C11.0477 83.7925 16.7578 92.8114 24.9798 99.6452C30.1986 103.974 35.4266 108.272 39.5052 114.014C42.0358 117.58 43.0739 124.434 46.5315 127.011C51.1662 130.474 55.6156 124.146 58.1647 118.765C58.0727 117.092 58.2293 115.414 58.6282 113.797C57.2563 118.332 50.9345 131.32 46.0587 124.043C43.454 120.146 42.4343 115.405 39.5052 111.581C32.8775 102.933 21.958 98.1197 16.7021 88.2453C14.4664 83.8253 13.3845 78.7992 13.5783 73.7326C14.143 74.3543 14.802 74.8603 15.5249 75.2271C16.002 75.4615 16.491 75.6645 16.9895 75.8353C16.9895 75.8971 16.9895 75.9693 16.9895 76.0311C17.2212 83.3184 21.235 90.1006 27.0006 94.7286C35.853 101.82 47.8663 105.335 58.517 101.738C66.3034 99.1092 74.3679 91.4302 74.4698 81.8754C81.2479 89.3981 86.2474 98.6682 89.023 108.86C90.2836 113.344 92.8976 125.073 85.2688 123.29C82.8921 122.644 80.7231 121.277 79.0026 119.342C78.9296 119.74 78.8368 120.132 78.7245 120.517C78.6782 120.672 78.6226 120.816 78.5669 120.971L79.5495 121.878C82.0059 124.053 86.6963 126.485 89.8201 124.486C92.944 122.486 91.9336 116.642 91.4608 113.467C90.3114 105.665 86.8261 97.8208 83.1183 91.1829C80.8287 87.1218 77.8903 83.9677 74.9518 80.7003L74.6459 80.3602C74.8591 72.8977 66.0438 64.8167 62.679 63.0439C62.652 63.0191 62.6272 62.9914 62.6048 62.9614L62.095 62.5182C53.2704 54.7362 40.2931 48.7579 28.9472 50.2216C22.5327 51.0462 17.4344 56.0968 14.5516 62.3945C13.5042 61.4772 12.4752 61.2607 11.6873 62.5698C10.3525 64.7858 11.2239 69.1974 12.0952 71.4959C12.0859 71.6093 12.0674 71.7536 12.0581 71.8154ZM62.1135 64.6003C58.7024 69.857 48.2093 68.2285 43.9267 66.2701C40.1448 64.5591 37.3268 61.2504 33.7303 59.158C33.1127 58.7966 32.4749 58.4799 31.8207 58.2098C30.9153 57.8149 29.9861 57.4912 29.0399 57.2409C25.0262 56.1586 20.3914 56.3029 18.9083 60.5392C18.5746 61.4669 19.9187 61.8585 20.2431 60.9515C21.2628 58.0655 23.8582 57.5913 26.7318 58.1788C23.7919 59.59 21.3269 61.9956 19.6869 65.0538C19.1776 65.9792 18.7344 66.9476 18.3614 67.9502C17.5636 66.3583 16.6325 64.8536 15.5805 63.4562C17.8794 57.5501 22.1619 52.9221 28.5023 51.8398C37.0488 50.3659 46.7725 53.6951 54.7072 58.787C57.1059 60.3019 59.3934 62.0252 61.5481 63.9406C61.7613 64.2395 61.9281 64.4354 62.0857 64.6312L62.1135 64.6003ZM72.4583 77.938L72.3471 77.8143C71.1884 76.4846 70.0575 75.1138 69.0008 73.6913C67.6375 71.5724 66.4079 69.3511 65.3208 67.0431C65.2003 66.8267 65.0705 66.6205 64.9407 66.4041C68.6486 69.8261 71.3831 73.0214 72.4583 77.938ZM13.328 70.7228C13.0292 69.866 12.7936 68.9835 12.6236 68.0842C12.2899 66.3732 12.1415 64.4251 12.7811 63.5902C13.0314 63.2603 13.4393 63.4253 13.912 63.8685C14.2974 64.2591 14.6511 64.6868 14.9688 65.1466C15.9881 66.6468 16.9171 68.2204 17.7496 69.857L18.0184 70.3724C18.0853 70.4959 18.1822 70.5958 18.2981 70.6606C18.4139 70.7254 18.5439 70.7523 18.6729 70.7383C18.8019 70.7242 18.9248 70.6698 19.0271 70.5814C19.1295 70.4929 19.2072 70.374 19.2513 70.2384V70.125C19.2513 69.9498 19.3347 69.7746 19.3903 69.589C20.0534 67.0234 21.3027 64.6923 23.0164 62.8228C24.7302 60.9533 26.85 59.6091 29.1697 58.921C31.711 59.8831 34.1242 61.2213 36.3443 62.8996C39.19 65.1569 41.906 67.4039 45.3079 68.5171C49.9427 70.0219 59.3234 70.8156 63.0034 65.8887C64.0231 67.5276 64.7554 69.3932 65.7008 71.1145C67.6597 74.5017 70.0552 77.5509 72.8106 80.1643C73.1488 83.0693 72.6764 86.0197 71.4572 88.6163C65.8955 100.923 51.5463 103.5 40.6361 100.253C30.1708 97.1611 18.8898 88.5957 18.5375 76.3506C19.3996 76.6186 19.724 75.2478 18.9083 74.8664L18.5282 74.6912C18.0648 74.485 17.5549 74.2582 17.0173 74.0006C15.9216 73.5518 14.9121 72.8768 14.0418 72.0113C13.9168 71.864 13.7992 71.7091 13.6896 71.5474C13.5464 71.3036 13.4253 71.0447 13.328 70.7744V70.7228Z" fill="#A71057"/>
<path d="M34.6057 65.4434C35.2648 65.4434 36.16 66.4078 36.6167 66.8306C37.0679 67.2485 37.4881 67.7341 37.969 68.1081C38.6014 68.5999 39.458 69.4893 39.8153 70.2039" stroke="#A71057" stroke-linecap="round"/>
<path d="M56.6117 75.5033C57.5563 75.5033 58.2614 74.9137 59.0867 74.5153C60.1366 74.0085 61.2348 73.8672 62.3602 73.6171C62.7407 73.5325 63.0777 73.3906 63.468 73.3276C63.7875 73.2761 64.3168 73.2696 64.6057 73.148C64.9091 73.0203 65.7296 73.1658 65.8632 72.8985" stroke="#A71057" stroke-linecap="round"/>
<path d="M36.3678 92.4728C38.5572 90.6484 41.9795 89.1888 44.8055 89.0035C46.906 88.8658 48.8816 88.489 50.5591 89.9887C51.508 90.8369 52.4456 92.3009 52.6864 93.565C52.8752 94.5565 53.905 97.4136 53.5858 96.4561" stroke="#A71057" stroke-width="1.5" stroke-linecap="round"/>
</svg>
