<svg width="77" height="39" viewBox="0 0 77 39" fill="none" xmlns="http://www.w3.org/2000/svg">
<path d="M75.7403 17.665C75.6953 17.5313 75.6241 17.4079 75.5308 17.302C74.8885 16.5758 74.2182 15.9056 73.5898 15.1236C72.9615 14.3416 72.5146 13.8389 71.998 13.1686C70.811 11.6047 69.7218 9.95695 68.5349 8.37903C67.2992 6.70141 65.8379 5.20242 64.1921 3.92455C63.433 3.339 62.6403 2.79815 61.8183 2.30474L60.4219 1.53672C59.9223 1.29404 59.4095 1.07959 58.8859 0.894383C57.9827 0.552828 57.0469 0.304833 56.0931 0.154296C55.5588 0.0547796 55.0167 0.00337465 54.4733 0.000694582H54.3476C53.2728 -0.0110095 52.2015 0.125252 51.1638 0.405646C49.3884 0.966825 47.7482 1.88914 46.3463 3.11464C45.8994 3.49167 45.4666 3.88266 45.0337 4.28761C44.6008 4.69256 44.126 5.11148 43.6373 5.51643C43.1338 5.91102 42.591 6.25262 42.0175 6.5358C41.7806 6.61866 41.5379 6.684 41.2914 6.73129C40.9988 6.75918 40.7042 6.75918 40.4116 6.73129C39.5594 6.57923 38.7261 6.33578 37.9261 6.00517C36.1806 5.1813 34.5608 4.12004 32.8572 3.21239C32.4382 2.975 32.0054 2.73762 31.5585 2.52816C31.1117 2.3187 30.4833 2.03942 29.9387 1.816C28.1898 1.09625 26.2748 0.878638 24.409 1.18763L23.2919 1.39708C22.5666 1.57444 21.8604 1.82232 21.1833 2.13717C20.7901 2.31958 20.4077 2.52473 20.0383 2.75158C19.8149 2.89122 19.5775 3.0169 19.368 3.1705L17.9717 4.18986C17.5527 4.51103 17.1617 4.84616 16.7568 5.1813C16.0027 5.80967 15.3604 6.47994 14.5784 7.15021L12.5397 9.11912C11.7298 9.88713 10.9199 10.6691 10.096 11.4092C9.27215 12.1493 8.58792 12.7078 7.80594 13.3222C6.71406 14.1557 5.57148 14.9205 4.38478 15.6123C3.20794 16.2904 1.99604 16.9056 0.754172 17.4556H0.670389C0.44585 17.528 0.25338 17.676 0.125797 17.8745C0.00394155 18.0908 -0.0310066 18.3455 0.0280494 18.5866C0.0601317 18.7017 0.114971 18.8092 0.189324 18.9028C0.263676 18.9963 0.356033 19.074 0.46093 19.1312C0.570119 19.2016 0.694643 19.2447 0.823992 19.2569C1.20849 19.419 1.57769 19.6153 1.92714 19.8434L3.32353 20.8069L5.64154 22.5524C7.20549 23.6974 8.74152 24.8983 10.3055 26.0434C11.8694 27.1884 13.5311 28.3893 15.2068 29.4924L17.9996 31.3077C18.7536 31.7825 19.5077 32.2433 20.2897 32.7041C20.7644 32.9694 21.2532 33.2627 21.686 33.5001L23.25 34.2821C23.6689 34.4915 24.0878 34.6591 24.5207 34.8546L25.9171 35.4271C26.3779 35.6086 26.8248 35.8041 27.3135 35.9577L28.9473 36.5302C29.4639 36.7118 29.9946 36.8514 30.5112 37.019L31.9076 37.396C32.8292 37.6474 33.7509 37.8568 34.7004 38.0244C35.6499 38.1919 36.7671 38.4154 37.8143 38.5271C38.8616 38.6388 39.8112 38.7226 40.8166 38.7505H42.4085L43.9585 38.6109C44.954 38.5419 45.9433 38.4019 46.9188 38.1919C47.8645 37.9872 48.7971 37.726 49.7116 37.41C51.6805 36.7537 53.5796 36.0136 55.4647 35.1059C57.3498 34.1983 59.1232 33.3884 60.8967 32.4249C62.5736 31.476 64.1917 30.4268 65.7421 29.283C67.4174 28.1094 69.0171 26.8315 70.5317 25.4569C71.2439 24.8145 71.9281 24.0605 72.5565 23.4321C73.2362 22.6646 73.8703 21.858 74.4556 21.0164C74.9861 20.2951 75.4756 19.5445 75.9218 18.7682C76.0143 18.5893 76.0466 18.3853 76.0139 18.1865C75.9812 17.9877 75.8853 17.8049 75.7403 17.665ZM11.269 12.8195C12.6654 11.5209 14.0618 10.1524 15.4582 8.79795C16.0865 8.1975 16.7149 7.61102 17.3712 7.0385C18.0275 6.46598 18.7676 5.86553 19.4658 5.29301L20.4014 4.65067L21.0577 4.24572C21.4309 4.02538 21.8181 3.82947 22.2167 3.65923C22.8719 3.39795 23.5497 3.19698 24.2414 3.05879L24.9117 2.96104H25.6518C26.2136 2.90522 26.7796 2.90522 27.3414 2.96104C27.9753 3.06791 28.5973 3.23627 29.1986 3.46374L29.7432 3.68716C30.609 4.10608 31.4608 4.53896 32.2986 5.08355L35.0355 6.4939L36.3202 7.1921C36.8089 7.44345 37.3116 7.63894 37.8143 7.8484C38.2408 8.01702 38.6796 8.15241 39.127 8.25336C39.5459 8.33714 39.9508 8.40696 40.3837 8.46281C41.1079 8.53828 41.8397 8.44261 42.5202 8.18353C43.7358 7.63084 44.8425 6.86467 45.7877 5.92139L46.835 4.97184C47.1841 4.65067 47.5472 4.34346 47.9102 4.05022C48.7273 3.42543 49.6071 2.88726 50.5355 2.44438C51.2765 2.14309 52.0495 1.92757 52.8395 1.80204C53.3825 1.75091 53.9278 1.72761 54.4733 1.73222C54.7805 1.73222 55.0737 1.73222 55.367 1.80204C55.9368 1.88346 56.5011 2.00005 57.0566 2.15113C57.6617 2.3187 58.2482 2.51419 58.816 2.73762C59.5718 3.06422 60.3042 3.44213 61.0084 3.86869L62.1953 4.63671L63.1169 5.32094C63.48 5.61418 63.8291 5.90742 64.1642 6.21463C64.4993 6.52183 64.8624 6.87093 65.2115 7.22003C65.5606 7.56912 65.8678 7.91822 66.175 8.28128L66.9989 9.28668C68.116 10.7808 69.1493 12.3448 70.2664 13.8389C70.8529 14.6069 71.4534 15.361 72.0817 16.1011C72.3889 16.4502 72.6962 16.7993 73.0173 17.1344C72.4029 17.0646 71.8025 16.9808 71.1881 16.9389C70.9229 16.925 70.6572 16.925 70.3921 16.9389L68.9957 16.7155C66.9849 16.4362 64.9741 16.2966 62.9633 16.1709C60.9525 16.0452 59.0255 15.9614 57.0566 15.8218C55.0877 15.6821 53.2305 15.5844 51.3035 15.5006C50.2841 15.5006 49.2508 15.5006 48.2314 15.5006C47.212 15.5006 46.3603 15.5006 45.4386 15.5006C43.4837 15.5984 41.5287 15.738 39.5738 15.8776C37.6189 16.0173 35.6499 16.2128 33.681 16.4083C31.7121 16.6038 29.841 16.8411 27.9139 17.0366C25.9869 17.2321 23.8365 17.3997 21.7838 17.5254C19.7311 17.6511 17.8739 17.7209 15.905 17.7767C13.9361 17.8326 12.1906 17.7767 10.3194 17.679C9.35593 17.679 8.37846 17.5393 7.41495 17.4556L5.11091 17.2182C7.31177 15.9714 9.37576 14.4971 11.269 12.8195ZM33.0247 20.7231L30.1482 19.997C29.1986 19.7596 28.2491 19.4803 27.2856 19.2429L26.3221 19.0614H26.7968C30.6648 18.7123 34.5189 18.1817 38.4008 17.8884C40.3418 17.7488 42.2828 17.6092 44.2238 17.4975C46.1648 17.3857 48.1197 17.3299 50.0607 17.3857C52.0017 17.4416 54.0683 17.5673 56.0512 17.6929L58.9836 17.8745H59.9052C58.3552 18.2934 56.8332 18.7961 55.3251 19.2709L52.5323 20.1925C51.5827 20.4997 50.6332 20.8069 49.6557 21.0443C48.4543 21.3493 47.2378 21.5916 46.0112 21.7704C45.4386 21.7704 44.8661 21.924 44.3076 21.9659C43.749 22.0078 43.0089 22.0497 42.3526 22.0636C41.1809 22.0748 40.0098 22.0048 38.8477 21.8542C36.8927 21.5609 34.9517 21.1979 33.0247 20.7231ZM72.2772 21.0862C70.6548 23.0577 68.8085 24.8338 66.7755 26.3785C65.2115 27.5654 63.6336 28.7105 61.9719 29.7578C60.2928 30.7915 58.5536 31.7241 56.7633 32.5505C55.367 33.2068 53.9706 33.8073 52.644 34.3938C51.4537 34.9209 50.2372 35.387 48.9994 35.7902C48.3571 35.9717 47.7287 36.1811 47.0864 36.3208C46.7512 36.3208 46.4161 36.4883 46.081 36.5442L45.1454 36.6978C43.9642 36.8441 42.7748 36.914 41.5846 36.9073L39.3923 36.8095C38.8058 36.8095 38.2053 36.6978 37.6189 36.628L36.2225 36.4325C35.6918 36.3487 35.1612 36.223 34.6445 36.1253C34.1279 36.0275 33.6252 35.9019 33.1225 35.7762C32.6198 35.6505 32.1869 35.5388 31.7261 35.4131C30.8464 35.1757 29.9527 34.9104 29.1009 34.6032C28.6121 34.4357 28.1234 34.2821 27.7045 34.1005L26.0986 33.4721L24.7022 32.8438L23.4595 32.2294L22.2306 31.6289L20.918 30.9028C19.1865 29.8834 17.455 28.8361 15.7933 27.6911C14.1316 26.5461 12.4699 25.401 10.864 24.2001L6.01856 20.5416L4.34289 19.3128H4.49649C4.98523 19.3128 5.48793 19.3128 5.97667 19.4105C6.95414 19.4943 7.91765 19.592 8.89512 19.6619C9.8726 19.7317 10.8501 19.8155 11.8275 19.8434C12.805 19.8713 13.7127 19.8434 14.6203 19.8434C15.7933 19.8434 16.9802 19.8434 18.1671 19.8434C18.7816 19.8434 19.396 19.8434 19.9964 19.8434C20.5969 19.8434 21.1554 19.9411 21.7279 20.011C23.6951 20.3043 25.644 20.71 27.5648 21.2258C29.4919 21.7285 31.4189 22.2312 33.3459 22.6222C35.3277 23.0797 37.3319 23.4339 39.3504 23.6835C41.3125 23.9138 43.2949 23.9138 45.2571 23.6835C47.272 23.4699 49.2632 23.0726 51.2057 22.4965C53.1188 21.938 55.0039 21.2817 56.889 20.6393C58.0201 20.2483 59.1651 19.8992 60.3102 19.5641C61.3928 19.2618 62.4935 19.0286 63.6057 18.8659C65.002 18.7123 66.4962 18.6983 67.9345 18.6844C68.6745 18.6844 69.3309 18.6844 70.1408 18.6844L71.202 18.852L72.5984 19.0754L73.3664 19.215C73.0406 19.8574 72.6682 20.4625 72.2493 21.0303L72.2772 21.0862Z" fill="white"/>
</svg>
