<svg width="164" height="172" viewBox="0 0 164 172" fill="none" xmlns="http://www.w3.org/2000/svg">
<path d="M58.3118 84.5353L57.0594 84.9264C57.0293 84.7459 57.0605 84.5592 57.1469 84.4033C57.2333 84.2474 57.3685 84.1337 57.5259 84.0845C57.6833 84.0353 57.8514 84.0544 57.9969 84.1378C58.1424 84.2213 58.2548 84.3631 58.3118 84.5353ZM49.8406 84.5353L51.093 84.1441C50.893 83.264 49.6928 83.6649 49.8406 84.5841V84.5353ZM40.317 88.4467C39.9575 88.9031 39.5836 89.3431 39.1951 89.7669C39.2636 90.1436 39.3507 90.5158 39.456 90.8816C39.4995 91.0283 39.5517 91.1652 39.6039 91.3119C39.9344 90.9892 40.2909 90.6274 40.6475 90.2362C40.4925 89.6547 40.3819 89.0593 40.317 88.4565V88.4467ZM51.093 84.1832L49.8406 84.5744C50.0841 85.7185 50.1711 87.4298 50.3712 89.1508C51.0603 87.6213 51.3124 85.8898 51.093 84.193V84.1832ZM58.3118 84.5255L57.0594 84.9166C57.5235 86.4034 58.0875 87.8483 58.7467 89.2388C58.8321 87.6548 58.6852 86.0657 58.3118 84.5353V84.5255ZM57.4421 89.229C57.0855 92.2311 54.2067 96.0742 52.1106 91.7911C51.1539 89.8353 51.5714 86.403 51.0843 84.1832C51.3056 85.8832 51.0534 87.6184 50.3625 89.1508C50.7625 92.5831 51.6323 96.0546 55.2156 95.1061C57.6508 94.4509 58.5814 91.9084 58.6945 89.2388C58.0353 87.8483 57.4713 86.4034 57.0072 84.9166C57.4116 86.3093 57.5625 87.7792 57.4508 89.2388L57.4421 89.229ZM40.7258 90.5003C40.7258 90.422 40.7258 90.3243 40.6562 90.246C40.2996 90.6372 39.9431 90.999 39.6126 91.3217C41.926 98.2353 48.1446 94.4998 50.3798 89.1606C50.1798 87.4395 50.0928 85.7283 49.8493 84.5841C50.6843 89.982 43.0219 97.893 40.7258 90.5003ZM56.9028 50.6519C56.8159 51.9916 56.5115 54.759 54.8851 54.759C53.2587 54.759 52.8325 52.0405 52.6846 50.691C52.5803 49.7718 51.267 49.7132 51.38 50.691C51.6236 52.8815 52.415 56.2258 54.859 56.2258C57.3029 56.2258 58.0335 52.8717 58.1814 50.6519C58.2683 49.7132 56.9637 49.7229 56.9028 50.6519ZM81.3858 47.9041C83.1253 47.2978 83.5515 44.8434 83.3427 43.0147C83.2384 42.0955 81.9338 42.0858 82.0381 43.0147C82.1686 44.1002 82.1686 45.9972 81.0379 46.4666C79.7072 47.0045 78.9419 44.7358 78.5418 43.7188C78.2026 42.8583 77.072 43.6015 77.4112 44.462C78.1243 46.2711 79.3072 48.6179 81.3858 47.9041ZM86.8652 54.0647C78.6749 59.8004 69.222 62.8486 59.5729 62.8656C59.3999 62.8656 59.234 62.9428 59.1117 63.0804C58.9894 63.2179 58.9206 63.4045 58.9206 63.599C58.9206 63.7935 58.9894 63.98 59.1117 64.1176C59.234 64.2551 59.3999 64.3324 59.5729 64.3324C69.4534 64.3142 79.1336 61.1987 87.5261 55.3359C88.2393 54.8372 87.5783 53.566 86.8652 54.0647ZM64.8087 55.9422C65.037 56.0684 65.2862 56.1396 65.5404 56.1512C65.7945 56.1628 66.0481 56.1146 66.2847 56.0096C66.5213 55.9047 66.7358 55.7453 66.9145 55.5417C67.0932 55.3382 67.2321 55.0949 67.3223 54.8274C67.4929 55.0281 67.7063 55.1765 67.9422 55.2586C68.1781 55.3407 68.4287 55.3539 68.6703 55.2968C69.0521 55.2271 69.4118 55.0497 69.716 54.7812C70.0202 54.5128 70.2589 54.1619 70.4098 53.7616C70.7099 54.0759 71.089 54.2784 71.4953 54.3414C71.9016 54.4044 72.3152 54.3248 72.6798 54.1136C74.4193 53.1357 73.8539 50.6617 72.9929 49.1558C72.5406 48.3637 71.41 49.0971 71.8623 49.899C72.3145 50.7008 72.8016 51.6102 72.1406 52.3828C71.4796 53.1553 71.2274 52.6468 70.7142 51.9232C70.5969 51.7274 70.506 51.5132 70.4446 51.2875C70.4312 51.2243 70.4137 51.1622 70.3924 51.1017C70.0793 50.3488 68.9487 50.8866 69.2009 51.6689C69.2203 51.7421 69.2435 51.8139 69.2705 51.884C69.5488 52.6663 68.8269 54.2994 68.105 53.6736C67.8702 53.478 67.8789 52.7641 67.8702 52.4512C67.8702 52.2567 67.8015 52.0702 67.6791 51.9326C67.5568 51.7951 67.3909 51.7178 67.2179 51.7178C67.0449 51.7178 66.879 51.7951 66.7566 51.9326C66.6343 52.0702 66.5656 52.2567 66.5656 52.4512C66.5764 52.885 66.5114 53.3169 66.3742 53.7225C65.7828 55.111 65.0609 54.5732 64.7391 53.4291C64.4928 52.4764 64.3755 51.4874 64.3912 50.4955C64.3912 50.301 64.3225 50.1144 64.2002 49.9769C64.0779 49.8393 63.9119 49.7621 63.7389 49.7621C63.5659 49.7621 63.4 49.8393 63.2777 49.9769C63.1554 50.1144 63.0866 50.301 63.0866 50.4955C63.1301 52.1774 63.2519 55.111 64.8087 55.9422ZM40.8911 84.1832C41.2216 83.6552 42.7262 81.9928 43.3176 83.2053C43.5177 83.6258 42.2218 85.5522 42.0217 85.8945C41.4969 86.7786 40.9155 87.6185 40.2822 88.4076C40.3466 89.0137 40.4572 89.6124 40.6127 90.1971C42.6479 88.0165 44.9179 84.9166 44.7179 82.4426C44.5178 79.9686 42.7175 80.2033 41.239 81.3767C38.9863 83.2151 38.5689 86.7746 39.1342 89.7278C39.5285 89.3105 39.9025 88.8705 40.2562 88.4076C40.038 86.9593 40.2617 85.4706 40.8911 84.1832ZM102.007 44.6967C102.955 56.0596 97.5977 64.616 89.8831 71.0993C84.9865 75.2063 80.0812 79.2841 76.2544 84.7308C73.88 88.1143 72.9059 94.6171 69.6618 97.0618C65.3132 100.347 61.1384 94.3433 58.7467 89.2388C58.833 87.6515 58.6861 86.0591 58.3118 84.5255C59.599 88.8281 65.5306 101.149 70.1054 94.2455C72.5493 90.5492 73.506 86.051 76.2544 82.423C82.473 74.2187 92.7185 69.652 97.6498 60.284C99.7476 56.0907 100.763 51.3223 100.581 46.5155C100.051 47.1054 99.4327 47.5854 98.7544 47.9334C98.3068 48.1558 97.8479 48.3484 97.3802 48.5104C97.3802 48.5691 97.3802 48.6375 97.3802 48.6962C97.1628 55.6097 93.3968 62.0442 87.9871 66.4348C79.6812 73.1626 68.4094 76.4971 58.4162 73.0843C51.1104 70.5908 43.5437 63.3056 43.4481 54.2407C37.0884 61.3777 32.3975 70.1724 29.7933 79.8415C28.6104 84.0952 26.1578 95.2234 33.3157 93.5317C35.5457 92.9182 37.5808 91.6218 39.1951 89.7864C39.2636 90.1632 39.3507 90.5353 39.456 90.9012C39.4995 91.0479 39.5517 91.1848 39.6039 91.3315L38.6819 92.192C36.3771 94.2553 31.9763 96.5631 29.0453 94.666C26.1143 92.7689 27.0623 87.2244 27.5059 84.2126C28.5843 76.81 31.8545 69.3684 35.3335 63.0709C37.4817 59.2181 40.2388 56.2258 42.9958 53.1259L43.2828 52.8032C43.0828 45.7234 51.3539 38.0569 54.5111 36.375C54.5364 36.3514 54.5597 36.3252 54.5807 36.2967L55.059 35.8763C63.3389 28.4933 75.5151 22.8216 86.1607 24.2102C92.1792 24.9925 96.9627 29.7841 99.6676 35.7589C100.65 34.8886 101.616 34.6832 102.355 35.9251C103.608 38.0276 102.79 42.2129 101.972 44.3935C101.981 44.5011 101.999 44.638 102.007 44.6967ZM55.0416 37.8516C58.2422 42.8387 68.0876 41.2937 72.1058 39.4357C75.6543 37.8124 78.2983 34.6735 81.6728 32.6884C82.2523 32.3455 82.8507 32.045 83.4645 31.7887C84.3141 31.4142 85.1859 31.107 86.0737 30.8695C89.8396 29.8428 94.1883 29.9797 95.5799 33.9987C95.893 34.8788 94.6319 35.2504 94.3275 34.3899C93.3708 31.6518 90.9355 31.202 88.2393 31.7594C90.9977 33.0982 93.3106 35.3805 94.8493 38.2818C95.3272 39.1598 95.743 40.0785 96.093 41.0296C96.8416 39.5194 97.7152 38.0919 98.7022 36.7661C96.5453 31.1629 92.5271 26.7722 86.5781 25.7455C78.5592 24.3471 69.4357 27.5057 61.9908 32.3364C59.7401 33.7736 57.5939 35.4085 55.5722 37.2257C55.3721 37.5093 55.2156 37.6951 55.0677 37.8809L55.0416 37.8516ZM45.3354 50.5052L45.4398 50.3879C46.5269 49.1264 47.588 47.8259 48.5795 46.4764C49.8586 44.4662 51.0123 42.3587 52.0323 40.1691C52.1454 39.9638 52.2672 39.7682 52.3889 39.5628C48.91 42.8094 46.3443 45.8408 45.3354 50.5052ZM100.816 43.6601C101.096 42.8472 101.317 42.01 101.477 41.1568C101.79 39.5335 101.929 37.6853 101.329 36.8932C101.094 36.5803 100.711 36.7368 100.268 37.1573C99.9061 37.5278 99.5743 37.9336 99.2762 38.3698C98.3198 39.7932 97.4482 41.286 96.667 42.8387L96.4148 43.3277C96.3521 43.4448 96.2611 43.5396 96.1524 43.6011C96.0438 43.6625 95.9218 43.6881 95.8007 43.6748C95.6797 43.6615 95.5644 43.6098 95.4684 43.5259C95.3723 43.442 95.2994 43.3292 95.2581 43.2005V43.093C95.2581 42.9267 95.1798 42.7605 95.1276 42.5845C94.5054 40.1504 93.3333 37.9388 91.7254 36.1652C90.1174 34.3916 88.1284 33.1163 85.9519 32.4635C83.5675 33.3762 81.3032 34.6458 79.2202 36.2381C76.5501 38.3796 74.0018 40.5114 70.8099 41.5675C66.4612 42.9952 57.6595 43.7481 54.2067 39.0739C53.25 40.6287 52.5629 42.3987 51.6758 44.0317C49.8378 47.2452 47.5902 50.138 45.0049 52.6175C44.6875 55.3735 45.1308 58.1725 46.2747 60.636C51.4931 72.3118 64.9566 74.7565 75.1933 71.6762C85.0126 68.7426 95.5973 60.6165 95.9278 48.9993C95.1189 49.2536 94.8145 47.953 95.5799 47.5912L95.9365 47.4249C96.3713 47.2294 96.8497 47.0142 97.3541 46.7698C98.3822 46.344 99.3294 45.7037 100.146 44.8825C100.263 44.7428 100.374 44.5959 100.476 44.4424C100.611 44.2111 100.724 43.9655 100.816 43.709V43.6601Z" fill="#A71057"/>
<path d="M43.5225 34.4696C44.8983 32.2441 46.2778 30.0208 47.5703 27.7472C47.9776 27.033 48.3774 26.3144 48.7105 25.5624C48.9938 24.923 49.1926 24.3864 48.825 23.7197C48.4893 23.1117 47.8989 22.6648 47.3425 22.2729C46.7336 21.8405 46.0778 21.472 45.4345 21.0905C44.742 20.6806 44.1111 20.1901 43.4421 19.7483C42.5697 19.1689 41.652 18.6592 40.7168 18.1799C39.7967 17.7093 38.8635 17.2614 37.95 16.7794C36.9737 16.2663 36.0547 15.6801 35.1172 15.1086C34.2857 14.5982 33.3578 14.421 32.492 14.9412C31.7055 15.4113 31.1931 16.2113 30.694 16.9533C30.2124 17.665 29.7368 18.3751 29.2551 19.0868C29.203 19.1072 29.154 19.1395 29.119 19.2001C28.9371 19.489 28.7552 19.7778 28.5733 20.0667C27.8082 21.0945 27.122 22.178 26.5246 23.3177C26.5006 23.3594 26.4901 23.4038 26.4877 23.4428C26.2895 23.7425 26.0966 24.0503 25.9097 24.3565C24.2218 26.8865 22.5938 29.4613 20.9908 32.0455C19.7368 34.0686 18.5224 36.1196 17.3215 38.1734C16.7491 39.156 16.1497 40.133 15.6191 41.1395C15.1814 41.9675 14.8036 42.8755 14.813 43.8303C14.8356 45.934 16.7687 47.1865 18.2985 48.2717C20.27 49.6675 22.2978 50.9746 24.3797 52.1968C25.4207 52.8079 26.4748 53.3962 27.5398 53.9657C28.0068 54.2151 28.4856 54.4966 29.0197 54.5424C29.4757 54.5834 29.9261 54.4243 30.3123 54.1928C31.2048 53.6527 31.9852 52.861 32.6651 52.0769C33.3832 51.2442 34.0197 50.3341 34.5989 49.4009C35.4124 48.088 36.107 46.7014 36.8751 45.3622C37.5032 44.2655 38.1563 43.1781 38.811 42.0966C40.3673 39.541 41.9516 37.0067 43.5225 34.4696ZM43.489 32.4809C41.9978 34.9326 40.486 37.3674 38.9947 39.8192C37.7428 41.8738 36.4947 43.9306 35.3526 46.0487C34.4332 47.7549 33.5353 49.4938 32.3118 51.0094C31.6682 51.8094 30.9378 52.5845 30.1003 53.1867C29.7727 53.4218 29.3985 53.6501 28.9823 53.5663C28.481 53.4637 27.9905 53.1149 27.5424 52.8764C25.5175 51.7831 23.5362 50.6139 21.6069 49.3637C20.6338 48.7312 19.6695 48.0836 18.7243 47.4116C17.9462 46.8613 17.1284 46.3185 16.4981 45.591C15.9168 44.9272 15.6427 44.1074 15.817 43.2283C15.9956 42.3417 16.4586 41.5485 16.8971 40.7715C18.0403 38.7652 19.2024 36.7698 20.3873 34.7876C22.6329 31.0292 24.9446 27.3139 27.2827 23.614C27.3728 23.6155 27.463 23.5817 27.5274 23.4876C28.218 22.4926 28.8821 21.4822 29.5197 20.4566C29.5323 20.4436 29.5426 20.4345 29.5514 20.4193C30.2072 19.4496 30.863 18.4799 31.5209 17.5065C31.9572 16.8645 32.4329 16.0231 33.1867 15.7059C34.0329 15.3511 34.8906 16.1746 35.5554 16.5887C36.4339 17.1313 37.3393 17.6186 38.2615 18.0854C40.0524 18.9982 41.8511 19.8801 43.4889 21.058C44.0523 21.4641 44.6077 21.8403 45.2056 22.1956C45.8147 22.5574 46.4359 22.916 46.9997 23.3476C47.4101 23.6602 47.8456 24.043 47.9608 24.4731C47.9586 24.4769 47.9586 24.4769 47.9564 24.4807C47.9279 24.5652 47.9068 24.654 47.8783 24.7385C47.8596 24.7883 47.8409 24.8382 47.8223 24.888C47.887 24.7234 47.8135 24.9031 47.7883 24.9643C47.7247 25.1094 47.6596 25.2485 47.5884 25.3892C47.4165 25.7394 47.2355 26.0793 47.0484 26.4207C45.9272 28.4852 44.7081 30.483 43.489 32.4809Z" fill="black"/>
<path d="M43.5398 27.4249C43.7511 27.0066 43.9381 26.5338 43.8453 26.0561C43.7325 25.4556 43.2212 25.1604 42.7501 24.848C41.617 24.108 40.48 23.3657 39.3491 22.6219C38.216 21.8818 37.079 21.1396 35.9437 20.4033C35.3969 20.0472 34.8562 19.6542 34.2815 19.3376C33.8053 19.0778 33.2593 18.9039 32.7178 19.0458C32.2541 19.1669 31.8702 19.4906 31.7179 19.938C31.2732 20.6559 30.8376 21.3841 30.4118 22.1129C30.0188 22.7848 29.5883 23.4604 29.2408 24.1586C27.2876 26.9294 25.5052 29.8242 23.8711 32.7944C23.2269 33.9626 22.6114 35.1424 22.0149 36.3332C21.71 36.9399 21.4187 37.5494 21.1274 38.1589C20.8826 38.6791 20.6026 39.1991 20.4401 39.7517C20.3002 40.2214 20.2861 40.7182 20.482 41.1748C20.6936 41.6655 21.0994 42.021 21.5151 42.3418C22.5563 43.1449 23.6394 43.9016 24.745 44.6106C25.8636 45.3322 27.0144 46.0067 28.1876 46.6335C29.0362 47.0881 30.2063 47.9303 31.2133 47.5068C31.7459 47.2841 32.1084 46.7611 32.4635 46.3298C32.884 45.8202 33.2893 45.3018 33.6817 44.7708C34.4621 43.7165 35.1922 42.6181 35.8861 41.5037C37.2706 39.2631 38.521 36.9399 39.76 34.6102C41.0297 32.2274 42.327 29.8405 43.5398 27.4249ZM31.6293 46.0603C31.319 46.4316 31.0012 46.8945 30.4581 46.8031C29.9714 46.7191 29.5035 46.4186 29.0662 46.1964C27.9827 45.6416 26.9194 45.0429 25.8802 44.4025C24.8426 43.7681 23.8253 43.0898 22.8374 42.3781C22.0561 41.8159 20.8557 41.1835 21.1418 40.0407C21.2661 39.5368 21.5237 39.0644 21.7439 38.5956C22.0024 38.0429 22.2646 37.4924 22.5307 36.9441C23.0666 35.8497 23.6237 34.7624 24.1975 33.6898C26.5184 29.3638 29.2065 25.2852 32.0353 21.2777C32.3415 20.8434 32.6516 20.4114 32.9654 19.9816C33.569 19.8806 34.7701 20.8266 35.0417 21.0036C36.0974 21.6939 37.157 22.3865 38.2128 23.0768C39.2518 23.7524 40.2909 24.4281 41.3337 25.1059C41.5825 25.2697 41.8335 25.4298 42.0861 25.5958C42.3105 25.7406 42.6159 25.8765 42.7918 26.079C43.0395 26.3584 42.762 26.8042 42.6181 27.0796C41.4702 29.2953 40.3011 31.5038 39.1586 33.7276C38.0538 35.8773 36.9604 38.0336 35.7344 40.1133C34.5166 42.1876 33.1786 44.2077 31.6293 46.0603Z" fill="black"/>
<path d="M24.2198 46.2112C24.0087 46.1045 23.7074 46.0315 23.4463 46.0727C23.3771 46.0176 23.2976 45.9717 23.2093 45.9409C22.9482 45.8508 22.608 45.8715 22.3736 46.024C21.8045 46.3974 21.6973 47.204 22.0577 47.7606C22.4381 48.3438 23.1751 48.6329 23.8542 48.515C24.5453 48.3938 24.9497 47.7284 24.8453 47.0521C24.7942 46.6944 24.5413 46.3716 24.2198 46.2112ZM22.5848 46.9438C22.5826 46.9476 22.5826 46.9476 22.5848 46.9438ZM23.9603 47.5965C23.9581 47.6003 23.9537 47.6079 23.9477 47.6095C23.933 47.6263 23.9123 47.6446 23.8938 47.6592C23.8916 47.663 23.8916 47.663 23.8878 47.6608C23.8715 47.6716 23.8492 47.6839 23.8329 47.6947C23.8188 47.7017 23.7987 47.7103 23.7905 47.7157C23.7465 47.7307 23.6987 47.7435 23.6531 47.7525C23.6471 47.7541 23.6471 47.7541 23.6411 47.7557C23.6194 47.7583 23.5939 47.7587 23.5722 47.7613C23.5212 47.7622 23.474 47.7652 23.4252 47.7623C23.4252 47.7623 23.3824 47.7578 23.3688 47.755C23.3455 47.7517 23.3184 47.7461 23.3109 47.7417C23.2567 47.7307 23.2084 47.718 23.1586 47.6993C23.1586 47.6993 23.1299 47.6878 23.1088 47.6806C23.0899 47.6697 23.0574 47.656 23.0574 47.656C23.0097 47.6335 22.9643 47.6073 22.921 47.5773C22.9021 47.5663 22.8853 47.5516 22.8664 47.5407C22.8626 47.5385 22.8329 47.5112 22.8199 47.4987C22.781 47.4611 22.7481 47.4219 22.713 47.3865C22.7092 47.3843 22.7092 47.3843 22.7055 47.3821C22.7039 47.3761 22.7001 47.374 22.6985 47.368C22.6861 47.3457 22.6753 47.3294 22.6629 47.3071C22.6468 47.2826 22.6366 47.2565 22.6264 47.2304C22.6264 47.2304 22.6264 47.2304 22.6226 47.2282C22.621 47.2223 22.621 47.2223 22.6194 47.2163C22.6082 47.1745 22.5954 47.1267 22.5864 47.0811C22.5832 47.0691 22.5822 47.0534 22.5827 47.0436C22.5823 47.0181 22.5819 46.9926 22.5836 46.9633C22.5826 46.9476 22.5854 46.9341 22.5882 46.9205C22.5888 46.9107 22.5909 46.907 22.5893 46.901C22.6042 46.849 22.6169 46.8008 22.6296 46.7525C22.6318 46.7488 22.6318 46.7487 22.6318 46.7487C22.6449 46.726 22.6564 46.6973 22.6696 46.6746C22.6739 46.667 22.6974 46.6351 22.7018 46.6276C22.7165 46.6108 22.729 46.5978 22.7437 46.5811C22.7459 46.5773 22.7541 46.5719 22.7601 46.5703C22.7764 46.5595 22.7949 46.545 22.8112 46.5342C22.8275 46.5234 22.8498 46.511 22.8699 46.5025C22.8819 46.4993 22.89 46.4939 22.8998 46.4945C22.9118 46.4912 22.9177 46.4896 22.9297 46.4864C22.8945 46.7136 23.0589 46.9448 23.3284 46.9591C23.4065 46.9638 23.4776 46.9543 23.5531 46.9373C23.5531 46.9373 23.571 46.9325 23.589 46.9277C23.5949 46.9261 23.5927 46.9299 23.6025 46.9305C23.628 46.93 23.6513 46.9334 23.6768 46.933C23.6925 46.9319 23.6985 46.9303 23.6985 46.9303C23.7392 46.9387 23.7928 46.9595 23.8101 46.9645C23.8139 46.9667 23.8177 46.9688 23.8237 46.9672C23.8388 46.976 23.854 46.9847 23.854 46.9847C23.8767 46.9979 23.8956 47.0088 23.9183 47.0219C23.9259 47.0263 23.9335 47.0307 23.9373 47.0328C23.9594 47.0557 23.9832 47.0846 23.9961 47.0971C23.9999 47.0993 23.9977 47.1031 23.9977 47.1031C24.0047 47.1172 24.0193 47.1357 24.0279 47.1558C24.0295 47.1618 24.0295 47.1618 24.0311 47.1678C24.0375 47.1917 24.0439 47.2156 24.0503 47.2395C24.0519 47.2454 24.0535 47.2514 24.0535 47.2514C24.0529 47.2612 24.0551 47.2574 24.0567 47.2634C24.0577 47.2791 24.0571 47.2889 24.0587 47.2948C24.0575 47.3144 24.0564 47.3339 24.059 47.3556C24.0568 47.3594 24.0568 47.3594 24.0606 47.3616C24.0584 47.3654 24.0584 47.3654 24.0562 47.3691C24.0491 47.3903 24.026 47.4477 24.0199 47.4845C24.0249 47.4672 24.0428 47.4624 24.0253 47.4927C24.0231 47.4965 24.0231 47.4965 24.0209 47.5003C24.0187 47.504 24.0203 47.51 24.0203 47.51C24.0187 47.504 24.0187 47.504 24.0209 47.5003C24.01 47.5192 23.9969 47.5419 23.9859 47.5609C23.9881 47.5571 23.9919 47.5593 23.9941 47.5555C23.9941 47.5555 23.9837 47.5646 23.9794 47.5722C23.9662 47.5949 23.9641 47.5987 23.9603 47.5965Z" fill="black"/>
<path d="M23.9794 47.5722C23.9631 47.583 23.9565 47.5944 23.9603 47.5966C23.9647 47.589 23.9669 47.5852 23.9729 47.5836C23.9729 47.5836 23.9729 47.5836 23.975 47.5798C23.9772 47.576 23.9772 47.576 23.9794 47.5722Z" fill="black"/>
<path d="M39.2374 29.5414C38.275 30.8845 37.431 32.3465 36.6559 33.8028C36.4502 34.194 37.0221 34.5242 37.2505 34.1461C38.1036 32.7297 38.9211 31.2525 39.5744 29.736C39.6764 29.507 39.3869 29.3348 39.2374 29.5414Z" fill="black"/>
<path d="M37.9263 30.0015C37.9885 29.8152 37.7233 29.6621 37.593 29.8091C37.2741 30.1603 37.0254 30.5823 36.7763 30.9788C36.5266 31.385 36.2829 31.7897 36.0597 32.2113C35.8721 32.5625 36.3834 32.8577 36.5975 32.5218C36.8548 32.1199 37.0872 31.7087 37.3141 31.2893C37.5367 30.8775 37.7779 30.4511 37.9263 30.0015Z" fill="black"/>
<path d="M18.0274 41.4291C18.147 41.2658 17.895 41.09 17.7561 41.2169C16.9613 41.9549 16.5721 43.1189 16.8353 44.1848C16.91 44.4754 17.4087 44.425 17.3705 44.1151C17.2592 43.1621 17.4555 42.2098 18.0274 41.4291Z" fill="black"/>
<path d="M18.9371 43.7369C18.9355 43.7309 18.9355 43.7309 18.9355 43.7309C18.9313 43.7032 18.9309 43.6778 18.9266 43.6501C18.9214 43.6066 18.92 43.5654 18.9169 43.5182C18.913 43.42 18.9151 43.3202 18.9209 43.2226C18.9221 43.2031 18.9255 43.1798 18.9288 43.1565C18.9294 43.1467 18.9316 43.1429 18.93 43.1369C18.9367 43.0903 18.9472 43.0459 18.9518 43.003C18.9529 42.9835 18.9541 42.964 18.9613 42.9429C18.964 42.9293 18.9646 42.9196 18.963 42.9136C18.9658 42.9 18.9725 42.8534 18.9703 42.8572C18.9748 42.8144 18.9853 42.7699 18.9937 42.7293C19.0153 42.6307 19.038 42.5125 19.0481 42.4426C19.0615 42.3493 19.0857 42.2724 19.1241 42.1885C19.1668 42.097 19.1553 41.9944 19.071 41.9306C18.9996 41.8793 18.8711 41.8657 18.8095 41.9463C18.6758 42.1165 18.5151 42.2813 18.4284 42.4838C18.3222 42.7203 18.2637 42.9441 18.2365 43.2011C18.1872 43.6625 18.247 44.1363 18.449 44.556C18.5221 44.7093 18.721 44.7585 18.8677 44.6967C19.0183 44.6372 19.1129 44.4646 19.0659 44.3011C19.0146 44.1099 18.971 43.9231 18.9371 43.7369Z" fill="black"/>
<path d="M138.605 119.565C137.857 119.502 137.105 119.564 136.378 119.748C136.277 118.696 136.408 117.634 136.763 116.638C137.316 115.698 139.458 115.573 140.329 114.243C141.668 112.18 140.597 110.991 138.981 110.417C141.225 109.544 143.577 108.013 142.69 105.701C142.544 105.285 142.269 104.926 141.906 104.673C141.542 104.421 141.107 104.289 140.664 104.296C141.802 102.026 141.618 99.0399 138.856 98.4744C137.835 98.3873 136.807 98.4917 135.826 98.7821C136.064 98.0159 136.144 97.2096 136.06 96.4119C135.223 92.9273 132.795 93.3431 130.577 94.7486C131.356 92.395 130.954 89.9749 127.631 89.3761C127.129 89.2651 126.608 89.2833 126.116 89.4288C125.623 89.5744 125.177 89.8425 124.818 90.2078C124.821 89.7989 124.72 89.3959 124.526 89.0356C124.331 88.6753 124.049 88.3692 123.705 88.1453C122.533 87.5797 121.646 88.586 121.001 89.9915C120.7 87.0891 119.486 84.7854 116.029 87.3635C115.727 87.617 115.447 87.8952 115.192 88.1952C114.689 87.5769 114.039 87.0923 113.302 86.7846C112.564 86.4769 111.761 86.3558 110.965 86.4321C105.49 86.8312 104.636 90.8481 106.118 94.5573C105.627 94.2547 105.057 94.1028 104.479 94.1205C103.901 94.1383 103.342 94.3249 102.87 94.6571C100.71 96.2788 102.661 98.2083 104.335 99.2561C102.173 102.675 100.444 106.345 99.187 110.184C98.2329 109.721 97.1751 109.509 96.1149 109.569C93.9469 109.743 92.6076 111.673 92.1891 113.644C91.8877 115.033 91.7956 117.203 93.0931 118.168C94.2532 118.833 95.5808 119.153 96.9185 119.091C96.5335 121.129 96.2237 123.166 95.981 125.162C95.0435 132.971 95.1439 144.116 104.26 147.076C110.044 148.947 119.452 148.357 125.069 145.829C131.649 142.868 134.277 135.849 135.491 129.196C136.194 129.644 137.001 129.907 137.835 129.961C140.346 130.077 143.041 127.574 142.999 125.071C142.957 122.567 141.141 119.823 138.605 119.565ZM115.033 90.3741C115.289 91.1003 115.438 91.8593 115.476 92.6279C115.568 94.6987 114.639 95.3806 114.405 92.6778C114.407 91.8684 114.623 91.0739 115.033 90.3741ZM94.8007 117.536C93.1266 117.087 93.0847 115.498 93.3944 113.993C93.7879 112.097 95.0686 110.508 97.1947 110.874C97.7519 110.98 98.2924 111.159 98.8019 111.407C98.149 113.536 97.6133 115.698 97.1696 117.852C96.3709 117.831 95.5767 117.725 94.8007 117.536ZM137.349 128.655C136.758 128.486 136.206 128.204 135.725 127.823C135.379 127.573 135.055 127.295 134.754 126.992C134.547 126.792 134.354 126.578 134.177 126.351C133.691 125.719 132.603 126.351 133.088 126.975C133.513 127.531 133.999 128.039 134.537 128.489C133.616 134.036 131.724 139.358 127.639 142.752C122.818 146.777 115.635 146.694 109.709 146.569C95.9057 146.278 94.9598 132.281 97.923 119.124C98.0151 118.717 98.1155 118.293 98.216 117.902C98.7015 115.906 99.2791 113.935 99.8901 112.08C100.035 111.664 100.178 111.257 100.317 110.858C101.661 106.814 103.47 102.938 105.708 99.306C105.782 99.211 105.823 99.0939 105.823 98.9734C105.823 98.8528 105.782 98.7357 105.708 98.6407C105.662 98.5707 105.602 98.5111 105.532 98.4661C103.079 96.8776 103.916 95.2143 106.285 96.1042C106.996 96.5094 107.614 97.0558 108.102 97.7093C108.629 98.3164 109.508 97.4348 108.989 96.8277C107.742 95.3973 106.235 93.1768 106.436 91.2057C106.712 88.3615 111.023 86.6233 113.392 88.0704C113.792 88.3269 114.137 88.6606 114.405 89.0518C113.258 90.7151 112.597 92.9023 113.325 94.6405C113.844 95.863 115.058 96.7945 116.163 95.705C117.477 94.4159 116.699 90.9812 116.096 89.609C116.029 89.4426 115.937 89.2929 115.861 89.1349C116.799 87.9789 118.021 87.2471 119.009 88.0205C120.608 89.268 119.946 92.736 119.662 94.6072C119.536 95.3806 120.7 95.7383 120.867 94.9399C121.009 94.2745 121.168 93.6092 121.361 92.9605C121.654 91.9459 122.407 88.8023 123.345 90.0581C123.666 90.7014 123.774 91.429 123.655 92.1372C123.208 93.5272 122.982 94.9778 122.985 96.4368C122.985 97.1188 124.107 97.3101 124.215 96.6032C124.324 95.8963 124.709 94.1082 124.852 92.4449C125.059 92 125.339 91.5925 125.68 91.239C126.005 90.934 126.382 90.689 126.794 90.5155C127.915 90.0082 130.728 90.5155 128.878 95.7216C128.807 95.9255 128.709 96.1186 128.585 96.2955C128.144 96.7394 127.733 97.2117 127.354 97.7093L127.254 97.834C126.819 98.4079 127.748 99.0815 128.242 98.5908C128.685 98.1425 129.083 97.6523 129.43 97.1271C130.351 96.0875 131.54 94.9981 132.569 94.9648C134.612 94.89 135.081 97.019 134.737 99.1231C131.833 100.046 128.928 101.834 130.828 103.98C132.728 106.126 134.553 102.882 135.516 99.9797C136.127 99.7864 136.759 99.6636 137.399 99.6138C140.388 99.5306 140.563 102.782 139.132 104.604C138.483 104.843 137.906 105.244 137.458 105.768C137.115 106.2 137.458 107.032 138.069 106.808C138.715 106.578 139.291 106.188 139.743 105.677C140.58 105.377 141.417 105.677 140.915 107.855C140.597 109.253 137.115 109.793 135.968 110.026C135.265 110.159 135.441 111.257 136.135 111.249C137.692 111.249 139.877 112.488 138.647 114.168C138.144 114.858 136.83 114.999 136.135 114.999C135.969 115.002 135.811 115.068 135.694 115.184C135.577 115.301 135.51 115.458 135.508 115.623C135.508 117.02 135.415 118.526 135.348 120.081C134.643 120.321 133.962 120.627 133.314 120.996C133.17 121.079 133.065 121.217 133.023 121.377C132.98 121.538 133.004 121.709 133.088 121.852C133.173 121.996 133.311 122.1 133.473 122.142C133.634 122.184 133.806 122.161 133.951 122.077C134.378 121.826 134.823 121.607 135.282 121.42C135.647 121.271 136.022 121.146 136.403 121.045L136.956 120.904C139.467 120.405 140.999 121.944 141.61 124.272C142.221 126.601 139.71 129.187 137.349 128.655ZM134.411 100.296C134.001 101.518 133.331 102.541 132.569 102.791C131.23 103.248 132.996 101.036 133.566 100.703C133.838 100.549 134.121 100.413 134.411 100.296ZM112.396 102.799C111.947 102.044 111.718 101.18 111.735 100.304C111.986 99.2478 113.082 99.2645 114.129 99.647C113.859 100.002 113.701 100.429 113.676 100.873C113.651 101.317 113.759 101.759 113.986 102.142C114.335 102.609 114.822 102.955 115.379 103.134C115.935 103.313 116.534 103.315 117.092 103.14C118.255 102.599 117.979 101.277 117.343 100.429C116.965 99.9394 116.503 99.5199 115.979 99.1896C116.648 98.2831 117.519 97.4515 118.707 98.1168C119.247 98.4886 119.687 98.9864 119.987 99.5664C120.288 100.146 120.441 100.791 120.432 101.443C120.432 102.275 121.729 102.275 121.687 101.443C121.696 100.479 121.437 99.53 120.94 98.7013C120.442 97.8726 119.725 97.1957 118.867 96.7446C117.343 96.0543 116.037 97.0938 115.108 98.2415L114.84 98.5825C114.322 98.3673 113.775 98.2272 113.216 98.1667C109.868 97.8507 110.287 101.335 111.308 103.423C111.676 104.155 112.764 103.531 112.413 102.799H112.396ZM115.317 100.204C115.627 100.392 115.909 100.621 116.154 100.886C116.699 101.585 116.272 102.441 115.451 101.718C114.907 101.31 115.033 100.745 115.317 100.204ZM107.189 109.66C108.177 109.148 109.319 109.015 110.399 109.285C111.479 109.555 112.422 110.209 113.049 111.124C113.509 111.789 112.421 112.413 111.969 111.756C111.514 111.111 110.84 110.651 110.07 110.463C109.3 110.275 108.488 110.371 107.784 110.733C107.106 111.107 106.47 110.034 107.189 109.66ZM127.606 115.174C127.656 116.006 126.4 116.006 126.35 115.174C126.376 114.659 126.266 114.146 126.032 113.685C125.685 113.328 125.216 113.112 124.718 113.078C124.196 112.99 123.662 113.018 123.153 113.162C122.645 113.306 122.175 113.562 121.78 113.91C121.102 114.359 120.474 113.278 121.143 112.837C121.79 112.341 122.552 112.013 123.359 111.884C124.166 111.755 124.993 111.828 125.764 112.097C127.204 112.504 127.522 113.76 127.606 115.174ZM109.014 131.549C109.218 131.39 109.408 131.215 109.583 131.025C110.101 131.511 110.75 131.837 111.45 131.965C112.024 132.078 112.616 132.052 113.178 131.888C113.739 131.725 114.252 131.429 114.673 131.025C114.897 131.38 115.203 131.677 115.565 131.891C115.928 132.105 116.336 132.23 116.757 132.256C119.687 132.373 121.637 127.092 121.721 124.771C121.721 123.94 120.49 123.94 120.465 124.771C120.415 126.252 118.322 132.023 116.062 130.593C115.845 130.448 115.663 130.258 115.527 130.036C116.38 128.758 116.859 127.269 116.908 125.736C116.908 123.715 115.384 121.96 114.129 124.389C113.469 126.163 113.469 128.112 114.129 129.886C113.904 130.148 113.626 130.359 113.313 130.506C113 130.653 112.659 130.731 112.313 130.737C111.967 130.742 111.623 130.675 111.306 130.538C110.988 130.401 110.703 130.199 110.471 129.944C111.852 127.74 112.463 124.397 111.09 122.459C109.215 119.84 107.943 124.164 107.834 125.553C107.704 127.089 108.042 128.627 108.805 129.969C108.488 130.26 108.119 130.488 107.717 130.643C102.837 132.506 105.088 124.073 105.649 121.827C106.16 119.79 106.754 117.769 107.449 115.789C107.717 115.033 106.503 114.7 106.243 115.457C105.473 117.638 104.822 119.859 104.293 122.11C103.707 124.605 102.678 128.148 103.741 130.609C104.645 132.639 107.315 132.813 109.014 131.549ZM114.983 125.728C115.25 124.197 115.945 124.464 115.451 127.058C115.35 127.55 115.19 128.027 114.974 128.48C114.793 127.574 114.796 126.641 114.983 125.736V125.728ZM109.374 123.906C109.776 122.651 110.161 122.842 110.278 124.106C110.463 125.051 110.463 126.022 110.278 126.967C110.146 127.642 109.918 128.294 109.6 128.905C108.612 127.333 108.939 125.154 109.374 123.915V123.906Z" fill="black"/>
<path d="M105.479 141.486C105.944 140.819 106.356 140.254 106.953 139.744C108.242 138.643 109.528 137.166 111.038 136.599C112.272 136.136 113.564 136.148 114.836 136.148C115.871 136.148 116.663 136.569 117.499 137.371C118.344 138.183 119.074 138.948 119.596 140.127C119.733 140.435 119.873 140.823 119.96 141.159C120.019 141.387 120.129 141.919 119.96 141.375" stroke="black" stroke-width="1.09285" stroke-linecap="round"/>
</svg>
