<svg width="164" height="172" viewBox="0 0 164 172" fill="none" xmlns="http://www.w3.org/2000/svg">
<path d="M55.521 62.5875L56.5165 62.8949C56.5405 62.753 56.5157 62.6063 56.447 62.4837C56.3783 62.3612 56.2708 62.2718 56.1457 62.2331C56.0206 62.1945 55.887 62.2094 55.7713 62.275C55.6557 62.3407 55.5663 62.4521 55.521 62.5875ZM62.2545 62.5875L61.259 62.28C61.418 61.5881 62.372 61.9033 62.2545 62.6259V62.5875ZM69.8244 65.6623C70.1102 66.0211 70.4075 66.367 70.7162 66.7001C70.6618 66.9963 70.5926 67.2888 70.5088 67.5764C70.4743 67.6917 70.4328 67.7994 70.3913 67.9147C70.1286 67.661 69.8452 67.3766 69.5617 67.0691C69.685 66.6119 69.7729 66.1438 69.8244 65.67V65.6623ZM61.259 62.3107L62.2545 62.6182C62.0609 63.5176 61.9918 64.8628 61.8328 66.2158C61.285 65.0134 61.0846 63.6522 61.259 62.3184V62.3107ZM55.521 62.5798L56.5165 62.8872C56.1477 64.056 55.6993 65.1919 55.1754 66.285C55.1075 65.0397 55.2243 63.7906 55.521 62.5875V62.5798ZM56.2124 66.2773C56.4958 68.6373 58.7841 71.6583 60.4501 68.2913C61.2106 66.7539 60.8788 64.0557 61.2659 62.3107C61.0901 63.6471 61.2905 65.0112 61.8397 66.2158C61.5217 68.914 60.8304 71.6429 57.9821 70.8973C56.0464 70.3822 55.3067 68.3836 55.2169 66.285C55.7408 65.1919 56.1892 64.056 56.558 62.8872C56.2366 63.982 56.1167 65.1376 56.2054 66.285L56.2124 66.2773ZM69.4995 67.2766C69.4995 67.2151 69.4995 67.1383 69.5548 67.0768C69.8383 67.3842 70.1217 67.6687 70.3844 67.9223C68.5455 73.3572 63.6026 70.4207 61.8259 66.2235C61.9849 64.8705 62.054 63.5253 62.2476 62.6259C61.5839 66.8692 67.6744 73.0881 69.4995 67.2766ZM56.641 35.9514C56.7101 37.0045 56.9521 39.18 58.2448 39.18C59.5376 39.18 59.8764 37.043 59.9939 35.9821C60.0768 35.2595 61.1207 35.2134 61.0309 35.9821C60.8373 37.7041 60.2082 40.3331 58.2656 40.3331C56.323 40.3331 55.7423 37.6964 55.6247 35.9514C55.5556 35.2134 56.5926 35.2211 56.641 35.9514ZM37.1803 33.7913C35.7977 33.3147 35.459 31.3852 35.6249 29.9477C35.7078 29.2251 36.7448 29.2174 36.6619 29.9477C36.5582 30.801 36.5582 32.2923 37.4569 32.6613C38.5146 33.0841 39.1229 31.3006 39.441 30.5012C39.7106 29.8247 40.6093 30.4089 40.3397 31.0854C39.7728 32.5075 38.8326 34.3524 37.1803 33.7913ZM32.825 38.6342C39.3352 43.1431 46.8489 45.5393 54.5186 45.5527C54.6561 45.5527 54.788 45.6134 54.8853 45.7215C54.9825 45.8297 55.0371 45.9763 55.0371 46.1292C55.0371 46.2821 54.9825 46.4288 54.8853 46.5369C54.788 46.645 54.6561 46.7057 54.5186 46.7057C46.665 46.6914 38.9705 44.2423 32.2996 39.6335C31.7327 39.2415 32.2581 38.2422 32.825 38.6342ZM50.3569 40.1101C50.1754 40.2093 49.9774 40.2653 49.7753 40.2744C49.5733 40.2835 49.3718 40.2456 49.1837 40.1631C48.9956 40.0806 48.8251 39.9553 48.6831 39.7953C48.5411 39.6353 48.4307 39.444 48.359 39.2338C48.2233 39.3915 48.0537 39.5082 47.8662 39.5727C47.6787 39.6373 47.4795 39.6476 47.2874 39.6028C46.984 39.548 46.698 39.4085 46.4562 39.1975C46.2144 38.9864 46.0247 38.7106 45.9048 38.3959C45.6663 38.643 45.3649 38.8022 45.042 38.8517C44.7191 38.9012 44.3902 38.8387 44.1004 38.6726C42.7178 37.9039 43.1672 35.9591 43.8516 34.7752C44.2111 34.1526 45.1098 34.7291 44.7503 35.3595C44.3908 35.9898 44.0037 36.7047 44.5291 37.312C45.0545 37.9193 45.255 37.5196 45.6628 36.9507C45.7561 36.7969 45.8283 36.6285 45.8771 36.451C45.8878 36.4013 45.9017 36.3525 45.9186 36.305C46.1675 35.7131 47.0662 36.1359 46.8657 36.7508C46.8503 36.8084 46.8318 36.8648 46.8104 36.92C46.5892 37.5349 47.163 38.8187 47.7368 38.3267C47.9234 38.173 47.9165 37.6118 47.9234 37.3658C47.9234 37.2129 47.9781 37.0663 48.0753 36.9581C48.1725 36.85 48.3044 36.7893 48.4419 36.7893C48.5794 36.7893 48.7113 36.85 48.8086 36.9581C48.9058 37.0663 48.9604 37.2129 48.9604 37.3658C48.9518 37.7068 49.0035 38.0463 49.1125 38.3652C49.5826 39.4567 50.1564 39.0339 50.4122 38.1345C50.608 37.3856 50.7012 36.6082 50.6887 35.8284C50.6887 35.6755 50.7433 35.5288 50.8406 35.4207C50.9378 35.3126 51.0697 35.2518 51.2072 35.2518C51.3447 35.2518 51.4766 35.3126 51.5738 35.4207C51.6711 35.5288 51.7257 35.6755 51.7257 35.8284C51.6911 37.1506 51.5944 39.4567 50.3569 40.1101ZM69.3682 62.3107C69.1055 61.8956 67.9095 60.5888 67.4394 61.542C67.2804 61.8725 68.3104 63.3869 68.4695 63.656C68.8866 64.3509 69.3487 65.0112 69.8521 65.6316C69.8009 66.108 69.713 66.5786 69.5894 67.0383C67.9717 65.3241 66.1674 62.8873 66.3264 60.9424C66.4854 58.9975 67.9164 59.182 69.0916 60.1045C70.8822 61.5497 71.214 64.3478 70.7646 66.6693C70.4512 66.3414 70.154 65.9954 69.8728 65.6316C70.0462 64.493 69.8684 63.3227 69.3682 62.3107ZM20.7892 31.2699C20.0356 40.2024 24.2942 46.9287 30.4262 52.0253C34.3183 55.2539 38.2173 58.4594 41.2591 62.7412C43.1464 65.401 43.9207 70.5129 46.4993 72.4347C49.9559 75.0176 53.2743 70.2977 55.1754 66.285C55.1067 65.0372 55.2235 63.7853 55.521 62.5798C54.4979 65.9621 49.7831 75.648 46.1468 70.2208C44.2041 67.3151 43.4437 63.779 41.2591 60.927C36.3162 54.4775 28.1725 50.8876 24.2527 43.5233C22.5853 40.2268 21.7784 36.4783 21.9229 32.6997C22.3441 33.1634 22.8355 33.5407 23.3747 33.8143C23.7305 33.9891 24.0952 34.1406 24.467 34.2679C24.467 34.314 24.467 34.3678 24.467 34.4139C24.6398 39.8488 27.6332 44.9069 31.9332 48.3585C38.5353 53.6473 47.4948 56.2686 55.4381 53.5858C61.2452 51.6255 67.2596 45.8986 67.3357 38.7726C72.3908 44.383 76.1194 51.2966 78.1894 58.8976C79.1296 62.2415 81.0791 70.9895 75.3896 69.6596C73.617 69.1774 71.9994 68.1583 70.7162 66.7155C70.6618 67.0116 70.5926 67.3042 70.5088 67.5918C70.4743 67.7071 70.4328 67.8147 70.3913 67.93L71.1241 68.6065C72.9561 70.2285 76.4542 72.0427 78.7839 70.5514C81.1137 69.0601 80.3601 64.7014 80.0076 62.3338C79.1503 56.5146 76.551 50.6646 73.7857 45.7141C72.0781 42.6853 69.8867 40.3331 67.6952 37.8962L67.467 37.6426C67.626 32.077 61.0516 26.0503 58.5421 24.7281C58.522 24.7096 58.5035 24.689 58.4868 24.6666L58.1066 24.3361C51.5252 18.5322 41.8467 14.0737 33.385 15.1653C28.6011 15.7802 24.7988 19.5469 22.6488 24.2438C21.8676 23.5597 21.1003 23.3982 20.5126 24.3745C19.5171 26.0272 20.167 29.3173 20.8168 31.0316C20.8099 31.1161 20.7961 31.2238 20.7892 31.2699ZM58.1204 25.8889C55.5763 29.8093 47.7506 28.5948 44.5567 27.1342C41.7361 25.8581 39.6345 23.3905 36.9522 21.83C36.4917 21.5605 36.016 21.3243 35.5281 21.1228C34.8528 20.8284 34.1598 20.5869 33.4541 20.4002C30.4607 19.5931 27.0041 19.7007 25.898 22.8601C25.6491 23.552 26.6516 23.8441 26.8935 23.1676C27.654 21.0152 29.5897 20.6616 31.7327 21.0998C29.5402 22.1522 27.7018 23.9463 26.4787 26.2271C26.0989 26.9173 25.7683 27.6395 25.4901 28.3872C24.8951 27.2 24.2007 26.0778 23.4162 25.0356C25.1306 20.6308 28.3245 17.1793 33.0532 16.3721C39.4271 15.2729 46.6791 17.7558 52.5968 21.5533C54.3857 22.6832 56.0917 23.9684 57.6987 25.3969C57.8577 25.6198 57.9821 25.7659 58.0997 25.9119L58.1204 25.8889ZM65.8355 35.8361L65.7526 35.7438C64.8884 34.7522 64.045 33.7298 63.2569 32.669C62.2402 31.0887 61.3231 29.432 60.5124 27.7107C60.4225 27.5493 60.3257 27.3956 60.2289 27.2341C62.9942 29.7863 65.0336 32.1693 65.8355 35.8361ZM21.7363 30.4551C21.5134 29.816 21.3377 29.1579 21.2109 28.4871C20.962 27.2111 20.8514 25.7582 21.3284 25.1355C21.515 24.8895 21.8192 25.0125 22.1718 25.3431C22.4592 25.6344 22.723 25.9534 22.9599 26.2963C23.7201 27.4152 24.413 28.5887 25.0339 29.8093L25.2343 30.1937C25.2842 30.2858 25.3565 30.3603 25.4429 30.4086C25.5293 30.4569 25.6262 30.477 25.7225 30.4665C25.8187 30.4561 25.9103 30.4155 25.9866 30.3495C26.063 30.2836 26.1209 30.1949 26.1538 30.0938V30.0092C26.1538 29.8785 26.216 29.7478 26.2575 29.6095C26.752 27.696 27.6837 25.9575 28.9618 24.5632C30.2399 23.169 31.8209 22.1664 33.5509 21.6532C35.4462 22.3708 37.246 23.3688 38.9017 24.6205C41.0241 26.304 43.0496 27.9798 45.5868 28.81C49.0434 29.9323 56.0395 30.5242 58.7841 26.8498C59.5445 28.072 60.0907 29.4634 60.7958 30.7472C62.2567 33.2734 64.0432 35.5474 66.0982 37.4965C66.3505 39.663 65.9982 41.8634 65.0889 43.8C60.941 52.9785 50.2394 54.9003 42.1025 52.4788C34.2975 50.1727 25.8842 43.7846 25.6215 34.6522C26.2644 34.8521 26.5064 33.8297 25.898 33.5453L25.6146 33.4146C25.2689 33.2609 24.8887 33.0918 24.4877 32.8996C23.6706 32.5649 22.9177 32.0615 22.2686 31.4159C22.1753 31.3061 22.0876 31.1906 22.0059 31.07C21.8991 30.8882 21.8088 30.6951 21.7363 30.4935V30.4551Z" fill="#A71057"/>
<path d="M66.1817 102.85C63.4146 93.0397 56.4257 79.6519 45.0018 79.3494C38.2004 79.5532 32.9895 84.6822 28.9552 89.7914C25.5804 94.0721 20.8673 99.5824 20.098 105.244C19.9557 106.316 19.7747 108.137 21.1001 108.532C21.3585 108.597 21.6274 108.607 21.8899 108.562C22.1524 108.516 22.4029 108.417 22.6258 108.269C22.4448 109.275 22.3155 110.281 22.2185 111.247C22.031 113.22 21.475 117.659 23.1883 119.329C24.4813 120.565 25.6515 119.704 26.6601 118.066C27.0222 119 27.6105 119.592 28.535 119.572C30.6685 119.519 32.2008 115.666 32.9766 113.805C35.0066 117.954 38.5819 121.301 43.3726 121.367C46.0962 121.451 48.7817 120.699 51.0797 119.21C53.3777 117.721 55.1819 115.563 56.2576 113.016C56.66 114.474 57.3338 115.841 58.2424 117.04C59.0312 118 59.9751 118.434 60.9514 117.494C61.7539 116.611 62.2687 115.497 62.4254 114.305C63.2724 116.37 65.4382 120.032 66.6019 116.1C67.7656 112.168 67.2937 106.822 66.1817 102.85ZM27.3907 111.063C27.4553 110.504 28.1988 105.947 29.1169 106.98C30.0349 108.012 27.7721 113.555 27.1321 115.048C27.1211 113.716 27.2032 112.384 27.3777 111.063H27.3907ZM55.7081 111.99C53.6393 117.547 47.8206 121.407 41.8145 120.295C37.8836 119.572 35.2135 116.521 33.5972 113.003C33.5597 112.918 33.493 112.851 33.4097 112.812C34.6183 109.756 35.6396 106.627 36.4678 103.442C37.6487 99.098 38.6767 94.7143 39.5516 90.2911C40.1012 92.4216 41.1615 94.5586 42.7131 92.7109C43.4631 94.4074 44.7044 95.1636 46.0427 92.2177C46.1073 92.0665 46.2754 91.6786 46.45 91.1788C46.692 91.6082 47.0525 91.956 47.4868 92.1793C47.9212 92.4025 48.4104 92.4913 48.8938 92.4347C50.6394 92.1454 51.5575 90.1925 52.0811 88.2856C52.6847 94.8736 53.6626 101.421 55.0099 107.894C55.2685 109.071 55.5271 110.419 55.8762 111.76C55.7981 111.817 55.7394 111.898 55.7081 111.99ZM42.8941 89.0483C42.8941 88.9234 42.836 87.4965 42.8941 88.4763C42.9524 89.0507 42.974 89.6284 42.9588 90.2056C42.92 89.8045 42.9135 89.4034 42.8941 89.0483ZM61.5268 108.86C60.8205 106.357 60.2996 103.803 59.9686 101.22C59.9337 100.601 59.9576 99.9797 60.0398 99.3654C60.2079 99.3654 60.5764 100.904 60.6087 101.042C61.127 103.238 61.4302 105.48 61.5138 107.736C61.5268 107.973 61.5332 108.367 61.5268 108.86ZM65.4059 116.751C64.5589 117.179 63.5504 115.206 62.6323 112.516C62.6902 110.302 62.5778 108.085 62.2961 105.888C62.1991 104.863 61.7466 97.3861 59.6583 98.4711C58.5528 99.0497 59.1217 101.976 59.2252 102.818C59.6239 105.819 60.3525 108.766 61.3975 111.602C61.0871 115.232 60.2273 119.329 58.1649 115.12C56.7231 112.135 56.0702 108.637 55.4301 105.415C54.1371 98.7933 53.3548 92.0731 52.6824 85.3594C52.6371 84.886 51.8937 84.7019 51.7967 85.2345C51.4863 87.0296 49.4434 94.4403 46.9801 90.324C46.922 90.2222 46.8702 90.1168 46.825 90.0084C47.1805 88.6933 47.3357 87.2006 46.4177 86.9179C45.2345 86.5562 45.4737 88.5486 45.5966 89.1338C45.6606 89.4452 45.7493 89.7509 45.8617 90.0478C45.6871 90.8237 45.3703 92.0994 44.8919 92.5334C43.476 93.8485 43.6376 92.7241 43.2756 91.8758C43.7475 91.021 44.5686 87.674 43.1721 87.2138C42.0601 86.8455 42.0019 88.2395 41.989 89.0483C41.986 89.913 42.1013 90.7739 42.3317 91.6062C40.3921 93.4539 40.1141 89.0549 40.0301 87.7924C40.0301 87.3058 39.2478 87.1348 39.1443 87.6675C38.2004 92.8753 36.9914 98.07 35.6144 103.186C34.6858 106.932 33.4309 110.588 31.8646 114.108C31.1857 115.528 29.0651 120.223 27.6299 117.534C27.5151 117.305 27.4241 117.065 27.3583 116.817C28.3582 114.56 29.1336 112.208 29.6729 109.794C29.8474 108.92 30.6426 105.961 29.3238 105.448C28.2247 105.02 27.5006 106.881 27.2226 107.618C26.7441 108.854 25.8455 113.654 26.3368 116.784C25.5546 118.316 24.3973 119.763 23.3564 117.593C22.3155 115.423 23.0525 111.188 23.4469 108.966C23.5439 108.446 23.6473 107.914 23.7637 107.381C24.6482 106.426 25.4487 105.394 26.1558 104.297C26.5373 103.758 28.7936 100.963 27.6105 100.095C26.6924 99.4377 25.4382 101.187 25.0244 101.772C24.0324 103.302 23.3266 105.005 22.9426 106.796C22.7669 107.001 22.5284 107.139 22.2656 107.189C22.0029 107.239 21.7312 107.198 21.4944 107.072C20.5764 106.526 20.9449 105.494 21.1647 104.527C21.6267 102.812 22.3417 101.178 23.2853 99.681C27.7333 91.8692 35.1295 80.5593 45.0018 80.27C53.969 80.5067 59.7036 89.4034 63.0331 96.8667C64.3291 99.5808 65.2744 102.454 65.8455 105.415C66.1299 107.338 66.2467 109.283 66.1946 111.228C66.1817 112.181 66.3692 116.265 65.3929 116.764L65.4059 116.751ZM24.3908 105.152C24.708 104.207 25.1425 103.308 25.6839 102.476C25.9748 102.035 26.9058 100.575 26.8217 101.43C26.6989 102.476 25.1666 104.258 24.3908 105.152ZM49.6567 99.8914C50.0123 101.174 50.9497 104.343 49.5209 105.257C48.6546 105.816 47.9176 105.132 47.3616 104.218C47.3402 104.498 47.2264 104.763 47.0387 104.97C46.851 105.176 46.6003 105.312 46.3271 105.356C45.9981 105.371 45.6723 105.283 45.3945 105.103C45.1167 104.923 44.9005 104.66 44.7755 104.35C44.5363 105.507 43.9544 106.428 42.6614 105.869C40.9223 105.112 40.9417 101.594 40.9352 100.01C40.9352 99.8877 40.9829 99.7706 41.0677 99.6843C41.1526 99.598 41.2677 99.5495 41.3878 99.5495C41.5078 99.5495 41.6229 99.598 41.7078 99.6843C41.7926 99.7706 41.8403 99.8877 41.8403 100.01C41.797 101.344 41.9673 102.677 42.3446 103.955C42.461 104.297 42.7131 105.08 43.198 105.093C43.8833 105.093 43.9997 104.027 44.032 103.58C44.0688 103.053 44.0471 102.524 43.9674 102.002C43.8768 101.424 44.7173 101.167 44.8337 101.752C44.9501 102.338 45.1957 103.83 45.7776 104.166C46.812 104.757 46.4888 102.601 46.3724 102.002C46.339 101.884 46.3532 101.756 46.412 101.648C46.4708 101.541 46.5694 101.461 46.686 101.427C46.8026 101.393 46.9277 101.407 47.0338 101.467C47.1398 101.527 47.2182 101.627 47.2517 101.746C47.4973 102.482 48.8292 105.658 49.3011 103.633C49.5403 102.601 49.0684 101.167 48.7904 100.154C48.7738 100.043 48.7979 99.9294 48.8581 99.8349C48.9184 99.7404 49.0106 99.6716 49.1174 99.6417C49.2241 99.6117 49.338 99.6225 49.4374 99.6722C49.5367 99.7219 49.6148 99.8069 49.6567 99.9111V99.8914ZM48.8486 115.134C45.2798 116.672 41.0904 118.06 37.5474 115.745C37.0561 115.429 37.5087 114.634 38 114.956C41.2326 117.06 45.1117 115.745 48.3895 114.344C48.9197 114.114 49.3787 114.903 48.8486 115.134ZM50.523 96.6365C50.3808 97.1363 49.7989 97.6228 49.3464 97.1428C48.8938 96.6628 48.9326 95.3674 49.5985 95.0847C49.6396 95.0588 49.6861 95.043 49.7343 95.0387C49.7343 95.0387 49.7343 95.0387 49.7795 95.0387H49.883L49.9541 95.0715C50.5295 95.2688 50.6523 96.1565 50.523 96.6365ZM40.9158 97.1428C40.4632 96.6562 40.502 95.3674 41.1615 95.0847C41.2034 95.0606 41.2495 95.045 41.2972 95.0387H41.3425C41.3769 95.035 41.4116 95.035 41.4459 95.0387L41.5171 95.0715C42.0601 95.2688 42.1636 96.1565 42.0537 96.6365C41.9438 97.1165 41.3619 97.6228 40.9158 97.1428Z" fill="#A71057"/>
<path d="M98.457 57.6139C97.8126 57.4778 97.5383 58.4177 98.1828 58.5473C105.464 60.0448 114.568 61.244 121.204 57.2055C121.76 56.8684 121.246 56.0257 120.683 56.3628C114.307 60.2457 105.45 59.053 98.457 57.6139ZM90.9157 47.0608C90.9157 49.1805 93.1506 50.6649 95.0703 51.4298C95.2851 55.8032 95.4999 60.1809 95.7147 64.5629C95.7183 64.6681 95.7566 64.7697 95.8242 64.8533C95.8918 64.937 95.9853 64.9986 96.0918 65.0296L103.037 67.4086C105.395 68.2189 108.473 69.9237 110.996 70.1441C112.683 70.2867 114.794 69.1718 116.385 68.6727L123.823 66.3261C123.93 66.2951 124.023 66.2335 124.091 66.1498C124.158 66.0661 124.197 65.9646 124.2 65.8594C124.755 61.3048 124.984 56.7201 124.886 52.1364C127.018 51.5724 129.041 49.9389 128.999 47.709C128.958 45.4791 126.566 44.5975 124.577 44.3123C124.495 42.8214 124.392 41.3304 124.289 39.846C125.049 36.0289 125.25 32.131 124.886 28.2622C124.886 28.2622 124.886 28.2298 124.886 28.2103C124.886 28.1909 124.886 28.1585 124.886 28.1325C124.303 25.7859 121.115 24.0746 119.168 22.8365C115.9 20.7343 112.429 18.9285 108.802 17.4433C107.945 17.1062 104.463 15.4338 103.763 16.9182C103.427 17.6183 104.044 18.448 104.929 19.2129C102.872 18.5647 100.589 18.1174 99.7047 19.1157C99.5508 19.268 99.4454 19.4583 99.4005 19.6646C99.3557 19.871 99.3732 20.0851 99.4511 20.2825C96.9693 19.2713 93.7128 18.1887 92.2183 19.1935C90.7237 20.1982 92.5268 21.7021 94.0145 22.6809C93.2261 22.7847 92.4514 23.0439 92.3485 23.6987C92.0949 25.2609 95.5433 25.3646 95.5433 25.3646C94.7961 27.6704 94.3968 30.0643 94.3573 32.4757C94.3024 33.824 94.3573 35.1852 94.4052 36.5336C94.3093 36.6502 94.2201 36.7734 94.1379 36.8966L93.1781 36.728C92.5268 36.6178 92.2525 37.5578 92.9038 37.6615L93.6305 37.7846C93.3727 38.3547 93.1841 38.9505 93.0684 39.5608L92.6365 39.4635C91.992 39.3144 91.7178 40.2479 92.3622 40.397L92.9244 40.5266C92.8004 41.762 92.8581 43.0076 93.0958 44.228C93.0958 44.3188 93.1369 44.4095 93.1575 44.5003C92.5391 44.6311 91.9852 44.9547 91.5848 45.4191C91.1844 45.8835 90.9608 46.4617 90.9499 47.0608H90.9157ZM124.639 45.2976C126.223 45.5504 128.142 46.3283 127.957 48.0331C127.8 49.5824 126.353 50.626 124.859 51.1122C124.817 49.1805 124.715 47.2358 124.639 45.2976ZM123.398 41.9203L120.286 41.2721C119.436 38.031 117.379 34.4333 113.43 34.2388C111.051 34.3166 109.755 35.1269 109.104 36.378L106.307 35.4575C105.683 35.2501 105.416 36.19 106.033 36.3909L108.775 37.292C108.493 38.7172 108.474 40.1779 108.72 41.6092L104.833 41.3434C104.761 41.3264 104.685 41.3264 104.613 41.3434C104.613 41.2397 104.613 41.136 104.559 41.0387C104.031 37.843 102.139 35.2047 98.5804 34.7769C97.7746 34.7248 96.967 34.8513 96.222 35.1463C96.8596 32.547 97.3464 29.8827 98.0182 27.2898C98.3747 25.8702 98.3267 26.2916 99.9927 26.4471C101.903 26.5952 103.823 26.5843 105.731 26.4147C108.261 26.2255 110.771 25.8462 113.238 25.2803C115.295 24.8136 114.794 24.9692 116.666 26.4018C118.236 27.6075 120.039 28.7743 120.779 30.5893C122.034 33.6489 122.486 37.1947 123.193 40.4035C123.209 40.4801 123.249 40.5503 123.309 40.6044C123.343 41.0258 123.343 41.473 123.398 41.9203ZM104.49 54.9951C104.49 55.2803 104.49 55.572 104.49 55.8572C104.324 55.859 104.158 55.8786 103.996 55.9155C104.038 55.4229 104.092 54.9302 104.14 54.4376C104.346 52.292 104.559 50.1463 104.764 48.0072C104.957 47.164 105.047 46.3027 105.032 45.4402C105.135 44.403 105.23 43.3723 105.333 42.3352L108.501 42.5685C109.364 46.8339 110.224 51.0949 111.078 55.3516L110.667 55.384C110.715 54.2561 110.496 53.0374 109.296 53.0374C108.096 53.0374 107.843 54.4181 107.925 55.6303L107.191 55.6887C107.308 54.1329 107.191 51.9484 105.532 52.4475C104.538 52.7716 104.504 54.1913 104.49 54.9951ZM105.758 53.5106C106.177 53.1217 106.204 54.7617 106.204 55.008C106.204 55.2544 106.204 55.5136 106.163 55.76L105.518 55.8118C105.518 55.2868 105.32 53.9125 105.758 53.5106ZM109.289 54.0292C109.652 54.0292 109.687 54.7811 109.632 55.4877L108.946 55.5396C108.891 54.82 108.912 54.0292 109.289 54.0292ZM112.374 36.6697C112.374 36.728 112.429 36.7799 112.45 36.8382C111.826 36.5874 111.187 36.371 110.537 36.19C111.331 35.5328 112.362 35.1893 113.416 35.2306C116.268 35.3667 118.174 37.9467 118.956 40.2738C119.093 40.6887 119.264 41.1943 119.429 41.7583C119.427 41.8407 119.451 41.9219 119.497 41.9916C120.341 44.9411 121.006 49.1675 117.173 49.1221C112.436 49.1221 110.221 45.693 109.707 41.6481C109.46 40.3078 109.46 38.937 109.707 37.5966L111.003 38.0699C111.082 38.0905 111.165 38.0939 111.246 38.0797C111.327 38.0655 111.403 38.0341 111.469 37.9879C111.535 37.9417 111.589 37.8818 111.627 37.8129C111.665 37.744 111.686 37.6678 111.689 37.5902C112.249 37.8006 112.796 38.0408 113.327 38.3097C113.759 38.5236 114.328 38.0699 114.013 37.6615L113.958 37.5772C114.788 37.9825 115.57 38.4715 116.289 39.0357C116.796 39.4376 117.53 38.7505 117.016 38.3486C115.807 37.3924 114.44 36.6303 112.971 36.0928C112.888 36.0799 112.803 36.0861 112.724 36.1108C112.644 36.1355 112.572 36.1779 112.514 36.2345C112.455 36.2911 112.412 36.3602 112.388 36.436C112.363 36.5117 112.359 36.5919 112.374 36.6697ZM96.0301 49.3685C96.7666 49.9864 97.6284 50.4561 98.563 50.7492C99.4977 51.0423 100.486 51.1526 101.467 51.0733C102.227 51.0442 102.954 50.7671 103.523 50.2889L102.948 56.4601C102.949 56.5885 103.004 56.7112 103.1 56.802C103.196 56.8928 103.326 56.9445 103.462 56.9462L104.6 56.8555L105.614 56.7777L106.053 56.7388L107.082 56.661L108.048 56.5832L109.07 56.5054L109.515 56.4601L110.564 56.3823L111.689 56.298C111.771 56.2979 111.852 56.2793 111.926 56.2437C111.999 56.2081 112.062 56.1565 112.111 56.0932C112.159 56.0299 112.19 55.9567 112.203 55.8796C112.215 55.8025 112.208 55.7238 112.182 55.6498L110.372 46.6394C111.08 47.7365 112.081 48.637 113.276 49.2495C114.47 49.8621 115.815 50.1648 117.173 50.1269C121.972 50.1269 121.376 45.68 120.601 42.3482L123.508 42.938C123.666 45.6087 123.789 48.2859 123.858 50.9566C123.94 54.0616 123.906 57.1666 123.72 60.2652C123.638 61.607 123.885 64.0832 123.343 65.451C123.213 65.4916 123.084 65.5392 122.959 65.5936C122.432 65.8075 121.842 65.9436 121.3 66.1122L116.789 67.5383C115.171 68.0439 112.148 69.295 111.126 69.1394C108.453 68.731 105.587 67.2336 103.05 66.365L98.3542 64.7509C98.1142 64.6666 97.2641 64.3036 96.8459 64.2064C96.8459 63.8952 96.7636 63.3118 96.7568 63.1109L96.5922 59.8373C96.4505 56.9333 96.3089 54.0249 96.1672 51.1122V50.3343C96.0575 49.9778 96.0438 49.6796 96.0301 49.3685ZM95.4747 38.0828L97.1064 38.3486C97.4561 38.4069 97.8743 38.0958 97.7509 37.7587C98.2394 37.9831 98.6994 38.2593 99.122 38.5819C99.1985 38.636 99.2881 38.6712 99.3826 38.6843C99.4771 38.6975 99.5735 38.6882 99.6633 38.6573C99.7531 38.6265 99.8333 38.575 99.8968 38.5075C99.9603 38.44 100.005 38.3587 100.027 38.2708L101.398 39.0163C101.516 39.0807 101.657 39.0982 101.789 39.0647C101.92 39.0313 102.033 38.9497 102.101 38.838C102.169 38.7263 102.187 38.5935 102.152 38.4689C102.117 38.3443 102.03 38.238 101.912 38.1736L98.5393 36.365C98.463 36.3322 98.38 36.3158 98.2963 36.3169C98.2125 36.3179 98.13 36.3364 98.0547 36.3711C97.9794 36.4058 97.9131 36.4558 97.8606 36.5175C97.8081 36.5791 97.7706 36.6511 97.7509 36.728C97.3431 36.5906 96.9152 36.514 96.4825 36.5011C96.3982 36.503 96.3156 36.5244 96.2421 36.5636C96.1685 36.6027 96.1063 36.6584 96.0609 36.7257C96.0155 36.7929 95.9884 36.8697 95.9818 36.9493C95.9752 37.0288 95.9894 37.1087 96.0232 37.1818L95.7147 37.1299L95.8998 36.4817C96.6812 35.9634 97.6288 35.7182 98.5804 35.7881C101.206 36.0992 102.797 38.0439 103.379 40.384C103.764 41.9167 103.98 43.483 104.024 45.0577C103.948 45.8745 103.866 46.6913 103.791 47.5016C103.469 48.8434 102.776 49.8806 101.446 50.0945C100.414 50.2698 99.3506 50.1643 98.3796 49.7902C97.4085 49.416 96.5699 48.7887 95.9615 47.9812C95.797 44.6882 95.6347 41.3888 95.4747 38.0828ZM94.5492 39.9043L93.9185 39.7552C94.0275 39.2014 94.2118 38.6632 94.4669 38.1541L94.5492 39.9043ZM94.7617 44.2475C94.5461 44.2497 94.3309 44.2648 94.1173 44.2928C93.7998 43.1276 93.6864 41.921 93.7814 40.7211L94.5492 40.9026L94.7617 44.2475ZM94.8646 46.2764C94.6949 45.9391 94.5461 45.5928 94.419 45.2392H94.8097C94.8166 45.5698 94.8303 45.9199 94.8509 46.2764H94.8646ZM93.4112 45.4402C93.7471 46.4609 94.2666 47.4191 94.9468 48.2729L95.0497 50.3538C93.7334 49.7639 92.3074 48.785 92.0194 47.4691C91.9682 47.2494 91.9637 47.0223 92.0061 46.8009C92.0485 46.5795 92.1371 46.3683 92.2665 46.1795C92.396 45.9907 92.5639 45.8281 92.7604 45.7012C92.9569 45.5743 93.1781 45.4856 93.4112 45.4402ZM113.704 43.4177C113.019 43.126 112.895 42.1213 112.888 41.5249C112.882 40.9285 112.888 40.397 112.888 39.833C112.888 39.4765 112.847 39.1848 113.128 38.9125C113.192 38.8526 113.271 38.8096 113.358 38.788C113.444 38.7663 113.535 38.7668 113.622 38.7894C113.685 38.7685 113.753 38.7603 113.819 38.7652C113.886 38.7701 113.951 38.788 114.011 38.8178C114.07 38.8477 114.122 38.8888 114.164 38.9385C114.205 38.9883 114.236 39.0456 114.253 39.107C114.431 39.7034 115.452 44.1437 113.704 43.4177ZM99.5333 39.5673V39.5997C99.58 39.6254 99.6199 39.6609 99.6499 39.7034C99.6801 39.7443 99.7011 39.7906 99.7116 39.8395C99.7116 39.8395 99.7116 39.8395 99.7116 39.8719C100.046 41.0067 100.116 42.1965 99.9173 43.3594C99.7596 44.0076 98.9849 44.3252 98.5461 43.69C98.354 43.3108 98.2712 42.8904 98.3062 42.4713C98.3062 41.8749 98.2582 41.2721 98.2445 40.6692C98.2308 40.0664 98.6627 39.0163 99.5333 39.5673Z" fill="#A71057"/>
<path d="M145.553 133.736C144.967 133.686 144.376 133.734 143.807 133.879C143.727 133.054 143.83 132.221 144.109 131.44C144.542 130.703 146.223 130.605 146.905 129.561C147.956 127.943 147.115 127.011 145.848 126.561C147.608 125.876 149.453 124.676 148.757 122.862C148.642 122.536 148.427 122.254 148.142 122.056C147.857 121.858 147.516 121.754 147.168 121.76C148.061 119.979 147.916 117.637 145.75 117.194C144.949 117.126 144.143 117.207 143.373 117.435C143.56 116.834 143.623 116.202 143.557 115.576C142.901 112.843 140.997 113.169 139.257 114.272C139.867 112.426 139.552 110.528 136.946 110.058C136.553 109.971 136.144 109.985 135.758 110.099C135.371 110.213 135.021 110.424 134.74 110.71C134.742 110.39 134.663 110.074 134.511 109.791C134.358 109.508 134.137 109.268 133.867 109.093C132.948 108.649 132.252 109.438 131.746 110.541C131.51 108.264 130.558 106.457 127.846 108.479C127.61 108.678 127.39 108.896 127.19 109.132C126.795 108.647 126.286 108.267 125.707 108.025C125.129 107.784 124.499 107.689 123.874 107.749C119.581 108.062 118.911 111.213 120.073 114.122C119.688 113.884 119.241 113.765 118.788 113.779C118.334 113.793 117.896 113.939 117.526 114.2C115.832 115.472 117.362 116.985 118.675 117.807C116.979 120.488 115.623 123.367 114.637 126.378C113.889 126.015 113.059 125.849 112.228 125.895C110.527 126.032 109.477 127.546 109.149 129.091C108.912 130.181 108.84 131.883 109.858 132.64C110.767 133.161 111.809 133.412 112.858 133.364C112.556 134.962 112.313 136.56 112.123 138.125C111.387 144.25 111.466 152.991 118.616 155.313C123.152 156.781 130.532 156.317 134.937 154.335C140.097 152.012 142.159 146.507 143.111 141.289C143.662 141.641 144.295 141.847 144.949 141.889C146.918 141.98 149.032 140.017 149 138.054C148.967 136.09 147.542 133.938 145.553 133.736ZM127.065 110.841C127.266 111.41 127.383 112.006 127.413 112.608C127.485 114.233 126.757 114.767 126.573 112.648C126.574 112.013 126.744 111.39 127.065 110.841ZM111.197 132.144C109.884 131.792 109.851 130.546 110.094 129.365C110.402 127.878 111.407 126.632 113.075 126.919C113.512 127.002 113.935 127.142 114.335 127.337C113.823 129.007 113.403 130.703 113.055 132.392C112.428 132.376 111.805 132.293 111.197 132.144ZM144.568 140.865C144.105 140.733 143.672 140.511 143.294 140.213C143.023 140.016 142.769 139.798 142.533 139.56C142.37 139.404 142.219 139.236 142.08 139.058C141.699 138.562 140.846 139.058 141.226 139.547C141.56 139.984 141.941 140.382 142.362 140.735C141.64 145.085 140.156 149.26 136.952 151.921C133.171 155.078 127.538 155.013 122.89 154.915C112.064 154.687 111.322 143.709 113.646 133.39C113.718 133.07 113.797 132.738 113.876 132.431C114.256 130.866 114.709 129.32 115.189 127.865C115.302 127.539 115.414 127.219 115.523 126.906C116.577 123.735 117.996 120.695 119.751 117.846C119.81 117.772 119.842 117.68 119.842 117.585C119.842 117.491 119.81 117.399 119.751 117.324C119.716 117.269 119.669 117.223 119.614 117.187C117.69 115.942 118.346 114.637 120.204 115.335C120.761 115.653 121.246 116.081 121.629 116.594C122.043 117.07 122.732 116.379 122.325 115.902C121.347 114.78 120.165 113.039 120.323 111.493C120.539 109.262 123.92 107.899 125.778 109.034C126.092 109.235 126.362 109.497 126.573 109.804C125.673 111.108 125.155 112.824 125.726 114.187C126.133 115.146 127.085 115.876 127.951 115.022C128.982 114.011 128.372 111.317 127.899 110.241C127.846 110.11 127.774 109.993 127.715 109.869C128.45 108.962 129.409 108.388 130.184 108.995C131.438 109.973 130.919 112.693 130.696 114.161C130.597 114.767 131.51 115.048 131.641 114.422C131.753 113.9 131.877 113.378 132.028 112.869C132.258 112.074 132.849 109.608 133.584 110.593C133.836 111.097 133.921 111.668 133.827 112.224C133.477 113.314 133.3 114.451 133.302 115.596C133.302 116.131 134.182 116.281 134.267 115.726C134.353 115.172 134.655 113.769 134.766 112.465C134.928 112.116 135.148 111.796 135.416 111.519C135.671 111.28 135.967 111.088 136.289 110.952C137.169 110.554 139.375 110.952 137.924 115.035C137.869 115.195 137.791 115.346 137.694 115.485C137.348 115.833 137.026 116.204 136.729 116.594L136.65 116.692C136.309 117.142 137.038 117.67 137.425 117.285C137.773 116.934 138.085 116.549 138.357 116.137C139.08 115.322 140.012 114.467 140.819 114.441C142.421 114.383 142.789 116.052 142.52 117.703C140.242 118.427 137.963 119.829 139.454 121.512C140.944 123.195 142.375 120.651 143.13 118.375C143.61 118.223 144.106 118.127 144.607 118.088C146.951 118.022 147.089 120.573 145.967 122.001C145.457 122.189 145.005 122.503 144.653 122.914C144.384 123.254 144.653 123.906 145.133 123.73C145.639 123.549 146.091 123.244 146.446 122.843C147.102 122.608 147.759 122.843 147.365 124.552C147.115 125.647 144.384 126.071 143.485 126.254C142.933 126.358 143.071 127.219 143.616 127.213C144.837 127.213 146.551 128.185 145.586 129.502C145.192 130.044 144.161 130.155 143.616 130.155C143.486 130.156 143.362 130.208 143.27 130.3C143.178 130.391 143.125 130.515 143.124 130.644C143.124 131.74 143.052 132.92 142.999 134.14C142.445 134.328 141.911 134.568 141.404 134.858C141.29 134.923 141.208 135.031 141.175 135.157C141.142 135.283 141.16 135.417 141.226 135.529C141.293 135.642 141.401 135.724 141.528 135.757C141.655 135.79 141.789 135.771 141.903 135.705C142.238 135.509 142.587 135.337 142.946 135.19C143.233 135.074 143.527 134.976 143.826 134.897L144.26 134.786C146.229 134.394 147.431 135.601 147.91 137.428C148.389 139.254 146.42 141.282 144.568 140.865ZM142.264 118.622C141.942 119.581 141.417 120.384 140.819 120.579C139.769 120.938 141.154 119.203 141.601 118.942C141.814 118.821 142.036 118.715 142.264 118.622ZM124.997 120.586C124.645 119.994 124.466 119.316 124.478 118.629C124.675 117.801 125.535 117.814 126.356 118.114C126.144 118.392 126.021 118.727 126.001 119.075C125.981 119.424 126.066 119.77 126.244 120.07C126.518 120.436 126.9 120.708 127.336 120.849C127.773 120.989 128.243 120.991 128.68 120.853C129.593 120.429 129.376 119.392 128.877 118.727C128.581 118.343 128.218 118.014 127.807 117.755C128.332 117.044 129.015 116.392 129.947 116.913C130.371 117.205 130.715 117.595 130.951 118.05C131.187 118.505 131.307 119.011 131.3 119.523C131.3 120.175 132.317 120.175 132.284 119.523C132.291 118.766 132.088 118.022 131.698 117.372C131.308 116.722 130.745 116.191 130.072 115.837C128.877 115.296 127.853 116.111 127.124 117.011L126.914 117.279C126.507 117.11 126.079 117 125.64 116.953C123.014 116.705 123.343 119.438 124.144 121.075C124.432 121.649 125.286 121.16 125.01 120.586H124.997ZM127.288 118.551C127.531 118.698 127.752 118.878 127.945 119.085C128.372 119.633 128.037 120.305 127.393 119.738C126.967 119.418 127.065 118.975 127.288 118.551ZM120.913 125.967C121.688 125.566 122.584 125.461 123.431 125.673C124.278 125.884 125.018 126.397 125.509 127.115C125.87 127.637 125.017 128.126 124.662 127.611C124.306 127.105 123.776 126.745 123.173 126.597C122.569 126.449 121.932 126.525 121.38 126.808C120.848 127.102 120.349 126.261 120.913 125.967ZM136.926 130.292C136.966 130.944 135.981 130.944 135.941 130.292C135.962 129.887 135.876 129.485 135.692 129.124C135.42 128.844 135.052 128.674 134.661 128.648C134.252 128.578 133.833 128.601 133.434 128.714C133.035 128.827 132.667 129.027 132.357 129.3C131.825 129.652 131.333 128.804 131.858 128.459C132.365 128.07 132.963 127.813 133.596 127.711C134.228 127.61 134.877 127.667 135.482 127.878C136.611 128.198 136.86 129.183 136.926 130.292ZM122.345 143.135C122.505 143.01 122.654 142.873 122.791 142.724C123.197 143.105 123.706 143.361 124.255 143.461C124.705 143.55 125.17 143.529 125.61 143.401C126.05 143.273 126.453 143.04 126.783 142.724C126.958 143.002 127.198 143.235 127.483 143.403C127.767 143.571 128.087 143.669 128.418 143.689C130.715 143.781 132.245 139.639 132.311 137.819C132.311 137.167 131.346 137.167 131.326 137.819C131.287 138.98 129.645 143.507 127.873 142.385C127.703 142.271 127.559 142.122 127.452 141.948C128.122 140.946 128.497 139.778 128.536 138.576C128.536 136.99 127.341 135.614 126.356 137.519C125.839 138.91 125.839 140.439 126.356 141.83C126.18 142.036 125.962 142.202 125.716 142.317C125.471 142.432 125.203 142.493 124.932 142.498C124.66 142.502 124.391 142.449 124.142 142.342C123.893 142.234 123.67 142.076 123.487 141.876C124.57 140.147 125.05 137.525 123.973 136.006C122.502 133.951 121.504 137.343 121.419 138.432C121.317 139.636 121.583 140.843 122.181 141.896C121.932 142.124 121.643 142.303 121.327 142.424C117.5 143.885 119.266 137.271 119.705 135.51C120.106 133.912 120.572 132.327 121.117 130.774C121.327 130.181 120.375 129.92 120.172 130.513C119.567 132.224 119.057 133.966 118.642 135.732C118.182 137.688 117.375 140.467 118.209 142.398C118.918 143.989 121.012 144.126 122.345 143.135ZM127.026 138.569C127.236 137.369 127.781 137.578 127.393 139.613C127.314 139.998 127.188 140.372 127.019 140.728C126.877 140.017 126.879 139.285 127.026 138.576V138.569ZM122.627 137.141C122.942 136.156 123.244 136.306 123.336 137.297C123.481 138.038 123.481 138.8 123.336 139.541C123.232 140.07 123.053 140.582 122.804 141.061C122.03 139.828 122.286 138.119 122.627 137.147V137.141Z" fill="black"/>
<path d="M117.571 150.929C117.936 150.405 118.26 149.962 118.728 149.562C119.739 148.698 120.747 147.54 121.932 147.095C122.899 146.732 123.913 146.742 124.91 146.742C125.722 146.742 126.344 147.072 126.999 147.701C127.662 148.338 128.234 148.938 128.644 149.863C128.751 150.104 128.861 150.408 128.929 150.672C128.976 150.851 129.062 151.268 128.929 150.842" stroke="black" stroke-width="0.857138" stroke-linecap="round"/>
</svg>
