<svg width="52" height="63" viewBox="0 0 52 63" fill="none" xmlns="http://www.w3.org/2000/svg">
<path d="M51.9605 36.4734L51.957 36.4206C51.7456 32.8598 50.9015 29.3651 49.4641 26.1004C49.4447 26.0603 49.423 26.0215 49.399 25.984C47.48 22.986 45.6632 21.487 43.9484 21.4871C43.7102 21.4872 43.4728 21.5161 43.2416 21.5733C43.2282 21.5766 43.2187 21.5866 43.2054 21.5904C42.7498 20.8922 42.238 20.2324 41.6751 19.6174L41.6511 19.5925C41.0567 18.9631 40.3383 18.4637 39.5413 18.1257C38.7442 17.7878 37.8858 17.6186 37.0201 17.6288C36.5751 17.6343 36.1312 17.6751 35.6926 17.751C35.3365 17.3383 34.9499 16.9531 34.5359 16.5985C33.0193 15.3026 31.0678 14.6285 29.0747 14.7115C28.8878 14.7115 28.6832 14.7387 28.4905 14.7475C27.0757 11.4569 25.2129 8.37772 22.9549 5.59725L22.926 5.56122C20.3318 2.46275 17.7536 0.91347 15.1912 0.913391C13.5535 0.957572 11.9725 1.52289 10.6781 2.52719C9.9932 2.96739 9.4878 3.63742 9.25269 4.41687C9.01759 5.19632 9.0682 6.03407 9.39543 6.77955L9.42021 6.84678C9.64894 7.37714 9.92359 7.8865 10.241 8.36904L10.2953 8.44738C12.1562 10.8067 13.8367 13.3029 15.3223 15.9148C16.5331 18.3304 17.5013 20.86 18.2139 23.4664C18.602 25.2123 18.7181 27.0075 18.5601 28.789L18.5569 28.8319C18.4743 30.0794 18.3207 31.3211 18.097 32.5511C17.1704 30.8721 16.1461 29.2489 15.0295 27.6898C13.8859 26.107 12.4042 24.7974 10.6937 23.8553H10.69C9.57158 23.1872 8.29181 22.8373 6.98899 22.8436C6.45534 22.8452 5.92301 22.8966 5.3989 22.997H5.39153C3.61434 23.4158 2.02961 24.4201 0.892142 25.8484C0.737435 26.0142 0.636465 26.2229 0.602482 26.4471C0.5685 26.6713 0.603094 26.9005 0.701724 27.1047C0.711133 27.3252 0.785021 27.5381 0.914237 27.7171C1.04345 27.8961 1.22232 28.0332 1.4287 28.1115C2.86053 28.6545 4.72456 30.9913 7.02076 35.122C7.64646 36.5105 8.1757 37.9397 8.60853 39.3999C10.0756 44.9843 11.1599 48.7465 11.8642 50.6863C12.4116 52.4559 13.2041 54.1402 14.2188 55.6899H14.2114C15.2886 57.8825 19.179 60.0713 25.8826 62.2563C26.0238 62.303 26.1728 62.3213 26.3211 62.3102C26.4693 62.2991 26.614 62.2589 26.7466 62.1917C26.8793 62.1246 26.9975 62.032 27.0942 61.9191C27.191 61.8062 27.2646 61.6753 27.3107 61.534C27.3567 61.3926 27.3745 61.2435 27.3628 61.0953C27.3511 60.947 27.3103 60.8026 27.2426 60.6701C27.175 60.5377 27.0818 60.42 26.9686 60.3236C26.8553 60.2273 26.7241 60.1543 26.5826 60.1088C20.3675 58.0827 16.9114 56.2601 16.2143 54.6409C16.181 54.5636 16.1392 54.4903 16.0896 54.4223C15.1824 53.0335 14.477 51.5229 13.9946 49.9357L13.9875 49.9154C13.3044 48.0334 12.2346 44.3193 10.7781 38.7731L10.7628 38.72C10.2923 37.1328 9.7105 35.5808 9.02166 34.0756L8.99517 34.0249C7.6388 31.1896 5.70824 28.667 3.32586 26.6169C3.97067 25.9262 4.80692 25.4437 5.72756 25.2311L5.8041 25.2194C6.18816 25.1449 6.57838 25.1067 6.96959 25.1052C7.87416 25.0984 8.76342 25.3388 9.5413 25.8005L9.6009 25.8333C11.0367 26.6229 12.277 27.7247 13.2304 29.0574L13.2672 29.1033C14.9555 31.5669 16.5056 34.1225 17.9104 36.7581C18.0589 37.0174 18.3041 37.2073 18.5923 37.2862C18.8805 37.3651 19.1883 37.3265 19.4482 37.179C19.708 37.0314 19.8988 36.7869 19.9788 36.499C20.0587 36.211 20.0213 35.9032 19.8748 35.6427C19.7626 35.4452 19.662 35.2703 19.5534 35.0798C19.6425 34.9886 19.7225 34.8888 19.7923 34.7821C19.9959 34.4249 20.1347 34.0347 20.2025 33.6292L20.2044 33.619C20.5024 32.0917 20.7047 30.5472 20.8103 28.9947C20.9908 26.9666 20.855 24.9227 20.4091 22.936L20.3982 22.8914C19.6444 20.1286 18.6179 17.4475 17.3338 14.8877L17.3178 14.8567C15.7925 12.1641 14.0658 9.59065 12.1527 7.15826H12.1478C11.9185 6.80967 11.7158 6.44428 11.5415 6.06519H11.5383C11.4 5.77368 11.3699 5.44255 11.4533 5.1309C11.5366 4.81924 11.728 4.54735 11.9933 4.36376L11.9953 4.36241C12.8924 3.67216 13.9867 3.28683 15.1183 3.2627C16.3427 3.40815 17.5206 3.8189 18.57 4.46631C19.6193 5.11372 20.5148 5.98222 21.1941 7.01125C23.3416 9.64569 25.1063 12.5692 26.4391 15.6959L26.4478 15.718C26.4713 15.7763 26.4936 15.8434 26.5171 15.9031C26.5086 15.9561 26.5042 16.0098 26.5039 16.0635C26.5356 16.2985 26.6417 16.5171 26.8068 16.6873C27.7212 19.626 28.3544 22.645 28.6979 25.7035C28.7339 25.9747 28.8671 26.2236 29.0727 26.4041C29.2783 26.5845 29.5424 26.6842 29.816 26.6846C29.8661 26.6846 29.9161 26.6813 29.9658 26.6747C30.1128 26.6552 30.2546 26.607 30.383 26.5328C30.5114 26.4585 30.6239 26.3597 30.7141 26.2419C30.8043 26.1242 30.8704 25.9899 30.9087 25.8466C30.9469 25.7033 30.9566 25.5539 30.9371 25.4068C30.5977 22.5615 30.041 19.7464 29.2718 16.986C30.6413 16.9499 31.9774 17.4115 33.0325 18.2852L33.0602 18.309C35.067 20.1923 36.4025 22.6806 36.8627 25.394C36.9318 25.6841 37.1129 25.9351 37.3665 26.0923C37.62 26.2494 37.9254 26.2998 38.216 26.2326C38.5066 26.1653 38.7588 25.9859 38.9176 25.7333C39.0763 25.4808 39.1288 25.1758 39.0634 24.8847C38.6856 23.1511 38.0651 21.4794 37.2202 19.9192C38.2879 19.9577 39.2991 20.4085 40.0413 21.177C41.9049 23.3568 43.2128 25.955 43.8552 28.7499C43.9326 29.0393 44.1218 29.2861 44.3811 29.4359C44.6404 29.5858 44.9486 29.6266 45.238 29.5492C45.5274 29.4718 45.7741 29.2827 45.924 29.0234C46.0739 28.764 46.1146 28.4558 46.0373 28.1665C45.6484 26.686 45.1254 25.2442 44.4746 23.8587C45.7538 24.6876 46.7935 25.8369 47.4905 27.1923H47.4828C48.7646 30.1832 49.5173 33.3739 49.7073 36.6223C49.8509 39.5312 49.5506 42.4451 48.8192 45.2642L48.8104 45.2998C47.8011 49.7907 46.3027 54.1576 44.3421 58.3221C44.2774 58.4559 44.2396 58.6011 44.2311 58.7495C44.2226 58.898 44.2434 59.0466 44.2925 59.1869C44.3415 59.3272 44.4177 59.4565 44.5168 59.5673C44.6159 59.6781 44.7359 59.7682 44.87 59.8326C45.004 59.8969 45.1494 59.9341 45.2978 59.9421C45.4462 59.9502 45.5948 59.9288 45.7349 59.8793C45.8751 59.8298 46.0041 59.7531 46.1146 59.6536C46.225 59.5541 46.3148 59.4338 46.3786 59.2996C48.4057 54.9973 49.9562 50.4863 51.0023 45.8468C51.7969 42.7893 52.1197 39.6284 51.9605 36.4734Z" fill="white"/>
</svg>
